<svg xmlns="http://www.w3.org/2000/svg">
<defs>
<font id="DBAdmanX-Light" horiz-adv-x="0" >
  <font-face 
    font-family="DB Adman X"
    font-weight="300"
    font-stretch="normal"
    units-per-em="1000"
    panose-1="2 0 5 6 9 0 0 2 0 4"
    ascent="800"
    descent="-200"
    x-height="365"
    cap-height="528"
    bbox="-423 -323 942 775"
    underline-thickness="20"
    underline-position="-113"
    unicode-range="U+0020-U+F882"
  />
<missing-glyph horiz-adv-x="414" 
d="M422 400v-14h6c4.66699 0 7 3 7 9c0 0.666992 -0.5 1.66699 -1.5 3s-2.83301 2 -5.5 2h-6zM425 385h-3v-14h-5v34h11c8 0 12 -3.33301 12 -10c0 -4.66699 -1 -7.5 -3 -8.5s-4.33301 -1.5 -7 -1.5l10 -14h-5zM428 366c8.66699 0 14.5 2.33301 17.5 7s4.5 9 4.5 13
c0 16 -7.33301 24 -22 24c-15.333 0 -23 -8 -23 -24c0 -5.33301 1.83301 -10 5.5 -14s9.5 -6 17.5 -6zM428 413c8.66699 0 15 -2.66699 19 -8s6 -11.666 6 -18.999c0 -5.33301 -2 -10.5 -6 -15.5s-10.333 -7.5 -19 -7.5c-8 0 -14.333 2.5 -19 7.5s-7 10.167 -7 15.5
c0 7.33301 2.33301 13.666 7 18.999s11 8 19 8zM201 316c10.667 -0.666992 23.1689 -1.99805 37.502 -3.99805s28.666 -4.33301 42.999 -7s27.5 -5.83398 39.5 -9.50098s21 -7.83398 27 -12.501c-13.333 26.667 -34 47.167 -62 61.5s-56.667 21.5 -86 21.5
c-22.667 0 -44.334 -4.33301 -65.001 -13s-37.667 -22 -51 -40c12 1.33301 24 2.33301 36 3s24 1 36 1h22.5c7.66699 0 15.167 -0.333008 22.5 -1zM375.002 395.002l-0.000976562 -142c-32 10 -68.5 18.5 -109.5 25.5s-84.5 10.5 -130.5 10.5c-32 0 -63.333 -2 -94 -6
c4 14.667 10.333 28.834 19 42.501s19.667 25.667 33 36s28.833 18.5 46.5 24.5s37.167 9 58.5 9c20.667 0 39.334 -2.33301 56.001 -7s31.167 -10.334 43.5 -17.001s22.833 -14 31.5 -22s15 -15 19 -21c0 -0.666992 0 1.5 0 6.5s-0.166992 11.167 -0.5 18.5
s-0.5 15 -0.5 23v19h28zM153.001 127.002c0 5.33301 -1.83301 9.33301 -5.5 12s-7.5 4 -11.5 4c-4.66699 0 -8.66699 -1.33301 -12 -4s-5 -6.66699 -5 -12s1.66699 -9.16602 5 -11.499s7.33301 -3.5 12 -3.5c4 0 7.83301 1.16699 11.5 3.5s5.5 6.16602 5.5 11.499z

<glyph glyph-name="plusminus" unicode="&#x2b;&#x2d;" horiz-adv-x="380" 
d="M207 204v-145h-35v145h-145v35h145v146h35v-146h146v-35h-146zM27 0v35h326v-35h-326z" />
    <glyph glyph-name="ellipsis" unicode="&#x2e;&#x2e;&#x2e;" horiz-adv-x="448" 
d="M405 31c0 -9.33301 -3.5 -17.5 -10.5 -24.5s-15.167 -10.5 -24.5 -10.5s-17.5 3.5 -24.5 10.5s-10.5 15.167 -10.5 24.5s3.5 17.5 10.5 24.5s15.167 10.5 24.5 10.5s17.5 -3.5 24.5 -10.5s10.5 -15.167 10.5 -24.5zM259 31c0 -9.33301 -3.5 -17.5 -10.5 -24.5
s-15.167 -10.5 -24.5 -10.5s-17.5 3.5 -24.5 10.5s-10.5 15.167 -10.5 24.5s3.5 17.5 10.5 24.5s15.167 10.5 24.5 10.5s17.333 -3.5 24 -10.5s10 -15.167 10 -24.5h1zM113 31c0 -9.33301 -3.5 -17.5 -10.5 -24.5s-15.167 -10.5 -24.5 -10.5s-17.5 3.5 -24.5 10.5
s-10.5 15.167 -10.5 24.5s3.5 17.5 10.5 24.5s15.167 10.5 24.5 10.5s17.333 -3.5 24 -10.5s10 -15.167 10 -24.5h1z" />
    <glyph glyph-name="lessequal" unicode="&#x3c;&#x3d;" horiz-adv-x="372" 
d="M27 257v41l317 157v-37l-277 -140l277 -150v-35zM344 28v-35l-317 164v43z" />
    <glyph glyph-name="greaterequal" unicode="&#x3e;&#x3d;" horiz-adv-x="372" 
d="M27 93v35l277 150l-277 140v37l317 -157v-41zM344 200v-43l-317 -164v35z" />
    <glyph glyph-name="fongmanfunnuthai" unicode="&#xe4f;&#x22;" horiz-adv-x="513" 
d="M309 443h-28l-8 129h44zM226 443h-26l-8 129h43zM465 202c0 -29.333 -5.5 -56.666 -16.5 -81.999s-26 -47.5 -45 -66.5s-41.333 -34 -67 -45s-52.834 -16.5 -81.501 -16.5c-29.333 0 -56.666 5.5 -81.999 16.5s-47.5 26 -66.5 45s-34 41.167 -45 66.5
s-16.5 52.666 -16.5 81.999c0 28.667 5.5 55.834 16.5 81.501s26 48 45 67s41.167 34 66.5 45s52.666 16.5 81.999 16.5c28.667 0 55.834 -5.5 81.501 -16.5s48 -26 67 -45s34 -41.333 45 -67s16.5 -52.834 16.5 -81.501zM428 201c0 24 -4.50098 46.5 -13.501 67.5
s-21.333 39.333 -37 55s-34 28.167 -55 37.5s-43.5 14 -67.5 14s-46.5 -4.5 -67.5 -13.5s-39.333 -21.333 -55 -37s-28 -34 -37 -55s-13.5 -43.5 -13.5 -67.5s4.5 -46.5 13.5 -67.5s21.333 -39.333 37 -55s34 -28 55 -37s43.5 -13.5 67.5 -13.5s46.333 4.5 67 13.5
s38.834 21.333 54.501 37s28 34 37 55s13.5 43.5 13.5 67.5zM361.999 202c0 -14.667 -2.83301 -28.5 -8.5 -41.5s-13.334 -24.333 -23.001 -34s-21 -17.334 -34 -23.001s-26.833 -8.5 -41.5 -8.5s-28.5 2.83301 -41.5 8.5s-24.333 13.334 -34 23.001s-17.334 21 -23.001 34
s-8.5 26.833 -8.5 41.5s2.83301 28.5 8.5 41.5s13.334 24.333 23.001 34s21 17.334 34 23.001s26.833 8.5 41.5 8.5s28.5 -2.83301 41.5 -8.5s24.333 -13.334 34 -23.001s17.334 -21 23.001 -34s8.5 -26.833 8.5 -41.5zM325.999 202c0 20 -6.83301 36.833 -20.5 50.5
s-30.5 20.5 -50.5 20.5s-36.833 -6.83301 -50.5 -20.5s-20.5 -30.5 -20.5 -50.5s6.83301 -36.833 20.5 -50.5s30.5 -20.5 50.5 -20.5s36.833 6.83301 50.5 20.5s20.5 30.5 20.5 50.5z" />
    <glyph glyph-name="dochadaphinthuthai" unicode="&#xe0e;&#xe3a;" horiz-adv-x="465" 
d="M427 -224c0 -8 -2.83301 -14.833 -8.5 -20.5s-12.5 -8.5 -20.5 -8.5c-8.66699 0 -15.834 2.83301 -21.501 8.5s-8.5 12.5 -8.5 20.5s2.83301 15 8.5 21s12.5 9 20.5 9c8.66699 0 15.834 -3 21.501 -9s8.5 -13 8.5 -21zM325 -168c-39.333 31.333 -84.668 47 -136.001 47
s-96.666 -15.667 -135.999 -47l-22 26c22.667 17.333 47 30.833 73 40.5s54 14.5 84 14.5c24.667 0 48.167 -3.33301 70.5 -10s43.166 -15.667 62.499 -27l66 65v321c0 24 -4.33301 45.833 -13 65.5s-20.5 36.5 -35.5 50.5s-32.833 24.833 -53.5 32.5s-43 11.5 -67 11.5
c-30 0 -57.667 -7.66699 -83 -23s-45.666 -34 -60.999 -56l37 -41v-302h-81v35h46v257l-44 50c8.66699 16 19.667 31 33 45s28 26 44 36s33.333 18 52 24s37.667 9 57 9c30 0 57.5 -4.83301 82.5 -14.5s46.5 -23 64.5 -40s32 -37.5 42 -61.5s15 -50 15 -78v-335z" />
    <glyph glyph-name="topatakphintuthai" unicode="&#xe0f;&#xe3a;" horiz-adv-x="465" 
d="M325 -169l-76.001 74l-75 -74l-109 108l25 24l84 -83l76 74l76 -75l61 61v321c0 24 -4.33301 45.833 -13 65.5s-20.5 36.5 -35.5 50.5s-32.833 24.833 -53.5 32.5s-43 11.5 -67 11.5c-30 0 -57.667 -7.5 -83 -22.5s-45.666 -33.5 -60.999 -55.5l37 -41v-302h-81v35h46
v256l-44 50c18 32.667 43.5 60 76.5 82s69.5 33 109.5 33c30 0 57.5 -4.83301 82.5 -14.5s46.5 -23.167 64.5 -40.5s32 -38 42 -62s15 -50 15 -78v-334zM426.999 -224c0 -8 -2.83301 -14.833 -8.5 -20.5s-12.5 -8.5 -20.5 -8.5c-8.66699 0 -15.834 2.83301 -21.501 8.5
s-8.5 12.5 -8.5 20.5s2.83301 15 8.5 21s12.5 9 20.5 9c8.66699 0 15.834 -3 21.501 -9s8.5 -13 8.5 -21z" />
    <glyph glyph-name="dochadasarauthai" unicode="&#xe0e;&#xe38;" horiz-adv-x="465" 
d="M325 -168c-39.333 31.333 -84.668 47 -136.001 47s-96.666 -15.667 -135.999 -47l-22 26c22.667 17.333 47 30.833 73 40.5s54 14.5 84 14.5c24.667 0 48.167 -3.33301 70.5 -10s43.166 -15.667 62.499 -27l66 65v321c0 24 -4.33301 45.833 -13 65.5
s-20.5 36.5 -35.5 50.5s-32.833 24.833 -53.5 32.5s-43 11.5 -67 11.5c-30 0 -57.667 -7.66699 -83 -23s-45.666 -34 -60.999 -56l37 -41v-302h-81v35h46v257l-44 50c8.66699 16 19.667 31 33 45s28 26 44 36s33.333 18 52 24s37.667 9 57 9c30 0 57.5 -4.83301 82.5 -14.5
s46.5 -23 64.5 -40s32 -37.5 42 -61.5s15 -50 15 -78v-335zM387.998 -315v81.999h-41v34h54c6 0 11 -2.16699 15 -6.5s6 -9.16602 6 -14.499v-95h-34z" />
    <glyph glyph-name="topataksarauthai" unicode="&#xe0f;&#xe38;" horiz-adv-x="465" 
d="M325 -169l-76.001 74l-75 -74l-109 108l25 24l84 -83l76 74l76 -75l61 61v321c0 24 -4.33301 45.833 -13 65.5s-20.5 36.5 -35.5 50.5s-32.833 24.833 -53.5 32.5s-43 11.5 -67 11.5c-30 0 -57.667 -7.5 -83 -22.5s-45.666 -33.5 -60.999 -55.5l37 -41v-302h-81v35h46
v256l-44 50c18 32.667 43.5 60 76.5 82s69.5 33 109.5 33c30 0 57.5 -4.83301 82.5 -14.5s46.5 -23.167 64.5 -40.5s32 -38 42 -62s15 -50 15 -78v-334zM387.999 -315v81.999h-41v34h54c6 0 11 -2.16699 15 -6.5s6 -9.16602 6 -14.499v-95h-34z" />
    <glyph glyph-name="dochadasarauuthai" unicode="&#xe0e;&#xe39;" horiz-adv-x="465" 
d="M325 -168c-39.333 31.333 -84.668 47 -136.001 47s-96.666 -15.667 -135.999 -47l-22 26c22.667 17.333 47 30.833 73 40.5s54 14.5 84 14.5c24.667 0 48.167 -3.33301 70.5 -10s43.166 -15.667 62.499 -27l66 65v321c0 24 -4.33301 45.833 -13 65.5
s-20.5 36.5 -35.5 50.5s-32.833 24.833 -53.5 32.5s-43 11.5 -67 11.5c-30 0 -57.667 -7.66699 -83 -23s-45.666 -34 -60.999 -56l37 -41v-302h-81v35h46v257l-44 50c8.66699 16 19.667 31 33 45s28 26 44 36s33.333 18 52 24s37.667 9 57 9c30 0 57.5 -4.83301 82.5 -14.5
s46.5 -23 64.5 -40s32 -37.5 42 -61.5s15 -50 15 -78v-335zM421.998 -250c0 -20 -7.16699 -37.167 -21.5 -51.5s-31.5 -21.5 -51.5 -21.5s-37 7.16699 -51 21.5s-21 31.5 -21 51.5v15h-31v36h65v-51c0 -10.667 3.66699 -19.667 11 -27s16.333 -11 27 -11
s19.5 3.83301 26.5 11.5s10.5 16.5 10.5 26.5v51h36v-51z" />
    <glyph glyph-name="topataksarauuthai" unicode="&#xe0f;&#xe39;" horiz-adv-x="465" 
d="M325 -169l-76.001 74l-75 -74l-109 108l25 24l84 -83l76 74l76 -75l61 61v321c0 24 -4.33301 45.833 -13 65.5s-20.5 36.5 -35.5 50.5s-32.833 24.833 -53.5 32.5s-43 11.5 -67 11.5c-30 0 -57.667 -7.5 -83 -22.5s-45.666 -33.5 -60.999 -55.5l37 -41v-302h-81v35h46
v256l-44 50c18 32.667 43.5 60 76.5 82s69.5 33 109.5 33c30 0 57.5 -4.83301 82.5 -14.5s46.5 -23.167 64.5 -40.5s32 -38 42 -62s15 -50 15 -78v-334zM421.999 -250c0 -20 -7.16699 -37.167 -21.5 -51.5s-31.5 -21.5 -51.5 -21.5s-37 7.16699 -51 21.5s-21 31.5 -21 51.5
v15h-31v36h65v-51c0 -10.667 3.66699 -19.667 11 -27s16.333 -11 27 -11s19.5 3.83301 26.5 11.5s10.5 16.5 10.5 26.5v51h36v-51z" />
    <glyph glyph-name=".notdef" horiz-adv-x="414" 
d="M422 400v-14h6c4.66699 0 7 3 7 9c0 0.666992 -0.5 1.66699 -1.5 3s-2.83301 2 -5.5 2h-6zM425 385h-3v-14h-5v34h11c8 0 12 -3.33301 12 -10c0 -4.66699 -1 -7.5 -3 -8.5s-4.33301 -1.5 -7 -1.5l10 -14h-5zM428 366c8.66699 0 14.5 2.33301 17.5 7s4.5 9 4.5 13
c0 16 -7.33301 24 -22 24c-15.333 0 -23 -8 -23 -24c0 -5.33301 1.83301 -10 5.5 -14s9.5 -6 17.5 -6zM428 413c8.66699 0 15 -2.66699 19 -8s6 -11.666 6 -18.999c0 -5.33301 -2 -10.5 -6 -15.5s-10.333 -7.5 -19 -7.5c-8 0 -14.333 2.5 -19 7.5s-7 10.167 -7 15.5
c0 7.33301 2.33301 13.666 7 18.999s11 8 19 8zM201 316c10.667 -0.666992 23.1689 -1.99805 37.502 -3.99805s28.666 -4.33301 42.999 -7s27.5 -5.83398 39.5 -9.50098s21 -7.83398 27 -12.501c-13.333 26.667 -34 47.167 -62 61.5s-56.667 21.5 -86 21.5
c-22.667 0 -44.334 -4.33301 -65.001 -13s-37.667 -22 -51 -40c12 1.33301 24 2.33301 36 3s24 1 36 1h22.5c7.66699 0 15.167 -0.333008 22.5 -1zM375.002 395.002l-0.000976562 -142c-32 10 -68.5 18.5 -109.5 25.5s-84.5 10.5 -130.5 10.5c-32 0 -63.333 -2 -94 -6
c4 14.667 10.333 28.834 19 42.501s19.667 25.667 33 36s28.833 18.5 46.5 24.5s37.167 9 58.5 9c20.667 0 39.334 -2.33301 56.001 -7s31.167 -10.334 43.5 -17.001s22.833 -14 31.5 -22s15 -15 19 -21c0 -0.666992 0 1.5 0 6.5s-0.166992 11.167 -0.5 18.5
s-0.5 15 -0.5 23v19h28zM153.001 127.002c0 5.33301 -1.83301 9.33301 -5.5 12s-7.5 4 -11.5 4c-4.66699 0 -8.66699 -1.33301 -12 -4s-5 -6.66699 -5 -12s1.66699 -9.16602 5 -11.499s7.33301 -3.5 12 -3.5c4 0 7.83301 1.16699 11.5 3.5s5.5 6.16602 5.5 11.499z
M32.001 139.002c0 15.333 3 29.001 9 41.001s14 22 24 30s21.333 14 34 18s25.667 6 39 6s26.166 -1.83301 38.499 -5.5s23.333 -9.16699 33 -16.5s17.334 -16.666 23.001 -27.999s8.5 -25 8.5 -41v-116h106v202h28v-228h-189v26h29v119c0 20 -7.33301 35 -22 45
s-32.667 15 -54 15c-20 0 -38 -5.5 -54 -16.5s-24 -26.5 -24 -46.5v-107l58 58c-3.33301 1.33301 -7.66602 4.66602 -12.999 9.99902s-8 13 -8 23c0 12 3.66699 21.5 11 28.5s17 10.5 29 10.5c11.333 0 20.5 -3.83301 27.5 -11.5s10.5 -16.834 10.5 -27.501
c0 -9.33301 -1.83301 -16.5 -5.5 -21.5s-6.83398 -8.83301 -9.50098 -11.5l-17 -16.5l-33 -31.5l-22.5 -21l-24.5 -24h-32v138z" />
    <glyph glyph-name="space" unicode=" " horiz-adv-x="250" 
 />
    <glyph glyph-name="exclam" unicode="!" horiz-adv-x="195" 
d="M120 312l-12 -209h-22l-11 209v216h45v-216zM132 29c0 -9.33301 -3.5 -17.333 -10.5 -24s-15.167 -10 -24.5 -10s-17.5 3.33301 -24.5 10s-10.5 14.667 -10.5 24c0 10 3.5 18.333 10.5 25s15.167 10 24.5 10s17.5 -3.33301 24.5 -10s10.5 -15 10.5 -25z" />
    <glyph glyph-name="quotedbl" unicode="&#x22;" horiz-adv-x="181" 
d="M140 358h-23l-8 172h39zM62 358h-21l-8 172h38z" />
    <glyph glyph-name="numbersign" unicode="#" horiz-adv-x="413" 
d="M300 304l-17 -108h80v-38h-87l-25 -158h-36l24 158h-86l-23 -158h-37l22 158h-82v38h88l15 108h-84v38h89l22 147h39l-22 -147h88l21 147h39l-22 -147h74v-38h-80zM174 304l-16 -108h88l15 108h-87z" />
    <glyph glyph-name="dollar" unicode="$" horiz-adv-x="413" 
d="M364 148c0 -18.667 -3.3291 -36.3301 -9.99609 -52.9971s-15.834 -31.834 -27.501 -45.501s-25.334 -25.167 -41.001 -34.5s-32.5 -16 -50.5 -20v-79h-36v77c-71.333 4.66699 -121.333 43.667 -150 117l33 15c11.333 -28 26.666 -50.5 45.999 -67.5s43 -25.5 71 -25.5
v235l-43.5 22.5c-14.333 7.66699 -27.333 16.5 -39 26.5s-21 21.667 -28 35s-10.5 29.666 -10.5 48.999c0 36.667 11 67.167 33 91.5s51 38.5 87 42.5v74h36v-77c21.333 -3.33301 41.166 -11 59.499 -23s33.5 -28.333 45.5 -49l-30 -24c-9.33301 15.333 -20 28.5 -32 39.5
s-26.333 18.167 -43 21.5v-204l47.5 -24c15.667 -8 29.5 -17.333 41.5 -28s21.833 -23.334 29.5 -38.001s11.5 -32.667 11.5 -54zM199.004 496.004c-24.667 -2.66699 -44.6699 -13.333 -60.0029 -32s-23 -39.667 -23 -63c0 -11.333 2.33301 -21.5 7 -30.5
s10.834 -17.167 18.501 -24.5s16.334 -13.833 26.001 -19.5s19.834 -11.167 30.501 -16.5zM326.001 151.005c0 12.667 -2.66797 23.833 -8.00098 33.5s-12.166 18.5 -20.499 26.5s-18 15 -29 21s-22.5 11.667 -34.5 17v-215c28 8 50.333 22.5 67 43.5s25 45.5 25 73.5z" />
    <glyph glyph-name="percent" unicode="%" horiz-adv-x="443" 
d="M224 427c0 -15.333 -2.83594 -29.333 -8.50293 -42s-13.167 -23.5 -22.5 -32.5s-20.5 -16.167 -33.5 -21.5s-26.833 -8 -41.5 -8s-28.5 2.66699 -41.5 8s-24.167 12.5 -33.5 21.5s-16.833 19.833 -22.5 32.5s-8.5 26.667 -8.5 42s2.83301 29.5 8.5 42.5
s13.167 24.167 22.5 33.5s20.5 16.666 33.5 21.999s26.833 8 41.5 8s28.334 -2.66699 41.001 -8s23.834 -12.666 33.501 -21.999s17.334 -20.5 23.001 -33.5s8.5 -27.167 8.5 -42.5zM80.9971 -13l-25 16l305 537l27 -13zM430.997 101c0 -15.333 -2.83301 -29.333 -8.5 -42
s-13.334 -23.667 -23.001 -33s-20.834 -16.666 -33.501 -21.999s-26.334 -8 -41.001 -8s-28.5 2.66699 -41.5 8s-24.333 12.666 -34 21.999s-17.334 20.333 -23.001 33s-8.5 26.667 -8.5 42c0 14.667 2.83301 28.5 8.5 41.5s13.334 24 23.001 33s21 16.167 34 21.5
s26.833 8 41.5 8s28.334 -2.66699 41.001 -8s23.834 -12.5 33.501 -21.5s17.334 -20 23.001 -33s8.5 -26.833 8.5 -41.5zM190.997 427c0 20 -7.33203 36.833 -21.999 50.5s-31.667 20.5 -51 20.5s-36.166 -6.66699 -50.499 -20s-21.5 -30.333 -21.5 -51
c0 -19.333 7.16699 -35.833 21.5 -49.5s31.166 -20.5 50.499 -20.5s36.166 6.83301 50.499 20.5s21.5 30.167 21.5 49.5h1zM397.998 101c0 20 -7.33301 36.833 -22 50.5s-31.667 20.5 -51 20.5c-20 0 -37.167 -6.83301 -51.5 -20.5s-21.5 -30.5 -21.5 -50.5
c0 -20.667 7.16699 -37.667 21.5 -51s31.5 -20 51.5 -20c19.333 0 36.333 6.83301 51 20.5s22 30.5 22 50.5z" />
    <glyph glyph-name="ampersand" unicode="&#x26;" horiz-adv-x="493" 
d="M462 -1l-88.001 100.005c-28 -28 -56.833 -52.667 -86.5 -74s-61.167 -33.666 -94.5 -36.999c-18.667 -1.33301 -36.5 1 -53.5 7s-32.333 14.667 -46 26s-24.667 25.166 -33 41.499s-13.166 34.166 -14.499 53.499c-2 23.333 1 44.666 9 63.999s19 37.166 33 53.499
s29.5 31.666 46.5 45.999l49.5 40.5c-15.333 15.333 -29.5 31.666 -42.5 48.999s-20.5 37.333 -22.5 60c-1.33301 14 0.333984 27.333 5.00098 40s11.167 24 19.5 34s18.5 18.167 30.5 24.5s24.667 10.166 38 11.499c14 1.33301 27.167 -0.166992 39.5 -4.5
s23 -10.666 32 -18.999s16.333 -18.333 22 -30s9.16699 -23.834 10.5 -36.501c1.33301 -15.333 0 -29.166 -4 -41.499s-9.83301 -24 -17.5 -35s-16.834 -21.5 -27.501 -31.5s-22 -20 -34 -30l140 -160l61 73l29 -22l-66 -78l106 -124zM278.999 445.005
c-1.33301 17.333 -8.16699 31.833 -20.5 43.5s-27.166 16.834 -44.499 15.501c-8.66699 -0.666992 -16.667 -3.5 -24 -8.5s-13.5 -11 -18.5 -18s-8.83301 -14.833 -11.5 -23.5s-3.33398 -17.334 -2.00098 -26.001c1.33301 -17.333 7.83301 -33 19.5 -47l33.5 -41l24.5 22
c8.33301 7.33301 16.166 15.333 23.499 24c7.33301 8 12.833 16.833 16.5 26.5s4.83398 20.5 3.50098 32.5zM206.998 291.005l-27.998 -23l-35 -29.5c-12 -10.333 -22.667 -21.333 -32 -33s-16.833 -24.5 -22.5 -38.5s-7.83398 -29 -6.50098 -45
c1.33301 -14 5 -27.333 11 -40s13.667 -23.5 23 -32.5s20.333 -16 33 -21s26 -6.83301 40 -5.5s28.167 5.33301 42.5 12s28.166 15 41.499 25s26.333 20.833 39 32.5s24.667 23.5 36 35.5z" />
    <glyph glyph-name="quotesingle" unicode="'" horiz-adv-x="142" 
d="M82 357h-22l-8 174h38z" />
    <glyph glyph-name="parenleft" unicode="(" horiz-adv-x="178" 
d="M161 539c-10 -15.333 -18.332 -30.5029 -24.999 -45.5029l-21 -47.5c-14.667 -34.667 -25.834 -70.667 -33.501 -108s-11.5 -75.333 -11.5 -114c0 -32.667 2 -62.667 6 -90s9.83301 -53.666 17.5 -78.999s17 -50.666 28 -75.999s23.833 -52 38.5 -80l-30 -2
c-30.667 48.667 -54.667 101.5 -72 158.5s-26 113.833 -26 170.5s8.83301 111.334 26.5 164.001s41.5 103 71.5 151z" />
    <glyph glyph-name="parenright" unicode=")" horiz-adv-x="178" 
d="M145 226c0 -26.667 -2.33301 -54.499 -7 -83.499s-11.167 -57.833 -19.5 -86.5s-18.5 -56.667 -30.5 -84s-25.333 -52.333 -40 -75h-30c14 28 26.5 54.667 37.5 80s20.5 51 28.5 77s14 52.833 18 80.5s6 57.5 6 89.5c0 42 -4.5 82.667 -13.5 122s-21.833 78 -38.5 116
c-6.66699 14 -12.667 27.333 -18 40s-12.333 25.667 -21 39h31c28.667 -48 52 -98.333 70 -151s27 -107.334 27 -164.001z" />
    <glyph glyph-name="asterisk" unicode="*" horiz-adv-x="352" 
d="M203 395l62 -83l-31 -25l-55 81l-6 -7l-18 -25l-37 -49l-30 25l62 83l-98 29l12 37l96 -33l-4 103h40l-3 -103l96 33l12 -37z" />
    <glyph glyph-name="plus" unicode="+" horiz-adv-x="380" 
d="M208 172v-145h-35v145h-146v35h145v146h35v-146h146v-35h-145z" />
    <glyph glyph-name="comma" unicode="," horiz-adv-x="148" 
d="M117 14c0 -15.333 -5.83496 -31.8311 -17.502 -49.498s-28.167 -33.167 -49.5 -46.5l-14 13c14.667 9.33301 25.834 19.166 33.501 29.499s14.834 22.5 21.501 36.5c-8 -3.33301 -14.667 -5 -20 -5c-9.33301 0 -17.333 3.33301 -24 10s-10 14.667 -10 24
s3.5 17.666 10.5 24.999s15.833 11 26.5 11c14 0 24.667 -5 32 -15s11 -21 11 -33z" />
    <glyph glyph-name="hyphen" unicode="-" horiz-adv-x="257" 
d="M40 173v35h177v-35h-177z" />
    <glyph glyph-name="period" unicode="." horiz-adv-x="148" 
d="M109 27c0 -9.33301 -3.5 -17.5 -10.5 -24.5s-15.167 -10.5 -24.5 -10.5s-17.5 3.5 -24.5 10.5s-10.5 15.167 -10.5 24.5s3.5 17.5 10.5 24.5s15.167 10.5 24.5 10.5s17.5 -3.5 24.5 -10.5s10.5 -15.167 10.5 -24.5z" />
    <glyph glyph-name="slash" unicode="/" horiz-adv-x="395" 
d="M58 0h-41l320 580l38 1z" />
    <glyph glyph-name="zero" unicode="0" horiz-adv-x="380" 
d="M370 267c0 -36 -3.99902 -70.5 -11.999 -103.5s-19.833 -62.167 -35.5 -87.5s-34.667 -45.5 -57 -60.5s-47.5 -22.5 -75.5 -22.5s-53 7.5 -75 22.5s-40.833 35.167 -56.5 60.5s-27.5 54.5 -35.5 87.5s-12 67.5 -12 103.5s4.16699 70.333 12.5 103
s20.166 61.167 35.499 85.5s34 43.666 56 57.999s47 21.5 75 21.5s53 -7.16699 75 -21.5s40.833 -33.666 56.5 -57.999s27.667 -52.833 36 -85.5s12.5 -67 12.5 -103zM330.001 267c0 28 -3.16699 55.833 -9.5 83.5s-15.5 52.5 -27.5 74.5s-26.667 39.833 -44 53.5
s-37 20.5 -59 20.5s-41.667 -6.83301 -59 -20.5s-32 -31.5 -44 -53.5s-21.167 -46.833 -27.5 -74.5s-9.5 -55.5 -9.5 -83.5c0 -31.333 3.16699 -61.333 9.5 -90s15.5 -54 27.5 -76s26.667 -39.667 44 -53s37 -20 59 -20s41.667 6.66699 59 20s32 31 44 53s21 47.333 27 76
s9 58.667 9 90h1z" />
    <glyph glyph-name="one" unicode="1" horiz-adv-x="380" 
d="M188 0v492h-94v36h131v-528h-37z" />
    <glyph glyph-name="two" unicode="2" horiz-adv-x="380" 
d="M348 379c0 -17.333 -2.99707 -34.168 -8.99707 -50.501s-13.667 -32 -23 -47s-19.833 -29.167 -31.5 -42.5l-34.5 -38l-160 -166h256v-35h-312v30l182 188c10 10.667 20.5 22.5 31.5 35.5s21.167 26.5 30.5 40.5s17 28.5 23 43.5s9 29.5 9 43.5
c0 16.667 -3.16699 32.167 -9.5 46.5s-14.833 26.833 -25.5 37.5s-23.334 19 -38.001 25s-30 9 -46 9c-34 0 -62.167 -11.167 -84.5 -33.5s-33.5 -52.5 -33.5 -90.5h-39c0.666992 26 5.66699 48.833 15 68.5s21.333 36.334 36 50.001s31.167 24 49.5 31
s37.166 10.5 56.499 10.5c21.333 0 41.5 -4 60.5 -12s35.667 -19 50 -33s25.666 -30.5 33.999 -49.5s12.5 -39.5 12.5 -61.5z" />
    <glyph glyph-name="three" unicode="3" horiz-adv-x="380" 
d="M337 149c0 -22 -3.66992 -42.499 -11.0029 -61.499s-17.5 -35.5 -30.5 -49.5s-29 -25 -48 -33s-39.833 -12 -62.5 -12c-19.333 0 -37.666 3.33301 -54.999 10s-32.666 16 -45.999 28s-24 26.667 -32 44s-12.333 36.666 -13 57.999h37c4 -32 15.333 -57.5 34 -76.5
s43.334 -28.5 74.001 -28.5c16.667 0 32.167 3.16699 46.5 9.5s26.5 15 36.5 26s17.833 23.667 23.5 38s8.5 29.5 8.5 45.5c0 34 -11 60.5 -33 79.5s-50 29.167 -84 30.5v35c32.667 2 59 12.667 79 32s30 44.333 30 75c0 28 -9 51.667 -27 71s-42 29 -72 29
c-28 0 -50.5 -8.66699 -67.5 -26s-26.833 -42 -29.5 -74h-37c4 42.667 17.5 76 40.5 100s54.5 36 94.5 36c19.333 0 37.333 -3.5 54 -10.5s31 -16.833 43 -29.5s21.5 -27.334 28.5 -44.001s10.5 -34.334 10.5 -53.001c0 -25.333 -6.33301 -48.666 -19 -69.999
s-31 -38.666 -55 -51.999c26.667 -13.333 47 -31.333 61 -54s21 -47 21 -73z" />
    <glyph glyph-name="four" unicode="4" horiz-adv-x="380" 
d="M300 99v-99h-38v99h-255v25l273 404h19v-392h63v-37h-62zM262 440l-202 -304h201z" />
    <glyph glyph-name="five" unicode="5" horiz-adv-x="380" 
d="M355 180c0 -27.333 -4.83105 -52.335 -14.498 -75.002s-23 -42.334 -40 -59.001s-36.833 -29.667 -59.5 -39s-47 -14 -73 -14c-30.667 0 -59.667 7.5 -87 22.5s-50 37.833 -68 68.5l34 15c15.333 -22 33.666 -39.333 54.999 -52s43.666 -19 66.999 -19
c20.667 0 40.167 3.83301 58.5 11.5s34.166 18.334 47.499 32.001s23.833 29.834 31.5 48.501s11.5 39 11.5 61c0 20.667 -4 39.667 -12 57s-18.667 32.5 -32 45.5s-28.833 23.167 -46.5 30.5s-36.5 11 -56.5 11c-21.333 0 -42.333 -3.83301 -63 -11.5
s-37.667 -15.5 -51 -23.5v238h250v-36h-212v-149c14 5.33301 27.5 9.5 40.5 12.5s27.167 4.5 42.5 4.5c24.667 0 47.834 -4.66699 69.501 -14s40.5 -22.166 56.5 -38.499s28.5 -35.5 37.5 -57.5s13.5 -45.333 13.5 -70z" />
    <glyph glyph-name="six" unicode="6" horiz-adv-x="380" 
d="M367 178c0 -23.333 -4.66699 -45.999 -14 -67.999s-21.666 -41.667 -36.999 -59c-16.667 -19.333 -35.834 -33.833 -57.501 -43.5s-44.5 -14.5 -68.5 -14.5s-46.667 4.83301 -68 14.5s-40 22.667 -56 39s-28.667 35.833 -38 58.5s-14 47 -14 73
c0 22.667 3.16699 43.167 9.5 61.5s15.5 36.5 27.5 54.5l153 234h46l-115 -174c20 6.66699 39.333 10 58 10c24 0 46.5 -5 67.5 -15s39.5 -23.5 55.5 -40.5s28.5 -36.833 37.5 -59.5s13.5 -46.334 13.5 -71.001zM327 179.001c0 20.667 -3.66504 40 -10.998 58
s-17.333 33.667 -30 47s-27.167 24 -43.5 32s-33.833 12 -52.5 12s-36.167 -4 -52.5 -12s-30.666 -18.667 -42.999 -32s-22.166 -29 -29.499 -47s-11 -37.333 -11 -58s3.66699 -40.167 11 -58.5s17.166 -34.166 29.499 -47.499s26.666 -24 42.999 -32s33.833 -12 52.5 -12
s36.167 4 52.5 12s30.666 18.667 42.999 32s22.166 29.166 29.499 47.499s11 37.833 11 58.5h1z" />
    <glyph glyph-name="seven" unicode="7" horiz-adv-x="380" 
d="M88 0h-43l284 491h-304v37h348v-34z" />
    <glyph glyph-name="eight" unicode="8" horiz-adv-x="380" 
d="M342 139c0 -21.333 -3.99805 -40.833 -11.998 -58.5s-19 -33 -33 -46s-30.167 -23.167 -48.5 -30.5s-37.833 -11 -58.5 -11c-20 0 -39.167 3.66699 -57.5 11s-34.5 17.5 -48.5 30.5s-25 28.333 -33 46s-12 37.167 -12 58.5c0 30 6.5 56.333 19.5 79s33.5 41.667 61.5 57
c-22.667 14 -39.834 31.5 -51.501 52.5s-17.5 43.167 -17.5 66.5c0 20 3.5 38.667 10.5 56s16.833 32.166 29.5 44.499s27.5 22.166 44.5 29.499s35.167 11 54.5 11c20 0 38.5 -3.66699 55.5 -11s31.667 -17.166 44 -29.499s22.166 -27.166 29.499 -44.499s11 -36 11 -56
c0 -23.333 -5.83301 -45.5 -17.5 -66.5s-28.5 -38.5 -50.5 -52.5c28 -15.333 48.333 -34.333 61 -57s19 -49 19 -79zM293.002 395c0 14 -2.66895 27.333 -8.00195 40s-12.833 23.834 -22.5 33.501s-20.667 17.167 -33 22.5s-25.5 8 -39.5 8s-27.167 -2.66699 -39.5 -8
s-23.166 -12.833 -32.499 -22.5s-16.666 -20.834 -21.999 -33.501s-8 -26 -8 -40s2.66699 -27.333 8 -40s12.5 -23.667 21.5 -33s19.833 -16.666 32.5 -21.999s26 -8 40 -8s27.333 2.66699 40 8s23.5 12.666 32.5 21.999s16.167 20.333 21.5 33s8 26 8 40h1zM305 142
c0 16 -3.16699 30.833 -9.5 44.5s-14.666 25.667 -24.999 36s-22.5 18.5 -36.5 24.5s-28.667 9 -44 9s-30 -3 -44 -9s-26.167 -14.167 -36.5 -24.5s-18.5 -22.333 -24.5 -36s-9 -28.5 -9 -44.5s3 -30.833 9 -44.5s14.167 -25.667 24.5 -36s22.5 -18.5 36.5 -24.5
s28.667 -9 44 -9s30 3 44 9s26.167 14.167 36.5 24.5s18.666 22.333 24.999 36s9.5 28.5 9.5 44.5z" />
    <glyph glyph-name="nine" unicode="9" horiz-adv-x="380" 
d="M367 347c0 -21.333 -3.33105 -41.165 -9.99805 -59.498s-15.667 -36.166 -27 -53.499l-152 -234h-47l121 180c-10.667 -6.66699 -21 -10.834 -31 -12.501s-21 -2.5 -33 -2.5c-23.333 0 -45.5 5 -66.5 15s-39.333 23.333 -55 40s-28.167 36.167 -37.5 58.5
s-14 46.166 -14 71.499c0 26 4.83301 50.333 14.5 73s22.667 42.167 39 58.5s35.166 29.333 56.499 39s43.666 14.5 66.999 14.5c24.667 0 47.667 -4.83301 69 -14.5s39.833 -22.834 55.5 -39.501s28 -36.5 37 -59.5s13.5 -47.833 13.5 -74.5zM327.002 350.001
c0 20.667 -3.66797 40 -11.001 58s-17.166 33.667 -29.499 47s-26.666 23.833 -42.999 31.5s-33.5 11.5 -51.5 11.5c-18.667 0 -36.334 -3.83301 -53.001 -11.5s-31.167 -18.167 -43.5 -31.5s-22.166 -29 -29.499 -47s-11 -37.333 -11 -58s3.66699 -40 11 -58
s17.166 -33.833 29.499 -47.5s26.833 -24.334 43.5 -32.001s34.334 -11.5 53.001 -11.5c18 0 35.167 3.83301 51.5 11.5s30.666 18.334 42.999 32.001s22 29.5 29 47.5s10.5 37.333 10.5 58h1z" />
    <glyph glyph-name="colon" unicode=":" horiz-adv-x="148" 
d="M109 294c0 -9.33301 -3.5 -17.5 -10.5 -24.5s-15.167 -10.5 -24.5 -10.5s-17.5 3.5 -24.5 10.5s-10.5 15.167 -10.5 24.5s3.5 17.5 10.5 24.5s15.167 10.5 24.5 10.5s17.5 -3.5 24.5 -10.5s10.5 -15.167 10.5 -24.5zM109 27c0 -9.33301 -3.5 -17.5 -10.5 -24.5
s-15.167 -10.5 -24.5 -10.5s-17.5 3.5 -24.5 10.5s-10.5 15.167 -10.5 24.5s3.5 17.5 10.5 24.5s15.167 10.5 24.5 10.5s17.5 -3.5 24.5 -10.5s10.5 -15.167 10.5 -24.5z" />
    <glyph glyph-name="semicolon" unicode=";" horiz-adv-x="148" 
d="M109 294c0 -9.33301 -3.5 -17.5 -10.5 -24.5s-15.167 -10.5 -24.5 -10.5s-17.5 3.5 -24.5 10.5s-10.5 15.167 -10.5 24.5s3.5 17.5 10.5 24.5s15.167 10.5 24.5 10.5s17.5 -3.5 24.5 -10.5s10.5 -15.167 10.5 -24.5zM117 14c0 -15.333 -5.83496 -31.8311 -17.502 -49.498
s-28.167 -33.167 -49.5 -46.5l-14 13c14.667 9.33301 25.834 19.166 33.501 29.499s14.834 22.5 21.501 36.5c-8 -3.33301 -14.667 -5 -20 -5c-9.33301 0 -17.333 3.33301 -24 10s-10 14.667 -10 24s3.5 17.666 10.5 24.999s15.833 11 26.5 11c14 0 24.667 -5 32 -15
s11 -21 11 -33z" />
    <glyph glyph-name="less" unicode="&#x3c;" horiz-adv-x="372" 
d="M27 157v41l317 157v-37l-277 -140l277 -150v-35z" />
    <glyph glyph-name="equal" unicode="=" horiz-adv-x="380" 
d="M27 218v35h326v-35h-326zM27 127v36h326v-36h-326z" />
    <glyph glyph-name="greater" unicode="&#x3e;" horiz-adv-x="372" 
d="M27 -7v35l278 150l-278 140v37l317 -157v-41z" />
    <glyph glyph-name="question" unicode="?" horiz-adv-x="342" 
d="M312 406c0 -16 -2.50098 -30.3379 -7.50098 -43.0049s-11.5 -24.334 -19.5 -35.001s-17 -21 -27 -31s-19.667 -20.333 -29 -31c-10 -11.333 -18.667 -23.166 -26 -35.499s-11 -26.166 -11 -41.499v-75h-38v77c0 23.333 6.16699 43.5 18.5 60.5s26 33.167 41 48.5
s28.833 31.333 41.5 48s19 36.334 19 59.001c0 11.333 -2.16699 22.833 -6.5 34.5s-11 22 -20 31s-20 16.333 -33 22s-28.5 8.5 -46.5 8.5c-18.667 0 -35.5 -3.33301 -50.5 -10s-27.333 -15.667 -37 -27s-16.167 -24.666 -19.5 -39.999s-2.66602 -31.666 2.00098 -48.999
h-40c-4.66699 22 -4.16699 42.667 1.5 62s15.167 36.333 28.5 51s29.833 26.334 49.5 35.001s41.5 13 65.5 13c22 0 42 -3.5 60 -10.5s33.167 -16.5 45.5 -28.5s21.833 -26 28.5 -42s10 -33 10 -51zM207.999 27.9951c0 -10 -3.5 -18.5 -10.5 -25.5
s-15.167 -10.5 -24.5 -10.5s-17.5 3.5 -24.5 10.5s-10.5 15.5 -10.5 25.5c0 9.33301 3.5 17.5 10.5 24.5s15.167 10.5 24.5 10.5s17.333 -3.5 24 -10.5s10 -15.167 10 -24.5h1z" />
    <glyph glyph-name="at" unicode="@" horiz-adv-x="552" 
d="M531 309c0 -28 -5.00098 -54.499 -15.001 -79.499s-23 -46.667 -39 -65s-33.833 -32.833 -53.5 -43.5s-39.167 -16 -58.5 -16c-24.667 0 -42.667 10.667 -54 32c-15.333 -12 -30.666 -20.333 -45.999 -25s-30 -7 -44 -7c-32 0 -56 10 -72 30s-24 45 -24 75
c0 23.333 4 47.833 12 73.5s19.5 49.167 34.5 70.5s33.167 38.833 54.5 52.5s45.333 20.5 72 20.5c15.333 0 30 -3.33301 44 -10s27 -17.667 39 -33l9 29h36l-73 -228c-1.33301 -4.66699 -3 -10.167 -5 -16.5s-2.33301 -11.833 -1 -16.5
c1.33301 -3.33301 3.83301 -6.33301 7.5 -9s10.5 -4 20.5 -4c14 0 28.167 5.5 42.5 16.5s27.5 24.833 39.5 41.5s21.667 35.167 29 55.5s11 39.833 11 58.5c0 28.667 -6 54.667 -18 78s-27.667 43.333 -47 60s-41.666 29.5 -66.999 38.5s-51 13.5 -77 13.5
c-32 0 -62.167 -6.5 -90.5 -19.5s-53 -30.5 -74 -52.5s-37.667 -47.5 -50 -76.5s-18.5 -59.5 -18.5 -91.5c0 -31.333 6.33301 -61.333 19 -90s29.667 -53.667 51 -75s46.166 -38.333 74.499 -51s58.166 -19 89.499 -19c38 0 74 7.83301 108 23.5s61.333 39.5 82 71.5l45 1
c-23.333 -42 -55.166 -74 -95.499 -96s-86.833 -33 -139.5 -33c-38 0 -73.333 7.16699 -106 21.5s-61 33.833 -85 58.5s-42.833 53.5 -56.5 86.5s-20.5 68.5 -20.5 106.5c0 37.333 7.16699 72.333 21.5 105s33.5 61.167 57.5 85.5s52 43.5 84 57.5s66 21 102 21
c34 0 65.833 -5.66699 95.5 -17s55.667 -27 78 -47s39.833 -43.833 52.5 -71.5s19 -57.834 19 -90.501zM360.999 321.001c2 6 1.83789 13.001 -0.495117 21.001s-6.5 15.667 -12.5 23s-13.667 13.666 -23 18.999s-20.333 8 -33 8c-18 0 -35 -6 -51 -18s-30 -27 -42 -45
s-21.5 -37.333 -28.5 -58s-10.5 -39.667 -10.5 -57c0 -20 6.16699 -37.667 18.5 -53s30.166 -22.666 53.499 -21.999c11.333 0 22.166 2.5 32.499 7.5s19.666 11.333 27.999 19s15.666 16.167 21.999 25.5s11.166 18.666 14.499 27.999z" />
    <glyph glyph-name="A" unicode="A" horiz-adv-x="437" 
d="M398 0l-69 172h-222l-68 -172h-39l211 528h17l208 -528h-38zM218 452l-97 -244h194z" />
    <glyph glyph-name="B" unicode="B" horiz-adv-x="380" 
d="M357 148c0 -25.333 -4.5 -47.333 -13.5 -66s-21.167 -34 -36.5 -46s-33.333 -21 -54 -27s-42.667 -9 -66 -9h-139v528h110c48 0 85.5 -11 112.5 -33s40.5 -58 40.5 -108c0 -22.667 -4.33301 -42.5 -13 -59.5s-23 -32.167 -43 -45.5c32 -10 57 -26.833 75 -50.5
s27 -51.5 27 -83.5zM273 392c0 20 -3.33301 36.5 -10 49.5s-15.834 23.167 -27.501 30.5s-25.167 12.5 -40.5 15.5s-32 4.5 -50 4.5h-60v-202h60c16.667 0 32.334 0.5 47.001 1.5s29 7.16699 43 18.5c14.667 10.667 24.5 22.5 29.5 35.5s7.83301 28.5 8.5 46.5zM319 147
c0 19.333 -4.33105 37.335 -12.998 54.002s-21.334 29 -38.001 37c-15.333 7.33301 -32.833 12 -52.5 14s-38.167 3 -55.5 3h-75v-220h82c19.333 0 38.166 1.66699 56.499 5s34.5 9.16602 48.5 17.499s25.333 19.666 34 33.999s13 32.833 13 55.5z" />
    <glyph glyph-name="C" unicode="C" horiz-adv-x="458" 
d="M441 46c-22.667 -17.333 -46.999 -30.499 -72.999 -39.499s-53 -13.5 -81 -13.5c-36 0 -70.333 7.16699 -103 21.5s-61.334 33.666 -86.001 57.999s-44.334 52.833 -59.001 85.5s-22 67.667 -22 105s7.16699 72.5 21.5 105.5s33.833 61.833 58.5 86.5
s53.334 44.167 86.001 58.5s67.667 21.5 105 21.5c56 0 107 -18 153 -54l-20 -31c-43.333 32.667 -88.333 49 -135 49c-31.333 0 -61 -6.5 -89 -19.5s-52.5 -30.333 -73.5 -52s-37.667 -47 -50 -76s-18.5 -59.5 -18.5 -91.5c0 -30 6.33301 -59 19 -87s29.5 -52.667 50.5 -74
s45.5 -38.5 73.5 -51.5s57.333 -19.5 88 -19.5c22.667 0 45.5 4 68.5 12s45.167 20.333 66.5 37z" />
    <glyph glyph-name="D" unicode="D" horiz-adv-x="434" 
d="M418 263c0 -40 -7 -76.332 -21 -108.999s-33.167 -60.334 -57.5 -83.001s-53.333 -40.167 -87 -52.5s-70.167 -18.5 -109.5 -18.5h-95v528h95c40 0 76.833 -6.16699 110.5 -18.5s62.667 -29.833 87 -52.5s43.333 -50.5 57 -83.5s20.5 -69.833 20.5 -110.5zM380 263.001
c0 34.667 -6 66.167 -18 94.5s-28.5 52.5 -49.5 72.5s-46 35.333 -75 46s-60.833 16 -95.5 16h-57v-457h57c34 0 65.5 5.33301 94.5 16s54 26 75 46s37.5 44 49.5 72s18 59.333 18 94h1z" />
    <glyph glyph-name="E" unicode="E" horiz-adv-x="336" 
d="M48 0v528h251v-36h-214v-186h208v-36h-208v-235h214v-35h-251z" />
    <glyph glyph-name="F" unicode="F" horiz-adv-x="289" 
d="M85 492v-186h176v-36h-175v-270h-38v528h217v-36h-180z" />
    <glyph glyph-name="G" unicode="G" horiz-adv-x="576" 
d="M555 264c0 -37.333 -6.66602 -72.5 -19.999 -105.5s-31.833 -61.667 -55.5 -86s-51.5 -43.666 -83.5 -57.999s-67 -21.5 -105 -21.5s-73.5 7 -106.5 21s-62 33.333 -87 58s-44.667 53.5 -59 86.5s-21.5 68.167 -21.5 105.5s7.16699 72.5 21.5 105.5s34 61.667 59 86
s54 43.666 87 57.999s68.5 21.5 106.5 21.5c48 0 91.667 -10.667 131 -32s71.666 -51 96.999 -89l-30 -23c-22 32.667 -50 58.5 -84 77.5s-72 28.5 -114 28.5c-32.667 0 -63.334 -6.16699 -92.001 -18.5s-53.667 -29 -75 -50s-38.166 -45.667 -50.499 -74
s-18.5 -58.5 -18.5 -90.5s6.16699 -62.167 18.5 -90.5s29.166 -53 50.499 -74s46.333 -37.667 75 -50s59.334 -18.5 92.001 -18.5c30 0 58.167 5.5 84.5 16.5s49.5 26.167 69.5 45.5s36.167 42 48.5 68s19.833 54 22.5 84h-229v38h267c0 -4 0.166992 -7.33301 0.5 -10
s0.5 -5.66699 0.5 -9z" />
    <glyph glyph-name="H" unicode="H" horiz-adv-x="478" 
d="M393 0v269h-307v-269h-38v528h37v-222h307v222h38v-528h-37z" />
    <glyph glyph-name="I" unicode="I" horiz-adv-x="135" 
d="M48 0v528h38v-528h-38z" />
    <glyph glyph-name="J" unicode="J" horiz-adv-x="140" 
d="M92 -24c0 -24.667 -8.83105 -45.833 -26.498 -63.5s-38.834 -26.5 -63.501 -26.5c-12.667 0 -24.334 2.5 -35.001 7.5s-20.667 11.833 -30 20.5l27 27c11.333 -11.333 24 -17 38 -17s26 5.16699 36 15.5s15 22.5 15 36.5v552h39v-552z" />
    <glyph glyph-name="K" unicode="K" horiz-adv-x="386" 
d="M342 0l-244 251l-12 -13v-238h-37v528h37v-241l240 241h50l-252 -253l269 -275h-51z" />
    <glyph glyph-name="L" unicode="L" horiz-adv-x="223" 
d="M48 0v528h37v-493h132v-35h-169z" />
    <glyph glyph-name="M" unicode="M" horiz-adv-x="601" 
d="M563 0l-83 430l-170 -430h-16l-172 430l-85 -430h-37l107 528h13l181 -455l181 455h13l106 -528h-38z" />
    <glyph glyph-name="N" unicode="N" horiz-adv-x="564" 
d="M502 0l-416 454v-454h-38v528h16l414 -449v449h38v-528h-14z" />
    <glyph glyph-name="O" unicode="O" horiz-adv-x="572" 
d="M555 264c0 -37.333 -7.16699 -72.5 -21.5 -105.5s-33.833 -61.667 -58.5 -86s-53.334 -43.666 -86.001 -57.999s-67 -21.5 -103 -21.5c-36.667 0 -71.334 7.16699 -104.001 21.5s-61.167 33.666 -85.5 57.999s-43.666 53 -57.999 86s-21.5 68.167 -21.5 105.5
c0 36.667 7.16699 71.5 21.5 104.5s33.666 61.833 57.999 86.5s52.833 44.167 85.5 58.5s67.334 21.5 104.001 21.5c36 0 70.333 -7.16699 103 -21.5s61.334 -33.833 86.001 -58.5s44.167 -53.5 58.5 -86.5s21.5 -67.833 21.5 -104.5zM517 264
c0 32 -6.16699 62.167 -18.5 90.5s-29 53.166 -50 74.499s-45.5 38.333 -73.5 51s-57.667 19 -89 19c-32 0 -62 -6.33301 -90 -19s-52.5 -29.667 -73.5 -51s-37.5 -46.166 -49.5 -74.499s-18 -58.5 -18 -90.5s6 -62.167 18 -90.5s28.5 -53.333 49.5 -75
s45.5 -38.834 73.5 -51.501s58 -19 90 -19c31.333 0 61 6.33301 89 19s52.5 29.834 73.5 51.501s37.5 46.667 49.5 75s18 58.5 18 90.5h1z" />
    <glyph glyph-name="P" unicode="P" horiz-adv-x="312" 
d="M301 387c0 -18.667 -3.66699 -37.5 -11 -56.5s-18.333 -35.167 -33 -48.5c-16 -14 -34.333 -23 -55 -27s-41 -6 -61 -6h-55v-249h-38v528h93c20 0 39.667 -1.66699 59 -5s37.333 -12 54 -26c15.333 -14 27 -30.5 35 -49.5s12 -39.167 12 -60.5zM264 389
c0 16 -3.33398 31.499 -10.001 46.499s-16.667 26.833 -30 35.5c-12 10.667 -25.5 16.834 -40.5 18.501s-30.167 2.5 -45.5 2.5h-53v-208h57c16.667 0 32.334 1.66699 47.001 5s28.667 11 42 23c11.333 10 19.5 21.5 24.5 34.5s7.5 27.167 7.5 42.5h1z" />
    <glyph glyph-name="Q" unicode="Q" horiz-adv-x="572" 
d="M555 266c0 -36 -6.33496 -69.3301 -19.002 -99.9971s-31 -60.334 -55 -89.001l69 -77h-52l-43 55c-25.333 -19.333 -52.333 -34.5 -81 -45.5s-58 -16.5 -88 -16.5c-36.667 0 -71.334 7 -104.001 21s-61.167 33.333 -85.5 58s-43.666 53.334 -57.999 86.001
s-21.5 68 -21.5 106c0 37.333 7.16699 72.5 21.5 105.5s33.833 61.667 58.5 86s53.334 43.666 86.001 57.999s67.334 21.5 104.001 21.5c36 0 70.167 -7 102.5 -21s60.833 -33.333 85.5 -58s44.167 -53.334 58.5 -86.001s21.5 -67.334 21.5 -104.001zM516.998 260.003
c0 32.667 -6.00195 63.499 -18.002 92.499s-28.333 54.333 -49 76s-45 38.834 -73 51.501s-58 19 -90 19c-31.333 0 -61.166 -6.33301 -89.499 -19s-53 -29.667 -74 -51s-37.667 -46.166 -50 -74.499s-18.5 -58.5 -18.5 -90.5s6.16699 -62.333 18.5 -91
s29 -53.834 50 -75.501s45.667 -38.667 74 -51s58.5 -18.5 90.5 -18.5c24 0 47.833 5 71.5 15s46.167 23.333 67.5 40l-108 113l29 24l106 -115c20 24 35.333 48.333 46 73s16.334 52 17.001 82z" />
    <glyph glyph-name="R" unicode="R" horiz-adv-x="334" 
d="M276 0l-167.999 248h-22v-248h-38v528h76c21.333 0 42 -1.33301 62 -4s39 -10.334 57 -23.001c19.333 -13.333 33 -29.833 41 -49.5s12 -41.167 12 -64.5c0 -44 -13.333 -77.667 -40 -101s-61.334 -35.666 -104.001 -36.999l168 -249h-44zM258.001 388
c-0.666992 23.333 -5.16602 41.834 -13.499 55.501s-19 24.167 -32 31.5s-28 12 -45 14s-34.5 3 -52.5 3h-30v-209h50c36 0 65.167 9.16699 87.5 27.5s34.166 44.166 35.499 77.499z" />
    <glyph glyph-name="S" unicode="S" horiz-adv-x="362" 
d="M339 147c0 -22 -4.50098 -42.333 -13.501 -61s-21.167 -35 -36.5 -49s-32.833 -24.833 -52.5 -32.5s-40.167 -11.5 -61.5 -11.5c-36 0 -67.167 10.5 -93.5 31.5s-46.166 49.5 -59.499 85.5l33 16c12.667 -30.667 28.667 -54.667 48 -72s44 -26 74 -26
c16.667 0 32.5 3.16699 47.5 9.5s28.167 15 39.5 26s20.333 23.833 27 38.5s10 30.667 10 48c0 14.667 -3.33301 27.167 -10 37.5s-15 19.5 -25 27.5s-20.833 15 -32.5 21l-33.5 18l-93 51c-36.667 20.667 -55 52.334 -55 95.001c0 19.333 3.33301 37.333 10 54s16 31 28 43
s26.167 21.333 42.5 28s34.166 10 53.499 10c26 0 50.5 -6.66699 73.5 -20s41.5 -32 55.5 -56l-28 -22c-13.333 20 -28.166 35.333 -44.499 46s-35.833 16 -58.5 16c-13.333 0 -25.833 -2.5 -37.5 -7.5s-21.667 -12 -30 -21s-15 -19.5 -20 -31.5s-7.5 -24.667 -7.5 -38
s3 -24.833 9 -34.5s13.5 -18 22.5 -25s18.833 -13.333 29.5 -19l31 -16.5l97 -52c20 -13.333 35.167 -28.333 45.5 -45s15.5 -37.334 15.5 -62.001z" />
    <glyph glyph-name="T" unicode="T" horiz-adv-x="304" 
d="M171 492v-492h-37v492h-134v36h304v-36h-133z" />
    <glyph glyph-name="U" unicode="U" horiz-adv-x="440" 
d="M397 200l-0.00292969 -20.502c0 -6.33301 -0.333008 -12.5 -1 -18.5c-1.33301 -19.333 -4.16602 -37.666 -8.49902 -54.999s-13.166 -34 -26.499 -50c-17.333 -20.667 -38.666 -36.334 -63.999 -47.001s-51 -16 -77 -16s-51.833 5.33301 -77.5 16
s-47.167 26.334 -64.5 47.001c-18 21.333 -28.333 44 -31 68s-4 49.333 -4 76v328h38v-318c0 -24 1.16699 -47.5 3.5 -70.5s10.166 -43.167 23.499 -60.5c13.333 -16 30.5 -28.5 51.5 -37.5s41.167 -13.5 60.5 -13.5s39.833 4.33301 61.5 13s38.834 21.334 51.501 38.001
c13.333 17.333 21 37.5 23 60.5s3 46.5 3 70.5v318h38v-328z" />
    <glyph glyph-name="V" unicode="V" horiz-adv-x="378" 
d="M196 0h-16l-179 528h38l150 -441l150 441h38z" />
    <glyph glyph-name="W" unicode="W" horiz-adv-x="742" 
d="M573 0h-16l-187 463l-187 -463h-15l-167 528h38l141 -445l181 445h24l179 -445l139 445h38z" />
    <glyph glyph-name="X" unicode="X" horiz-adv-x="328" 
d="M286 0l-123 235l-121 -235h-42l142 269l-136 259h41l117 -221l114 221h42l-135 -259l142 -269h-41z" />
    <glyph glyph-name="Y" unicode="Y" horiz-adv-x="382" 
d="M211 225v-225h-39v225l-172 303h42l149 -264l150 264h42z" />
    <glyph glyph-name="Z" unicode="Z" horiz-adv-x="383" 
d="M63 35h297v-35h-337v36l296 456h-288v36h329v-35z" />
    <glyph glyph-name="bracketleft" unicode="[" horiz-adv-x="196" 
d="M37 -115v676h121v-38h-83v-599h83v-39h-121z" />
    <glyph glyph-name="backslash" unicode="\" horiz-adv-x="395" 
d="M332 0l-317 580h38l319 -580h-40z" />
    <glyph glyph-name="bracketright" unicode="]" horiz-adv-x="196" 
d="M37 -115v38h84v599h-84v39h121v-676h-121z" />
    <glyph glyph-name="asciicircum" unicode="^" horiz-adv-x="412" 
d="M347 208l-141 282l-139 -282h-38l158 323h39l158 -322z" />
    <glyph glyph-name="underscore" unicode="_" horiz-adv-x="350" 
d="M1 -80v33h348v-33h-348z" />
    <glyph glyph-name="grave" unicode="`" horiz-adv-x="204" 
d="M131 382l-88 105l47 16l71 -107z" />
    <glyph glyph-name="a" unicode="a" horiz-adv-x="423" 
d="M342 0l0.00195312 71c-32.667 -52 -80.334 -78 -143.001 -78c-28 0 -53.167 5 -75.5 15s-41.5 23.667 -57.5 41s-28.167 37.666 -36.5 60.999s-12.5 48.333 -12.5 75s4.16699 51.5 12.5 74.5s20.333 42.833 36 59.5s34.667 29.834 57 39.501s47.166 14.5 74.499 14.5
c30 0 57.833 -6.33301 83.5 -19s46.167 -31.667 61.5 -57v68h35v-365h-35zM344.002 189c0 20.667 -3.49902 40.334 -10.499 59.001s-17 34.834 -30 48.501s-28.5 24.5 -46.5 32.5s-38.333 12 -61 12c-21.333 0 -40.833 -4.33301 -58.5 -13s-32.834 -20.334 -45.501 -35.001
s-22.5 -31.334 -29.5 -50.001s-10.5 -38 -10.5 -58c0 -21.333 3.33301 -41.5 10 -60.5s16.334 -36 29.001 -51s28 -26.833 46 -35.5s38.333 -13 61 -13c24 0 45 4.33301 63 13s33.167 20.5 45.5 35.5s21.666 32.5 27.999 52.5s9.5 41 9.5 63z" />
    <glyph glyph-name="b" unicode="b" horiz-adv-x="421" 
d="M406 186c0 -26.667 -4.33105 -51.666 -12.998 -74.999s-20.834 -43.833 -36.501 -61.5s-34.667 -31.5 -57 -41.5s-47.5 -15 -75.5 -15s-55.167 6.5 -81.5 19.5s-46.5 31.5 -60.5 55.5l-1 4v-72h-35v596h35v-297c15.333 26 35.666 45 60.999 57s53 18 83 18
c27.333 0 52.166 -4.83301 74.499 -14.5s41.333 -22.834 57 -39.501s27.834 -36.5 36.501 -59.5s13 -47.833 13 -74.5zM370.002 186.001c0 20 -3.50098 39.3291 -10.501 57.9961s-16.833 35.334 -29.5 50.001s-27.834 26.334 -45.501 35.001s-37.167 13 -58.5 13
c-23.333 0 -44.166 -4 -62.499 -12s-33.833 -19.167 -46.5 -33.5s-22.334 -31 -29.001 -50s-10 -39.5 -10 -61.5c0 -21.333 3.33301 -41.666 10 -60.999s16.334 -36.166 29.001 -50.499s28 -25.833 46 -34.5s38.333 -13 61 -13s43 4.33301 61 13s33.333 20.5 46 35.5
s22.334 32 29.001 51s10 39.167 10 60.5z" />
    <glyph glyph-name="c" unicode="c" horiz-adv-x="340" 
d="M321 28c-17.333 -12.667 -35.666 -21.665 -54.999 -26.998s-39.666 -8 -60.999 -8c-27.333 0 -52.5 5 -75.5 15s-43 23.5 -60 40.5s-30.333 37.167 -40 60.5s-14.5 48.333 -14.5 75s4.83301 51.5 14.5 74.5s23 43 40 60s37 30.5 60 40.5s48.167 15 75.5 15
c21.333 0 41.666 -2.83301 60.999 -8.5s37.666 -14.834 54.999 -27.501l-14 -30c-31.333 22 -65.666 33 -102.999 33c-22 0 -42.333 -4.33301 -61 -13s-35 -20.167 -49 -34.5s-24.833 -31 -32.5 -50s-11.5 -38.833 -11.5 -59.5c0 -21.333 3.83301 -41.5 11.5 -60.5
s18.5 -35.833 32.5 -50.5s30.333 -26.334 49 -35.001s39 -13 61 -13c37.333 0 71.666 11.333 102.999 34z" />
    <glyph glyph-name="d" unicode="d" horiz-adv-x="421" 
d="M340 0v70.998c-13.333 -26 -33.5 -45.5 -60.5 -58.5s-54.5 -19.5 -82.5 -19.5s-53.167 5 -75.5 15s-41.5 23.833 -57.5 41.5s-28.167 38.167 -36.5 61.5s-12.5 48.333 -12.5 75s4.16699 51.5 12.5 74.5s20.333 42.833 36 59.5s34.5 29.834 56.5 39.501s47 14.5 75 14.5
c28.667 0 55.667 -6.16699 81 -18.5s46 -30.166 62 -53.499l2 -3v297h35v-596h-35zM342 189.998c0 20.667 -3.5 40.334 -10.5 59.001s-17 34.834 -30 48.501s-28.667 24.5 -47 32.5s-38.833 12 -61.5 12c-21.333 0 -40.833 -4.33301 -58.5 -13s-32.667 -20.334 -45 -35.001
s-22 -31.334 -29 -50.001s-10.5 -38 -10.5 -58c0 -21.333 3.33301 -41.5 10 -60.5s16.334 -36 29.001 -51s28 -26.833 46 -35.5s38.333 -13 61 -13c24 0 45 4.33301 63 13s33.167 20.5 45.5 35.5s21.666 32.5 27.999 52.5s9.5 41 9.5 63z" />
    <glyph glyph-name="e" unicode="e" horiz-adv-x="386" 
d="M50 180c0 -23.333 3.66406 -44.6689 10.9971 -64.002s17.666 -35.666 30.999 -48.999s29 -23.666 47 -30.999s37.667 -11 59 -11c28.667 0 54.167 7.5 76.5 22.5s40.5 35.167 54.5 60.5l30 -17c-17.333 -32 -40.166 -56.333 -68.499 -73s-60.5 -25 -96.5 -25
c-27.333 0 -52.166 5 -74.499 15s-41.166 23.833 -56.499 41.5s-27.166 38 -35.499 61s-12.5 47.5 -12.5 73.5c0 25.333 4.33301 49.5 13 72.5s20.667 43.167 36 60.5s34 31 56 41s46.667 15 74 15s52 -5 74 -15s40.667 -23.833 56 -41.5s27 -38.167 35 -61.5
s12 -48.333 12 -75h-321zM335.997 212.997c-2.66699 16.667 -8.00098 32.833 -16.001 48.5s-18.167 29.334 -30.5 41.001s-26.666 21 -42.999 28s-33.833 10.5 -52.5 10.5s-36.167 -3.33301 -52.5 -10s-31 -15.834 -44 -27.501s-23.667 -25.167 -32 -40.5
s-13.5 -32 -15.5 -50h286z" />
    <glyph glyph-name="f" unicode="f" horiz-adv-x="155" 
d="M81 333l0.00195312 -333.001h-35v333h-41v32h40v102c0 13.333 0.666992 28.5 2 45.5s5.66602 31.5 12.999 43.5c8.66699 14.667 20.167 25.667 34.5 33s30.166 11 47.499 11c10.667 0 21 -1.66699 31 -5v-32c-10 3.33301 -19.667 5 -29 5c-16 0 -28.333 -3.33301 -37 -10
s-15 -15 -19 -25s-6.33301 -21.167 -7 -33.5s-1 -24.166 -1 -35.499v-99h93v-32h-92z" />
    <glyph glyph-name="g" unicode="g" horiz-adv-x="427" 
d="M381 28c0 -28 -1.83301 -54.8262 -5.5 -80.4932s-14.167 -50.5 -31.5 -74.5c-17.333 -23.333 -38.666 -40.833 -63.999 -52.5s-53 -17.5 -83 -17.5c-24 0 -46.5 3.33301 -67.5 10s-39.667 16.667 -56 30s-29.666 29.666 -39.999 48.999s-16.5 41.666 -18.5 66.999h35
c2 -19.333 7 -36.666 15 -51.999s18.5 -28.333 31.5 -39s27.833 -18.834 44.5 -24.501s34.334 -8.5 53.001 -8.5c23.333 0 45.666 4.33301 66.999 13s38.666 22.667 51.999 42c14.667 21.333 23.834 43.666 27.501 66.999s5.5 47.333 5.5 72v38
c-16.667 -24.667 -38 -43.334 -64 -56.001s-53.333 -19 -82 -19c-26.667 0 -51 5.16699 -73 15.5s-40.833 24.166 -56.5 41.499s-27.834 37.666 -36.501 60.999s-13 47.666 -13 72.999c0 26 4.5 50.667 13.5 74s21.667 43.5 38 60.5s35.666 30.5 57.999 40.5
s46.833 15 73.5 15c30 0 56.833 -6.5 80.5 -19.5s44.167 -31.5 61.5 -55.5v67h35v-337zM348 189.007c0 21.333 -3.49902 41.166 -10.499 59.499s-17 34.333 -30 48s-28.5 24.334 -46.5 32.001s-38.333 11.5 -61 11.5c-21.333 0 -40.833 -4.33301 -58.5 -13
s-32.834 -20.334 -45.501 -35.001s-22.5 -31.167 -29.5 -49.5s-10.5 -37.5 -10.5 -57.5c0 -21.333 3.33301 -41.666 10 -60.999s16.334 -36.5 29.001 -51.5s28 -26.833 46 -35.5s38.333 -13 61 -13c24 0 45 4.5 63 13.5s33.167 21 45.5 36s21.666 32.5 27.999 52.5
s9.5 41 9.5 63z" />
    <glyph glyph-name="h" unicode="h" horiz-adv-x="374" 
d="M329 0l-34.999 0.000976562v220c0 16.667 -1 32.167 -3 46.5s-6.33301 27 -13 38s-16.334 19.667 -29.001 26s-29.667 9.5 -51 9.5c-25.333 0 -45.5 -4.83301 -60.5 -14.5s-26.667 -22.167 -35 -37.5s-13.833 -32.5 -16.5 -51.5s-4 -37.833 -4 -56.5v-180h-34v597h34
v-295l3 4c11.333 21.333 27.166 37.666 47.499 48.999s43.166 17 68.499 17c24.667 0 45.334 -3.5 62.001 -10.5s29.834 -17 39.501 -30s16.5 -29 20.5 -48s6 -40.167 6 -63.5v-220z" />
    <glyph glyph-name="i" unicode="i" horiz-adv-x="151" 
d="M108 490c0 -9.33301 -3.16699 -17 -9.5 -23s-14.166 -9 -23.499 -9s-17 3 -23 9s-9 13.667 -9 23c0 8.66699 3 16.167 9 22.5s13.667 9.5 23 9.5s17.166 -3.16699 23.499 -9.5s9.5 -13.833 9.5 -22.5zM57 0v365h35v-365h-35z" />
    <glyph glyph-name="j" unicode="j" horiz-adv-x="151" 
d="M108 491c0 -9.33301 -3.16699 -17 -9.5 -23s-14.166 -9 -23.499 -9s-17 3 -23 9s-9 13.667 -9 23c0 8.66699 3 16.167 9 22.5s13.667 9.5 23 9.5s17.166 -3.16699 23.499 -9.5s9.5 -13.833 9.5 -22.5zM57 -214v579h35v-579h-35z" />
    <glyph glyph-name="k" unicode="k" horiz-adv-x="312" 
d="M279 0l-177 185l-20 -22v-163h-35v597h35v-384l146 153h47l-149 -158l199 -208h-46z" />
    <glyph glyph-name="l" unicode="l" horiz-adv-x="151" 
d="M58 0v598h35v-598h-35z" />
    <glyph glyph-name="m" unicode="m" horiz-adv-x="562" 
d="M515 0l-35.999 -0.000976562v227c0 14.667 -0.833008 29 -2.5 43s-5.33398 26.167 -11.001 36.5s-14 18.666 -25 24.999s-25.5 9.5 -43.5 9.5c-20 0 -36.333 -4.16699 -49 -12.5s-22.667 -19 -30 -32s-12.5 -27.667 -15.5 -44s-4.5 -32.5 -4.5 -48.5v-204h-35v218
c0 15.333 -0.833008 30.333 -2.5 45s-5.5 27.834 -11.5 39.501s-14.667 21 -26 28s-26.333 10.5 -45 10.5c-20 0 -36.333 -4.83301 -49 -14.5s-22.5 -21.667 -29.5 -36s-11.667 -30.166 -14 -47.499s-3.5 -34 -3.5 -50v-193h-35v366h35v-50c16 22 32.167 37.167 48.5 45.5
s33.166 12.5 50.499 12.5c21.333 0 40.833 -5.33301 58.5 -16s33.5 -27.667 47.5 -51c14.667 24 31.334 41.167 50.001 51.5s38.667 15.5 60 15.5c24.667 0 44.667 -3.83301 60 -11.5s27.333 -18.334 36 -32.001s14.5 -29.667 17.5 -48s4.5 -38.166 4.5 -59.499v-223z" />
    <glyph glyph-name="n" unicode="n" horiz-adv-x="369" 
d="M287 0l-0.000976562 220.001c0 18.667 -1 35.334 -3 50.001s-6.16699 27.167 -12.5 37.5s-15.5 18.166 -27.5 23.499s-28.333 8 -49 8c-23.333 0 -42.333 -4.83301 -57 -14.5s-26 -22.167 -34 -37.5s-13.5 -32.333 -16.5 -51s-4.5 -37.334 -4.5 -56.001v-180h-35v365h35
v-56c17.333 23.333 35.333 39.833 54 49.5s39 14.5 61 14.5c24 0 44 -3.5 60 -10.5s28.833 -17.167 38.5 -30.5s16.334 -29.333 20.001 -48s5.5 -40 5.5 -64v-220h-35z" />
    <glyph glyph-name="o" unicode="o" horiz-adv-x="407" 
d="M390 185c0 -27.333 -4.83301 -52.666 -14.5 -75.999s-23 -43.666 -40 -60.999s-36.833 -30.833 -59.5 -40.5s-47.334 -14.5 -74.001 -14.5c-26 0 -50.167 5 -72.5 15s-42 23.667 -59 41s-30.333 37.666 -40 60.999s-14.5 48 -14.5 74s4.83301 50.667 14.5 74
s23 43.666 40 60.999s36.667 31 59 41s46.5 15 72.5 15c26.667 0 51.334 -4.83301 74.001 -14.5s42.5 -23 59.5 -40s30.333 -37.167 40 -60.5s14.5 -48.333 14.5 -75zM355 184c0 22.667 -4 43.501 -12 62.501s-18.833 35.5 -32.5 49.5s-30 25 -49 33s-39.5 12 -61.5 12
c-21.333 0 -41 -4.16699 -59 -12.5s-33.5 -19.833 -46.5 -34.5s-23.333 -31.5 -31 -50.5s-11.5 -38.833 -11.5 -59.5c0 -21.333 3.83301 -41.333 11.5 -60s18.167 -35.334 31.5 -50.001s29 -26.167 47 -34.5s37.333 -12.5 58 -12.5c22 0 42.333 4 61 12s35 19.167 49 33.5
s25 31 33 50s12 39.5 12 61.5z" />
    <glyph glyph-name="p" unicode="p" horiz-adv-x="411" 
d="M396 179c0 -26.667 -4 -51.5 -12 -74.5s-19.667 -42.833 -35 -59.5s-33.833 -29.834 -55.5 -39.501s-46.167 -14.5 -73.5 -14.5c-25.333 0 -49.833 5.33301 -73.5 16s-45.5 30 -65.5 58v-280h-36v580h35v-67c20.667 26.667 43 45.834 67 57.501s48 17.5 72 17.5
c27.333 0 52 -5.16699 74 -15.5s40.667 -24.333 56 -42s27 -38.167 35 -61.5s12 -48.333 12 -75zM360 178c0 20.667 -3.33496 40.8311 -10.002 60.498s-16 37 -28 52s-26.667 27 -44 36s-36.666 13.5 -57.999 13.5c-23.333 0 -43.666 -4.5 -60.999 -13.5
s-32 -21.167 -44 -36.5s-21 -33 -27 -53s-9 -40.667 -9 -62s3.33301 -41.166 10 -59.499s16.167 -34.166 28.5 -47.499s27.333 -23.833 45 -31.5s37.167 -11.5 58.5 -11.5c20.667 0 39.5 4.16699 56.5 12.5s31.667 19.5 44 33.5s21.833 30.333 28.5 49s10 38 10 58z" />
    <glyph glyph-name="q" unicode="q" horiz-adv-x="412" 
d="M331 -214l0.00195312 277.999c-20.667 -25.333 -42.834 -43.5 -66.501 -54.5s-47.834 -16.5 -72.501 -16.5c-27.333 0 -51.833 4.66699 -73.5 14s-40.167 22.333 -55.5 39s-27.166 36.334 -35.499 59.001s-12.5 47.334 -12.5 74.001s4.16699 52 12.5 76
s20.166 44.667 35.499 62s34 31.166 56 41.499s46.667 15.5 74 15.5c24 0 48 -5.66699 72 -17s46 -30 66 -56v65h35v-580h-35zM333.002 178.999c0 20.667 -3.33789 40.8311 -10.0049 60.498s-16.167 37 -28.5 52s-27.166 27 -44.499 36s-36.666 13.5 -57.999 13.5
c-23.333 0 -43.666 -4.5 -60.999 -13.5s-32 -21.167 -44 -36.5s-21 -32.833 -27 -52.5s-9 -40.5 -9 -62.5c0 -21.333 3.33301 -41.166 10 -59.499s16.334 -34.166 29.001 -47.499s27.834 -23.833 45.501 -31.5s37.167 -11.5 58.5 -11.5c20.667 0 39.5 4.16699 56.5 12.5
s31.667 19.5 44 33.5s21.833 30.333 28.5 49s10 38 10 58z" />
    <glyph glyph-name="r" unicode="r" horiz-adv-x="196" 
d="M181 333c-12 4 -21.0029 6.00195 -27.0029 6.00195c-19.333 0 -34 -5.5 -44 -16.5s-17.167 -24.5 -21.5 -40.5s-6.66602 -32.833 -6.99902 -50.5s-0.5 -32.834 -0.5 -45.501v-187h-35v366h35v-50l3.5 9c1 2.66699 2.16699 5 3.5 7
c7.33301 13.333 16.833 23.666 28.5 30.999s26.167 11 43.5 11c6.66699 0 12.834 -0.5 18.501 -1.5s12.834 -2.83301 21.501 -5.5z" />
    <glyph glyph-name="s" unicode="s" horiz-adv-x="269" 
d="M250 106c0 -17.333 -2.99805 -32.999 -8.99805 -46.999s-14.333 -26 -25 -36s-23 -17.667 -37 -23s-29 -8 -45 -8c-30 0 -55.833 8.16699 -77.5 24.5s-36.834 40.5 -45.501 72.5l33 12c8.66699 -23.333 20 -41.666 34 -54.999s32.667 -20 56 -20
c22 0 40.833 7.66699 56.5 23s23.5 34.666 23.5 57.999c0 11.333 -2 20.833 -6 28.5s-9.16699 14.167 -15.5 19.5s-13.666 9.83301 -21.999 13.5s-16.833 7.16699 -25.5 10.5l-37 15c-12.667 5.33301 -24 11.833 -34 19.5s-18.167 16.834 -24.5 27.501s-9.5 23.667 -9.5 39
c0 28 9.66699 50.5 29 67.5s42 25.5 68 25.5c17.333 0 34.5 -4.83301 51.5 -14.5s30.5 -23.834 40.5 -42.501l-30 -17c-7.33301 14 -16.5 24.167 -27.5 30.5s-22.833 9.5 -35.5 9.5c-14.667 0 -28.334 -5.33301 -41.001 -16s-19 -23.667 -19 -39
c0 -17.333 5.5 -30.333 16.5 -39s23.833 -15.667 38.5 -21l16 -6l16 -6c10.667 -4 21.167 -8.66699 31.5 -14s19.666 -12 27.999 -20s15 -17.833 20 -29.5s7.5 -25.834 7.5 -42.501z" />
    <glyph glyph-name="t" unicode="t" horiz-adv-x="156" 
d="M83 332v-332h-36v332h-39v33h39v132h36v-132h64v-33h-64z" />
    <glyph glyph-name="u" unicode="u" horiz-adv-x="358" 
d="M316 147c0 -24 -2.16309 -45.668 -6.49609 -65.001s-11.666 -35.666 -21.999 -48.999s-24.333 -23.5 -42 -30.5s-39.834 -10.5 -66.501 -10.5s-48.834 3.5 -66.501 10.5s-31.667 17.333 -42 31s-17.666 30 -21.999 49s-6.5 40.5 -6.5 64.5v218h35v-218
c0 -18.667 1.33301 -35.5 4 -50.5s7.66699 -27.667 15 -38s17.666 -18.333 30.999 -24s30.666 -8.5 51.999 -8.5s38.666 2.83301 51.999 8.5s23.666 13.667 30.999 24s12.333 23 15 38s4 31.833 4 50.5v218h35v-218z" />
    <glyph glyph-name="v" unicode="v" horiz-adv-x="323" 
d="M171 0h-16l-156 365h37l128 -299l124 299h37z" />
    <glyph glyph-name="w" unicode="w" horiz-adv-x="569" 
d="M420 0h-17l-118 296l-116 -296h-16l-153 365h37l124 -298l117 298h16l118 -298l122 298h35z" />
    <glyph glyph-name="x" unicode="x" horiz-adv-x="328" 
d="M289 -1l-126 168l-127 -168h-41l145 195l-133 172h41l116 -148l112 148h45l-133 -172l144 -195h-43z" />
    <glyph glyph-name="y" unicode="y" horiz-adv-x="356" 
d="M120 -214h-37l85 206l-171 373h37l154 -330l135 330h36z" />
    <glyph glyph-name="z" unicode="z" horiz-adv-x="347" 
d="M20 0v32l262 300h-252v33h297v-32l-260 -300h260v-33h-307z" />
    <glyph glyph-name="braceleft" unicode="{" horiz-adv-x="196" 
d="M175 -115c-21.333 1.33301 -38.665 4.33203 -51.998 8.99902s-23.666 11.667 -30.999 21s-12.5 21.166 -15.5 35.499s-4.5 31.5 -4.5 51.5v123c0 19.333 -4.5 35 -13.5 47s-21.167 24 -36.5 36v32c15.333 12 27.333 23.5 36 34.5s13 26.167 13 45.5v123
c0 20 1.5 37.167 4.5 51.5s8.33301 26.333 16 36s18.167 16.834 31.5 21.501s30.666 7.66699 51.999 9v-37c-18.667 0 -34.334 -3.33301 -47.001 -10s-19 -21.334 -19 -44.001v-131c0 -17.333 -1.16699 -32 -3.5 -44s-5.5 -22.333 -9.5 -31s-9.16699 -16.167 -15.5 -22.5
s-13.5 -12.5 -21.5 -18.5c7.33301 -5.33301 14 -11.166 20 -17.499s11.167 -14.166 15.5 -23.499s7.66602 -20.333 9.99902 -33s3.5 -27.667 3.5 -45v-129c0 -23.333 6.5 -38 19.5 -44s28.833 -9 47.5 -9v-37z" />
    <glyph glyph-name="bar" unicode="|" horiz-adv-x="209" 
d="M86 0v577h37v-577h-37z" />
    <glyph glyph-name="braceright" unicode="}" horiz-adv-x="196" 
d="M174 208c-15.333 -12 -27.3301 -24.002 -35.9971 -36.002s-13 -27.667 -13 -47v-123c0 -20 -1.5 -37.167 -4.5 -51.5s-8.33301 -26.166 -16 -35.499s-18.334 -16.333 -32.001 -21s-30.834 -7.66699 -51.501 -9v36c18.667 0 34.334 3.16699 47.001 9.5
s19 21.166 19 44.499v129c0 17.333 1.16699 32.333 3.5 45s5.66602 23.5 9.99902 32.5s9.66602 16.833 15.999 23.5s13.166 12.667 20.499 18c-8 6 -15 12.167 -21 18.5s-11.167 13.833 -15.5 22.5s-7.5 19 -9.5 31s-3 26.667 -3 44v131
c0 22.667 -6.66699 37.334 -20 44.001s-29 10 -47 10v37c20.667 -1.33301 37.834 -4.33301 51.501 -9s24.167 -11.667 31.5 -21s12.5 -21.166 15.5 -35.499s4.5 -31.833 4.5 -52.5v-123c0 -19.333 4.5 -34.5 13.5 -45.5s21.167 -22.5 36.5 -34.5v-32z" />
    <glyph glyph-name="asciitilde" unicode="~" horiz-adv-x="412" 
d="M384 207c-13.333 -21.333 -28.1641 -40.001 -44.4971 -56.001s-35.833 -24 -58.5 -24c-12 0 -24 2.83301 -36 8.5s-24 11.834 -36 18.501s-24.333 12.834 -37 18.501s-25.667 8.5 -39 8.5c-14.667 0 -26.834 -4.66699 -36.501 -14s-19.834 -22 -30.501 -38l-36 18
l20.5 26.5c7 9 14.667 17 23 24s17.333 12.833 27 17.5s20.5 7 32.5 7c8.66699 0 18.334 -1.5 29.001 -4.5s21.167 -6.83301 31.5 -11.5s20.5 -9.5 30.5 -14.5l27 -13.5c6 -2.66699 11.667 -4.83398 17 -6.50098s10 -2.5 14 -2.5c13.333 0 25.166 5 35.499 15
s20.166 24 29.499 42z" />
    <glyph glyph-name="uni00A0" unicode="&#xa0;" horiz-adv-x="250" 
 />
    <glyph glyph-name="cent" unicode="&#xa2;" horiz-adv-x="455" 
d="M360 146c-14 -12 -29.333 -21.833 -46 -29.5s-34 -12.167 -52 -13.5v-40h-32v41c-19.333 2.66699 -37 8.5 -53 17.5s-29.833 20.5 -41.5 34.5s-20.667 30 -27 48s-9.5 37.333 -9.5 58c0 20 3.33301 39 10 57s15.667 34 27 48s25 25.5 41 34.5s33.667 14.833 53 17.5v41
h32v-40c34.667 -2 65.667 -14.667 93 -38l-18 -29c-13.333 11.333 -25.833 19.5 -37.5 24.5s-24.167 8.16699 -37.5 9.5v-251c13.333 1.33301 26.5 5 39.5 11s26.5 15.333 40.5 28zM230 386c-14 -2.66699 -27.001 -7.83203 -39.001 -15.499s-22.167 -17 -30.5 -28
s-15 -23.5 -20 -37.5s-7.5 -28.333 -7.5 -43s2.5 -29 7.5 -43s11.833 -26.667 20.5 -38s18.834 -20.833 30.501 -28.5s24.5 -12.834 38.5 -15.501v249z" />
    <glyph glyph-name="sterling" unicode="&#xa3;" horiz-adv-x="390" 
d="M327 361c0 18.667 -3.49805 36.332 -10.498 52.999s-16.167 31 -27.5 43s-24.833 21.5 -40.5 28.5s-31.834 10.5 -48.501 10.5c-17.333 0 -33 -3.5 -47 -10.5s-26 -16.5 -36 -28.5s-17.833 -26 -23.5 -42s-8.5 -33.333 -8.5 -52v-95h106v-33h-106v-202l259 1v-34h-329v33
h34v202h-34v33h34v95c0 24 3.66699 46.333 11 67s17.666 38.834 30.999 54.501s29.166 28 47.499 37s38.833 13.5 61.5 13.5s43.834 -4.5 63.501 -13.5s37 -21.333 52 -37s26.833 -34 35.5 -55s13 -43.833 13 -68.5h-37z" />
    <glyph glyph-name="yen" unicode="&#xa5;" horiz-adv-x="385" 
d="M269 326h92v-31h-109l-40 -70h149v-31h-149v-194h-39v193h-147v32h147l-40 70h-107v31h90l-115 202h42l149 -264l150 264h42z" />
    <glyph glyph-name="copyright" unicode="&#xa9;" horiz-adv-x="592" 
d="M415 146c-15.333 -13.333 -32.501 -23.9971 -51.501 -31.9971s-38.167 -12 -57.5 -12c-22 0 -42.333 4.16699 -61 12.5s-34.667 19.666 -48 33.999s-23.833 31.333 -31.5 51s-11.5 40.5 -11.5 62.5s3.83301 42.667 11.5 62s18.334 36.166 32.001 50.499
s29.834 25.666 48.501 33.999s39 12.5 61 12.5c37.333 0 71.666 -13 102.999 -39l-20 -27c-14.667 11.333 -28.5 19.666 -41.5 24.999s-27.167 8 -42.5 8c-16.667 0 -32.167 -3.5 -46.5 -10.5s-26.833 -16.167 -37.5 -27.5s-19 -24.666 -25 -39.999s-9 -31.333 -9 -48
s3 -32.667 9 -48s14.333 -28.833 25 -40.5s23.167 -21 37.5 -28s29.5 -10.5 45.5 -10.5c15.333 0 30.333 3 45 9s29.667 15.667 45 29zM568.999 265.003c0 -38 -7.16699 -73.667 -21.5 -107s-33.833 -62.5 -58.5 -87.5s-53.667 -44.667 -87 -59
s-68.666 -21.5 -105.999 -21.5c-38 0 -73.667 7.16699 -107 21.5s-62.5 34 -87.5 59s-44.667 54.167 -59 87.5s-21.5 69 -21.5 107c0 37.333 7.16699 72.666 21.5 105.999s34 62.333 59 87s54.167 44.167 87.5 58.5s69 21.5 107 21.5
c37.333 0 72.666 -7.16699 105.999 -21.5s62.333 -33.833 87 -58.5s44.167 -53.667 58.5 -87s21.5 -68.666 21.5 -105.999zM531.999 265.003c0 32.667 -6.16797 63.334 -18.501 92.001s-29.166 53.667 -50.499 75s-46.333 38.166 -75 50.499s-59.334 18.5 -92.001 18.5
c-33.333 0 -64.5 -6.16699 -93.5 -18.5s-54.167 -29.166 -75.5 -50.499s-38.166 -46.333 -50.499 -75s-18.5 -59.334 -18.5 -92.001c0 -33.333 6.16699 -64.5 18.5 -93.5s29.166 -54.167 50.499 -75.5s46.5 -38.166 75.5 -50.499s60.167 -18.5 93.5 -18.5
c32.667 0 63.334 6.16699 92.001 18.5s53.5 29.166 74.5 50.499s37.667 46.5 50 75.5s18.5 60.167 18.5 93.5h1z" />
    <glyph glyph-name="guillemotleft" unicode="&#xab;" horiz-adv-x="262" 
d="M141 224l82 -99l-22 -23l-102 122l102 122l22 -23zM119 102l-102 122l102 122l23 -23l-82 -99l82 -99z" />
    <glyph glyph-name="registered" unicode="&#xae;" horiz-adv-x="592" 
d="M569 265c0 -38 -7.16699 -73.667 -21.5 -107s-33.833 -62.5 -58.5 -87.5s-53.667 -44.667 -87 -59s-68.666 -21.5 -105.999 -21.5c-38 0 -73.667 7.16699 -107 21.5s-62.5 34 -87.5 59s-44.667 54.167 -59 87.5s-21.5 69 -21.5 107c0 37.333 7.16699 72.666 21.5 105.999
s34 62.333 59 87s54.167 44.167 87.5 58.5s69 21.5 107 21.5c37.333 0 72.666 -7.16699 105.999 -21.5s62.333 -33.833 87 -58.5s44.167 -53.667 58.5 -87s21.5 -68.666 21.5 -105.999zM532 265c0 32.667 -6.16797 63.334 -18.501 92.001s-29.166 53.667 -50.499 75
s-46.333 38.166 -75 50.499s-59.334 18.5 -92.001 18.5c-33.333 0 -64.5 -6.16699 -93.5 -18.5s-54.167 -29.166 -75.5 -50.499s-38.166 -46.333 -50.499 -75s-18.5 -59.334 -18.5 -92.001c0 -33.333 6.16699 -64.5 18.5 -93.5s29.166 -54.167 50.499 -75.5
s46.5 -38.166 75.5 -50.499s60.167 -18.5 93.5 -18.5c32.667 0 63.334 6.16699 92.001 18.5s53.5 29.166 74.5 50.499s37.667 46.5 50 75.5s18.5 60.167 18.5 93.5h1zM431.999 327c-1.33301 -27.333 -10.5 -47.333 -27.5 -60s-38.167 -19.667 -63.5 -21l45 -67.5l45 -67.5
h-46l-85 135h-67v-135h-38v296h131c40 0 67.667 -7 83 -21s23 -33.667 23 -59zM396.999 327c0 9.33301 -2.33203 16.833 -6.99902 22.5s-10.834 10 -18.501 13s-16.167 5 -25.5 6s-18.666 1.5 -27.999 1.5h-86v-88h57h14h28c9.33301 0 18.666 1.33301 27.999 4
c10.667 2.66699 19.5 7.16699 26.5 13.5s10.833 15.5 11.5 27.5z" />
    <glyph glyph-name="guillemotright" unicode="&#xbb;" horiz-adv-x="262" 
d="M143 102l-22 23l83 99l-83 99l22 23l101 -122zM62 102l-22 23l82 99l-82 99l22 23l101 -122z" />
    <glyph glyph-name="onequarter" unicode="&#xbc;" horiz-adv-x="572" 
d="M494 51v-51h-38v51h-147v15l167 238h18v-216h35v-37h-35zM136 0h-47l371 527h46zM112 229v262h-52v36h90v-298h-38zM456 212l-86 -124h86v124z" />
    <glyph glyph-name="onehalf" unicode="&#xbd;" horiz-adv-x="572" 
d="M536 211c0 -11.333 -1.83398 -21.499 -5.50098 -30.499s-8.16699 -17.833 -13.5 -26.5c-5.33301 -8 -11.166 -15.5 -17.499 -22.5l-19.5 -21.5l-67 -74h122v-36h-178v32l54.5 58l53.5 59c7.33301 8.66699 14.5 18.5 21.5 29.5s10.5 22.167 10.5 33.5
c0 15.333 -5.5 28.166 -16.5 38.499s-24.167 15.5 -39.5 15.5s-28.5 -5.5 -39.5 -16.5s-16.5 -27.5 -16.5 -49.5h-39c0.666992 34.667 10.667 60.5 30 77.5s41 25.5 65 25.5c26 0 48.333 -8.83301 67 -26.5s28 -39.5 28 -65.5zM115.999 0.000976562h-47l371 528h46z
M111.999 229.001v263h-52v36h90v-299h-38z" />
    <glyph glyph-name="threequarters" unicode="&#xbe;" horiz-adv-x="572" 
d="M156 0h-47l371 528h46zM494 51v-51h-38v51h-147v15l167 240h18v-218h35v-37h-35zM236 318c0 -26 -8.83203 -47.834 -26.499 -65.501s-39.834 -26.5 -66.501 -26.5c-23.333 0 -43.833 7.83301 -61.5 23.5s-26.5 38.5 -26.5 68.5h37c5.33301 -37.333 22.333 -56 51 -56
c14.667 0 27.334 5.5 38.001 16.5s16 23.833 16 38.5c0 32.667 -21.333 49.334 -64 50.001v36c20 1.33301 35 6.33301 45 15s15 20 15 34c0 12.667 -4.5 23.167 -13.5 31.5s-19.5 12.5 -31.5 12.5c-13.333 0 -23.833 -4 -31.5 -12s-12.167 -21.667 -13.5 -41h-39
c5.33301 60 33.333 90 84 90c23.333 0 43.166 -7.83301 59.499 -23.5s24.5 -35.167 24.5 -58.5c0 -26 -11 -47.333 -33 -64c24.667 -16.667 37 -39.667 37 -69zM456.001 212.999l-86 -125h86v125z" />
    <glyph glyph-name="multiply" unicode="&#xd7;" horiz-adv-x="380" 
d="M314 41l-124 124l-124 -124l-25 25l124 124l-124 124l25 25l124 -124l124 124l25 -25l-124 -124l124 -124z" />
    <glyph glyph-name="divide" unicode="&#xf7;" horiz-adv-x="380" 
d="M225 296c0 -9.33301 -3.5 -17.5 -10.5 -24.5s-15.167 -10.5 -24.5 -10.5s-17.5 3.5 -24.5 10.5s-10.5 15.167 -10.5 24.5s3.5 17.5 10.5 24.5s15.167 10.5 24.5 10.5s17.5 -3.5 24.5 -10.5s10.5 -15.167 10.5 -24.5zM27 172v36h326v-36h-326zM225 84
c0 -9.33301 -3.5 -17.5 -10.5 -24.5s-15.167 -10.5 -24.5 -10.5s-17.5 3.5 -24.5 10.5s-10.5 15.167 -10.5 24.5s3.5 17.5 10.5 24.5s15.167 10.5 24.5 10.5s17.5 -3.5 24.5 -10.5s10.5 -15.167 10.5 -24.5z" />
    <glyph glyph-name="kokaithai" unicode="&#xe01;" horiz-adv-x="455" 
d="M412 0h-35.001v262c0 24 -4.33301 45.833 -13 65.5s-20.5 36.5 -35.5 50.5s-32.833 24.833 -53.5 32.5s-43 11.5 -67 11.5c-30 0 -57.667 -7.66699 -83 -23s-45.666 -34 -60.999 -56l38 -41l-1 -302h-35v291l-44 50c18 32.667 43.5 60 76.5 82s69.5 33 109.5 33
c30 0 57.5 -4.83301 82.5 -14.5s46.5 -23 64.5 -40s32 -37.5 42 -61.5s15 -50 15 -78v-262z" />
    <glyph glyph-name="khokhaithai" unicode="&#xe02;" horiz-adv-x="390" 
d="M347 133c0 -19.333 -3.66895 -37.4971 -11.002 -54.4971s-17.333 -31.833 -30 -44.5s-27.667 -22.667 -45 -30s-35.666 -11 -54.999 -11s-37.666 3.66699 -54.999 11s-32.5 17.333 -45.5 30s-23.167 27.5 -30.5 44.5s-11 35.167 -11 54.5c0 17.333 2.16699 32.333 6.5 45
s9.83301 23.667 16.5 33s14.334 17.166 23.001 23.499s17.334 12.166 26.001 17.499l26 16c8.66699 5.33301 16.167 11.166 22.5 17.499s11.5 13.833 15.5 22.5s6 19.334 6 32.001c0 23.333 -8.16699 43.166 -24.5 59.499s-36.5 24.5 -60.5 24.5
c-16.667 0 -31.834 -4.33301 -45.501 -13s-24.167 -20.667 -31.5 -36l-28 19c10.667 19.333 25.167 34.666 43.5 45.999s38.833 17 61.5 17c16.667 0 32.167 -3 46.5 -9s26.833 -14.333 37.5 -25s19.167 -23.167 25.5 -37.5s9.5 -29.5 9.5 -45.5
c0 -16.667 -2.16699 -30.667 -6.5 -42s-9.83301 -21 -16.5 -29s-14.334 -15 -23.001 -21s-17.334 -11.667 -26.001 -17l-24.5 -16c-8.33301 -5.33301 -15.833 -11.666 -22.5 -18.999s-12 -16 -16 -26s-6 -22.333 -6 -37s2.83301 -28.334 8.5 -41.001
s13.334 -23.834 23.001 -33.501s21 -17.334 34 -23.001s26.833 -8.5 41.5 -8.5s28.5 2.83301 41.5 8.5s24.167 13.334 33.5 23.001s16.833 20.834 22.5 33.501s8.5 26.334 8.5 41.001v317h35v-317z" />
    <glyph glyph-name="khokhuatthai" unicode="&#xe03;" horiz-adv-x="390" 
d="M347 133c0 -19.333 -3.6709 -37.4971 -11.0039 -54.4971s-17.333 -31.833 -30 -44.5s-27.667 -22.667 -45 -30s-35.666 -11 -54.999 -11s-37.666 3.66699 -54.999 11s-32.5 17.333 -45.5 30s-23.167 27.5 -30.5 44.5s-11 35.167 -11 54.5c0 17.333 2.16699 32.333 6.5 45
s9.83301 23.667 16.5 33s14.334 17.166 23.001 23.499s17.334 12.166 26.001 17.499l26 16c8.66699 5.33301 16.167 11.166 22.5 17.499s11.5 13.833 15.5 22.5s6 19.334 6 32.001c0 15.333 -3.5 29.333 -10.5 42s-16.833 22.667 -29.5 30l-59 -54l-89 77l21 20l67 -56
l57 51c23.333 -9.33301 42 -23.833 56 -43.5s21 -41.834 21 -66.501c0 -16 -2 -29.667 -6 -41s-9.5 -21 -16.5 -29s-14.833 -15 -23.5 -21s-17.334 -11.667 -26.001 -17l-24.5 -16c-8.33301 -5.33301 -15.833 -12 -22.5 -20c-6.66699 -7.33301 -12 -16 -16 -26
s-6 -22.333 -6 -37s2.83301 -28.334 8.5 -41.001s13.334 -23.834 23.001 -33.501s21 -17.334 34 -23.001s26.833 -8.5 41.5 -8.5s28.5 2.83301 41.5 8.5s24.167 13.334 33.5 23.001s16.833 20.834 22.5 33.501s8.5 26.334 8.5 41.001v317h35v-317z" />
    <glyph glyph-name="khokhwaithai" unicode="&#xe04;" horiz-adv-x="440" 
d="M397 0h-35.001v279c0 19.333 -3.66699 37.666 -11 54.999s-17.5 32.333 -30.5 45s-28.167 22.667 -45.5 30s-35.666 11 -54.999 11c-20 0 -38.5 -3.66699 -55.5 -11s-32 -17.333 -45 -30s-23.167 -27.667 -30.5 -45s-11 -35.666 -11 -54.999v-35h143v-34h-143v-210h-35
v279c0 24 4.66699 46.667 14 68s22 40 38 56s34.667 28.667 56 38s44.333 14 69 14s47.667 -4.66699 69 -14s40 -22 56 -38s28.667 -34.667 38 -56s14 -44 14 -68v-279z" />
    <glyph glyph-name="khokhonthai" unicode="&#xe05;" horiz-adv-x="463" 
d="M420 0l-35.002 -0.000976562v291c0 26.667 -6.16699 50.834 -18.5 72.501s-29.166 39.5 -50.499 53.5l-85 -78l-83 78c-21.333 -14 -38.333 -32 -51 -54s-19 -46.333 -19 -73v-45h155v-35h-155v-210h-35v291c0 38 9.83301 71.667 29.5 101s45.834 51.666 78.501 66.999
l81 -73l81 73c32 -15.333 57.833 -37.666 77.5 -66.999s29.5 -63 29.5 -101v-291z" />
    <glyph glyph-name="khorakhangthai" unicode="&#xe06;" horiz-adv-x="445" 
d="M402 166c0 -24 -4.66602 -46.668 -13.999 -68.001s-22 -39.833 -38 -55.5s-34.667 -28 -56 -37s-44.333 -13.5 -69 -13.5c-28 0 -54.167 6.16699 -78.5 18.5s-45.5 29.5 -63.5 51.5v-63h-35v181c0 18 1.5 33.333 4.5 46s7 23.5 12 32.5s10.833 16.833 17.5 23.5
s13.334 12.667 20.001 18l36 26.5c12 9 18 22.167 18 39.5c0 20.667 -8.33301 37.334 -25 50.001l-50 -45l-77 66l19 23l57 -48l50 43c18 -7.33301 32.667 -19 44 -35s17 -33.667 17 -53c0 -16.667 -2.66699 -30.167 -8 -40.5s-12 -19 -20 -26s-16.667 -13.333 -26 -19
s-18 -12.667 -26 -21s-14.667 -18.833 -20 -31.5s-8 -29 -8 -49v-13c0 -19.333 3.66699 -37.666 11 -54.999s17.5 -32.333 30.5 -45s28.167 -22.667 45.5 -30s35.666 -11 54.999 -11s37.666 3.66699 54.999 11s32.5 17.333 45.5 30s23.167 27.667 30.5 45
s11 35.666 11 54.999v283h35v-284z" />
    <glyph glyph-name="ngonguthai" unicode="&#xe07;" horiz-adv-x="371" 
d="M327 92c0 -28 -9.16699 -51.167 -27.5 -69.5s-41.5 -27.5 -69.5 -27.5c-19.333 0 -37 4.83301 -53 14.5s-27.667 22.834 -35 39.501l-127 274l33 13l126 -274c5.33301 -10 13 -18 23 -24s20.667 -9 32 -9c17.333 0 32.333 6.16699 45 18.5s19 27.166 19 44.499v323h-66
v35h100v-358z" />
    <glyph glyph-name="chochanthai" unicode="&#xe08;" horiz-adv-x="405" 
d="M362 285c0 -22 -3.33301 -40.999 -10 -56.999l-83 -228h-49l-100 290h37l88 -257l73 205c6 14.667 9 30.334 9 47.001c0 18.667 -3.5 36.167 -10.5 52.5s-16.667 30.666 -29 42.999s-26.833 22 -43.5 29s-34.334 10.5 -53.001 10.5s-36.167 -3.5 -52.5 -10.5
s-30.666 -16.5 -42.999 -28.5s-22.166 -26.333 -29.499 -43s-11 -34.334 -11 -53.001h-36c0.666992 24 5.66699 46.333 15 67s21.666 38.667 36.999 54s33.333 27.333 54 36s42.667 13 66 13c24 0 46.333 -4.5 67 -13.5s38.667 -21.167 54 -36.5s27.5 -33.333 36.5 -54
s13.5 -42.667 13.5 -66z" />
    <glyph glyph-name="chochingthai" unicode="&#xe09;" horiz-adv-x="417" 
d="M374 1l-34.999 0.00195312v57c-17.333 -20 -37.166 -35.833 -59.499 -47.5s-46.166 -17.5 -71.499 -17.5c-23.333 0 -45 4.16699 -65 12.5s-37.5 19.833 -52.5 34.5s-26.833 31.834 -35.5 51.501s-13 41.167 -13 64.5v66h-34v35h69v-101c0 -18 3.5 -34.833 10.5 -50.5
s16.333 -29.334 28 -41.001s25.5 -20.834 41.5 -27.501s33 -10 51 -10s35 3.33301 51 10s29.833 15.667 41.5 27s21 25 28 41s10.5 33 10.5 51v130c0 18.667 -3.5 36.167 -10.5 52.5s-16.833 30.666 -29.5 42.999s-27.334 22 -44.001 29s-34.334 10.5 -53.001 10.5
c-28.667 0 -54.334 -8 -77.001 -24s-39.334 -37 -50.001 -63h-37c12 36 32.833 65.333 62.5 88s63.5 34 101.5 34c24 0 46.333 -4.5 67 -13.5s38.834 -21.167 54.501 -36.5s28 -33.333 37 -54s13.5 -42.667 13.5 -66v-285z" />
    <glyph glyph-name="chochangthai" unicode="&#xe0a;" horiz-adv-x="390" 
d="M317 369c20 -25.333 30 -54.333 30 -87v-149c0 -19.333 -3.66699 -37.5 -11 -54.5s-17.333 -31.833 -30 -44.5s-27.667 -22.667 -45 -30s-35.666 -11 -54.999 -11s-37.666 3.66699 -54.999 11s-32.333 17.333 -45 30s-22.667 27.5 -30 44.5s-11 35.167 -11 54.5
c0 18 2 33.167 6 45.5s9.33301 23 16 32s14.167 16.833 22.5 23.5s17.166 12.667 26.499 18l26.5 15.5c8.33301 5 15.833 10.833 22.5 17.5s11.834 14.334 15.501 23.001s5.5 19.334 5.5 32.001c0 23.333 -8.16699 43.166 -24.5 59.499s-36.5 24.5 -60.5 24.5
c-16.667 0 -31.834 -4.33301 -45.501 -13s-24.167 -20.667 -31.5 -36l-28 20c10.667 19.333 25.167 34.666 43.5 45.999s38.833 17 61.5 17c16.667 0 32.167 -3.16699 46.5 -9.5s26.833 -14.833 37.5 -25.5s19.167 -23.167 25.5 -37.5s9.5 -29.5 9.5 -45.5
s-2 -29.667 -6 -41s-9.33301 -21 -16 -29s-14.334 -15 -23.001 -21s-17.334 -11.667 -26.001 -17c-21.333 -11.333 -38.166 -24 -50.499 -38s-18.5 -34.333 -18.5 -61c0 -30 10.167 -55 30.5 -75s45.5 -30 75.5 -30s55.167 10 75.5 30s30.5 45 30.5 75v148
c0 17.333 -3.83301 33.5 -11.5 48.5s-18.167 28.167 -31.5 39.5l106 117l27 -22z" />
    <glyph glyph-name="sosothai" unicode="&#xe0b;" horiz-adv-x="390" 
d="M317 369c9.33301 -12 16.8291 -25.3379 22.4961 -40.0049s8.5 -30.334 8.5 -47.001v-149c0 -19.333 -3.66699 -37.5 -11 -54.5s-17.5 -31.833 -30.5 -44.5s-28.167 -22.667 -45.5 -30s-35.666 -11 -54.999 -11s-37.666 3.66699 -54.999 11s-32.5 17.333 -45.5 30
s-23.167 27.5 -30.5 44.5s-11 35.167 -11 54.5c0 18 2.16699 33.333 6.5 46s9.83301 23.667 16.5 33s14.334 17.333 23.001 24s17.334 13 26.001 19s17.334 11.667 26.001 17s16.167 11.333 22.5 18s11.5 14.334 15.5 23.001s6 19.334 6 32.001
c0 15.333 -3.5 29.333 -10.5 42s-16.833 22.667 -29.5 30l-61 -57l-86 75l20 21l65 -55l59 54c23.333 -9.33301 42 -23.666 56 -42.999s21 -41.666 21 -66.999c0 -16 -2 -29.667 -6 -41s-9.33301 -21.166 -16 -29.499s-14.334 -15.666 -23.001 -21.999
s-17.334 -12.166 -26.001 -17.499c-21.333 -13.333 -38.333 -27 -51 -41s-19 -34.333 -19 -61c0 -14.667 2.83301 -28.334 8.5 -41.001s13.334 -23.834 23.001 -33.501s21 -17.167 34 -22.5s26.833 -8 41.5 -8s28.5 2.66699 41.5 8s24.333 12.833 34 22.5
s17.167 20.834 22.5 33.501s8 26.667 8 42v148c0 17.333 -3.83301 33.333 -11.5 48s-18.167 27.667 -31.5 39l106 117l27 -22z" />
    <glyph glyph-name="chochoethai" unicode="&#xe0c;" horiz-adv-x="742" 
d="M699 152c0 -26 -4.00195 -49 -12.002 -69s-19 -36.667 -33 -50s-30.333 -23.333 -49 -30s-38.334 -10 -59.001 -10c-25.333 0 -50.166 8.5 -74.499 25.5s-44.166 37.167 -59.499 60.5v-79h-35v262c0 24 -4.33301 45.833 -13 65.5s-20.5 36.5 -35.5 50.5
s-32.833 24.833 -53.5 32.5s-43 11.5 -67 11.5c-30 0 -57.667 -7.66699 -83 -23s-45.666 -34 -60.999 -56l37 -41v-268l69 1v-35h-104v291l-44 50c18 32.667 43.5 60 76.5 82s69.5 33 109.5 33c30 0 57.5 -4.83301 82.5 -14.5s46.5 -23 64.5 -40s32 -37.5 42 -61.5
s15 -50 15 -78v-72c0 -23.333 4.33301 -45 13 -65s19.5 -37.333 32.5 -52s27.5 -26 43.5 -34s31 -12 45 -12c34 0 62 10.667 84 32s33 52.333 33 93v299h36v-299z" />
    <glyph glyph-name="yoyingthai" unicode="&#xe0d;" horiz-adv-x="741" 
d="M698 2c0 -22.667 -4.32812 -43.835 -12.9951 -63.502s-20.5 -37 -35.5 -52s-32.667 -26.833 -53 -35.5s-41.833 -13 -64.5 -13c-32 0 -61 8 -87 24s-46.333 38 -61 66l32 17c11.333 -22 27.166 -39.5 47.499 -52.5s43.166 -19.5 68.499 -19.5c18 0 35 3.33301 51 10
s30 15.834 42 27.501s21.333 25.334 28 41.001s10 32.5 10 50.5v53c-14.667 -18.667 -32.834 -33.667 -54.501 -45s-45.167 -17 -70.5 -17c-22 0 -42.833 4.16699 -62.5 12.5s-36.834 19.833 -51.501 34.5s-26.167 31.5 -34.5 50.5s-12.5 39.5 -12.5 61.5v110
c0 24 -4.33301 45.833 -13 65.5s-20.5 36.5 -35.5 50.5s-32.833 24.833 -53.5 32.5s-43 11.5 -67 11.5c-30 0 -57.667 -7.66699 -83 -23s-45.666 -34 -60.999 -56l37 -40v-268h69v-35h-104v292l-44 50c8.66699 16 19.667 31 33 45s28 26 44 36s33.333 18 52 24
s37.667 9 57 9c30 0 57.5 -4.83301 82.5 -14.5s46.5 -23 64.5 -40s32 -37.5 42 -61.5s15 -50 15 -78v-110c0 -17.333 3.33301 -33.5 10 -48.5s15.667 -28 27 -39s24.5 -19.833 39.5 -26.5s31.167 -10 48.5 -10s33.666 3 48.999 9s28.666 14.5 39.999 25.5
s20.333 24.167 27 39.5s10 32 10 50v298h35v-293v-155z" />
    <glyph glyph-name="dochadathai" unicode="&#xe0e;" horiz-adv-x="465" 
d="M325 -168c-39.333 31.333 -84.668 47 -136.001 47s-96.666 -15.667 -135.999 -47l-22 26c22.667 17.333 47 30.833 73 40.5s54 14.5 84 14.5c24.667 0 48.167 -3.33301 70.5 -10s43.166 -15.667 62.499 -27l66 65v321c0 24 -4.33301 45.833 -13 65.5
s-20.5 36.5 -35.5 50.5s-32.833 24.833 -53.5 32.5s-43 11.5 -67 11.5c-30 0 -57.667 -7.66699 -83 -23s-45.666 -34 -60.999 -56l37 -41v-302h-81v35h46v257l-44 50c8.66699 16 19.667 31 33 45s28 26 44 36s33.333 18 52 24s37.667 9 57 9c30 0 57.5 -4.83301 82.5 -14.5
s46.5 -23 64.5 -40s32 -37.5 42 -61.5s15 -50 15 -78v-335z" />
    <glyph glyph-name="topatakthai" unicode="&#xe0f;" horiz-adv-x="465" 
d="M325 -170l-76.001 76l-75 -75l-108 108l24 23l84 -84l76 75l76 -76l61 61v323c0 24 -4.33301 45.833 -13 65.5s-20.5 36.5 -35.5 50.5s-32.833 24.833 -53.5 32.5s-43 11.5 -67 11.5c-30 0 -57.667 -7.5 -83 -22.5s-45.666 -33.5 -60.999 -55.5l37 -41v-302h-81v35h46
v256l-44 50c18 32.667 43.5 60 76.5 82s69.5 33 109.5 33c30 0 57.5 -4.83301 82.5 -14.5s46.5 -23.167 64.5 -40.5s32 -38 42 -62s15 -50 15 -78v-334z" />
    <glyph glyph-name="thothanthai" unicode="&#xe10;" horiz-adv-x="405" 
d="M318 399c14 -15.333 24.832 -32.666 32.499 -51.999s11.5 -40 11.5 -62c0 -22.667 -3.33301 -42 -10 -58l-83 -228h-49l-100 291h37l88 -257l73 205c6 14.667 9 30.334 9 47.001c0 18.667 -3.5 36.167 -10.5 52.5s-16.667 30.666 -29 42.999s-26.833 22 -43.5 29
s-34.334 10.5 -53.001 10.5s-36.167 -3.5 -52.5 -10.5s-30.666 -16.5 -42.999 -28.5s-22.166 -26.333 -29.499 -43s-11 -34.334 -11 -53.001h-36c0.666992 24 5.66699 46.333 15 67s21.666 38.667 36.999 54s33.333 27.333 54 36s42.667 13 66 13
c18.667 0 36.334 -2.83301 53.001 -8.5s32 -13.167 46 -22.5l55 62l28 -24zM312.999 -174l-73 74l-76 -76l-99 99l22 21l76 -76l76 76l73 -72l16 15v65h35v-76z" />
    <glyph glyph-name="thonangmonthothai" unicode="&#xe11;" horiz-adv-x="445" 
d="M402 0h-35v330c0 10.667 -1.83301 21.334 -5.5 32.001s-8.5 20 -14.5 28s-13 14.5 -21 19.5s-16.333 7.5 -25 7.5l-219 -417h-35v198c0 35.333 5.66699 62.666 17 81.999s24 35 38 47c4.66699 4 10 8.16699 16 12.5s11.667 9.16602 17 14.499s9.83301 11 13.5 17
s5.5 12.667 5.5 20c0 12.667 -6.33301 21.334 -19 26.001l-54 -49l-77 66l19 23l57 -48l50 43c18 -4.66699 31.833 -12.5 41.5 -23.5s14.5 -23.833 14.5 -38.5c0 -14 -2.5 -25.333 -7.5 -34s-11.333 -16.5 -19 -23.5s-16 -13.833 -25 -20.5s-17.333 -14.834 -25 -24.501
s-14 -21.667 -19 -36s-7.5 -32.166 -7.5 -53.499v-127l201 381c38 -0.666992 67.167 -12.5 87.5 -35.5s30.5 -52.5 30.5 -88.5v-328z" />
    <glyph glyph-name="thophuthaothai" unicode="&#xe12;" horiz-adv-x="752" 
d="M709 152c0 -26 -3.99805 -48.9971 -11.998 -68.9971s-19 -36.667 -33 -50s-30.333 -23.333 -49 -30s-38.334 -10 -59.001 -10c-25.333 0 -50.333 8.66699 -75 26s-44.334 38.666 -59.001 63.999v-83h-35v299c0 26.667 -6.33301 49.834 -19 69.501
s-29.667 35.167 -51 46.5l-79 -66l-80 68c-28 -14 -51.167 -37.667 -69.5 -71s-27.5 -76 -27.5 -128c0 -24.667 3 -48.334 9 -71.001s14.667 -42.834 26 -60.501s25.5 -31.667 42.5 -42s36.167 -15.5 57.5 -15.5c20.667 0 38.334 7.33301 53.001 22l25 -25
c-10.667 -9.33301 -22.5 -17 -35.5 -23s-27.167 -9 -42.5 -9c-27.333 0 -51.5 5.66699 -72.5 17s-38.833 27 -53.5 47s-25.667 43.667 -33 71s-11 57 -11 89c0 32.667 3.66699 62.167 11 88.5s17.166 49.5 29.499 69.5s26.833 36.667 43.5 50s34.667 23.666 54 30.999
l74 -63l75 63c32 -12 58.167 -31 78.5 -57s30.5 -59 30.5 -99v-36c0 -11.333 0.166992 -23.833 0.5 -37.5s0.5 -27.834 0.5 -42.501c0 -22 4.33301 -42.667 13 -62s19.5 -36.166 32.5 -50.499s27.333 -25.5 43 -33.5s30.5 -12 44.5 -12c34 0 62 10.667 84 32
s33 52.333 33 93v299h36v-299z" />
    <glyph glyph-name="nonenthai" unicode="&#xe13;" horiz-adv-x="742" 
d="M663 0v75c-13.333 -24 -32.333 -43.667 -57 -59s-50 -23 -76 -23c-21.333 0 -41.333 3.33301 -60 10s-34.834 16.667 -48.501 30s-24.5 30 -32.5 50s-12 43 -12 69v110c0 24 -4.33301 45.833 -13 65.5s-20.5 36.5 -35.5 50.5s-32.833 24.833 -53.5 32.5
s-43 11.5 -67 11.5c-30 0 -57.667 -7.66699 -83 -23s-45.666 -34 -60.999 -56l37 -41v-268h68v-34h-103v291l-44 50c18 32.667 43.5 60 76.5 82s69.5 33 109.5 33c30 0 57.5 -4.83301 82.5 -14.5s46.5 -23 64.5 -40s32 -37.5 42 -61.5s15 -50 15 -78v-110
c0 -41.333 11.5 -72.5 34.5 -93.5s50.833 -31.5 83.5 -31.5c14.667 0 30 4 46 12s30.333 18.833 43 32.5s23.167 29.5 31.5 47.5s12.5 36.667 12.5 56v275h36v-450h-36z" />
    <glyph glyph-name="dodekthai" unicode="&#xe14;" horiz-adv-x="457" 
d="M379 0l0.000976562 285c0 22 -4.33301 41.5 -13 58.5s-20 31.333 -34 43s-30 20.5 -48 26.5s-36.333 9 -55 9c-20 0 -40 -4.16699 -60 -12.5s-37.667 -21 -53 -38s-27.833 -38.5 -37.5 -64.5s-14.5 -57 -14.5 -93c0 -24.667 3 -48.167 9 -70.5s14.667 -41.833 26 -58.5
s25.5 -30 42.5 -40s36.167 -15 57.5 -15c11.333 0 21.166 2 29.499 6s16.166 9.33301 23.499 16l25 -24c-10.667 -9.33301 -22.5 -17.166 -35.5 -23.499s-27.167 -9.5 -42.5 -9.5c-27.333 0 -51.5 5.5 -72.5 16.5s-38.667 26.167 -53 45.5s-25.333 42.333 -33 69
s-11.5 56 -11.5 88c0 42.667 6 79.334 18 110.001s27.833 55.834 47.5 75.501s41.834 34 66.501 43s49.667 13.5 75 13.5c22.667 0 44.667 -3.83301 66 -11.5s40.333 -18.834 57 -33.501s30 -32.334 40 -53.001s15 -44.334 15 -71.001v-287h-35z" />
    <glyph glyph-name="totaothai" unicode="&#xe15;" horiz-adv-x="468" 
d="M390 2l0.000976562 295.998c0 26.667 -6.5 49.834 -19.5 69.501s-29.833 35.167 -50.5 46.5l-79 -66l-80 68c-28 -15.333 -51.167 -39.666 -69.5 -72.999s-27.5 -75.333 -27.5 -126c0 -25.333 3 -49.166 9 -71.499s14.667 -42 26 -59s25.5 -30.5 42.5 -40.5
s36.167 -15 57.5 -15c11.333 0 21.166 2 29.499 6s16.166 9.66699 23.499 17l24 -25c-10 -9.33301 -21.5 -17 -34.5 -23s-27.167 -9 -42.5 -9c-27.333 0 -51.666 5.5 -72.999 16.5s-39.166 26.167 -53.499 45.5s-25.333 42.5 -33 69.5s-11.5 56.5 -11.5 88.5
c0 32.667 3.66699 62.167 11 88.5s17.166 49.5 29.499 69.5s26.833 36.667 43.5 50s34.667 23.666 54 30.999l75 -63l75 63c32 -12 58.167 -31 78.5 -57s30.5 -59 30.5 -99v-298h-35z" />
    <glyph glyph-name="thothungthai" unicode="&#xe16;" horiz-adv-x="455" 
d="M412 0h-35.001v262c0 24 -4.33301 45.833 -13 65.5s-20.5 36.5 -35.5 50.5s-32.833 24.833 -53.5 32.5s-43 11.5 -67 11.5c-30 0 -57.667 -7.66699 -83 -23s-45.666 -34 -60.999 -56l37 -41v-268l69 1v-35h-104v291l-44 50c18 32.667 43.5 60 76.5 82s69.5 33 109.5 33
c30 0 57.5 -4.83301 82.5 -14.5s46.5 -23 64.5 -40s32 -37.5 42 -61.5s15 -50 15 -78v-262z" />
    <glyph glyph-name="thothahanthai" unicode="&#xe17;" horiz-adv-x="440" 
d="M397 0l-35 0.000976562v299c0 20 -3.5 37.667 -10.5 53s-16.333 28.333 -28 39s-25.167 18.667 -40.5 24s-31 8 -47 8c-19.333 0 -38.333 -4 -57 -12s-35.5 -18.833 -50.5 -32.5s-27.167 -29.834 -36.5 -48.501s-14 -39 -14 -61v-269h-35v450h35v-83
c19.333 31.333 43.5 54.333 72.5 69s57.833 22 86.5 22c20.667 0 40.667 -3.33301 60 -10s36.333 -16.667 51 -30s26.5 -30 35.5 -50s13.5 -43 13.5 -69v-299z" />
    <glyph glyph-name="thothongthai" unicode="&#xe18;" horiz-adv-x="404" 
d="M375 147c0 -23.333 -4.50488 -44.332 -13.5049 -62.999s-21.167 -34.667 -36.5 -48s-33.333 -23.666 -54 -30.999s-42.334 -11 -65.001 -11c-23.333 0 -45.333 3.66699 -66 11s-38.667 17.666 -54 30.999s-27.5 29.333 -36.5 48s-13.5 39.667 -13.5 63v92h35v-91
c0.666992 -38 13.834 -67.333 39.501 -88s57.5 -31 95.5 -31c18.667 0 36.167 2.66699 52.5 8s30.5 13.166 42.5 23.499s21.5 22.833 28.5 37.5s10.5 31 10.5 49c0 24.667 -6.66699 44 -20 58s-29.666 25 -48.999 33s-40 13.667 -62 17s-41.667 6.66602 -59 9.99902
c-11.333 2 -24.166 4.83301 -38.499 8.5s-27.666 9 -39.999 16s-22.666 15.5 -30.999 25.5s-12.5 22.667 -12.5 38c0 16 4.83301 30.5 14.5 43.5s22.5 24.333 38.5 34s33.833 17 53.5 22s39.5 7.5 59.5 7.5c19.333 0 38.166 -2 56.499 -6s35.5 -10.333 51.5 -19
s30.167 -19.834 42.5 -33.501s21.833 -29.834 28.5 -48.501l-32 -12c-6 16 -14.5 29.333 -25.5 40s-23.5 19.334 -37.5 26.001s-28.667 11.5 -44 14.5s-30 4.5 -44 4.5c-15.333 0 -30.5 -2 -45.5 -6s-28.5 -9.33301 -40.5 -16s-21.667 -14.167 -29 -22.5
s-11 -16.833 -11 -25.5c0 -13.333 5.83301 -24.166 17.5 -32.499s25.334 -15 41.001 -20s31.5 -8.66699 47.5 -11l38 -5.5c20.667 -4 41 -9 61 -15s37.833 -14.167 53.5 -24.5s28.334 -23.666 38.001 -39.999s14.5 -36.5 14.5 -60.5z" />
    <glyph glyph-name="nonuthai" unicode="&#xe19;" horiz-adv-x="441" 
d="M362 0l-0.000976562 82.998c-19.333 -32 -43.166 -55 -71.499 -69s-57.5 -21 -87.5 -21c-20.667 0 -40.5 3.33301 -59.5 10s-36 16.667 -51 30s-27 30 -36 50s-13.5 43 -13.5 69v298h35v-298c0 -20 3.5 -37.833 10.5 -53.5s16.333 -28.834 28 -39.501
s25.167 -18.667 40.5 -24s31 -8 47 -8c18.667 0 37.5 3.83301 56.5 11.5s36 18.334 51 32.001s27.167 29.834 36.5 48.501s14 39.334 14 62.001v269h35v-450h-35z" />
    <glyph glyph-name="bobaimaithai" unicode="&#xe1a;" horiz-adv-x="440" 
d="M397 170c0 -24 -4.66602 -46.667 -13.999 -68s-22 -40 -38 -56s-34.667 -28.5 -56 -37.5s-44.333 -13.5 -69 -13.5s-47.667 4.5 -69 13.5s-40 21.5 -56 37.5s-28.667 34.667 -38 56s-14 44 -14 68v280h35v-280c0 -19.333 3.66699 -37.666 11 -54.999
s17.5 -32.333 30.5 -45s28.167 -22.667 45.5 -30s35.666 -11 54.999 -11c20 0 38.5 3.66699 55.5 11s32 17.333 45 30s23.167 27.667 30.5 45s11 35.666 11 54.999v280h35v-280z" />
    <glyph glyph-name="poplathai" unicode="&#xe1b;" horiz-adv-x="441" 
d="M397 170c0 -24 -4.66602 -46.667 -13.999 -68s-22 -40 -38 -56s-34.667 -28.5 -56 -37.5s-44.333 -13.5 -69 -13.5s-47.667 4.5 -69 13.5s-40 21.5 -56 37.5s-28.667 34.667 -38 56s-14 44 -14 68v280h35v-280c0 -19.333 3.66699 -37.5 11 -54.5s17.5 -31.833 30.5 -44.5
s28.167 -22.667 45.5 -30s35.666 -11 54.999 -11c20 0 38.5 3.66699 55.5 11s32 17.333 45 30s23.167 27.5 30.5 44.5s11 35.167 11 54.5v434h35v-434z" />
    <glyph glyph-name="phophungthai" unicode="&#xe1c;" horiz-adv-x="501" 
d="M458 107c0 -15.333 -3 -29.666 -9 -42.999s-14 -25 -24 -35s-21.833 -18 -35.5 -24s-28.167 -9 -43.5 -9c-20 0 -38.333 4.66699 -55 14s-30 21.666 -40 36.999c-10 -15.333 -23.333 -27.666 -40 -36.999s-35 -14 -55 -14c-15.333 0 -29.833 3 -43.5 9s-25.667 14 -36 24
s-18.5 21.667 -24.5 35s-9 27.666 -9 42.999v173c0 24 4.66699 46.667 14 68s22 39.833 38 55.5s35 28.167 57 37.5s45.667 14 71 14v-35c-20 0 -38.833 -3.66699 -56.5 -11s-33 -17.333 -46 -30s-23.333 -27.5 -31 -44.5s-11.5 -35.167 -11.5 -54.5v-173
c0 -21.333 7.5 -39.5 22.5 -54.5s33.5 -22.5 55.5 -22.5c21.333 0 39.5 7.5 54.5 22.5s22.5 33.167 22.5 54.5v184h35v-184c0 -21.333 7.5 -39.5 22.5 -54.5s33.5 -22.5 55.5 -22.5c21.333 0 39.5 7.5 54.5 22.5s22.5 33.167 22.5 54.5v343h35v-343z" />
    <glyph glyph-name="fofathai" unicode="&#xe1d;" horiz-adv-x="501" 
d="M458 107c0 -15.333 -2.99805 -29.666 -8.99805 -42.999s-14 -25 -24 -35s-21.833 -18 -35.5 -24s-28.167 -9 -43.5 -9c-20 0 -38.5 4.83301 -55.5 14.5s-30.5 22.167 -40.5 37.5c-10 -15.333 -23.333 -27.833 -40 -37.5s-34.667 -14.5 -54 -14.5c-16 0 -30.833 3 -44.5 9
s-25.5 14 -35.5 24s-18 21.667 -24 35s-9 27.666 -9 42.999v173c0 24 4.66699 46.667 14 68s22 40 38 56s35 28.5 57 37.5s45.667 13.5 71 13.5v-35c-20 0 -38.833 -3.66699 -56.5 -11s-33 -17.333 -46 -30s-23.333 -27.5 -31 -44.5s-11.5 -35.167 -11.5 -54.5v-173
c0 -21.333 7.5 -39.333 22.5 -54s33.167 -22 54.5 -22s39.666 7.33301 54.999 22s23 32.667 23 54v184h35v-184c0 -21.333 7.5 -39.333 22.5 -54s33.167 -22 54.5 -22s39.666 7.33301 54.999 22s23 32.667 23 54v496h35v-496z" />
    <glyph glyph-name="phophanthai" unicode="&#xe1e;" horiz-adv-x="521" 
d="M479 112c0 -16 -3.16895 -31 -9.50195 -45s-14.833 -26.333 -25.5 -37s-23.167 -19 -37.5 -25s-29.5 -9 -45.5 -9c-21.333 0 -40.666 5 -57.999 15s-31.333 23.333 -42 40c-10.667 -16.667 -24.667 -30 -42 -40s-36.666 -15 -57.999 -15c-16 0 -31.167 3 -45.5 9
s-26.833 14.333 -37.5 25s-19.167 23 -25.5 37s-9.5 29 -9.5 45v338h35v-338c0 -22.667 8 -42 24 -58s35.667 -24 59 -24s42.833 8 58.5 24s23.5 35.667 23.5 59v337h35v-338c0 -22.667 8 -42 24 -58s35.667 -24 59 -24s42.833 8 58.5 24s23.5 35.333 23.5 58v338h36v-338z
" />
    <glyph glyph-name="fofanthai" unicode="&#xe1f;" horiz-adv-x="521" 
d="M478 112c0 -16 -3.16992 -31 -9.50293 -45s-14.666 -26.333 -24.999 -37s-22.666 -19 -36.999 -25s-29.5 -9 -45.5 -9c-21.333 0 -40.833 5 -58.5 15s-31.5 23.333 -41.5 40c-10.667 -16.667 -24.667 -30 -42 -40s-36.666 -15 -57.999 -15c-16 0 -31.167 3 -45.5 9
s-26.833 14.333 -37.5 25s-19.167 23 -25.5 37s-9.5 29 -9.5 45v338h35v-338c0 -22.667 8 -42 24 -58s35.333 -24 58 -24c23.333 0 43 8 59 24s24 35.667 24 59v337h35v-338c0 -22.667 8 -42 24 -58s35.333 -24 58 -24c23.333 0 43 8 59 24s24 35.333 24 58v492h35v-492z
" />
    <glyph glyph-name="phosamphaothai" unicode="&#xe20;" horiz-adv-x="465" 
d="M387 0l-0.000976562 262c0 24 -4.33301 45.833 -13 65.5s-20.5 36.5 -35.5 50.5s-32.833 24.833 -53.5 32.5s-43 11.5 -67 11.5c-30 0 -57.667 -7.66699 -83 -23s-45.666 -34 -60.999 -56l37 -41v-302h-81v35h46v256l-44 50c18 32.667 43.5 60 76.5 82s69.5 33 109.5 33
c30 0 57.5 -4.83301 82.5 -14.5s46.5 -23.167 64.5 -40.5s32 -38 42 -62s15 -50 15 -78v-261h-35z" />
    <glyph glyph-name="momathai" unicode="&#xe21;" horiz-adv-x="440" 
d="M397 152c0 -26 -4.5 -48.999 -13.5 -68.999s-20.833 -36.667 -35.5 -50s-31.667 -23.333 -51 -30s-39.333 -10 -60 -10c-28.667 0 -57.5 7.16699 -86.5 21.5s-53.167 37.166 -72.5 68.499v-83h-35v450h35v-269c0 -22 4.66699 -42.333 14 -61s21.5 -34.834 36.5 -48.501
s31.833 -24.5 50.5 -32.5s37.667 -12 57 -12c16 0 31.667 2.66699 47 8s28.833 13.333 40.5 24s21 23.834 28 39.501s10.5 33.5 10.5 53.5v298h35v-298z" />
    <glyph glyph-name="yoyakthai" unicode="&#xe22;" horiz-adv-x="436" 
d="M393 172c0 -24.667 -4.66992 -47.832 -14.0029 -69.499s-22.166 -40.5 -38.499 -56.5s-35.5 -28.667 -57.5 -38s-45.333 -14 -70 -14c-23.333 0 -45.5 4.16699 -66.5 12.5s-39.5 19.833 -55.5 34.5s-29 32 -39 52s-16 41.667 -18 65l80 79l-44 43
c-9.33301 9.33301 -16.833 20.166 -22.5 32.499s-8.5 25.833 -8.5 40.5c0 14 2.66699 27.333 8 40s12.666 23.667 21.999 33s20.333 16.666 33 21.999s26.334 8 41.001 8c28 0 52.333 -10.333 73 -31l-25 -25c-14 14 -30.333 21 -49 21
c-19.333 0 -35.666 -6.5 -48.999 -19.5s-20 -29.167 -20 -48.5c0 -20 8 -37 24 -51l67 -66l-92 -91c2.66699 -16.667 8.33398 -32.167 17.001 -46.5s19.167 -26.666 31.5 -36.999s26.5 -18.5 42.5 -24.5s32.667 -9 50 -9c20 0 38.667 3.83301 56 11.5s32.5 18 45.5 31
s23.333 28.167 31 45.5s11.5 36 11.5 56v278h36v-278z" />
    <glyph glyph-name="roruathai" unicode="&#xe23;" horiz-adv-x="391" 
d="M360 145c0 -24.667 -4.66992 -46.5 -14.0029 -65.5s-21.666 -35 -36.999 -48s-32.833 -22.833 -52.5 -29.5s-39.834 -10 -60.501 -10c-19.333 0 -38.666 3 -57.999 9s-36.666 15 -51.999 27s-28.166 26.833 -38.499 44.5s-16.5 38.167 -18.5 61.5l34 12
c3.33301 -40 17.666 -69.833 42.999 -89.5s55 -29.5 89 -29.5c16.667 0 32.834 2.66699 48.501 8s29.5 13 41.5 23s21.667 22.333 29 37s11 31.334 11 50.001c0 14 -2.66699 25.667 -8 35s-12.333 17.333 -21 24s-18.5 12 -29.5 16s-22.167 7.33301 -33.5 10l-26 6
c-8.66699 2 -17.667 3.66699 -27 5c-17.333 3.33301 -34.333 7 -51 11s-31.667 9.5 -45 16.5s-24.166 16 -32.499 27s-12.5 25.167 -12.5 42.5c0 20 4.16699 37.5 12.5 52.5s19.5 27.667 33.5 38s29.833 18.166 47.5 23.499s36.167 8 55.5 8c18 0 35.833 -2.16699 53.5 -6.5
s34.167 -10.833 49.5 -19.5s28.833 -19.667 40.5 -33s20.167 -29.333 25.5 -48l-34 -13c-9.33301 30 -26 51.833 -50 65.5s-52 20.5 -84 20.5c-15.333 0 -29.833 -1.83301 -43.5 -5.5s-25.834 -9.16699 -36.501 -16.5s-19.167 -16.333 -25.5 -27s-9.5 -23 -9.5 -37
c0 -11.333 3.16699 -20.5 9.5 -27.5s15.166 -13.167 26.499 -18.5c12.667 -5.33301 26.667 -9.5 42 -12.5l43 -8.5c19.333 -3.33301 38.833 -7.33301 58.5 -12s37.334 -11.667 53.001 -21s28.5 -21.5 38.5 -36.5s15 -34.5 15 -58.5z" />
    <glyph glyph-name="ruthai" unicode="&#xe24;" horiz-adv-x="455" 
d="M412 -171l-35.001 0.000976562v432c0 24 -4.33301 45.833 -13 65.5s-20.5 36.5 -35.5 50.5s-32.833 24.833 -53.5 32.5s-43 11.5 -67 11.5c-30 0 -57.667 -7.5 -83 -22.5s-45.666 -33.5 -60.999 -55.5l37 -41v-267h69v-35h-104v291l-44 50c18 32.667 43.5 60 76.5 82
s69.5 33 109.5 33c30 0 57.5 -4.83301 82.5 -14.5s46.5 -23.167 64.5 -40.5s32 -37.833 42 -61.5s15 -49.834 15 -78.501v-432z" />
    <glyph glyph-name="lolingthai" unicode="&#xe25;" horiz-adv-x="434" 
d="M356 0l0.000976562 128.001c0 22 -4 41 -12 57s-18.667 29.5 -32 40.5s-28.5 19.167 -45.5 24.5s-34.5 8 -52.5 8c-17.333 0 -34.333 -2.66699 -51 -8s-31.5 -13.5 -44.5 -24.5s-23.5 -24.667 -31.5 -41s-12 -35.166 -12 -56.499c0 -22 5 -42.333 15 -61
s24 -34.334 42 -47.001l-25 -25c-21.333 16 -37.833 35.167 -49.5 57.5s-17.5 47.5 -17.5 75.5c0 25.333 5 48.166 15 68.499s23 37.666 39 51.999s34.5 25.333 55.5 33s42.5 11.5 64.5 11.5c26 0 51.333 -5 76 -15s46.667 -26.667 66 -50v64c0 21.333 -4.16699 40 -12.5 56
s-19.333 29.5 -33 40.5s-29.167 19.167 -46.5 24.5s-35 8 -53 8c-17.333 0 -34.5 -2.66699 -51.5 -8s-32.167 -13.5 -45.5 -24.5s-24 -24.667 -32 -41s-12 -35.5 -12 -57.5h-36c0.666992 28 6.16699 52.333 16.5 73s23.666 37.834 39.999 51.501s35 23.834 56 30.501
s42.5 10 64.5 10s43.667 -3.5 65 -10.5s40.5 -17.167 57.5 -30.5s30.833 -30.333 41.5 -51s16 -44.334 16 -71.001v-292h-35z" />
    <glyph glyph-name="luthai" unicode="&#xe26;" horiz-adv-x="465" 
d="M387 -171l-0.000976562 433.001c0 24 -4.33301 45.833 -13 65.5s-20.5 36.5 -35.5 50.5s-32.833 24.833 -53.5 32.5s-43 11.5 -67 11.5c-30 0 -57.667 -7.66699 -83 -23s-45.666 -34 -60.999 -56l37 -41v-302h-81v35h46v257l-44 50c8.66699 16 19.667 31 33 45
s28 26 44 36s33.333 18 52 24s37.667 9 57 9c30 0 57.5 -4.83301 82.5 -14.5s46.5 -23.167 64.5 -40.5s32 -37.833 42 -61.5s15 -49.834 15 -78.501v-432h-35z" />
    <glyph glyph-name="wowaenthai" unicode="&#xe27;" horiz-adv-x="416" 
d="M381 225c0 -34.667 -5.83105 -66.334 -17.498 -95.001s-27.334 -53.167 -47.001 -73.5s-42.167 -36.166 -67.5 -47.499s-51.833 -17.333 -79.5 -18s-55.167 4.66602 -82.5 15.999s-52.666 29.333 -75.999 54l24 25c30 -31.333 63 -50.166 99 -56.499
s69.833 -2.5 101.5 11.5s58 36.833 79 68.5s31.5 70.167 31.5 115.5c0 44.667 -10.5 83 -31.5 115s-47.167 55 -78.5 69s-65 17.833 -101 11.5s-69 -25.166 -99 -56.499l-24 25c23.333 24 48.666 41.667 75.999 53s54.666 16.666 81.999 15.999s53.666 -6.5 78.999 -17.5
s47.833 -26.5 67.5 -46.5s35.334 -44.333 47.001 -73s17.5 -60.667 17.5 -96z" />
    <glyph glyph-name="sosalathai" unicode="&#xe28;" horiz-adv-x="440" 
d="M350 401c14.667 -16 26.166 -34.168 34.499 -54.501s12.5 -42.166 12.5 -65.499v-281h-35v281c0 19.333 -3.66699 37.666 -11 54.999s-17.5 32.333 -30.5 45s-28 22.667 -45 30s-35.5 11 -55.5 11c-19.333 0 -37.666 -3.66699 -54.999 -11s-32.5 -17.333 -45.5 -30
s-23.167 -27.667 -30.5 -45s-11 -35.666 -11 -54.999v-36h144v-34h-144v-211h-35v281c0 24 4.66699 46.667 14 68s22 40 38 56s34.667 28.667 56 38s44.333 14 69 14c19.333 0 37.5 -2.83301 54.5 -8.5s32.833 -13.5 47.5 -23.5l54 61l29 -24z" />
    <glyph glyph-name="sorusithai" unicode="&#xe29;" horiz-adv-x="441" 
d="M397 249l0.00292969 -79c0 -24 -4.66699 -46.667 -14 -68s-22 -40 -38 -56s-34.667 -28.5 -56 -37.5s-44.333 -13.5 -69 -13.5s-47.667 4.5 -69 13.5s-40 21.5 -56 37.5s-28.667 34.667 -38 56s-14 44 -14 68v280h35v-280c0 -19.333 3.66699 -37.666 11 -54.999
s17.5 -32.333 30.5 -45s28.167 -22.667 45.5 -30s35.666 -11 54.999 -11s37.666 3.66699 54.999 11s32.5 17.333 45.5 30s23.167 27.667 30.5 45s11 35.666 11 54.999v79h-76c-16.667 0 -30.334 5.5 -41.001 16.5s-16 24.167 -16 39.5v26h32v-25c0 -6 2.33301 -11.333 7 -16
s10 -7 16 -7h78v167h35v-167h44v-34h-44z" />
    <glyph glyph-name="sosuathai" unicode="&#xe2a;" horiz-adv-x="434" 
d="M351 400c12 -13.333 21.665 -29.002 28.998 -47.002s11 -38.333 11 -61v-292h-36v128c0 22 -4 41 -12 57s-18.667 29.5 -32 40.5s-28.333 19.167 -45 24.5s-34 8 -52 8c-17.333 0 -34.333 -2.66699 -51 -8s-31.5 -13.5 -44.5 -24.5s-23.5 -24.667 -31.5 -41
s-12 -35.166 -12 -56.499c0 -22 5 -42.167 15 -60.5s23.667 -34.166 41 -47.499l-25 -25c-20.667 16 -37 35.167 -49 57.5s-18 47.5 -18 75.5c0 25.333 5 48.166 15 68.499s23.167 37.666 39.5 51.999s35 25.333 56 33s42.5 11.5 64.5 11.5c25.333 0 50.5 -5 75.5 -15
s46.833 -26.667 65.5 -50v64c0 21.333 -4.16699 40 -12.5 56s-19.333 29.5 -33 40.5s-29.167 19.167 -46.5 24.5s-34.666 8 -51.999 8s-34.5 -2.66699 -51.5 -8s-32.167 -13.5 -45.5 -24.5s-24.166 -24.667 -32.499 -41s-12.5 -35.5 -12.5 -57.5h-35
c0 28 5.16699 52.333 15.5 73s23.833 37.834 40.5 51.501s35.5 23.834 56.5 30.501s42.5 10 64.5 10c19.333 0 39 -2.5 59 -7.5s37.667 -12.833 53 -23.5l54 61l29 -24z" />
    <glyph glyph-name="hohipthai" unicode="&#xe2b;" horiz-adv-x="452" 
d="M409 0h-35v230c0 26.667 -9.5 49.167 -28.5 67.5s-41.833 27.5 -68.5 27.5c-21.333 0 -39.333 -5.33301 -54 -16l-145 -104v-205h-35v450h35v-206l297 215l20 -26l-106 -77c36 -4 65 -18 87 -42s33 -53 33 -87v-227z" />
    <glyph glyph-name="lochulathai" unicode="&#xe2c;" horiz-adv-x="521" 
d="M478 492c0 -19.333 -2.83594 -34.502 -8.50293 -45.502s-15.167 -18.833 -28.5 -23.5c14.667 -10 24.5 -21.667 29.5 -35s7.5 -29.666 7.5 -48.999v-226c0 -16 -3.16699 -31.167 -9.5 -45.5s-14.666 -26.833 -24.999 -37.5s-22.666 -19 -36.999 -25s-29.5 -9 -45.5 -9
c-21.333 0 -40.833 5 -58.5 15s-31.5 23.333 -41.5 40c-10.667 -16.667 -24.667 -30 -42 -40s-36.666 -15 -57.999 -15c-16 0 -31.167 3 -45.5 9s-26.833 14.333 -37.5 25s-19.167 23.167 -25.5 37.5s-9.5 29.5 -9.5 45.5v337h35v-337c0 -23.333 8 -42.833 24 -58.5
s35.333 -23.5 58 -23.5c23.333 0 43 8 59 24s24 35.333 24 58v206h35v-206c0 -23.333 8 -42.833 24 -58.5s35.333 -23.5 58 -23.5c23.333 0 43 7.83301 59 23.5s24 35.167 24 58.5v224c0 26.667 -6.33301 46.334 -19 59.001s-29 19 -49 19h-41v30h44c28 0 46 3.5 54 10.5
s12 19.5 12 37.5v4h34v-5z" />
    <glyph glyph-name="oangthai" unicode="&#xe2d;" horiz-adv-x="492" 
d="M461 226c0 -32 -5.16699 -62.1641 -15.5 -90.4971s-25 -53.333 -44 -75s-41.5 -38.667 -67.5 -51s-55 -18.5 -87 -18.5c-31.333 0 -60.333 6.16699 -87 18.5s-49.5 29 -68.5 50s-33.833 45.833 -44.5 74.5s-16 59.334 -16 92.001c0 2.66699 0.166992 5.5 0.5 8.5
s0.5 6.16699 0.5 9.5h217v-34h-180c0.666992 -25.333 5.5 -49 14.5 -71s21.333 -41.5 37 -58.5s34.167 -30.333 55.5 -40s45 -14.5 71 -14.5s50 5.16699 72 15.5s40.667 24.5 56 42.5s27.333 39.167 36 63.5s13 50.5 13 78.5s-4.16699 54.167 -12.5 78.5
s-20.333 45.666 -36 63.999s-34.334 32.666 -56.001 42.999s-45.834 15.5 -72.501 15.5c-40.667 0 -76.167 -11.833 -106.5 -35.5s-51.5 -54.834 -63.5 -93.501l-33 14c14.667 44 39.834 80 75.501 108s78.167 42 127.5 42c32.667 0 62.334 -6.33301 89.001 -19
s49.167 -29.834 67.5 -51.501s32.5 -46.667 42.5 -75s15 -58.5 15 -90.5z" />
    <glyph glyph-name="honokhukthai" unicode="&#xe2e;" horiz-adv-x="492" 
d="M461 225c0 -32 -5.16699 -62.1689 -15.5 -90.502s-24.833 -53.166 -43.5 -74.499s-41 -38.166 -67 -50.499s-55 -18.5 -87 -18.5s-61.167 6.16699 -87.5 18.5s-49 29 -68 50s-33.833 45.667 -44.5 74s-16 58.833 -16 91.5v8.5c0 3 0.333008 6.16699 1 9.5h217v-34h-181
c0.666992 -25.333 5.66699 -49 15 -71s21.833 -41.5 37.5 -58.5s34.167 -30.333 55.5 -40s44.666 -14.5 69.999 -14.5c26.667 0 50.834 5.33301 72.501 16s40.334 25 56.001 43s27.834 39.167 36.501 63.5s13 50.5 13 78.5c0 27.333 -4.16699 53.166 -12.5 77.499
s-20.333 45.5 -36 63.5s-34.5 32.167 -56.5 42.5s-46.333 15.5 -73 15.5c-42 0 -77.667 -11.833 -107 -35.5s-50.333 -54.5 -63 -92.5l-33 13c15.333 44 40.833 80 76.5 108s78.167 42 127.5 42c45.333 0 84.666 -12 117.999 -36l61 70l29 -25l-61 -70
c21.333 -21.333 37.666 -47.166 48.999 -77.499s17 -62.5 17 -96.5z" />
    <glyph glyph-name="paiyannoithai" unicode="&#xe2f;" horiz-adv-x="415" 
d="M336 0l-0.00195312 349.001c-14.667 -18 -32.667 -32.333 -54 -43s-44.666 -16 -69.999 -16c-22 0 -42.667 4.16699 -62 12.5s-36.166 19.666 -50.499 33.999s-25.666 31.333 -33.999 51s-12.5 40.5 -12.5 62.5h34c0 -17.333 3.33301 -33.666 10 -48.999
s15.667 -28.666 27 -39.999s24.5 -20.333 39.5 -27s31.167 -10 48.5 -10s33.5 3.33301 48.5 10s28.167 15.667 39.5 27s20.166 24.666 26.499 39.999s9.5 31.666 9.5 48.999h36v-450h-36z" />
    <glyph glyph-name="saraathai" unicode="&#xe30;" horiz-adv-x="207" 
d="M102 301c-16 0 -29.667 5.83301 -41 17.5s-17 25.167 -17 40.5v22h35v-22c0 -6.66699 2.16699 -12.167 6.5 -16.5s9.5 -6.5 15.5 -6.5h68v-34zM102 57c-16 0 -29.667 5.83301 -41 17.5s-17 25.167 -17 40.5v22h35v-22c0 -6.66699 2.16699 -12.167 6.5 -16.5
s9.5 -6.5 15.5 -6.5h68v-35h-67z" />
    <glyph glyph-name="maihanakatthai" unicode="&#xe31;" 
d="M-219 520c-16 0 -29.5 5.66797 -40.5 17.001s-16.5 24.666 -16.5 39.999v28h35v-27c0 -6.66699 2.16699 -12.167 6.5 -16.5s9.5 -6.5 15.5 -6.5h208v-35h-208z" />
    <glyph glyph-name="saraaathai" unicode="&#xe32;" horiz-adv-x="322" 
d="M279 0l-34.998 -0.00292969v287c0 42 -10.333 75.167 -31 99.5s-52 36.5 -94 36.5c-38.667 0 -69.334 -11.333 -92.001 -34l-24 24c13.333 13.333 29.666 23.833 48.999 31.5s42 11.5 68 11.5c27.333 0 51 -4.16699 71 -12.5s36.5 -19.666 49.5 -33.999
s22.667 -31.166 29 -50.499s9.5 -39.666 9.5 -60.999v-298z" />
    <glyph glyph-name="saraamthai" unicode="&#xe33;" horiz-adv-x="322" 
d="M1 565c0 -16 -6 -29.667 -18 -41s-25.667 -17 -41 -17s-29 5.66699 -41 17s-18 25 -18 41c0 15.333 5.83301 29 17.5 41s25.5 18 41.5 18s29.833 -6 41.5 -18s17.5 -25.667 17.5 -41zM279 0l-34.998 -0.00292969v287c0 42 -10.333 75.167 -31 99.5s-52 36.5 -94 36.5
c-38.667 0 -69.334 -11.333 -92.001 -34l-24 24c13.333 13.333 29.666 23.833 48.999 31.5s42 11.5 68 11.5c27.333 0 51 -4.16699 71 -12.5s36.5 -19.666 49.5 -33.999s22.667 -31.166 29 -50.499s9.5 -39.666 9.5 -60.999v-298zM-31.998 564.997
c0 7.33301 -2.5 13.5 -7.5 18.5s-11.167 7.5 -18.5 7.5s-13.666 -2.5 -18.999 -7.5s-8 -11.167 -8 -18.5s2.66699 -13.666 8 -18.999s11.666 -8 18.999 -8s13.5 2.66699 18.5 8s7.5 11.666 7.5 18.999z" />
    <glyph glyph-name="saraithai" unicode="&#xe34;" 
d="M-397 519v36h354v-35z" />
    <glyph glyph-name="saraiithai" unicode="&#xe35;" 
d="M-397 519v35h319v66h35v-100z" />
    <glyph glyph-name="sarauethai" unicode="&#xe36;" 
d="M-39 577c0 -15.333 -5.83301 -28.667 -17.5 -40s-25.167 -17 -40.5 -17h-303v35h249c-3.33301 8.66699 -5 16 -5 22c0 16 5.83301 29.833 17.5 41.5s25.5 17.5 41.5 17.5c15.333 0 28.833 -5.83301 40.5 -17.5s17.5 -25.5 17.5 -41.5zM-71 576.999
c0 7.33301 -2.66699 13.666 -8 18.999s-11.666 8 -18.999 8s-13.666 -2.66699 -18.999 -8s-8 -11.666 -8 -18.999s2.66699 -13.5 8 -18.5s11.666 -7.5 18.999 -7.5s13.666 2.5 18.999 7.5s8 11.167 8 18.5z" />
    <glyph glyph-name="saraueethai" unicode="&#xe37;" 
d="M-397 519v35h246v66h35v-66h38v66h35v-100z" />
    <glyph glyph-name="sarauthai" unicode="&#xe38;" 
d="M-77 -160l0.000976562 79.999h-41v36h55c5.33301 0 10.166 -2.16699 14.499 -6.5s6.5 -9.16602 6.5 -14.499v-95h-35z" />
    <glyph glyph-name="sarauuthai" unicode="&#xe39;" 
d="M-42 -95c0 -20 -7.16699 -37.167 -21.5 -51.5s-31.5 -21.5 -51.5 -21.5s-37 7.16699 -51 21.5s-21 31.5 -21 51.5v15h-31v36h65v-51c0 -10.667 3.66699 -19.667 11 -27s16.333 -11 27 -11s19.5 3.83301 26.5 11.5s10.5 16.5 10.5 26.5v51h36v-51z" />
    <glyph glyph-name="phinthuthai" unicode="&#xe3a;" 
d="M-30 -67c0 -8 -3 -15 -9 -21s-13 -9 -21 -9s-15 3 -21 9s-9 13 -9 21s3 15 9 21s13 9 21 9s15 -3 21 -9s9 -13 9 -21z" />
    <glyph glyph-name="PUCR2005" unicode="&#xe3e;" 
 />
    <glyph glyph-name="bahtthai" unicode="&#xe3f;" horiz-adv-x="385" 
d="M362 148c0 -44.667 -16.001 -81.334 -48.001 -110.001c-18.667 -16 -37.667 -26.333 -57 -31s-40.666 -7 -63.999 -7v-84h-36v84h-99v528h98v79h36v-80c14.667 -1.33301 28.667 -4.16602 42 -8.49902s26 -11.833 38 -22.5c16 -14 27.333 -30.333 34 -49
s10 -38.667 10 -60c0 -22.667 -4.33301 -42.5 -13 -59.5s-23 -32.167 -43 -45.5c32 -10 57 -26.833 75 -50.5s27 -51.5 27 -83.5zM277.999 392c0 16.667 -3.33398 32.334 -10.001 47.001s-17 26.667 -31 36c-7.33301 4.66699 -14.666 8 -21.999 10s-15 3.66699 -23 5v-198
c8.66699 1.33301 17 3.16602 25 5.49902s15.667 6.5 23 12.5c14.667 10.667 24.5 22.5 29.5 35.5s7.83301 28.5 8.5 46.5zM156.998 492h-7h-55v-202h55h6zM323.998 147c0 19.333 -4.33203 37.333 -12.999 54s-21.334 29 -38.001 37c-11.333 5.33301 -24 9.16602 -38 11.499
s-28.333 3.83301 -43 4.5v-219c14.667 0 29 1.33301 43 4s27.667 8.33398 41 17.001c32 22 48 52.333 48 91zM156.999 255h-62v-220h61z" />
    <glyph glyph-name="saraethai" unicode="&#xe40;" horiz-adv-x="141" 
d="M53 0v450h35v-450h-35z" />
    <glyph glyph-name="saraaethai" unicode="&#xe41;" horiz-adv-x="256" 
d="M168 0v450h35v-450h-35zM53 0v450h35v-450h-35z" />
    <glyph glyph-name="saraothai" unicode="&#xe42;" horiz-adv-x="184" 
d="M69 616c-10 0 -18.332 -1.83203 -24.999 -5.49902s-10 -8.83398 -10 -15.501c0 -7.33301 4.66699 -13.833 14 -19.5s17 -10.5 23 -14.5c9.33301 -6.66699 18.166 -15.334 26.499 -26.001s12.5 -25.667 12.5 -45v-490h-35v491c0 14.667 -4 25.834 -12 33.501
s-16.667 14.5 -26 20.5s-18 12.5 -26 19.5s-12 17.167 -12 30.5c0 18.667 7.83301 32.5 23.5 41.5s33.167 13.5 52.5 13.5h126v-34h-132z" />
    <glyph glyph-name="saraaimaimuanthai" unicode="&#xe43;" horiz-adv-x="184" 
d="M175 558c0 -26.667 -10.001 -49.9971 -30.001 -69.9971l-36 -36v-452h-35v466l46 45c13.333 13.333 20 29 20 47c0 17.333 -6.16699 32.166 -18.5 44.499s-27.166 18.5 -44.499 18.5c-18 0 -33.167 -6.33301 -45.5 -19s-18.5 -28.334 -18.5 -47.001h-35
c0 28.667 9.33301 52.5 28 71.5s42 28.5 70 28.5c14 0 27 -2.5 39 -7.5s22.5 -11.833 31.5 -20.5s16 -18.834 21 -30.501s7.5 -24.5 7.5 -38.5z" />
    <glyph glyph-name="saraaimaimalaithai" unicode="&#xe44;" horiz-adv-x="184" 
d="M185 595c0 -12 -4.33496 -22.334 -13.002 -31.001c-5.33301 -6 -11.666 -11.167 -18.999 -15.5s-14.166 -9 -20.499 -14s-11.666 -10.833 -15.999 -17.5s-6.5 -15.334 -6.5 -26.001v-491h-36v490c0 19.333 4.16699 34.333 12.5 45s17.166 19.334 26.499 26.001
c2.66699 2 6.16699 4.16699 10.5 6.5s8.5 4.83301 12.5 7.5s7.33301 5.66699 10 9s4 7 4 11c0 6.66699 -3.33301 11.834 -10 15.501s-15 5.5 -25 5.5h-132v34h126c19.333 0 36.833 -4.5 52.5 -13.5s23.5 -22.833 23.5 -41.5z" />
    <glyph glyph-name="lakkhangyaothai" unicode="&#xe45;" horiz-adv-x="322" 
d="M279 -171l-34.999 -0.00292969v459c0 42 -10.333 75.167 -31 99.5s-52 36.5 -94 36.5c-38 0 -68.667 -11.667 -92 -35l-24 24c13.333 13.333 29.666 23.833 48.999 31.5s42 11.5 68 11.5c27.333 0 51 -4.16699 71 -12.5s36.5 -19.666 49.5 -33.999
s22.667 -31.166 29 -50.499s9.5 -39.666 9.5 -60.999v-469z" />
    <glyph glyph-name="maiyamokthai" unicode="&#xe46;" horiz-adv-x="463" 
d="M354 -171v467.001c0 25.333 -6.5 48.666 -19.5 69.999s-30.5 38 -52.5 50l-66 -66l-66 65c-22 -11.333 -39.5 -27.666 -52.5 -48.999s-19.5 -45 -19.5 -71c0 -38 13.667 -70.667 41 -98l-24 -24c-16.667 16.667 -29.5 35.334 -38.5 56.001s-13.5 42.667 -13.5 66
c0 36.667 10.333 69.5 31 98.5s48 49.833 82 62.5l60 -60l60 60c34 -12.667 61.5 -33.334 82.5 -62.001s31.5 -61.334 31.5 -98.001v-467h-36z" />
    <glyph glyph-name="maitaikhuthai" unicode="&#xe47;" 
d="M-280 645c-13.333 0 -24.498 -4.50098 -33.498 -13.501s-13.5 -20.167 -13.5 -33.5s4.5 -24.5 13.5 -33.5s19.833 -13.5 32.5 -13.5c13.333 0 24.5 4.66699 33.5 14s13.5 21.333 13.5 36h31c0 -14.667 4.66699 -26.667 14 -36s20.333 -14 33 -14
c13.333 0 24.5 4.66699 33.5 14s13.5 21.333 13.5 36h33c0 -11.333 -2.16699 -22 -6.5 -32s-10 -18.667 -17 -26s-15.333 -13.166 -25 -17.499s-19.834 -6.5 -30.501 -6.5c-13.333 0 -25.333 2.83301 -36 8.5s-19.667 13.167 -27 22.5
c-7.33301 -9.33301 -16.333 -16.833 -27 -22.5s-22.334 -8.5 -35.001 -8.5c-22 0 -40.667 7.83301 -56 23.5s-23 34.167 -23 55.5s7.83301 39.833 23.5 55.5s34.167 23.5 55.5 23.5h237v-32h-237z" />
    <glyph glyph-name="maiekthai" unicode="&#xe48;" 
d="M-78 660v95h35v-95h-35z" />
    <glyph glyph-name="maithothai" unicode="&#xe49;" 
d="M-204 660c5.33301 7.33301 10.335 13.834 15.002 19.501s9 11.167 13 16.5c8.66699 11.333 13 19.666 13 24.999s-1.33301 10.333 -4 15s-8.33398 7 -17.001 7c-10.667 0 -18.334 -5 -23.001 -15l-26 18c5.33301 8.66699 12.333 15.5 21 20.5s18 7.5 28 7.5
c19.333 0 33.5 -5.5 42.5 -16.5s13.5 -22.5 13.5 -34.5c0 -10 -4 -20 -12 -30h130v-33h-194z" />
    <glyph glyph-name="maitrithai" unicode="&#xe4a;" 
d="M-102 660l16 31.001c2.66699 2.66699 4 7 4 13c0 16.667 -8.33301 25 -25 25c-6.66699 0 -12.5 -2.5 -17.5 -7.5s-7.5 -11.833 -7.5 -20.5h-32c0 8.66699 -2.5 15.5 -7.5 20.5s-10.833 7.5 -17.5 7.5c-16.667 0 -25 -8.33301 -25 -25c0 -8 4.33301 -15.333 13 -22
l-23 -24c-15.333 13.333 -23 28.666 -23 45.999c0 16 5.66699 29.667 17 41s25 17 41 17s29.667 -5.66699 41 -17c11.333 11.333 25 17 41 17s29.667 -5.66699 41 -17s17 -25 17 -41c0 -5.33301 -0.333008 -9 -1 -11h67v-33h-119z" />
    <glyph glyph-name="maichattawathai" unicode="&#xe4b;" 
d="M-42 702v-42h-35v42h-43v29h42v42h35v-42h43v-29h-42z" />
    <glyph glyph-name="thanthakhatthai" unicode="&#xe4c;" 
d="M-65 700c-6 0 -11 -2.33301 -15 -7s-6 -10 -6 -16s3 -12 9 -18l-24 -24c-13.333 13.333 -20 27.333 -20 42c0 15.333 5.5 28.5 16.5 39.5s24.167 16.5 39.5 16.5h56v-33h-56z" />
    <glyph glyph-name="nikhahitthai" unicode="&#xe4d;" 
d="M1 565c0 -16 -6 -29.667 -18 -41s-25.667 -17 -41 -17s-29 5.66699 -41 17s-18 25 -18 41c0 15.333 5.83301 29 17.5 41s25.5 18 41.5 18s29.833 -6 41.5 -18s17.5 -25.667 17.5 -41zM-32 565c0 7.33301 -2.5 13.5 -7.5 18.5s-11.167 7.5 -18.5 7.5
s-13.666 -2.5 -18.999 -7.5s-8 -11.167 -8 -18.5s2.66699 -13.666 8 -18.999s11.666 -8 18.999 -8s13.5 2.66699 18.5 8s7.5 11.666 7.5 18.999z" />
    <glyph glyph-name="yamakkanthai" unicode="&#xe4e;" 
d="M-59 699c-8.66699 8.66699 -19 13.0039 -31 13.0039c-12.667 0 -23.334 -4.33301 -32.001 -13s-13 -19.334 -13 -32.001s4.5 -23.334 13.5 -32.001s20.5 -13 34.5 -13v-31c-14 0 -25.5 -4.33301 -34.5 -13s-13.5 -19.334 -13.5 -32.001s4.5 -23.334 13.5 -32.001
s20.5 -13 34.5 -13v-32c-22.667 0 -41.5 7.5 -56.5 22.5s-22.5 33.167 -22.5 54.5c0 26 10 46 30 60c-20 16 -30 36.333 -30 61c0 21.333 7.33301 39.333 22 54s32.667 22 54 22c22.667 0 40.334 -7.33301 53.001 -22z" />
    <glyph glyph-name="fongmanthai" unicode="&#xe4f;" horiz-adv-x="512" 
d="M465 202c0 -29.333 -5.5 -56.666 -16.5 -81.999s-26 -47.5 -45 -66.5s-41.333 -34 -67 -45s-52.834 -16.5 -81.501 -16.5c-29.333 0 -56.666 5.5 -81.999 16.5s-47.5 26 -66.5 45s-34 41.167 -45 66.5s-16.5 52.666 -16.5 81.999c0 28.667 5.5 55.834 16.5 81.501
s26 48 45 67s41.167 34 66.5 45s52.666 16.5 81.999 16.5c28.667 0 55.834 -5.5 81.501 -16.5s48 -26 67 -45s34 -41.333 45 -67s16.5 -52.834 16.5 -81.501zM428 201c0 24 -4.50098 46.5 -13.501 67.5s-21.333 39.333 -37 55s-34 28.167 -55 37.5s-43.5 14 -67.5 14
s-46.5 -4.5 -67.5 -13.5s-39.333 -21.333 -55 -37s-28 -34 -37 -55s-13.5 -43.5 -13.5 -67.5s4.5 -46.5 13.5 -67.5s21.333 -39.333 37 -55s34 -28 55 -37s43.5 -13.5 67.5 -13.5s46.333 4.5 67 13.5s38.834 21.333 54.501 37s28 34 37 55s13.5 43.5 13.5 67.5zM361.999 202
c0 -14.667 -2.83301 -28.5 -8.5 -41.5s-13.334 -24.333 -23.001 -34s-21 -17.334 -34 -23.001s-26.833 -8.5 -41.5 -8.5s-28.5 2.83301 -41.5 8.5s-24.333 13.334 -34 23.001s-17.334 21 -23.001 34s-8.5 26.833 -8.5 41.5s2.83301 28.5 8.5 41.5s13.334 24.333 23.001 34
s21 17.334 34 23.001s26.833 8.5 41.5 8.5s28.5 -2.83301 41.5 -8.5s24.333 -13.334 34 -23.001s17.334 -21 23.001 -34s8.5 -26.833 8.5 -41.5zM325.999 202c0 20 -6.83301 36.833 -20.5 50.5s-30.5 20.5 -50.5 20.5s-36.833 -6.83301 -50.5 -20.5s-20.5 -30.5 -20.5 -50.5
s6.83301 -36.833 20.5 -50.5s30.5 -20.5 50.5 -20.5s36.833 6.83301 50.5 20.5s20.5 30.5 20.5 50.5z" />
    <glyph glyph-name="zerothai" unicode="&#xe50;" horiz-adv-x="452" 
d="M421 188c0 -26.667 -5.16699 -51.834 -15.5 -75.501s-24.166 -44.167 -41.499 -61.5s-37.833 -31.166 -61.5 -41.499s-48.834 -15.5 -75.501 -15.5s-51.834 5.16699 -75.501 15.5s-44.167 24.166 -61.5 41.499s-31.166 37.833 -41.499 61.5s-15.5 48.834 -15.5 75.501
s5.16699 51.834 15.5 75.501s24.166 44.167 41.499 61.5s37.833 31.166 61.5 41.499s48.834 15.5 75.501 15.5s51.834 -5.16699 75.501 -15.5s44.167 -24.166 61.5 -41.499s31.166 -37.833 41.499 -61.5s15.5 -48.834 15.5 -75.501zM386 188c0 22 -4.16699 42.667 -12.5 62
s-19.666 36.166 -33.999 50.499s-31.166 25.666 -50.499 33.999s-40 12.5 -62 12.5s-42.667 -4.16699 -62 -12.5s-36.166 -19.666 -50.499 -33.999s-25.666 -31.166 -33.999 -50.499s-12.5 -40 -12.5 -62s4.16699 -42.667 12.5 -62s19.666 -36.166 33.999 -50.499
s31.166 -25.666 50.499 -33.999s40 -12.5 62 -12.5s42.667 4.16699 62 12.5s36.166 19.666 50.499 33.999s25.666 31.166 33.999 50.499s12.5 40 12.5 62z" />
    <glyph glyph-name="onethai" unicode="&#xe51;" horiz-adv-x="452" 
d="M416 188c0 -26.667 -5.16699 -51.8311 -15.5 -75.498s-24.166 -44.167 -41.499 -61.5s-37.833 -31.166 -61.5 -41.499s-48.834 -15.5 -75.501 -15.5c-28 0 -53.667 5.16699 -77 15.5s-44.333 24.833 -63 43.5l25 25c15.333 -15.333 32.666 -27.333 51.999 -36
s40 -13 62 -13s42.667 4.16699 62 12.5s36.333 19.666 51 33.999s26.167 31.166 34.5 50.499s12.5 40 12.5 62s-4.16699 42.667 -12.5 62s-19.833 36.166 -34.5 50.499s-31.5 25.666 -50.5 33.999s-39.5 12.5 -61.5 12.5c-34 0 -63.667 -8.33301 -89 -25
s-43.666 -37.334 -54.999 -62.001c-5.33301 -12 -6.16602 -24 -2.49902 -36s13.167 -18 28.5 -18h53v-35h-55c-16 0 -28.667 3.33301 -38 10s-16 15.334 -20 26.001s-5.5 22.334 -4.5 35.001s4.16699 24.667 9.5 36c14 30 36.5 54.833 67.5 74.5s65.833 29.5 104.5 29.5
c26.667 0 52 -5.16699 76 -15.5s44.667 -24.166 62 -41.499s31.166 -37.833 41.499 -61.5s15.5 -48.834 15.5 -75.501z" />
    <glyph glyph-name="twothai" unicode="&#xe52;" horiz-adv-x="520" 
d="M473 209c0 -33.333 -5.17188 -63.1699 -15.5049 -89.5029s-24.666 -48.833 -42.999 -67.5s-40.5 -33 -66.5 -43s-54.667 -15 -86 -15c-32.667 0 -62 5.33301 -88 16s-48.167 25.334 -66.5 44.001s-32.333 40.834 -42 66.501s-14.5 53.167 -14.5 82.5v262h35v-261
c0 -24.667 3.83301 -47.667 11.5 -69s19 -39.833 34 -55.5s33.5 -28 55.5 -37s47 -13.5 75 -13.5c54 0 96.833 16.167 128.5 48.5s47.5 75.833 47.5 130.5v40c0 16 -1.5 31.333 -4.5 46s-8.66699 27.167 -17 37.5s-20.5 15.5 -36.5 15.5c-14.667 0 -27.5 -5 -38.5 -15
s-17.167 -22 -18.5 -36v-23h-34v23c-1.33301 14 -7.33301 26 -18 36s-23.667 15 -39 15c-17.333 0 -31.166 -6.16699 -41.499 -18.5s-15.166 -26.166 -14.499 -41.499c0 -9.33301 2.33301 -18.5 7 -27.5s12.667 -16.5 24 -22.5l-26 -26c-14 10 -24.167 21.667 -30.5 35
s-9.5 27 -9.5 41c0 12 2 23.667 6 35s10 21.5 18 30.5s17.667 16.167 29 21.5s24 8 38 8c15.333 0 29.5 -3.5 42.5 -10.5s23.5 -16.167 31.5 -27.5c8.66699 11.333 19.334 20.5 32.001 27.5s26.667 10.5 42 10.5c23.333 0 41.333 -6 54 -18s21.834 -26.833 27.501 -44.5
s9 -36.5 10 -56.5s1.5 -38 1.5 -54z" />
    <glyph glyph-name="threethai" unicode="&#xe53;" horiz-adv-x="519" 
d="M486 195c0 -46 -11.8311 -87.166 -35.498 -123.499s-56.5 -62.833 -98.5 -79.5l-17 32c36 13.333 64.5 35.166 85.5 65.499s31.5 65.5 31.5 105.5c0 32.667 -8.16699 62.167 -24.5 88.5s-38.5 46.166 -66.5 59.499l-96 -96l-99 99c-34 -15.333 -58.833 -38 -74.5 -68
s-23.5 -61.333 -23.5 -94c0 -20 2.83301 -39.333 8.5 -58s14 -35.167 25 -49.5s24.333 -26 40 -35s33.834 -13.833 54.501 -14.5c11.333 0 21.666 3.33301 30.999 10l14 -32c-16 -7.33301 -30.667 -11 -44 -11c-26 0.666992 -49.167 6.5 -69.5 17.5s-37.5 25.333 -51.5 43
s-24.5 37.667 -31.5 60s-10.5 45.5 -10.5 69.5c0 20.667 2.66699 41.5 8 62.5s13.666 40.5 24.999 58.5s25.666 34.167 42.999 48.5s38 25.5 62 33.5l93 -93l91 90c38.667 -15.333 70 -39.666 94 -72.999s36 -72 36 -116z" />
    <glyph glyph-name="fourthai" unicode="&#xe54;" horiz-adv-x="465" 
d="M433 365c-4 -5.33301 -9.33008 -9.83789 -15.9971 -13.5049s-14.667 -5.5 -24 -5.5h-165c-22 0 -42.667 -4.16699 -62 -12.5s-36.166 -19.666 -50.499 -33.999s-25.666 -31.166 -33.999 -50.499s-12.5 -40 -12.5 -62s4.16699 -42.667 12.5 -62
s19.666 -36.166 33.999 -50.499s31.166 -25.666 50.499 -33.999s40 -12.5 62 -12.5c19.333 0 38.333 3.33301 57 10s35.667 15.667 51 27l-87 87c-10 10 -14.833 22 -14.5 36s5.16602 26 14.499 36l20 20l26 -24l-22 -21c-7.33301 -7.33301 -7.33301 -14.666 0 -21.999
l166 -165l-25 -25l-53 53c-18.667 -14.667 -39.334 -26.167 -62.001 -34.5s-46.334 -12.5 -71.001 -12.5c-26.667 0 -51.834 5.16699 -75.501 15.5s-44.167 24.166 -61.5 41.499s-31.166 37.833 -41.499 61.5s-15.5 48.834 -15.5 75.501s5.16699 51.834 15.5 75.501
s24.166 44.167 41.499 61.5s37.833 31.166 61.5 41.499s48.834 15.5 75.501 15.5h162c7.33301 0 13.333 3.33301 18 10l49 65l29 -19z" />
    <glyph glyph-name="fivethai" unicode="&#xe55;" horiz-adv-x="465" 
d="M433 366c-4 -5.33301 -9.33301 -9.83789 -16 -13.5049s-14.667 -5.5 -24 -5.5h-165c-22 0 -42.833 -4.16699 -62.5 -12.5s-36.667 -19.666 -51 -33.999s-25.666 -31.166 -33.999 -50.499s-12.5 -40 -12.5 -62s4.16699 -42.667 12.5 -62s19.833 -36.333 34.5 -51
s31.667 -26.167 51 -34.5s40 -12.5 62 -12.5c19.333 0 38.333 3.33301 57 10s35.667 16 51 28l-87 87c-10 9.33301 -14.833 21 -14.5 35s5.16602 26 14.499 36l20 21l26 -25l-22 -21c-7.33301 -7.33301 -7.33301 -14.333 0 -21l166 -165l-25 -25l-53 53
c-38 -32 -82.333 -48 -133 -48c-26.667 0 -51.834 5.16699 -75.501 15.5s-44.167 24.166 -61.5 41.499s-31.166 37.833 -41.499 61.5s-15.5 48.834 -15.5 75.501c0 24.667 4 47.834 12 69.501s19.333 40.834 34 57.501s31.834 30.667 51.501 42s41.167 19.333 64.5 24
c-6 8.66699 -9 19.667 -9 33c0 20 7 36.667 21 50s30.667 20 50 20s36.166 -6.5 50.499 -19.5s21.5 -29.833 21.5 -50.5c0 -11.333 -2.66699 -21.666 -8 -30.999h68c7.33301 0 13.333 3.33301 18 10l49 65l29 -19zM296 412.995c0 10.667 -3.66699 19.667 -11 27
s-16.333 11 -27 11c-10 0 -18.667 -3.66699 -26 -11s-11 -16.333 -11 -27s3.66699 -19.667 11 -27s16 -11 26 -11c10.667 0 19.667 3.66699 27 11s11 16.333 11 27z" />
    <glyph glyph-name="sixthai" unicode="&#xe56;" horiz-adv-x="435" 
d="M406 192c0 -27.333 -5.16406 -52.833 -15.4971 -76.5s-24.166 -44.5 -41.499 -62.5s-37.833 -32.167 -61.5 -42.5s-48.834 -15.5 -75.501 -15.5c-34 0 -64.333 7.83301 -91 23.5s-48 34.834 -64 57.501c-10.667 15.333 -16.5 31.166 -17.5 47.499
s5.16699 31.166 18.5 44.499l35 36l25 -25l-35 -35c-6 -6 -8.83301 -13.333 -8.5 -22s3.16602 -16.667 8.49902 -24c13.333 -19.333 31.5 -35.5 54.5 -48.5s47.833 -19.5 74.5 -19.5c22 0 42.667 4.33301 62 13s36.166 20.334 50.499 35.001s25.666 31.667 33.999 51
s12.5 40 12.5 62c0 34 -9 64.333 -27 91s-41.333 46 -70 58l-88 -87l-144 144l25 25l120 -120l78 78c20.667 -6 39.5 -15 56.5 -27s31.833 -26.333 44.5 -43s22.5 -35 29.5 -55s10.5 -41 10.5 -63z" />
    <glyph glyph-name="seventhai" unicode="&#xe57;" horiz-adv-x="525" 
d="M486 195c0 -46 -11.8311 -87.1689 -35.498 -123.502s-56.5 -62.833 -98.5 -79.5l-16 31c36 13.333 64.333 35.333 85 66s31 66 31 106c0 30.667 -7.66699 59.334 -23 86.001s-38 47.334 -68 62.001l-96 -96l-99 99c-34 -15.333 -58.833 -38 -74.5 -68
s-23.5 -61.333 -23.5 -94c0 -20 2.83301 -39.333 8.5 -58s14 -35.167 25 -49.5s24.333 -26 40 -35s33.834 -13.833 54.501 -14.5c11.333 0 21.666 3.33301 30.999 10l14 -32c-16 -7.33301 -30.667 -11 -44 -11c-26 0.666992 -49.167 6.5 -69.5 17.5s-37.5 25.333 -51.5 43
s-24.5 37.667 -31.5 60s-10.5 45.5 -10.5 69.5c0 20.667 2.66699 41.5 8 62.5s13.666 40.5 24.999 58.5s25.666 34.167 42.999 48.5s38 25.5 62 33.5l93 -93l91 90c41.333 -16 73.333 -41.333 96 -76v156h34v-269z" />
    <glyph glyph-name="eightthai" unicode="&#xe58;" horiz-adv-x="528" 
d="M473 366c-4 -5.33301 -9.33008 -9.83398 -15.9971 -13.501s-14.667 -5.5 -24 -5.5h-199c-23.333 0 -45 -4.33301 -65 -13s-37.667 -20.5 -53 -35.5s-27.333 -32.667 -36 -53s-13 -41.833 -13 -64.5c0 -34 8.83301 -64.333 26.5 -91s41.5 -46.667 71.5 -60l99 99l101 -101
c25.333 2.66699 46.833 13.5 64.5 32.5s26.5 41.833 26.5 68.5c0 28 -9.83301 51.667 -29.5 71s-44.5 29 -74.5 29v36c19.333 0 37.5 -3.5 54.5 -10.5s31.667 -16.667 44 -29s22.166 -26.833 29.499 -43.5s11 -34.334 11 -53.001c0 -19.333 -3.5 -37.166 -10.5 -53.499
s-16.833 -30.666 -29.5 -42.999s-27.334 -22 -44.001 -29s-34.334 -10.5 -53.001 -10.5l-90 90l-93 -93c-20 6.66699 -38.5 16.167 -55.5 28.5s-31.667 26.833 -44 43.5s-22 35.167 -29 55.5s-10.5 41.5 -10.5 63.5c0 28 5.33301 54.167 16 78.5s25 45.5 43 63.5
s39.167 32.333 63.5 43s50.5 16 78.5 16h197c7.33301 0 13.333 3.33301 18 10l49 65l29 -19z" />
    <glyph glyph-name="ninethai" unicode="&#xe59;" horiz-adv-x="536" 
d="M534 439c-4 -7.33301 -8.99707 -15.9961 -14.9971 -25.9961l-13.5 -20.5c-5 -7.66699 -10.5 -14.834 -16.5 -21.501s-12.5 -12.334 -19.5 -17.001s-14.5 -7.33398 -22.5 -8.00098c-10 -0.666992 -20 -0.666992 -30 0s-20 0 -30 -2
c-8 -1.33301 -17.667 -7.66602 -29 -18.999s-21.333 -22.333 -30 -33l177 -280l-28 -18l-208 329c-5.33301 8 -12.833 14 -22.5 18s-19.167 6 -28.5 6c-19.333 0 -37.833 -4.16699 -55.5 -12.5s-33.5 -19.833 -47.5 -34.5s-25.167 -31.5 -33.5 -50.5
s-12.5 -39.5 -12.5 -61.5s4.16699 -42.667 12.5 -62s19.666 -36.333 33.999 -51s31.166 -26.167 50.499 -34.5s40 -12.5 62 -12.5c20 0 41.333 4.66699 64 14l16 -31c-26 -12 -52.667 -18 -80 -18c-26.667 0 -51.834 5.16699 -75.501 15.5s-44.167 24.166 -61.5 41.499
s-31.166 37.833 -41.499 61.5s-15.5 48.834 -15.5 75.501s5.16699 52 15.5 76s24 44.667 41 62s36.5 31.166 58.5 41.499s45 15.5 69 15.5c6 0 12.667 -0.833008 20 -2.5s14.5 -4 21.5 -7s13.333 -6.33301 19 -10s9.83398 -7.83398 12.501 -12.501l18 -29
c10.667 12 22.167 23.833 34.5 35.5s24.833 18.167 37.5 19.5c10.667 2 20 3 28 3h32c5.33301 0 11.166 2.83301 17.499 8.5s12.5 12.5 18.5 20.5s11.667 16.333 17 25s9.66602 16 12.999 22z" />
    <glyph glyph-name="angkhankhuthai" unicode="&#xe5a;" horiz-adv-x="520" 
d="M441 0v450h36v-450h-36zM326 0l-0.00195312 349.001c-14.667 -18 -32.667 -32.333 -54 -43s-44.666 -16 -69.999 -16c-22 0 -42.667 4.16699 -62 12.5s-36.166 19.666 -50.499 33.999s-25.666 31.333 -33.999 51s-12.5 40.5 -12.5 62.5h34
c0 -17.333 3.33301 -33.666 10 -48.999s15.667 -28.666 27 -39.999s24.5 -20.333 39.5 -27s31.167 -10 48.5 -10s33.5 3.33301 48.5 10s28.167 15.667 39.5 27s20.166 24.666 26.499 39.999s9.5 31.666 9.5 48.999h35v-450h-35z" />
    <glyph glyph-name="khomutthai" unicode="&#xe5b;" horiz-adv-x="1006" 
d="M763 212c-1.33301 -3.33301 -3.66699 -8.16113 -7 -14.4941s-7.16602 -13.166 -11.499 -20.499l-13 -22c-4.33301 -7.33301 -8.5 -14 -12.5 -20c-4 7.33301 -9.16699 16.333 -15.5 27l-20.5 33.5c-7.33301 11.667 -14.666 22.667 -21.999 33s-14 19.166 -20 26.499
c-3.33301 -8 -8.33301 -18.5 -15 -31.5l-22 -41l-24 -42c-8 -13.667 -15 -24.834 -21 -33.501l-19.5 35.5c-7.66699 13.667 -16 27.5 -25 41.5l-27 41c-9 13.333 -17.5 24.666 -25.5 33.999c-4 -30 -11.833 -57.667 -23.5 -83s-26.334 -47 -44.001 -65
s-38.167 -32.167 -61.5 -42.5s-48.333 -15.5 -75 -15.5c-66.667 0 -116.5 16 -149.5 48s-49.5 75 -49.5 129c0 27.333 4.33301 51.166 13 71.499s19.834 37.333 33.501 51s29.167 23.834 46.5 30.501s34.666 10 51.999 10c32.667 0 59.834 -9.83301 81.501 -29.5
s31.834 -48.834 30.501 -87.501l-31 -3c0.666992 28 -7.5 49.167 -24.5 63.5s-36.5 21.5 -58.5 21.5c-13.333 0 -26.333 -2.66699 -39 -8s-24 -13.333 -34 -24s-18 -24 -24 -40s-9 -34.667 -9 -56c0 -26 4.5 -48 13.5 -66s20.833 -32.833 35.5 -44.5
s31.667 -20.167 51 -25.5s39.666 -8 60.999 -8c26.667 0 51.667 7.16699 75 21.5s42.833 32.666 58.5 54.999s26.334 47.166 32.001 74.499s4.16699 54.333 -4.5 81l27 19c8 -8 17.333 -19 28 -33l32.5 -44.5l31.5 -47l25 -40.5c4.66699 7.33301 9.5 16 14.5 26l15 30.5
l14 29.5c4.33301 9.33301 7.83301 17.333 10.5 24l31 20l16 -22l21 -29.5c7.33301 -10.333 14.166 -20.5 20.499 -30.5s11.5 -19 15.5 -27c5.33301 8.66699 10.666 18.167 15.999 28.5s9.66602 19.166 12.999 26.499h193v-36h-179z" />
    <glyph glyph-name="ZWSP" unicode="&#x200b;" 
 />
    <glyph glyph-name="endash" unicode="&#x2013;" horiz-adv-x="380" 
d="M30 160v30h320v-30h-320z" />
    <glyph glyph-name="emdash" unicode="&#x2014;" horiz-adv-x="760" 
d="M30 160v30h700v-30h-700z" />
    <glyph glyph-name="quoteleft" unicode="&#x2018;" horiz-adv-x="188" 
d="M131 569c-16 -9.33301 -28.333 -19.667 -37 -31s-16 -24.666 -22 -39.999c8 3.33301 15 5 21 5c9.33301 0 17.833 -3.66699 25.5 -11s11.5 -16 11.5 -26s-4 -19.167 -12 -27.5s-17.667 -12.5 -29 -12.5c-15.333 0 -27 5.5 -35 16.5s-12 23.167 -12 36.5
c0 16.667 6.33301 34.667 19 54s31 36.666 55 51.999z" />
    <glyph glyph-name="quoteright" unicode="&#x2019;" horiz-adv-x="188" 
d="M130 532c0 -16.667 -6.33398 -34.667 -19.001 -54s-31 -36.666 -55 -51.999l-15 16c16 9.33301 28.333 19.833 37 31.5s16.334 25.167 23.001 40.5c-5.33301 -2.66699 -9.5 -4.33398 -12.5 -5.00098s-6.16699 -1 -9.5 -1c-9.33301 0 -17.833 3.66699 -25.5 11
s-11.5 16 -11.5 26s4 19.167 12 27.5s17.667 12.5 29 12.5c15.333 0 27 -5.5 35 -16.5s12 -23.167 12 -36.5z" />
    <glyph glyph-name="quotedblleft" unicode="&#x201c;" horiz-adv-x="292" 
d="M251 569c-16 -9.33301 -28.333 -19.667 -37 -31s-16 -24.666 -22 -39.999c8 3.33301 15 5 21 5c9.33301 0 17.833 -3.66699 25.5 -11s11.5 -16 11.5 -26s-4 -19.167 -12 -27.5s-17.667 -12.5 -29 -12.5c-15.333 0 -27 5.5 -35 16.5s-12 23.167 -12 36.5
c0 16.667 6.33301 34.667 19 54s31 36.666 55 51.999zM131 568.999c-16 -9.33301 -28.333 -19.667 -37 -31s-16 -24.666 -22 -39.999c8 3.33301 15 5 21 5c9.33301 0 17.833 -3.66699 25.5 -11s11.5 -16 11.5 -26s-4 -19.167 -12 -27.5s-17.667 -12.5 -29 -12.5
c-15.333 0 -27 5.5 -35 16.5s-12 23.167 -12 36.5c0 16.667 6.33301 34.667 19 54s31 36.666 55 51.999z" />
    <glyph glyph-name="quotedblright" unicode="&#x201d;" horiz-adv-x="308" 
d="M250 532c0 -16.667 -6.33398 -34.667 -19.001 -54s-31 -36.666 -55 -51.999l-15 16c16 9.33301 28.333 19.833 37 31.5s16.334 25.167 23.001 40.5c-5.33301 -2.66699 -9.5 -4.33398 -12.5 -5.00098s-6.16699 -1 -9.5 -1c-9.33301 0 -17.833 3.66699 -25.5 11
s-11.5 16 -11.5 26s4 19.167 12 27.5s17.667 12.5 29 12.5c15.333 0 27 -5.5 35 -16.5s12 -23.167 12 -36.5zM129.999 532c0 -16.667 -6.33398 -34.667 -19.001 -54s-31 -36.666 -55 -51.999l-15 16c16 9.33301 28.333 19.833 37 31.5s16.334 25.167 23.001 40.5
c-5.33301 -2.66699 -9.5 -4.33398 -12.5 -5.00098s-6.16699 -1 -9.5 -1c-9.33301 0 -17.833 3.66699 -25.5 11s-11.5 16 -11.5 26s4 19.167 12 27.5s17.667 12.5 29 12.5c15.333 0 26.833 -5.5 34.5 -16.5s11.5 -23.167 11.5 -36.5h1z" />
    <glyph glyph-name="bullet" unicode="&#x2022;" horiz-adv-x="360" 
d="M338 200c0 -22 -4.16699 -42.5 -12.5 -61.5s-19.666 -35.667 -33.999 -50s-31 -25.666 -50 -33.999s-39.5 -12.5 -61.5 -12.5s-42.5 4.16699 -61.5 12.5s-35.667 19.666 -50 33.999s-25.666 31 -33.999 50s-12.5 39.5 -12.5 61.5s4.16699 42.5 12.5 61.5
s19.666 35.667 33.999 50s31 25.666 50 33.999s39.5 12.5 61.5 12.5s42.5 -4.16699 61.5 -12.5s35.667 -19.666 50 -33.999s25.666 -31 33.999 -50s12.5 -39.5 12.5 -61.5z" />
    <glyph glyph-name="Euro" unicode="&#x20ac;" horiz-adv-x="556" 
d="M525 61c-25.333 -21.333 -52.8291 -37.999 -82.4961 -49.999s-60.5 -18 -92.5 -18c-30 0 -59 5 -87 15s-53.5 24 -76.5 42s-42.833 39.167 -59.5 63.5s-29 50.833 -37 79.5h-69v31h62c-1.33301 6.66699 -2 13.167 -2 19.5v19.5v16c0 5.33301 0.333008 10.666 1 15.999
h-61v31h67c7.33301 30 19.166 57.833 35.499 83.5s36.166 47.667 59.499 66s49.333 32.833 78 43.5s58.667 16 90 16c32 0 62.833 -6.16699 92.5 -18.5s56.5 -29.5 80.5 -51.5l-22 -31c-23.333 21.333 -48.333 37.5 -75 48.5s-52.667 16.5 -78 16.5
c-26 0 -50.833 -4.5 -74.5 -13.5s-45.334 -21.167 -65.001 -36.5s-36.5 -33.5 -50.5 -54.5s-24.333 -43.833 -31 -68.5h218v-31h-225c-2 -11.333 -3 -23 -3 -35c0 -13.333 1.33301 -25 4 -35h224v-31h-217c8 -23.333 19.167 -45 33.5 -65s31.166 -37.5 50.499 -52.5
s40.5 -26.833 63.5 -35.5s47.167 -13 72.5 -13c23.333 0 48.833 5.33301 76.5 16s53.167 26.667 76.5 48z" />
    <glyph glyph-name="trademark" unicode="&#x2122;" horiz-adv-x="569" 
d="M515 217l-47 242l-95 -242h-10l-97 242l-48 -242h-27l63 311h12l101 -254l101 254h13l61 -311h-27zM131 502v-280h-27v280h-76v26h179v-26h-76z" />
    <glyph glyph-name="uni25CC" unicode="&#x25cc;" horiz-adv-x="670" 
d="M259 179l-48 -15l17 47c8.66699 -12 19 -22.667 31 -32zM312 413l23 45l22 -44c-3.33301 0.666992 -6.83301 1 -10.5 1h-10.5c-4 0 -8 -0.166992 -12 -0.5s-8 -0.833008 -12 -1.5zM355 156l-20 -42l-21 42c3.33301 -0.666992 7 -1.16699 11 -1.5s7.66699 -0.5 11 -0.5
s6.5 0.166992 9.5 0.5s6.16699 0.833008 9.5 1.5zM465 307l42 -22l-42 -19c0.666992 3.33301 1.16699 6.5 1.5 9.5s0.5 6.16699 0.5 9.5s-0.166992 7 -0.5 11s-0.833008 7.66699 -1.5 11zM208 264l-45 23l45 22c-0.666992 -4 -1.16699 -8 -1.5 -12s-0.5 -8 -0.5 -12
c0 -3.33301 0.166992 -6.83301 0.5 -10.5s0.833008 -7.16699 1.5 -10.5zM231 363l-13 46l45 -16c-12 -7.33301 -22.667 -17.333 -32 -30zM440 205l12 -41l-41 13c12 8.66699 21.667 18 29 28zM410 393l49 16l-17 -47c-9.33301 12 -20 22.333 -32 31z" />
    <glyph glyph-name="thothannobasethai" unicode="&#xf700;" horiz-adv-x="420" 
d="M323 399c14 -15.333 24.832 -32.666 32.499 -51.999s11.5 -40 11.5 -62c0 -22.667 -3.33301 -42 -10 -58l-83 -228h-49l-100 291h37l88 -257l73 205c6 14.667 9 30.334 9 47.001c0 18.667 -3.5 36.167 -10.5 52.5s-16.667 30.666 -29 42.999s-26.833 22 -43.5 29
s-34.334 10.5 -53.001 10.5s-36.167 -3.5 -52.5 -10.5s-30.666 -16.5 -42.999 -28.5s-22.166 -26.333 -29.499 -43s-11 -34.334 -11 -53.001h-36c0.666992 24 5.66699 46.333 15 67s21.666 38.667 36.999 54s33.333 27.333 54 36s42.667 13 66 13
c18.667 0 36.334 -2.83301 53.001 -8.5s32 -13.167 46 -22.5l55 62l28 -24z" />
    <glyph glyph-name="saraileftthai" unicode="&#xf701;" 
d="M-423 519v36h295v-35z" />
    <glyph glyph-name="saraiileftthai" unicode="&#xf702;" 
d="M-423 519v35h260v56h35v-90z" />
    <glyph glyph-name="saraueleftthai" unicode="&#xf703;" 
d="M-100 577c0 -15.333 -5.83301 -28.667 -17.5 -40s-25.167 -17 -40.5 -17h-265v35h210c-3.33301 8.66699 -5 16 -5 22c0 16 6 29.833 18 41.5s25.667 17.5 41 17.5c16 0 29.833 -5.83301 41.5 -17.5s17.5 -25.5 17.5 -41.5zM-133 576.999
c0 7.33301 -2.66699 13.666 -8 18.999s-11.333 8 -18 8c-7.33301 0 -13.666 -2.66699 -18.999 -8s-8 -11.666 -8 -18.999s2.66699 -13.5 8 -18.5s11.333 -7.5 18 -7.5c7.33301 0 13.666 2.5 18.999 7.5s8 11.167 8 18.5z" />
    <glyph glyph-name="saraueeleftthai" unicode="&#xf704;" 
d="M-423 519v35h187v56h35v-56h38v56h35v-90z" />
    <glyph glyph-name="maieklowleftthai" unicode="&#xf705;" 
d="M-211 519v121h36v-120z" />
    <glyph glyph-name="maitholowleftthai" unicode="&#xf706;" 
d="M-310 519c6 8 11.333 14.834 16 20.501s8.66699 11.167 12 16.5c4 5.33301 7.33301 10.166 10 14.499s4 7.83301 4 10.5c0 5.33301 -1.5 10.166 -4.5 14.499s-8.5 6.5 -16.5 6.5c-10 0 -18 -4.66699 -24 -14l-25 18c10.667 18.667 27 28 49 28
c19.333 0 33.333 -5.66699 42 -17s13 -22.666 13 -33.999c0 -10.667 -3.66699 -20.667 -11 -30h129v-33z" />
    <glyph glyph-name="maitrilowleftthai" unicode="&#xf707;" 
d="M-225 519l17 32c3.33301 5.33301 5 11 5 17c0 9.33301 -3 17 -9 23s-13.667 9 -23 9c-8.66699 0 -16 -3.16699 -22 -9.5s-9.33301 -14.166 -10 -23.499h-32c-0.666992 9.33301 -4 17.166 -10 23.499s-13.333 9.5 -22 9.5c-9.33301 0 -17 -3 -23 -9s-9 -13.667 -9 -23
c0 -10 4.66699 -18.667 14 -26l-23 -23c-15.333 13.333 -23 29.666 -23 48.999c0 17.333 6.33301 32.333 19 45s27.667 19 45 19c19.333 0 35.333 -7.33301 48 -22c12.667 14.667 28.667 22 48 22c17.333 0 32.333 -6.33301 45 -19s19 -27.667 19 -45
c0 -2.66699 -0.166992 -5.16699 -0.5 -7.5s-0.833008 -5.16602 -1.5 -8.49902h64v-32z" />
    <glyph glyph-name="maichattawalowleftthai" unicode="&#xf708;" 
d="M-195 575v-56h-35v55h-56v31h55v56h35v-55h56v-31h-55z" />
    <glyph glyph-name="thanthakhatlowleftthai" unicode="&#xf709;" 
d="M-173 571c-5.33301 0 -10.167 -2 -14.5 -6s-6.5 -9.66699 -6.5 -17c0 -5.33301 3.33301 -11.333 10 -18l-24 -24c-13.333 13.333 -20 27.333 -20 42c0 15.333 5.33301 28.5 16 39.5s23.667 16.5 39 16.5h56v-33h-56z" />
    <glyph glyph-name="maieklowrightthai" unicode="&#xf70a;" 
d="M-78 519v121h35v-120z" />
    <glyph glyph-name="maitholowrightthai" unicode="&#xf70b;" 
d="M-204 519c5.33301 8 10.334 14.834 15.001 20.501s9 11.167 13 16.5c8.66699 11.333 13 19.666 13 24.999s-1.33301 10.166 -4 14.499s-8.33398 6.5 -17.001 6.5c-10 0 -17.667 -4.66699 -23 -14l-26 18c5.33301 8.66699 12.333 15.5 21 20.5s18 7.5 28 7.5
c19.333 0 33.5 -5.66699 42.5 -17s13.5 -22.666 13.5 -33.999c0 -10 -4 -20 -12 -30h130v-33z" />
    <glyph glyph-name="maitrilowrightthai" unicode="&#xf70c;" 
d="M-143 519l17 32c3.33301 5.33301 5 11 5 17c0 9.33301 -3 17 -9 23s-13.667 9 -23 9c-8.66699 0 -16 -3.16699 -22 -9.5s-9.33301 -14.166 -10 -23.499h-32c-0.666992 9.33301 -4 17.166 -10 23.499s-13.333 9.5 -22 9.5c-9.33301 0 -17 -3 -23 -9s-9 -13.667 -9 -23
c0 -10 4.66699 -18.667 14 -26l-23 -23c-15.333 13.333 -23 29.666 -23 48.999c0 17.333 6.33301 32.333 19 45s27.667 19 45 19c19.333 0 35.333 -7.33301 48 -22c12.667 14.667 28.667 22 48 22c17.333 0 32.333 -6.33301 45 -19s19 -27.667 19 -45
c0 -2.66699 -0.166992 -5.16699 -0.5 -7.5s-0.833008 -5.16602 -1.5 -8.49902h79v-32z" />
    <glyph glyph-name="maichattawalowrightthai" unicode="&#xf70d;" 
d="M-43 575v-56h-35v55h-55v31h55v56h35v-55h55v-31h-55z" />
    <glyph glyph-name="thanthakhatlowrightthai" unicode="&#xf70e;" 
d="M-93 571c-6.66699 0 -11.833 -2.33301 -15.5 -7s-5.5 -10 -5.5 -16s3 -12 9 -18l-24 -24c-13.333 13.333 -20 27.333 -20 42c0 15.333 5.5 28.5 16.5 39.5s24.167 16.5 39.5 16.5h56v-33h-56z" />
    <glyph glyph-name="yoyingnobasethai" unicode="&#xf70f;" horiz-adv-x="750" 
d="M698 152c0 -22 -4.16504 -42.667 -12.498 -62s-19.833 -36.166 -34.5 -50.499s-31.667 -25.666 -51 -33.999s-40 -12.5 -62 -12.5s-42.833 4.16699 -62.5 12.5s-36.834 19.666 -51.501 33.999s-26.167 31.166 -34.5 50.499s-12.5 40 -12.5 62v110
c0 24 -4.33301 45.833 -13 65.5s-20.5 36.5 -35.5 50.5s-32.833 24.833 -53.5 32.5s-43 11.5 -67 11.5c-30 0 -57.667 -7.66699 -83 -23s-45.666 -34 -60.999 -56l37 -40v-268h69v-35h-104v291l-44 50c18 32.667 43.5 60 76.5 82s69.5 33 109.5 33
c30 0 57.5 -4.83301 82.5 -14.5s46.5 -23.167 64.5 -40.5s32 -38 42 -62s15 -50 15 -78v-109c0 -17.333 3.33301 -33.5 10 -48.5s15.667 -28.167 27 -39.5s24.5 -20.333 39.5 -27s31.167 -10 48.5 -10s33.666 3.16699 48.999 9.5s28.666 15 39.999 26s20.333 24.167 27 39.5
s10 32 10 50v298h35v-298z" />
    <glyph glyph-name="maihanakatleftthai" unicode="&#xf710;" 
d="M-208 519c-16 0 -29.5 5.83301 -40.5 17.5s-16.5 25.167 -16.5 40.5v27h35v-27c0 -6 2.16699 -11.167 6.5 -15.5s9.5 -6.5 15.5 -6.5h223v-35z" />
    <glyph glyph-name="nikhahitleftthai" unicode="&#xf711;" 
d="M-148 565c0 -16 -6 -29.667 -18 -41s-25.667 -17 -41 -17s-29 5.66699 -41 17s-18 25 -18 41c0 15.333 5.83301 29 17.5 41s25.5 18 41.5 18s29.833 -6 41.5 -18s17.5 -25.667 17.5 -41zM-181 565c0 7.33301 -2.5 13.5 -7.5 18.5s-11.167 7.5 -18.5 7.5
s-13.666 -2.5 -18.999 -7.5s-8 -11.167 -8 -18.5s2.66699 -13.666 8 -18.999s11.666 -8 18.999 -8s13.5 2.66699 18.5 8s7.5 11.666 7.5 18.999z" />
    <glyph glyph-name="maitaikhuleftthai" unicode="&#xf712;" 
d="M-316 645c-13.333 0 -24.668 -4.50098 -34.001 -13.501s-14 -20.167 -14 -33.5s4.5 -24.5 13.5 -33.5s20.167 -13.5 33.5 -13.5s24.333 4.66699 33 14s13 21.333 13 36h32c0 -14.667 4.5 -26.667 13.5 -36s20.167 -14 33.5 -14s24.333 4.66699 33 14s13 21.333 13 36h33
c0 -11.333 -2.16699 -22 -6.5 -32s-10 -18.667 -17 -26s-15.333 -13.166 -25 -17.499s-19.834 -6.5 -30.501 -6.5c-13.333 0 -25.166 2.83301 -35.499 8.5s-19.166 13.167 -26.499 22.5c-7.33301 -9.33301 -16.333 -16.833 -27 -22.5s-22.667 -8.5 -36 -8.5
c-21.333 0 -39.833 7.83301 -55.5 23.5s-23.5 34.167 -23.5 55.5s7.83301 39.833 23.5 55.5s34.167 23.5 55.5 23.5h218v-32h-217z" />
    <glyph glyph-name="maiekupperleftthai" unicode="&#xf713;" 
d="M-160 660v90h30v-90h-30z" />
    <glyph glyph-name="maithoupperleftthai" unicode="&#xf714;" 
d="M-236 660l15.002 20.001c4.66699 6 8.66699 11.667 12 17c4 5.33301 7.33301 10.166 10 14.499s4 7.5 4 9.5c0 5.33301 -1.33301 10.333 -4 15s-8.33398 7 -17.001 7c-10 0 -18 -4.66699 -24 -14l-25 18c5.33301 8 12.166 14.667 20.499 20s17.833 8 28.5 8
c19.333 0 33.333 -5.66699 42 -17s13 -23 13 -35c0 -8.66699 -3.66699 -18.667 -11 -30h129v-33h-193z" />
    <glyph glyph-name="maitriupperleftthai" unicode="&#xf715;" 
d="M-102 660l16 31.001c2.66699 4.66699 4 9 4 13c0 16.667 -8.33301 25 -25 25s-25 -9.33301 -25 -28h-32c0 8.66699 -2.5 15.5 -7.5 20.5s-10.833 7.5 -17.5 7.5c-16.667 0 -25 -8.33301 -25 -25c0 -8 4.33301 -15.333 13 -22l-23 -24
c-15.333 13.333 -23 28.666 -23 45.999c0 16 5.66699 29.667 17 41s25 17 41 17s29.667 -5.66699 41 -17c11.333 11.333 25 17 41 17s29.667 -5.66699 41 -17s17 -25 17 -41c0 -2 -0.166992 -3.83301 -0.5 -5.5s-0.5 -3.5 -0.5 -5.5h66v-33h-118z" />
    <glyph glyph-name="maichattawaupperleftthai" unicode="&#xf716;" 
d="M-127 702v-42h-35v42h-43v29h42v42h35v-42h43v-29h-42z" />
    <glyph glyph-name="thanthakhatupperleftthai" unicode="&#xf717;" 
d="M-138 700c-5.33301 0 -10.167 -2.16699 -14.5 -6.5s-6.5 -9.83301 -6.5 -16.5c0 -5.33301 3.33301 -11.333 10 -18l-24 -24c-13.333 13.333 -20 27.333 -20 42c0 15.333 5.33301 28.5 16 39.5s23.667 16.5 39 16.5h56v-33h-56z" />
    <glyph glyph-name="saraulowthai" unicode="&#xf718;" 
d="M-77 -315l0.000976562 79.999h-41v36h55c5.33301 0 10.166 -2.16699 14.499 -6.5s6.5 -9.16602 6.5 -14.499v-95h-35z" />
    <glyph glyph-name="sarauulowthai" unicode="&#xf719;" 
d="M-42 -250c0 -20 -7.16699 -37.167 -21.5 -51.5s-31.5 -21.5 -51.5 -21.5s-37 7.16699 -51 21.5s-21 31.5 -21 51.5v15h-31v36h65v-51c0 -10.667 3.66699 -19.667 11 -27s16.333 -11 27 -11s19.5 3.83301 26.5 11.5s10.5 16.5 10.5 26.5v51h36v-51z" />
    <glyph glyph-name="phinthulowthai" unicode="&#xf71a;" 
d="M-30 -224c0 -8 -3 -15 -9 -21s-13 -9 -21 -9s-15 3 -21 9s-9 13 -9 21s3 15 9 21s13 9 21 9s15 -3 21 -9s9 -13 9 -21z" />
    <glyph glyph-name="lochula.short" unicode="&#xf71d;" horiz-adv-x="521" 
d="M478 492c0 -19.333 -2.83594 -34.502 -8.50293 -45.502s-15.167 -18.833 -28.5 -23.5c14.667 -10 24.5 -21.667 29.5 -35s7.5 -29.666 7.5 -48.999v-226c0 -16 -3.16699 -31.167 -9.5 -45.5s-14.666 -26.833 -24.999 -37.5s-22.666 -19 -36.999 -25s-29.5 -9 -45.5 -9
c-21.333 0 -40.833 5 -58.5 15s-31.5 23.333 -41.5 40c-10.667 -16.667 -24.667 -30 -42 -40s-36.666 -15 -57.999 -15c-16 0 -31.167 3 -45.5 9s-26.833 14.333 -37.5 25s-19.167 23.167 -25.5 37.5s-9.5 29.5 -9.5 45.5v337h35v-337c0 -23.333 8 -42.833 24 -58.5
s35.333 -23.5 58 -23.5c23.333 0 43 8 59 24s24 35.333 24 58v206h35v-206c0 -23.333 8 -42.833 24 -58.5s35.333 -23.5 58 -23.5c23.333 0 43 7.83301 59 23.5s24 35.167 24 58.5v224c0 26.667 -6.33301 46.334 -19 59.001s-29 19 -49 19h-41v30h44c28 0 46 3.5 54 10.5
s12 19.5 12 37.5v4h34v-5z" />
    <glyph glyph-name="rulakkhangyao" unicode="&#xf881;" horiz-adv-x="658" 
d="M616 -170l-36 -0.00195312v458c0 42 -10.333 75.167 -31 99.5s-52 36.5 -94 36.5c-37.333 0 -67.333 -11.333 -90 -34c31.333 -33.333 47 -76.333 47 -129v-432h-35v432c0 24 -4.33301 45.833 -13 65.5s-20.5 36.5 -35.5 50.5s-32.833 24.833 -53.5 32.5
s-43 11.5 -67 11.5c-30 0 -57.667 -7.5 -83 -22.5s-45.666 -33.5 -60.999 -55.5l37 -41v-267h69v-35h-104v291l-44 50c18 32.667 43.5 60 76.5 82s69.5 33 109.5 33c52 0 96 -14 132 -42c14 13.333 30.667 23.666 50 30.999s41.666 11 66.999 11
c27.333 0 51 -4.16699 71 -12.5s36.5 -19.666 49.5 -33.999s22.667 -31.166 29 -50.499s9.5 -39.666 9.5 -60.999v-468z" />
    <glyph glyph-name="lulakkhangyao" unicode="&#xf882;" horiz-adv-x="668" 
d="M626 -170l-35.999 -0.00195312v458c0 42 -10.333 75.167 -31 99.5s-52 36.5 -94 36.5c-36.667 0 -66.334 -11.333 -89.001 -34c14.667 -16.667 26 -36 34 -58s12 -45.667 12 -71v-432h-35v433c0 24 -4.33301 45.833 -13 65.5s-20.5 36.5 -35.5 50.5
s-32.833 24.833 -53.5 32.5s-43 11.5 -67 11.5c-30 0 -57.667 -7.66699 -83 -23s-45.666 -34 -60.999 -56l37 -41v-302h-81v35h46v257l-44 50c8.66699 16 19.667 31 33 45s28 26 44 36s33.333 18 52 24s37.667 9 57 9c52.667 0 96.667 -14 132 -42
c14 13.333 30.667 23.666 50 30.999s41.666 11 66.999 11c27.333 0 51 -4.16699 71 -12.5s36.5 -19.666 49.5 -33.999s22.667 -31.166 29 -50.499s9.5 -39.666 9.5 -60.999v-468z" />
    <glyph glyph-name=".null" 
 />
    <glyph glyph-name="nonmarkingreturn" horiz-adv-x="283" 
 />
    <glyph glyph-name="yamakkanleftthai" 
d="M-119 699c-8.66699 8.66699 -19 13.0039 -31 13.0039c-12.667 0 -23.334 -4.33301 -32.001 -13s-13 -19.334 -13 -32.001s4.5 -23.334 13.5 -32.001s20.5 -13 34.5 -13v-31c-14 0 -25.5 -4.33301 -34.5 -13s-13.5 -19.334 -13.5 -32.001s4.5 -23.334 13.5 -32.001
s20.5 -13 34.5 -13v-32c-22.667 0 -41.5 7.5 -56.5 22.5s-22.5 33.167 -22.5 54.5c0 26 10 46 30 60c-20 16 -30 36.333 -30 61c0 21.333 7.33301 39.333 22 54s32.667 22 54 22c22.667 0 40.334 -7.33301 53.001 -22z" />
    <glyph glyph-name="saraamleft" horiz-adv-x="322" 
d="M279 0l-34.998 -0.00292969v287c0 42 -10.333 75.167 -31 99.5s-52 36.5 -94 36.5c-38.667 0 -69.334 -11.333 -92.001 -34l-24 24c13.333 13.333 29.666 23.833 48.999 31.5s42 11.5 68 11.5c27.333 0 51 -4.16699 71 -12.5s36.5 -19.666 49.5 -33.999
s22.667 -31.166 29 -50.499s9.5 -39.666 9.5 -60.999v-298zM-147.998 564.997c0 -16 -6 -29.667 -18 -41s-25.667 -17 -41 -17s-29 5.66699 -41 17s-18 25 -18 41c0 15.333 5.83301 29 17.5 41s25.5 18 41.5 18s29.833 -6 41.5 -18s17.5 -25.667 17.5 -41zM-233.998 563.997
c0 -7.33301 2.66699 -13.5 8 -18.5s11.666 -7.5 18.999 -7.5s13.5 2.5 18.5 7.5s7.5 11.167 7.5 18.5s-2.5 13.666 -7.5 18.999s-11.167 8 -18.5 8s-13.666 -2.66699 -18.999 -8s-8 -11.666 -8 -18.999z" />
    <glyph glyph-name="uni0E33.alt1" horiz-adv-x="322" 
d="M279 0l-34.998 -0.00292969v287c0 42 -10.333 75.167 -31 99.5s-52 36.5 -94 36.5c-38.667 0 -69.334 -11.333 -92.001 -34l-24 24c13.333 13.333 29.666 23.833 48.999 31.5s42 11.5 68 11.5c27.333 0 51 -4.16699 71 -12.5s36.5 -19.666 49.5 -33.999
s22.667 -31.166 29 -50.499s9.5 -39.666 9.5 -60.999v-298zM-147.998 564.997c0 -16 -6 -29.667 -18 -41s-25.667 -17 -41 -17s-29 5.66699 -41 17s-18 25 -18 41c0 15.333 5.83301 29 17.5 41s25.5 18 41.5 18s29.833 -6 41.5 -18s17.5 -25.667 17.5 -41zM-233.998 563.997
c0 -7.33301 2.66699 -13.5 8 -18.5s11.666 -7.5 18.999 -7.5s13.5 2.5 18.5 7.5s7.5 11.167 7.5 18.5s-2.5 13.666 -7.5 18.999s-11.167 8 -18.5 8s-13.666 -2.66699 -18.999 -8s-8 -11.666 -8 -18.999z" />
    <glyph glyph-name="sarainarrowthai" 
d="M-369 520v35h326v-35h-326z" />
    <glyph glyph-name="saraiinarrowthai" 
d="M-369 520v35h291v65h35v-100h-326z" />
    <glyph glyph-name="sarauenarrowthai" 
d="M-39 577c0 -15.333 -5.83301 -28.667 -17.5 -40s-25.167 -17 -40.5 -17h-272v35h218c-3.33301 8.66699 -5 16 -5 22c0 16 5.83301 29.833 17.5 41.5s25.5 17.5 41.5 17.5c15.333 0 28.833 -5.83301 40.5 -17.5s17.5 -25.5 17.5 -41.5zM-71 576.999
c0 7.33301 -2.66699 13.666 -8 18.999s-11.666 8 -18.999 8s-13.666 -2.66699 -18.999 -8s-8 -11.666 -8 -18.999s2.66699 -13.5 8 -18.5s11.666 -7.5 18.999 -7.5s13.666 2.5 18.999 7.5s8 11.167 8 18.5z" />
    <glyph glyph-name="saraueenarrowthai" 
d="M-369 520v35h218v65h35v-65h38v65h35v-100h-326z" />
    <glyph glyph-name="sarauchochanthai" 
d="M-167 -160l0.000976562 79.999h-41v36h55c5.33301 0 10.166 -2.16699 14.499 -6.5s6.5 -9.16602 6.5 -14.499v-95h-35z" />
    <glyph glyph-name="sarauuchochanthai" 
d="M-82 -95c0 -20 -7.16699 -37.167 -21.5 -51.5s-31.5 -21.5 -51.5 -21.5s-37 7.16699 -51 21.5s-21 31.5 -21 51.5v15h-31v36h65v-51c0 -10.667 3.66699 -19.667 11 -27s16.333 -11 27 -11s19.5 3.83301 26.5 11.5s10.5 16.5 10.5 26.5v51h36v-51z" />
    </font>
</defs>
</svg>
