<svg xmlns="http://www.w3.org/2000/svg">
<defs>
<font id="DBAdmanX-Italic" horiz-adv-x="0" >
  <font-face 
    font-family="DB Adman X"
    font-weight="400"
    font-style="italic"
    font-stretch="normal"
    units-per-em="1000"
    panose-1="2 0 5 6 9 0 0 2 0 4"
    ascent="800"
    descent="-200"
    x-height="365"
    cap-height="528"
    bbox="-346.001 -358.001 998 828"
    underline-thickness="20"
    underline-position="-113"
    unicode-range="U+0020-U+F882"
  />
<missing-glyph horiz-adv-x="414" 
d="M421 400v-14h6c4.66699 0 7 3 7 9c0 0.666992 -0.5 1.66699 -1.5 3s-2.83301 2 -5.5 2h-6zM424 385h-3v-14h-5v34h11c8 0 12 -3.33301 12 -10c0 -4.66699 -1 -7.5 -3 -8.5s-4.33301 -1.5 -7 -1.5l10 -14h-5zM427 366c8.66699 0 14.5 2.33301 17.5 7s4.5 9 4.5 13
c0 16 -7.33301 24 -22 24c-15.333 0 -23 -8 -23 -24c0 -5.33301 1.83301 -10 5.5 -14s9.5 -6 17.5 -6zM427 413c8.66699 0 15 -2.66699 19 -8s6 -11.666 6 -18.999c0 -5.33301 -2 -10.5 -6 -15.5s-10.333 -7.5 -19 -7.5c-8 0 -14.333 2.5 -19 7.5s-7 10.167 -7 15.5
c0 7.33301 2.33301 13.666 7 18.999s11 8 19 8zM200 316c10.667 -0.666992 23.1689 -1.99805 37.502 -3.99805s28.666 -4.33301 42.999 -7s27.5 -5.83398 39.5 -9.50098s21 -7.83398 27 -12.501c-13.333 26.667 -34 47.167 -62 61.5s-56.667 21.5 -86 21.5
c-22.667 0 -44.334 -4.33301 -65.001 -13s-37.667 -22 -51 -40c12 1.33301 24 2.33301 36 3s24 1 36 1h22.5c7.66699 0 15.167 -0.333008 22.5 -1zM374.002 395.002l-0.000976562 -142c-32 10 -68.5 18.5 -109.5 25.5s-84.5 10.5 -130.5 10.5c-32 0 -63.333 -2 -94 -6
c4 14.667 10.333 28.834 19 42.501s19.667 25.667 33 36s28.833 18.5 46.5 24.5s37.167 9 58.5 9c20.667 0 39.334 -2.33301 56.001 -7s31.167 -10.334 43.5 -17.001s22.833 -14 31.5 -22s15 -15 19 -21c0 -0.666992 0 1.5 0 6.5s-0.166992 11.167 -0.5 18.5
s-0.5 15 -0.5 23v19h28zM152.001 127.002c0 5.33301 -1.83301 9.33301 -5.5 12s-7.5 4 -11.5 4c-4.66699 0 -8.66699 -1.33301 -12 -4s-5 -6.66699 -5 -12s1.66699 -9.16602 5 -11.499s7.33301 -3.5 12 -3.5c4 0 7.83301 1.16699 11.5 3.5s5.5 6.16602 5.5 11.499z

<glyph glyph-name="plusminus" unicode="&#x2b;&#x2d;" horiz-adv-x="390" 
d="M265 232l-24 -145h-63l24 145h-146l11 63h145l24 146h63l-24 -146h146l-11 -63h-145zM18 0l10 63h354l-10 -63h-354z" />
    <glyph glyph-name="ellipsis" unicode="&#x2e;&#x2e;&#x2e;" horiz-adv-x="469" 
d="M446 45c-2.66699 -14 -9.5 -25.667 -20.5 -35s-23.167 -14 -36.5 -14s-24.166 4.66699 -32.499 14s-11.166 20.666 -8.49902 33.999c2.66699 14 9.5 25.667 20.5 35s23.167 14 36.5 14s24.166 -4.66699 32.499 -14s11.166 -20.666 8.49902 -33.999zM290 45
c-2.66699 -14 -9.50195 -25.667 -20.502 -35s-23.167 -14 -36.5 -14s-24.166 4.66699 -32.499 14s-11.166 20.666 -8.49902 33.999c2.66699 14 9.5 25.667 20.5 35s23.167 14 36.5 14s24 -4.66699 32 -14s10.667 -20.666 8 -33.999h1zM133.998 45
c-2.66699 -14 -9.50195 -25.667 -20.502 -35s-23.167 -14 -36.5 -14s-24.166 4.66699 -32.499 14s-11.166 20.666 -8.49902 33.999c2.66699 14 9.5 25.667 20.5 35s23.167 14 36.5 14s24 -4.66699 32 -14s10.667 -20.666 8 -33.999h1z" />
    <glyph glyph-name="lessequal" unicode="&#x3c;&#x3d;" horiz-adv-x="391" 
d="M72 295l10 58l373 171l-11 -68l-283 -132l237 -141l-11 -67zM376 53l-11 -67l-315 179l12 74z" />
    <glyph glyph-name="greaterequal" unicode="&#x3e;&#x3d;" horiz-adv-x="391" 
d="M42 116l11 67l285 141l-239 132l11 68l317 -171l-10 -58zM407 239l-12 -74l-375 -179l11 67z" />
    <glyph glyph-name="fongmanfunnuthai" unicode="&#xe4f;&#x22;" horiz-adv-x="530" 
d="M411 463h-42l16 149h60zM313 463h-40l16 149h59zM520 212c-5.33301 -30 -15.999 -58.333 -31.999 -85s-35.667 -50 -59 -70s-49.333 -35.833 -78 -47.5s-58 -17.5 -88 -17.5s-57.333 5.83301 -82 17.5s-45.334 27.5 -62.001 47.5s-28.667 43.333 -36 70
s-8.33301 55 -3 85c4.66699 30 15.167 58.333 31.5 85s36.166 50 59.499 70s49.333 35.833 78 47.5s58 17.5 88 17.5c30.667 0 58.334 -5.83301 83.001 -17.5s45.167 -27.5 61.5 -47.5s28 -43.333 35 -70s8.16699 -55 3.5 -85zM418.001 212
c-2.66699 -16 -8.33301 -31.167 -17 -45.5s-19.334 -26.833 -32.001 -37.5s-26.667 -19.167 -42 -25.5s-31 -9.5 -47 -9.5s-30.667 3.16699 -44 9.5s-24.5 14.833 -33.5 25.5s-15.333 23.167 -19 37.5s-4.16699 29.5 -1.5 45.5s8.33398 31.167 17.001 45.5
s19.167 26.833 31.5 37.5s26.333 19.167 42 25.5s31.5 9.5 47.5 9.5s30.667 -3.16699 44 -9.5s24.5 -14.833 33.5 -25.5s15.333 -23.167 19 -37.5s4.16699 -29.5 1.5 -45.5zM363.002 212c3.33301 17.333 -0.166992 32.166 -10.5 44.499s-24.166 18.5 -41.499 18.5
s-33.166 -6.16699 -47.499 -18.5s-23.166 -27.166 -26.499 -44.499s0.166992 -32.166 10.5 -44.499s24.166 -18.5 41.499 -18.5s33.166 6.16699 47.499 18.5s23.166 27.166 26.499 44.499zM463.002 211c4 22.667 3.33301 43.8359 -2 63.5029s-14.166 37 -26.499 52
s-27.666 26.833 -45.999 35.5s-38.833 13 -61.5 13s-44.5 -4.33301 -65.5 -13s-40 -20.334 -57 -35.001s-31.5 -31.834 -43.5 -51.501s-20 -40.834 -24 -63.501s-3.33301 -43.834 2 -63.501s14.166 -36.834 26.499 -51.501s27.666 -26.334 45.999 -35.001
s38.833 -13 61.5 -13s44.5 4.33301 65.5 13s40 20.334 57 35.001s31.333 31.834 43 51.501s19.5 40.834 23.5 63.501z" />
    <glyph glyph-name="dochadaphinthuthai" unicode="&#xe0e;&#xe3a;" horiz-adv-x="465" 
d="M291 -183c-20 17.333 -40 30.001 -60 38.001s-41.333 12 -64 12c-22 0 -44 -3.83301 -66 -11.5s-46.333 -20.5 -73 -38.5l-33 50c34 22 65.5 38.167 94.5 48.5s58.5 15.5 88.5 15.5c44.667 0 84.334 -10.333 119.001 -31l56 47l52 312c6.66699 40 -1.5 72.167 -24.5 96.5
s-55.5 36.5 -97.5 36.5c-22 0 -44 -5.33301 -66 -16s-41.333 -24 -58 -40l25 -33l-50 -303h-110l10 65h43l37 216l-38 50c28 38 60.833 68.333 98.5 91s77.5 34 119.5 34c30.667 0 58.167 -4.83301 82.5 -14.5s44.333 -23.334 60 -41.001s26.667 -38.5 33 -62.5
s7.16602 -50.333 2.49902 -79l-57 -338zM394 -237.999c-2 -12 -8.16699 -22.333 -18.5 -31s-21.833 -13 -34.5 -13s-22.5 4.33301 -29.5 13s-9.5 19 -7.5 31s8 22.333 18 31s21.333 13 34 13s22.667 -4.33301 30 -13s10 -19 8 -31z" />
    <glyph glyph-name="topatakphintuthai" unicode="&#xe0f;&#xe3a;" horiz-adv-x="465" 
d="M289 -185l-60.999 69.999l-82 -70l-102 117l55 46l62 -71l83 69l61 -70l47 40l53 313c6.66699 40 -1.5 72 -24.5 96s-55.5 36 -97.5 36c-22 0 -44 -5.16699 -66 -15.5s-41 -23.833 -57 -40.5l24 -32l-50 -303h-110l10 65h43l36 215l-37 51c28 38 61.167 68.333 99.5 91
s77.833 34 118.5 34c30.667 0 58.167 -5 82.5 -15s44.333 -23.667 60 -41s26.667 -38.166 33 -62.499s7.16602 -50.833 2.49902 -79.5l-57 -337zM394.001 -238.001c-2 -12 -8.16699 -22.333 -18.5 -31s-21.833 -13 -34.5 -13s-22.5 4.33301 -29.5 13s-9.5 19 -7.5 31
s8 22.333 18 31s21.333 13 34 13s22.667 -4.33301 30 -13s10 -19 8 -31z" />
    <glyph glyph-name="dochadasarauthai" unicode="&#xe0e;&#xe38;" horiz-adv-x="465" 
d="M291 -183c-20 17.333 -40 30.001 -60 38.001s-41.333 12 -64 12c-22 0 -44 -3.83301 -66 -11.5s-46.333 -20.5 -73 -38.5l-33 50c34 22 65.5 38.167 94.5 48.5s58.5 15.5 88.5 15.5c44.667 0 84.334 -10.333 119.001 -31l56 47l52 312c6.66699 40 -1.5 72.167 -24.5 96.5
s-55.5 36.5 -97.5 36.5c-22 0 -44 -5.33301 -66 -16s-41.333 -24 -58 -40l25 -33l-50 -303h-110l10 65h43l37 216l-38 50c28 38 60.833 68.333 98.5 91s77.5 34 119.5 34c30.667 0 58.167 -4.83301 82.5 -14.5s44.333 -23.334 60 -41.001s26.667 -38.5 33 -62.5
s7.16602 -50.333 2.49902 -79l-57 -338zM309 -341.999l14 80h-40l10 63h68c10 0 17.833 -3.33301 23.5 -10s7.5 -15 5.5 -25l-18 -108h-63z" />
    <glyph glyph-name="topataksarauthai" unicode="&#xe0f;&#xe38;" horiz-adv-x="465" 
d="M289 -185l-60.999 69.999l-82 -70l-102 117l55 46l62 -71l83 69l61 -70l47 40l53 313c6.66699 40 -1.5 72 -24.5 96s-55.5 36 -97.5 36c-22 0 -44 -5.16699 -66 -15.5s-41 -23.833 -57 -40.5l24 -32l-50 -303h-110l10 65h43l36 215l-37 51c28 38 61.167 68.333 99.5 91
s77.833 34 118.5 34c30.667 0 58.167 -5 82.5 -15s44.333 -23.667 60 -41s26.667 -38.166 33 -62.499s7.16602 -50.833 2.49902 -79.5l-57 -337zM309.001 -342.001l14 80h-40l10 63h68c10 0 17.833 -3.33301 23.5 -10s7.5 -15 5.5 -25l-18 -108h-63z" />
    <glyph glyph-name="dochadasarauuthai" unicode="&#xe0e;&#xe39;" horiz-adv-x="465" 
d="M291 -183c-20 17.333 -40 30.001 -60 38.001s-41.333 12 -64 12c-22 0 -44 -3.83301 -66 -11.5s-46.333 -20.5 -73 -38.5l-33 50c34 22 65.5 38.167 94.5 48.5s58.5 15.5 88.5 15.5c44.667 0 84.334 -10.333 119.001 -31l56 47l52 312c6.66699 40 -1.5 72.167 -24.5 96.5
s-55.5 36.5 -97.5 36.5c-22 0 -44 -5.33301 -66 -16s-41.333 -24 -58 -40l25 -33l-50 -303h-110l10 65h43l37 216l-38 50c28 38 60.833 68.333 98.5 91s77.5 34 119.5 34c30.667 0 58.167 -4.83301 82.5 -14.5s44.333 -23.334 60 -41.001s26.667 -38.5 33 -62.5
s7.16602 -50.333 2.49902 -79l-57 -338zM383 -268.999c-2 -12 -6.16602 -23.3311 -12.499 -33.998s-14 -19.834 -23 -27.501s-19 -13.834 -30 -18.501s-22.5 -7 -34.5 -7c-24 0 -43.167 8.5 -57.5 25.5s-19.5 37.167 -15.5 60.5l1 7h-40l11 63h103l-12 -69
c-1.33301 -6.66699 -0.333008 -12.334 3 -17.001s8.66602 -7 15.999 -7s13.5 2.33301 18.5 7s8.16699 10.334 9.5 17.001l12 69h63l-12 -70v1z" />
    <glyph glyph-name="topataksarauuthai" unicode="&#xe0f;&#xe39;" horiz-adv-x="465" 
d="M289 -185l-60.999 69.999l-82 -70l-102 117l55 46l62 -71l83 69l61 -70l47 40l53 313c6.66699 40 -1.5 72 -24.5 96s-55.5 36 -97.5 36c-22 0 -44 -5.16699 -66 -15.5s-41 -23.833 -57 -40.5l24 -32l-50 -303h-110l10 65h43l36 215l-37 51c28 38 61.167 68.333 99.5 91
s77.833 34 118.5 34c30.667 0 58.167 -5 82.5 -15s44.333 -23.667 60 -41s26.667 -38.166 33 -62.499s7.16602 -50.833 2.49902 -79.5l-57 -337zM383.001 -271.001c-2 -12 -6.16602 -23.3311 -12.499 -33.998s-14 -19.834 -23 -27.501s-19 -13.834 -30 -18.501
s-22.5 -7 -34.5 -7c-24 0 -43.167 8.5 -57.5 25.5s-19.5 37.167 -15.5 60.5l1 7h-40l11 63h103l-12 -69c-1.33301 -6.66699 -0.333008 -12.334 3 -17.001s8.66602 -7 15.999 -7s13.5 2.33301 18.5 7s8.16699 10.334 9.5 17.001l12 69h63l-12 -70v1z" />
    <glyph glyph-name=".notdef" horiz-adv-x="414" 
d="M421 400v-14h6c4.66699 0 7 3 7 9c0 0.666992 -0.5 1.66699 -1.5 3s-2.83301 2 -5.5 2h-6zM424 385h-3v-14h-5v34h11c8 0 12 -3.33301 12 -10c0 -4.66699 -1 -7.5 -3 -8.5s-4.33301 -1.5 -7 -1.5l10 -14h-5zM427 366c8.66699 0 14.5 2.33301 17.5 7s4.5 9 4.5 13
c0 16 -7.33301 24 -22 24c-15.333 0 -23 -8 -23 -24c0 -5.33301 1.83301 -10 5.5 -14s9.5 -6 17.5 -6zM427 413c8.66699 0 15 -2.66699 19 -8s6 -11.666 6 -18.999c0 -5.33301 -2 -10.5 -6 -15.5s-10.333 -7.5 -19 -7.5c-8 0 -14.333 2.5 -19 7.5s-7 10.167 -7 15.5
c0 7.33301 2.33301 13.666 7 18.999s11 8 19 8zM200 316c10.667 -0.666992 23.1689 -1.99805 37.502 -3.99805s28.666 -4.33301 42.999 -7s27.5 -5.83398 39.5 -9.50098s21 -7.83398 27 -12.501c-13.333 26.667 -34 47.167 -62 61.5s-56.667 21.5 -86 21.5
c-22.667 0 -44.334 -4.33301 -65.001 -13s-37.667 -22 -51 -40c12 1.33301 24 2.33301 36 3s24 1 36 1h22.5c7.66699 0 15.167 -0.333008 22.5 -1zM374.002 395.002l-0.000976562 -142c-32 10 -68.5 18.5 -109.5 25.5s-84.5 10.5 -130.5 10.5c-32 0 -63.333 -2 -94 -6
c4 14.667 10.333 28.834 19 42.501s19.667 25.667 33 36s28.833 18.5 46.5 24.5s37.167 9 58.5 9c20.667 0 39.334 -2.33301 56.001 -7s31.167 -10.334 43.5 -17.001s22.833 -14 31.5 -22s15 -15 19 -21c0 -0.666992 0 1.5 0 6.5s-0.166992 11.167 -0.5 18.5
s-0.5 15 -0.5 23v19h28zM152.001 127.002c0 5.33301 -1.83301 9.33301 -5.5 12s-7.5 4 -11.5 4c-4.66699 0 -8.66699 -1.33301 -12 -4s-5 -6.66699 -5 -12s1.66699 -9.16602 5 -11.499s7.33301 -3.5 12 -3.5c4 0 7.83301 1.16699 11.5 3.5s5.5 6.16602 5.5 11.499z
M31.001 139.002c0 15.333 3 29.001 9 41.001s14 22 24 30s21.333 14 34 18s25.667 6 39 6s26.166 -1.83301 38.499 -5.5s23.333 -9.16699 33 -16.5s17.334 -16.666 23.001 -27.999s8.5 -25 8.5 -41v-116h106v202h28v-228h-189v26h29v119c0 20 -7.33301 35 -22 45
s-32.667 15 -54 15c-20 0 -38 -5.5 -54 -16.5s-24 -26.5 -24 -46.5v-107l58 58c-3.33301 1.33301 -7.66602 4.66602 -12.999 9.99902s-8 13 -8 23c0 12 3.66699 21.5 11 28.5s17 10.5 29 10.5c11.333 0 20.5 -3.83301 27.5 -11.5s10.5 -16.834 10.5 -27.501
c0 -9.33301 -1.83301 -16.5 -5.5 -21.5s-6.83398 -8.83301 -9.50098 -11.5l-17 -16.5l-33 -31.5l-22.5 -21l-24.5 -24h-32v138z" />
    <glyph glyph-name="space" unicode=" " horiz-adv-x="250" 
 />
    <glyph glyph-name="exclam" unicode="!" horiz-adv-x="205" 
d="M194 319l-46 -198h-53l22 198l35 209h77zM158 43c-2.66699 -13.333 -9.50195 -24.666 -20.502 -33.999s-23.167 -14 -36.5 -14s-24.166 4.66699 -32.499 14s-11.166 20.666 -8.49902 33.999c2 14 8.5 25.833 19.5 35.5s23.5 14.5 37.5 14.5s24.833 -4.83301 32.5 -14.5
s10.5 -21.5 8.5 -35.5z" />
    <glyph glyph-name="quotedbl" unicode="&#x22;" horiz-adv-x="201" 
d="M229 352h-48l23 180h64zM134 352h-46l23 180h64z" />
    <glyph glyph-name="numbersign" unicode="#" horiz-adv-x="423" 
d="M365 292l-27 -85h74l-10 -62h-84l-48 -144h-61l47 144h-65l-46 -144h-61l44 144h-75l10 62h84l26 85h-78l11 62h86l43 134h64l-43 -134h66l42 134h64l-42 -134h67l-11 -62h-77zM235 292l-26 -85h67l25 85h-66z" />
    <glyph glyph-name="dollar" unicode="$" horiz-adv-x="413" 
d="M397 155c-6.66699 -38 -23.834 -70.833 -51.501 -98.5s-59.834 -47.167 -96.501 -58.5l-14 -83h-68l14 80c-34 4.66699 -61 17.5 -81 38.5s-34.667 52.5 -44 94.5l67 27c6 -28 14.667 -49.333 26 -64s25.666 -23.667 42.999 -27l33 193
c-13.333 6.66699 -26.166 14 -38.499 22s-23 17.167 -32 27.5s-15.667 22.5 -20 36.5s-4.83301 30 -1.5 48c6 36.667 21.5 67.5 46.5 92.5s55.5 41.167 91.5 48.5l12 77h68l-13 -80c18.667 -5.33301 35.5 -14.5 50.5 -27.5s28.167 -32.167 39.5 -57.5l-61 -43
c-7.33301 15.333 -14.166 27.5 -20.499 36.5s-13.166 15.833 -20.499 20.5l-26 -158c14.667 -8 28.5 -16.167 41.5 -24.5s24.333 -17.833 34 -28.5s16.5 -23.5 20.5 -38.5s4.33301 -32.833 1 -53.5zM259 461c-14.667 -5.33301 -27.165 -14.333 -37.498 -27
s-16.833 -26.667 -19.5 -42c-2.66699 -14 -0.333984 -25.333 6.99902 -34s16.666 -16.667 27.999 -24zM329.002 158c2.66699 14 0 26 -8 36s-19.333 19.667 -34 29l-25 -151c17.333 9.33301 32 21.5 44 36.5s19.667 31.5 23 49.5z" />
    <glyph glyph-name="percent" unicode="%" horiz-adv-x="494" 
d="M314 417c-2.66699 -16 -8.33496 -30.999 -17.002 -44.999s-19.167 -26.167 -31.5 -36.5s-26 -18.333 -41 -24s-30.5 -8.5 -46.5 -8.5s-30.667 2.83301 -44 8.5s-24.5 13.667 -33.5 24s-15.333 22.5 -19 36.5s-4.16699 29 -1.5 45
c2.66699 16.667 8.33398 32.167 17.001 46.5s19.167 26.666 31.5 36.999s26.166 18.333 41.499 24s31 8.5 47 8.5c32.667 0 58.334 -10.833 77.001 -32.5s25.334 -49.5 20.001 -83.5zM114.999 -18.999l-46 32l394 532l51 -26zM499.999 110.001
c-2.66699 -16.667 -8.33301 -32 -17 -46s-19.167 -26 -31.5 -36s-26 -17.833 -41 -23.5s-30.5 -8.5 -46.5 -8.5s-30.667 2.83301 -44 8.5s-24.5 13.5 -33.5 23.5s-15.5 22 -19.5 36s-4.66699 29.333 -2 46s8.33398 32 17.001 46s19.167 26.167 31.5 36.5
s26.166 18.333 41.499 24s31 8.5 47 8.5s30.667 -2.83301 44 -8.5s24.5 -13.667 33.5 -24s15.333 -22.5 19 -36.5s4.16699 -29.333 1.5 -46zM249 417.001c2.66699 14 -0.166016 26.001 -8.49902 36.001s-19.833 15 -34.5 15c-14 0 -26.833 -4.83301 -38.5 -14.5
s-18.834 -21.834 -21.501 -36.501c-2 -13.333 1.16699 -25 9.5 -35s19.5 -15 33.5 -15s27 5 39 15s19 21.667 21 35zM435 110.002c2.66699 14.667 -0.501953 26.834 -9.50195 36.501s-20.5 14.5 -34.5 14.5c-14.667 0 -27.667 -4.83301 -39 -14.5
s-18.333 -21.834 -21 -36.501c-2.66699 -14 0.333008 -25.833 9 -35.5s20.334 -14.5 35.001 -14.5c14 0 26.833 4.83301 38.5 14.5s18.834 21.5 21.501 35.5z" />
    <glyph glyph-name="ampersand" unicode="&#x26;" horiz-adv-x="521" 
d="M450 -2l-61.9971 87.0049c-28 -24 -58.167 -45.5 -90.5 -64.5s-64.5 -29.833 -96.5 -32.5c-20.667 -2 -39.5 0.166992 -56.5 6.5s-31.5 15.666 -43.5 27.999s-21.167 27.166 -27.5 44.499s-8.83301 36 -7.5 56c2 22 8 42.333 18 61s22.167 36 36.5 52
s30.333 30.833 48 44.5s35.5 26.5 53.5 38.5c-10.667 14 -19.834 29 -27.501 45s-10.834 33.667 -9.50098 53c1.33301 15.333 5.66602 30.166 12.999 44.499s16.666 27.166 27.999 38.499s24.333 20.5 39 27.5s29.667 11.167 45 12.5c16 1.33301 30.5 -0.5 43.5 -5.5
s23.833 -12.167 32.5 -21.5s15.167 -20.333 19.5 -33s5.83301 -26.334 4.5 -41.001c-2.66699 -30 -13.167 -55.333 -31.5 -76s-39.166 -39.667 -62.499 -57l87 -122l67 65l48 -41l-77 -75l93 -133zM340.003 433.005c1.33301 12 -1.66992 21.8301 -9.00293 29.4971
s-16.666 11.167 -27.999 10.5c-11.333 -1.33301 -21.666 -7.16602 -30.999 -17.499s-14.666 -22.166 -15.999 -35.499c-1.33301 -11.333 1 -22.166 7 -32.499s12 -19.833 18 -28.5c12 9.33301 24.5 20 37.5 32s20.167 26 21.5 42zM258 265.002l-37.498 -26
c-13.667 -9.33301 -26.5 -19.5 -38.5 -30.5s-22.333 -22.833 -31 -35.5s-13.334 -26.334 -14.001 -41.001c-1.33301 -23.333 4.66699 -42.666 18 -57.999s30.666 -22 51.999 -20c22 2 45.333 11.167 70 27.5s48.667 34.833 72 55.5z" />
    <glyph glyph-name="quotesingle" unicode="'" horiz-adv-x="142" 
d="M151 352h-46l23 180h64z" />
    <glyph glyph-name="parenleft" unicode="(" horiz-adv-x="205" 
d="M278 539c-40 -46.667 -73 -96.667 -99 -150s-43.667 -108.333 -53 -165c-5.33301 -30 -8.33301 -57.667 -9 -83s0.833008 -50.5 4.5 -75.5s9.33398 -51 17.001 -78s17.167 -56.5 28.5 -88.5l-66 -2c-23.333 52 -39 105.667 -47 161s-7.33301 111.333 2 168
c9.33301 56 27.166 110 53.499 162s59.5 103 99.5 153z" />
    <glyph glyph-name="parenright" unicode=")" horiz-adv-x="205" 
d="M223 226c-4 -26 -10.499 -53.3311 -19.499 -81.998s-20.167 -57.334 -33.5 -86.001s-28.5 -56.667 -45.5 -84s-35.5 -53 -55.5 -77h-66c22 32 41.333 61.5 58 88.5s31 53.167 43 78.5s22 50.833 30 76.5s14.667 53.5 20 83.5c9.33301 56.667 9.5 112 0.5 166
s-24.5 104.333 -46.5 151h69c21.333 -50 36.666 -101.333 45.999 -154s9.33301 -106.334 0 -161.001z" />
    <glyph glyph-name="asterisk" unicode="*" horiz-adv-x="352" 
d="M289 382l46.001 -77.999l-61 -42l-40 77c-4 -4.66699 -6.83301 -7.83398 -8.5 -9.50098s-4.33398 -4.5 -8.00098 -8.5l-17 -18.5l-35.5 -39.5l-47 41l72 78l-88 28l33 64l85 -31l12 97h68l-19 -97l95 31l11 -64z" />
    <glyph glyph-name="plus" unicode="+" horiz-adv-x="390" 
d="M253 158l-24 -145h-63l24 145h-146l10 63h145l25 146h63l-25 -146h146l-10 -63h-145z" />
    <glyph glyph-name="comma" unicode="," horiz-adv-x="148" 
d="M135 29c-3.33301 -18.667 -13.5 -38 -30.5 -58s-40.833 -38.667 -71.5 -56l-28 34c15.333 8.66699 27.333 16.5 36 23.5s16 14.167 22 21.5c-11.333 1.33301 -20.333 6.5 -27 15.5s-9 19.5 -7 31.5c2.66699 13.333 9.66699 25 21 35s24.333 15 39 15
c19.333 0 32.5 -6.66699 39.5 -20s9.16699 -27.333 6.5 -42z" />
    <glyph glyph-name="hyphen" unicode="-" horiz-adv-x="266" 
d="M52 159l11 63h215l-11 -63h-215z" />
    <glyph glyph-name="period" unicode="." horiz-adv-x="148" 
d="M129 41c-2 -14 -8.66602 -25.667 -19.999 -35s-23.666 -14 -36.999 -14s-24 4.66699 -32 14s-11 20.666 -9 33.999c2.66699 14 9.5 25.667 20.5 35s23.167 14 36.5 14s24.166 -4.66699 32.499 -14s11.166 -20.666 8.49902 -33.999z" />
    <glyph glyph-name="slash" unicode="/" horiz-adv-x="458" 
d="M101 0h-72l422 588h69z" />
    <glyph glyph-name="zero" unicode="0" horiz-adv-x="410" 
d="M437 267c-6 -34 -15.666 -67.333 -28.999 -100s-30 -62 -50 -88s-43 -46.833 -69 -62.5s-54.333 -23.5 -85 -23.5s-56.334 7.83301 -77.001 23.5s-36.834 36.5 -48.501 62.5s-18.667 55.333 -21 88s-0.5 66 5.5 100s15.667 67.167 29 99.5s30 61 50 86s42.833 45 68.5 60
s53.834 22.5 84.501 22.5c30 0 55.333 -7.5 76 -22.5s37 -35 49 -60s19.333 -53.667 22 -86s1 -65.5 -5 -99.5zM365.001 267c4.66699 26 6.16699 51.167 4.5 75.5s-6 45.833 -13 64.5s-16.667 33.5 -29 44.5s-26.833 16.5 -43.5 16.5c-17.333 0 -33.833 -5.5 -49.5 -16.5
s-30.167 -25.833 -43.5 -44.5s-25 -40.167 -35 -64.5s-17.333 -49.5 -22 -75.5c-5.33301 -29.333 -7.16602 -56.666 -5.49902 -81.999s6.16699 -47.333 13.5 -66s17.166 -33.334 29.499 -44.001s26.833 -16 43.5 -16c17.333 0 33.833 5.33301 49.5 16
s30.167 25.334 43.5 44.001s24.833 40.667 34.5 66s17.167 52.666 22.5 81.999z" />
    <glyph glyph-name="one" unicode="1" horiz-adv-x="410" 
d="M183 -1l77 461h-95l12 68h164l-89 -529h-69z" />
    <glyph glyph-name="two" unicode="2" horiz-adv-x="410" 
d="M434 372c-3.33301 -18 -9.33398 -35.332 -18.001 -51.999s-19 -32.5 -31 -47.5s-24.833 -29.167 -38.5 -42.5s-26.834 -25.333 -39.501 -36l-147 -129h220l-10 -65h-329l8 51l208 182l35 32.5c12 11.667 23 23.667 33 36s18.667 24.666 26 36.999s12 24.166 14 35.499
c4.66699 28 -1 50.833 -17 68.5s-37 26.5 -63 26.5c-28 0 -52.667 -9.5 -74 -28.5s-35.333 -48.5 -42 -88.5h-70c6 30.667 15.667 57.5 29 80.5s29 42 47 57s37.333 26.333 58 34s41.667 11.5 63 11.5c22.667 0 43.334 -4.16699 62.001 -12.5s34.334 -19.666 47.001 -33.999
s21.667 -31.5 27 -51.5s6 -41.667 2 -65z" />
    <glyph glyph-name="three" unicode="3" horiz-adv-x="410" 
d="M391 156c-4 -23.333 -11.501 -44.832 -22.501 -64.499s-24.667 -36.834 -41 -51.501s-35.166 -26.167 -56.499 -34.5s-44.333 -12.5 -69 -12.5c-20 0 -38.833 3.5 -56.5 10.5s-32.5 17.333 -44.5 31s-20.667 30.834 -26 51.501s-6 44.667 -2 72h67
c-4.66699 -32.667 -0.333984 -57.334 12.999 -74.001s33 -25 59 -25c28 0 51.667 9.16699 71 27.5s31.333 40.833 36 67.5c4 23.333 -0.5 43 -13.5 59s-34.833 25.667 -65.5 29l11 63c30 3.33301 53.5 13 70.5 29s27.167 35 30.5 57c4 23.333 -0.333008 42 -13 56
s-29.667 21 -51 21s-40.833 -7.16699 -58.5 -21.5s-29.167 -38.5 -34.5 -72.5h-70c9.33301 53.333 30 93.5 62 120.5s69.667 40.5 113 40.5c20 0 38.333 -3.5 55 -10.5s30.5 -16.833 41.5 -29.5s18.833 -28 23.5 -46s5.33398 -37.667 2.00098 -59
c-8 -47.333 -33 -85.333 -75 -114c18 -14.667 30.667 -32.5 38 -53.5s9.33301 -43.167 6 -66.5z" />
    <glyph glyph-name="four" unicode="4" horiz-adv-x="410" 
d="M346 93l-15 -93h-70l15 93h-244l10 57l321 378h56l-62 -367h59l-11 -68h-59zM326 389l-197 -228h158z" />
    <glyph glyph-name="five" unicode="5" horiz-adv-x="410" 
d="M416 185c-4.66699 -28 -13.9971 -53.8291 -27.9971 -77.4961s-31.333 -44 -52 -61s-43.667 -30.333 -69 -40s-51.333 -14.5 -78 -14.5c-32 0 -61.5 8.66699 -88.5 26s-48.167 45.333 -63.5 84l66 28c12.667 -26 27.334 -44.333 44.001 -55s34.667 -16 54 -16
c17.333 0 34.166 3.16699 50.499 9.5s31 15.166 44 26.499s24 24.666 33 39.999s15.167 32.333 18.5 51c2.66699 16.667 2 32.167 -2 46.5s-10.833 26.833 -20.5 37.5s-21.334 19 -35.001 25s-28.834 9 -45.501 9c-18.667 0 -38.334 -3.83301 -59.001 -11.5
s-45 -18.834 -73 -33.501l45 270h271l-11 -68h-200l-17 -100c20 6 40.667 9 62 9c26 0 49.5 -4.83301 70.5 -14.5s38.5 -22.834 52.5 -39.501s23.833 -36.167 29.5 -58.5s6.16699 -46.5 1.5 -72.5z" />
    <glyph glyph-name="six" unicode="6" horiz-adv-x="410" 
d="M419 183c-4 -24.667 -12.665 -48.168 -25.998 -70.501s-29.333 -42.166 -48 -59.499c-20 -20 -42.333 -35 -67 -45s-49.667 -15 -75 -15s-48.333 5 -69 15s-37.834 23.5 -51.501 40.5s-23.5 37 -29.5 60s-6.66699 47.833 -2 74.5c4 23.333 10.833 44.5 20.5 63.5
s21.834 37.5 36.501 55.5l189 227h85l-129 -154c2.66699 0 5.33398 0.166992 8.00098 0.5s5.66699 0.5 9 0.5c25.333 0 48.166 -5.16699 68.499 -15.5s37.166 -24.333 50.499 -42s22.666 -38.167 27.999 -61.5s6 -48 2 -74zM348.002 183.999
c2.66699 17.333 2.1709 33.5 -1.49609 48.5s-9.66699 28 -18 39s-18.833 19.667 -31.5 26s-26.334 9.5 -41.001 9.5s-29.334 -3.16699 -44.001 -9.5s-28.167 -15 -40.5 -26s-22.833 -24 -31.5 -39s-14.334 -31.167 -17.001 -48.5s-2.16699 -33.666 1.5 -48.999
s9.66699 -28.5 18 -39.5s18.666 -19.667 30.999 -26s26.166 -9.5 41.499 -9.5c14.667 0 29.5 3.16699 44.5 9.5s28.5 15 40.5 26s22.333 24.167 31 39.5s14.334 31.666 17.001 48.999z" />
    <glyph glyph-name="seven" unicode="7" horiz-adv-x="410" 
d="M125 0h-80l336 460h-273l12 68h354l-11 -65z" />
    <glyph glyph-name="eight" unicode="8" horiz-adv-x="410" 
d="M391 147c-4 -22.667 -11.8369 -43.334 -23.5039 -62.001s-26 -34.834 -43 -48.501s-35.833 -24.334 -56.5 -32.001s-42 -11.5 -64 -11.5c-21.333 0 -41 3.83301 -59 11.5s-33.333 18.334 -46 32.001s-21.667 29.834 -27 48.501s-6 39.334 -2 62.001
c4.66699 26.667 13.834 50.834 27.501 72.501s32.834 40.167 57.501 55.5c-30 30.667 -41.333 67.667 -34 111c3.33301 20.667 10.333 40.167 21 58.5s23.834 34.166 39.501 47.499s33.167 23.833 52.5 31.5s39.666 11.5 60.999 11.5s40.5 -3.83301 57.5 -11.5
s31 -18.167 42 -31.5s18.833 -29.166 23.5 -47.499s5.33398 -37.833 2.00098 -58.5c-7.33301 -42.667 -30.666 -79.667 -69.999 -111c36 -30.667 49.667 -73.334 41 -128.001zM349.996 387c4 22 -0.670898 40.999 -14.0039 56.999s-30.666 24 -51.999 24
c-10.667 0 -21.167 -2.16699 -31.5 -6.5s-19.666 -10.166 -27.999 -17.499s-15.5 -16 -21.5 -26s-10 -20.333 -12 -31c-3.33301 -22.667 1.33398 -41.667 14.001 -57s30 -23 52 -23c22.667 0 42.834 7.83301 60.501 23.5s28.5 34.5 32.5 56.5zM322.992 149.999
c2 12 1.50098 23.5 -1.49902 34.5s-8 20.5 -15 28.5s-15.833 14.333 -26.5 19s-22.334 7 -35.001 7c-12 0 -24 -2.33301 -36 -7s-22.667 -11 -32 -19s-17.333 -17.5 -24 -28.5s-11 -22.5 -13 -34.5c-2 -12.667 -1.66699 -24.5 1 -35.5s7.5 -20.667 14.5 -29
s15.667 -14.833 26 -19.5s21.5 -7 33.5 -7s24 2.33301 36 7s23 11.167 33 19.5s18.5 18 25.5 29s11.5 22.833 13.5 35.5z" />
    <glyph glyph-name="nine" unicode="9" horiz-adv-x="410" 
d="M447 342c-4 -22.667 -11.0029 -43.3311 -21.0029 -61.998s-22.333 -36.667 -37 -54l-185 -226h-85l129 155c-3.33301 -0.666992 -6.66602 -1 -9.99902 -1h-10c-25.333 0 -48 5.16699 -68 15.5s-36.667 24.166 -50 41.499s-22.833 37.5 -28.5 60.5s-6.5 47.5 -2.5 73.5
c4.66699 26.667 13.834 51.667 27.501 75s30.334 43.5 50.001 60.5s41.5 30.333 65.5 40s48.667 14.5 74 14.5c26 0 49.333 -5 70 -15s37.667 -23.667 51 -41s22.833 -37.833 28.5 -61.5s6.16699 -48.834 1.5 -75.501zM373.997 345.003
c2.66699 16.667 2.33691 32.5 -0.996094 47.5s-9 28 -17 39s-18.167 19.667 -30.5 26s-25.833 9.5 -40.5 9.5s-29.334 -3.16699 -44.001 -9.5s-28.334 -15 -41.001 -26s-23.334 -24 -32.001 -39s-14.334 -30.833 -17.001 -47.5c-2.66699 -17.333 -2.16699 -33.5 1.5 -48.5
s9.83398 -28 18.501 -39s19.167 -19.667 31.5 -26s26.166 -9.5 41.499 -9.5c14.667 0 29.167 3.16699 43.5 9.5s27.5 15 39.5 26s22.167 24 30.5 39s13.833 31.167 16.5 48.5z" />
    <glyph glyph-name="colon" unicode=":" horiz-adv-x="148" 
d="M174 309c-2 -14 -8.66602 -25.667 -19.999 -35s-23.666 -14 -36.999 -14s-24 4.66699 -32 14s-11 20.666 -9 33.999c2.66699 14 9.5 25.667 20.5 35s23.167 14 36.5 14s24.166 -4.66699 32.499 -14s11.166 -20.666 8.49902 -33.999zM130.001 42
c-2.66699 -14 -9.66699 -25.666 -21 -34.999s-23.666 -14 -36.999 -14s-24 4.66699 -32 14s-11 20.666 -9 33.999c2.66699 14 9.66699 25.667 21 35s23.666 14 36.999 14s24 -4.66699 32 -14s10.667 -21 8 -35z" />
    <glyph glyph-name="semicolon" unicode=";" horiz-adv-x="148" 
d="M174 308c-2 -13.333 -8.66699 -24.833 -20 -34.5s-23.666 -14.5 -36.999 -14.5s-23.833 4.83301 -31.5 14.5s-10.5 21.167 -8.5 34.5c2.66699 13.333 9.33398 24.833 20.001 34.5s22.667 14.5 36 14.5s24.166 -4.83301 32.499 -14.5s11.166 -21.167 8.49902 -34.5z
M135 28c-3.33301 -18.667 -13.5 -38 -30.5 -58s-40.833 -38.667 -71.5 -56l-28 34c15.333 8.66699 27.5 16.5 36.5 23.5s16.5 14.167 22.5 21.5c-11.333 1.33301 -20.333 6.5 -27 15.5s-9 19.5 -7 31.5c2.66699 13.333 9.5 25 20.5 35s23.833 15 38.5 15
c19.333 0 32.5 -6.66699 39.5 -20s9.16699 -27.333 6.5 -42z" />
    <glyph glyph-name="less" unicode="&#x3c;" horiz-adv-x="391" 
d="M50 165l10 58l373 171l-11 -68l-283 -132l237 -141l-11 -67z" />
    <glyph glyph-name="equal" unicode="=" horiz-adv-x="398" 
d="M57 215l11 63h354l-11 -63h-354zM39 102l10 63h354l-10 -63h-354z" />
    <glyph glyph-name="greater" unicode="&#x3e;" horiz-adv-x="391" 
d="M20 -14l11 67l285 141l-239 132l11 68l317 -171l-10 -58z" />
    <glyph glyph-name="question" unicode="?" horiz-adv-x="342" 
d="M387 399c-4 -26 -13.3311 -47.832 -27.998 -65.499s-30.334 -33.334 -47.001 -47.001l-46.5 -39.5c-14.333 -12.667 -22.833 -27.334 -25.5 -44.001l-13 -79h-68l14 81c4 24 13.167 44 27.5 60s29.666 30.833 45.999 44.5s31.5 27.334 45.5 41.001s22.667 30.167 26 49.5
c2.66699 18 -1.33301 34.833 -12 50.5s-30.334 23.5 -59.001 23.5c-30.667 0 -55.5 -10 -74.5 -30s-27.833 -48 -26.5 -84h-69c-0.666992 26.667 3.83301 51 13.5 73s22.834 41 39.501 57s36.167 28.5 58.5 37.5s45.5 13.5 69.5 13.5c23.333 0 43.833 -3.83301 61.5 -11.5
s32 -18 43 -31s18.667 -28.167 23 -45.5s4.83301 -35.333 1.5 -54zM229.002 42.001c-2.66699 -14 -9.5 -25.833 -20.5 -35.5s-23.5 -14.5 -37.5 -14.5s-24.833 4.83301 -32.5 14.5s-10.167 21.5 -7.5 35.5c2 14 8.5 25.667 19.5 35s23.5 14 37.5 14
c13.333 0 24 -4.66699 32 -14s11 -21 9 -35z" />
    <glyph glyph-name="at" unicode="@" horiz-adv-x="552" 
d="M572 121c-36 -44 -77.4971 -76.1719 -124.497 -96.5049s-94.5 -30.5 -142.5 -30.5c-38.667 0 -74.667 6.16699 -108 18.5s-61.666 30.166 -84.999 53.499s-40.333 51.833 -51 85.5s-12.334 71.834 -5.00098 114.501c6 36.667 19 71.334 39 104.001s44.5 61.167 73.5 85.5
s61.333 43.5 97 57.5s72.167 21 109.5 21c35.333 0 67.5 -5.66699 96.5 -17s53.167 -27 72.5 -47s33.333 -44 42 -72s10.334 -58.333 5.00098 -91c-4.66699 -28 -14.334 -54.5 -29.001 -79.5s-31.834 -46.667 -51.501 -65s-40.667 -33 -63 -44s-43.833 -16.5 -64.5 -16.5
c-10.667 0 -19.167 1.33301 -25.5 4s-11.166 6 -14.499 10s-5.66602 8.33301 -6.99902 13s-2.33301 9 -3 13c-16.667 -9.33301 -32.167 -16 -46.5 -20s-28.166 -6 -41.499 -6c-32.667 0 -56 10.167 -70 30.5s-18.333 45.5 -13 75.5c4 22 11.667 44.667 23 68
s25.833 44.5 43.5 63.5s38.167 34.667 61.5 47s48.666 18.5 75.999 18.5c13.333 0 25.666 -2.33301 36.999 -7s22 -12.667 32 -24l9 18h55l-105 -210c-0.666992 -1.33301 -2.16699 -4.5 -4.5 -9.5s-3.83301 -10.167 -4.5 -15.5s0 -10.166 2 -14.499s6.66699 -6.5 14 -6.5
c12 0 25.5 5 40.5 15s29.333 22.667 43 38s25.667 32.333 36 51s17.166 37 20.499 55c4.66699 26.667 3.16699 50.834 -4.5 72.501s-19.667 40.167 -36 55.5s-36 27.333 -59 36s-47.167 13 -72.5 13c-30.667 0 -60.834 -6.16699 -90.501 -18.5s-56.5 -28.666 -80.5 -48.999
s-44.333 -44.166 -61 -71.499s-27.334 -56 -32.001 -86c-6 -34 -4.33301 -64.667 5 -92s23.833 -50.5 43.5 -69.5s43.5 -33.5 71.5 -43.5s57.667 -15 89 -15c34 0 67.833 6.16699 101.5 18.5s64.5 32.5 92.5 60.5zM400.003 314.995c2 4 2.5 9.00098 1.5 15.001
s-3.5 11.833 -7.5 17.5s-9.5 10.667 -16.5 15s-15.833 6.5 -26.5 6.5c-15.333 0 -30.5 -4.5 -45.5 -13.5s-28.833 -20.5 -41.5 -34.5s-23.5 -29.333 -32.5 -46s-14.833 -33 -17.5 -49c-2.66699 -17.333 -0.833984 -31.833 5.49902 -43.5s21.166 -17.5 44.499 -17.5
c8.66699 0 17.834 2.16699 27.501 6.5s18.834 9.66602 27.501 15.999s16.5 13.5 23.5 21.5s12.5 16 16.5 24z" />
    <glyph glyph-name="A" unicode="A" horiz-adv-x="465" 
d="M391 0l-38 162h-187l-92 -162h-74l301 528h41l123 -528h-74zM299 396l-96 -166h134z" />
    <glyph glyph-name="B" unicode="B" horiz-adv-x="380" 
d="M391 155c-4 -27.333 -12.499 -50.666 -25.499 -69.999s-28.667 -35.333 -47 -48s-38.833 -22 -61.5 -28s-45.667 -9 -69 -9h-149l88 528h121c48.667 0 85.667 -11.667 111 -35s34 -61.333 26 -114c-3.33301 -19.333 -9 -36.5 -17 -51.5s-19.667 -28.833 -35 -41.5
c23.333 -13.333 40.166 -31.333 50.499 -54s12.833 -48.334 7.5 -77.001zM316.001 384c5.33301 30 -0.332031 50.335 -16.999 61.002s-41.334 16 -74.001 16h-40l-26 -155h40c14.667 0 28.5 0.833008 41.5 2.5s24.5 5.16699 34.5 10.5s18.5 13.166 25.5 23.499
s12.167 24.166 15.5 41.499zM321.003 154.002c2.66699 15.333 1.66797 29.333 -2.99902 42s-12.667 22 -24 28c-11.333 6.66699 -25.5 10.667 -42.5 12s-33.833 2 -50.5 2h-54l-28 -172h61c18 0 35 1.33301 51 4s30.167 7.5 42.5 14.5s22.666 16 30.999 27
s13.833 25.167 16.5 42.5z" />
    <glyph glyph-name="C" unicode="C" horiz-adv-x="467" 
d="M462 51c-34 -22 -64.8291 -37.168 -92.4961 -45.501s-56.834 -12.5 -87.501 -12.5c-36.667 0 -70.334 7.16699 -101.001 21.5s-56.334 33.666 -77.001 57.999s-35.5 52.833 -44.5 85.5s-10.5 67.667 -4.5 105s19 72.5 39 105.5s44.5 61.833 73.5 86.5
s61.333 44.167 97 58.5s72.167 21.5 109.5 21.5c28 0 55.167 -4.16699 81.5 -12.5s52.166 -23.833 77.499 -46.5l-46 -55c-23.333 20 -45.333 32.833 -66 38.5s-40.667 8.5 -60 8.5c-27.333 0 -54.166 -5.66699 -80.499 -17s-50.333 -26.5 -72 -45.5s-40 -41 -55 -66
s-24.833 -51.5 -29.5 -79.5c-4 -26 -2.5 -51.167 4.5 -75.5s18.167 -45.666 33.5 -63.999s34.166 -33.166 56.499 -44.499s46.833 -17 73.5 -17c19.333 0 40.333 3 63 9s49 19 79 39z" />
    <glyph glyph-name="D" unicode="D" horiz-adv-x="434" 
d="M468 263c-7.33301 -40.667 -20.665 -77.167 -39.998 -109.5s-43.333 -59.833 -72 -82.5s-60.834 -40.167 -96.501 -52.5s-73.167 -18.5 -112.5 -18.5h-107l88 528h107c40 0 76 -6.16699 108 -18.5s58.333 -29.833 79 -52.5s35.167 -50.5 43.5 -83.5
s9.16602 -69.833 2.49902 -110.5zM398.001 263c4.66699 30 4.00391 57.333 -1.99609 82s-16.833 45.5 -32.5 62.5s-35.334 30.167 -59.001 39.5s-50.834 14 -81.501 14h-37l-66 -395h37c30 0 58.5 4.66699 85.5 14s51.167 22.5 72.5 39.5s39.166 37.667 53.499 62
s24.166 51.5 29.499 81.5z" />
    <glyph glyph-name="E" unicode="E" horiz-adv-x="337" 
d="M39 0l88 528h272l-11 -67h-203l-24 -141h197l-11 -67h-197l-31 -187h203l-11 -66h-272z" />
    <glyph glyph-name="F" unicode="F" horiz-adv-x="294" 
d="M186 461l-24 -141h166l-11 -67h-166l-42 -253h-70l88 528h240l-11 -67h-170z" />
    <glyph glyph-name="G" unicode="G" horiz-adv-x="573" 
d="M603 264c-6 -37.333 -18.4971 -72.5 -37.4971 -105.5s-42.5 -61.667 -70.5 -86s-59.5 -43.666 -94.5 -57.999s-71.833 -21.5 -110.5 -21.5s-73.5 7 -104.5 21s-56.833 33.333 -77.5 58s-35.5 53.5 -44.5 86.5s-10.5 68.167 -4.5 105.5s19 72.5 39 105.5
s44.667 61.667 74 86s62 43.666 98 57.999s73 21.5 111 21.5c97.333 0 170 -44.667 218 -134l-63 -42c-38 71.333 -93.667 107 -167 107c-28.667 0 -56.334 -5.33301 -83.001 -16s-50.834 -25 -72.501 -43s-40 -39.333 -55 -64s-24.833 -51 -29.5 -79
s-3.66699 -54.333 3 -79s17.834 -46 33.501 -64s35.167 -32.333 58.5 -43s49.333 -16 78 -16c24.667 0 48.667 4.16699 72 12.5s44.666 20 63.999 35s36.5 32.667 51.5 53s26.5 42.5 34.5 66.5h-215l12 70h287c-1.33301 -12 -2.33301 -20 -3 -24
s-1.33398 -7.66699 -2.00098 -11z" />
    <glyph glyph-name="H" unicode="H" horiz-adv-x="474" 
d="M366 0l42 252h-258l-42 -252h-69l88 528h69l-35 -208h258l35 208h69l-88 -528h-69z" />
    <glyph glyph-name="I" unicode="I" horiz-adv-x="157" 
d="M43 0l88 528h71l-88 -528h-71z" />
    <glyph glyph-name="J" unicode="J" horiz-adv-x="153" 
d="M110 -19c-2.66699 -15.333 -8.00195 -29.667 -16.002 -43s-17.667 -25 -29 -35s-24.166 -18 -38.499 -24s-28.833 -9 -43.5 -9c-15.333 0 -29.166 3 -41.499 9s-22.833 14 -31.5 24l57 49c8 -8 17 -12 27 -12c10.667 0 20.5 4 29.5 12s14.5 17.667 16.5 29l92 547h70z
" />
    <glyph glyph-name="K" unicode="K" horiz-adv-x="413" 
d="M327 0l-182 222l-37 -222h-69l88 528h69l-34 -202l238 202h96l-299 -254l227 -274h-97z" />
    <glyph glyph-name="L" unicode="L" horiz-adv-x="235" 
d="M40 0l88 528h69l-77 -462h124l-11 -66h-193z" />
    <glyph glyph-name="M" unicode="M" horiz-adv-x="613" 
d="M542 0l-10 340l3 31l-16 -32l-191 -339h-40l-80 338l-4 34l-10 -33l-124 -339h-69l195 528h40l92 -397l226 397h40l18 -528h-70z" />
    <glyph glyph-name="N" unicode="N" horiz-adv-x="556" 
d="M517 0h-43l-299 402l-67 -402h-69l88 528h43l299 -399l67 399h69zM473 -3h43h-43z" />
    <glyph glyph-name="O" unicode="O" horiz-adv-x="572" 
d="M602 264c-6 -37.333 -19 -72.5 -39 -105.5s-44.5 -61.667 -73.5 -86s-61.333 -43.666 -97 -57.999s-71.834 -21.5 -108.501 -21.5c-37.333 0 -71.333 7.16699 -102 21.5s-56.167 33.666 -76.5 57.999s-34.833 53 -43.5 86s-10 68.167 -4 105.5
c6 36.667 18.833 71.5 38.5 104.5s44 61.833 73 86.5s61.167 44.167 96.5 58.5s71.666 21.5 108.999 21.5c36.667 0 70.334 -7.16699 101.001 -21.5s56.334 -33.833 77.001 -58.5s35.5 -53.5 44.5 -86.5s10.5 -67.833 4.5 -104.5zM532 264
c4.66699 28 3.66797 54.333 -2.99902 79s-17.667 46.167 -33 64.5s-34.333 33 -57 44s-47.667 16.5 -75 16.5s-54.166 -5.5 -80.499 -16.5s-50.166 -25.667 -71.499 -44s-39.5 -39.833 -54.5 -64.5s-24.833 -51 -29.5 -79s-3.83398 -54.333 2.49902 -79
s17.166 -46.334 32.499 -65.001s34.333 -33.5 57 -44.5s47.667 -16.5 75 -16.5s54.166 5.5 80.499 16.5s50.333 25.833 72 44.5s40 40.334 55 65.001s24.833 51 29.5 79z" />
    <glyph glyph-name="P" unicode="P" horiz-adv-x="316" 
d="M375 379c-3.33301 -19.333 -10.5029 -39.168 -21.5029 -59.501s-25.833 -37.5 -44.5 -51.5c-20.667 -15.333 -42.167 -25.166 -64.5 -29.499s-43.166 -6.5 -62.499 -6.5h-36l-38 -232h-69l88 528h105c19.333 0 39 -1.83301 59 -5.5s37.667 -13.167 53 -28.5
c14.667 -14.667 24.334 -32 29.001 -52s5.33398 -41 2.00098 -63zM305.997 380.998c2.66699 13.333 2.16602 25.667 -1.50098 37s-9.5 20 -17.5 26c-8 7.33301 -17.667 12 -29 14s-24.666 3 -39.999 3h-33l-27 -162h37c15.333 0 29 1.33301 41 4s23.667 8.66699 35 18
c19.333 15.333 31 35.333 35 60z" />
    <glyph glyph-name="Q" unicode="Q" horiz-adv-x="571" 
d="M478 -1l-28.001 45.0029c-26.667 -16.667 -54 -29.334 -82 -38.001s-56 -13 -84 -13c-37.333 0 -71.333 7 -102 21s-56.167 33.333 -76.5 58s-35 53.334 -44 86.001s-10.167 68 -3.5 106c6 37.333 19 72.5 39 105.5s44.5 61.667 73.5 86s61.167 43.666 96.5 57.999
s71.666 21.5 108.999 21.5c36.667 0 70.334 -7 101.001 -21s56.334 -33.333 77.001 -58s35.5 -53.334 44.5 -86.001s10.5 -67.334 4.5 -104.001c-5.33301 -34 -16 -65.5 -32 -94.5s-36.667 -56.5 -62 -82.5l65 -90h-96zM530.999 260.003
c4.66699 28.667 4.00098 55.501 -1.99902 80.501s-16.5 47 -31.5 66s-33.833 34 -56.5 45s-48 16.5 -76 16.5c-27.333 0 -54.166 -5.5 -80.499 -16.5s-50.166 -25.667 -71.499 -44s-39.5 -39.833 -54.5 -64.5s-24.833 -51 -29.5 -79s-3.83398 -54.5 2.49902 -79.5
s17.166 -46.833 32.499 -65.5s34.333 -33.334 57 -44.001s48 -16 76 -16c18 0 36.667 3.33301 56 10s38.666 15.667 57.999 27l-78 97l60 46l75 -98c17.333 18.667 31.333 37.667 42 57s17.667 40 21 62z" />
    <glyph glyph-name="R" unicode="R" horiz-adv-x="361" 
d="M278 0l-117.001 228h-15l-38 -228h-69l88 528h104c20 0 40.5 -1.33301 61.5 -4s40.167 -11 57.5 -25c18 -14.667 29.5 -32.5 34.5 -53.5s5.5 -43.167 1.5 -66.5c-7.33301 -42 -24.166 -74.833 -50.499 -98.5s-58.5 -38.5 -96.5 -44.5l122 -236h-83zM315.999 380
c2.66699 15.333 1.66504 29.501 -3.00195 42.501s-13 22.5 -25 28.5c-9.33301 4.66699 -19.166 7.5 -29.499 8.5s-20.833 1.5 -31.5 1.5h-41l-28 -162h46c14.667 0 27.834 1.16699 39.501 3.5s23.167 7.83301 34.5 16.5c20 15.333 32.667 35.666 38 60.999z" />
    <glyph glyph-name="S" unicode="S" horiz-adv-x="368" 
d="M378 154c-4 -23.333 -12.502 -44.8311 -25.502 -64.498s-28.667 -36.667 -47 -51s-38.666 -25.5 -60.999 -33.5s-44.5 -12 -66.5 -12c-38 0 -69.167 11.5 -93.5 34.5s-41.166 56.5 -50.499 100.5l67 29c8.66699 -36 20 -61.333 34 -76s32.667 -22 56 -22
c13.333 0 26.5 2.5 39.5 7.5s25 12 36 21s20.167 19.5 27.5 31.5s12 24.667 14 38c2 10.667 0.666992 20.167 -4 28.5s-10.834 15.666 -18.501 21.999s-16.167 12.166 -25.5 17.499s-17.666 10.333 -24.999 15c-15.333 8.66699 -31.166 17.167 -47.499 25.5
s-30.666 18.166 -42.999 29.499s-21.833 24.666 -28.5 39.999s-8 34 -4 56c3.33301 20.667 10 39.834 20 57.501s22.5 32.834 37.5 45.501s31.833 22.667 50.5 30s38.667 11 60 11c28 0 53.167 -7.16699 75.5 -21.5s40.5 -37.5 54.5 -69.5l-60 -43
c-12.667 25.333 -25.334 42.833 -38.001 52.5s-27.667 14.5 -45 14.5c-20.667 0 -39.167 -7.33301 -55.5 -22s-26.5 -32.667 -30.5 -54c-2 -10 -1 -18.667 3 -26s9.5 -14 16.5 -20s14.667 -11.167 23 -15.5l23.5 -12.5l85 -49c18.667 -13.333 32.167 -29.333 40.5 -48
s10.166 -41 5.49902 -67z" />
    <glyph glyph-name="T" unicode="T" horiz-adv-x="325" 
d="M274 461l-77 -461h-69l77 461h-127l11 67h323l-11 -67h-127z" />
    <glyph glyph-name="U" unicode="U" horiz-adv-x="448" 
d="M442 203c-1.33301 -6.66699 -2.49902 -13 -3.49902 -19s-2.16699 -12 -3.5 -18c-3.33301 -19.333 -9 -37.833 -17 -55.5s-20.667 -35.167 -38 -52.5c-21.333 -21.333 -46.333 -37.666 -75 -48.999s-56.334 -17 -83.001 -17c-21.333 0 -41.5 3.16699 -60.5 9.5
s-35.667 15.5 -50 27.5s-25.833 26.5 -34.5 43.5s-13 36.167 -13 57.5c0 11.333 0.833008 23.166 2.5 35.499s3.5 24.833 5.5 37.5l55 325h70l-53 -315c-4 -23.333 -6.5 -44.5 -7.5 -63.5s2.5 -35.167 10.5 -48.5c8.66699 -13.333 21 -23.666 37 -30.999s32.333 -11 49 -11
s34.667 3.66699 54 11s35 17.666 47 30.999c13.333 13.333 22.333 29.5 27 48.5s9 40.167 13 63.5l53 315h70z" />
    <glyph glyph-name="V" unicode="V" horiz-adv-x="408" 
d="M223 0h-40l-94 528h73l62 -354l3 -36l15 36l180 354h73z" />
    <glyph glyph-name="W" unicode="W" horiz-adv-x="751" 
d="M581 0h-40l-93 380l-4 33l-15 -33l-219 -380h-40l-81 528h72l55 -356l3 -38l17 37l210 357h39l89 -354l5 -39l17 40l171 353h72z" />
    <glyph glyph-name="X" unicode="X" horiz-adv-x="369" 
d="M290 0l-74 200l-138 -200h-78l189 269l-95 259h77l70 -187l130 187h78l-181 -259l100 -269h-78z" />
    <glyph glyph-name="Y" unicode="Y" horiz-adv-x="424" 
d="M285 223l-37 -223h-72l37 223l-124 305h79l93 -230l171 230h79z" />
    <glyph glyph-name="Z" unicode="Z" horiz-adv-x="399" 
d="M116 66h268l-11 -66h-354l9 56l335 405h-259l11 67h346l-9 -55z" />
    <glyph glyph-name="bracketleft" unicode="[" horiz-adv-x="200" 
d="M8 -119l114 684h149l-11 -66h-83l-92 -551h83l-11 -67h-149z" />
    <glyph glyph-name="backslash" unicode="\" horiz-adv-x="458" 
d="M357 0l-224 588h70l226 -588h-72z" />
    <glyph glyph-name="bracketright" unicode="]" horiz-adv-x="200" 
d="M3 -119l11 66h84l92 551h-84l11 67h149l-114 -684h-149z" />
    <glyph glyph-name="asciicircum" unicode="^" horiz-adv-x="412" 
d="M371 194l-89 265l-175 -265h-69l232 351h55l114 -350z" />
    <glyph glyph-name="underscore" unicode="_" horiz-adv-x="379" 
d="M-13 -94l10 61h374l-10 -61h-374z" />
    <glyph glyph-name="grave" unicode="`" horiz-adv-x="204" 
d="M189 365l-88 129l82 26l63 -130z" />
    <glyph glyph-name="a" unicode="a" horiz-adv-x="428" 
d="M324 0l5.99805 36c-36.667 -28.667 -78.667 -43 -126 -43c-29.333 0 -54.833 5.16699 -76.5 15.5s-39.167 24.166 -52.5 41.499s-22.333 37.833 -27 61.5s-4.66699 48.5 0 74.5c4 26 12.333 50.5 25 73.5s28.5 43 47.5 60s40.833 30.333 65.5 40s51.334 14.5 80.001 14.5
c22.667 0 43.834 -3.66699 63.501 -11s36.167 -17.666 49.5 -30.999l6 35h66l-61 -367h-66zM357.998 189c6 36 -0.162109 65.5 -18.4951 88.5s-46.5 34.5 -84.5 34.5c-17.333 0 -33.833 -3.5 -49.5 -10.5s-29.834 -16.333 -42.501 -28s-23.334 -25 -32.001 -40
s-14.334 -30.833 -17.001 -47.5c-3.33301 -18 -3.33301 -34.833 0 -50.5s9.33301 -29.5 18 -41.5s20 -21.5 34 -28.5s30 -10.5 48 -10.5c19.333 0 37.166 3.5 53.499 10.5s30.666 16.5 42.999 28.5s22.5 26.167 30.5 42.5s13.667 33.833 17 52.5z" />
    <glyph glyph-name="b" unicode="b" horiz-adv-x="429" 
d="M443 187c-4.66699 -26 -13.335 -50.834 -26.002 -74.501s-28.667 -44.167 -48 -61.5s-41.5 -31.166 -66.5 -41.499s-52.167 -15.5 -81.5 -15.5c-21.333 0 -41.833 3.5 -61.5 10.5s-36.167 17.833 -49.5 32.5l-6 -37h-67l99 596h67l-43 -260c18.667 14 39 24.167 61 30.5
s43.667 9.5 65 9.5c28.667 0 53.834 -4.83301 75.501 -14.5s39.334 -23 53.001 -40s23 -37 28 -60s5.16699 -47.833 0.5 -74.5zM376.999 186.999c2.66699 16.667 2.33398 32.667 -0.999023 48s-9.5 28.833 -18.5 40.5s-20.333 21 -34 28s-29.167 10.5 -46.5 10.5
c-40 0 -72.667 -12 -98 -36s-41 -54.333 -47 -91c-3.33301 -18 -3.5 -35 -0.5 -51s8.83301 -30 17.5 -42s20 -21.333 34 -28s30.333 -10 49 -10s36.167 3.5 52.5 10.5s30.833 16.5 43.5 28.5s23.167 25.833 31.5 41.5s14.166 32.5 17.499 50.5z" />
    <glyph glyph-name="c" unicode="c" horiz-adv-x="353" 
d="M350 35c-26.667 -16 -51.0039 -27.1641 -73.0039 -33.4971s-43.667 -9.5 -65 -9.5c-28 0 -53.333 5 -76 15s-41.334 23.667 -56.001 41s-25 37.666 -31 60.999s-6.66699 48.333 -2 75s13.834 51.5 27.501 74.5s30.834 43 51.501 60s43.834 30.5 69.501 40.5
s52.5 15 80.5 15c21.333 0 42 -3 62 -9s40.667 -17.333 62 -34l-38 -58c-19.333 15.333 -36.166 25.833 -50.499 31.5s-29.833 8.5 -46.5 8.5c-18 0 -35.5 -3.5 -52.5 -10.5s-32.333 -16.333 -46 -28s-25.167 -25.334 -34.5 -41.001s-15.333 -32.167 -18 -49.5
s-2 -33.833 2 -49.5s10.833 -29.5 20.5 -41.5s21.834 -21.5 36.501 -28.5s31 -10.5 49 -10.5c16.667 0 33.167 2.66699 49.5 8s36.5 15.666 60.5 30.999z" />
    <glyph glyph-name="d" unicode="d" horiz-adv-x="429" 
d="M326 0l5 35.001c-18.667 -14 -39.167 -24.333 -61.5 -31s-43.833 -10 -64.5 -10c-29.333 0 -54.833 5.16699 -76.5 15.5s-39.167 24.166 -52.5 41.499s-22.5 37.833 -27.5 61.5s-5.16699 48.5 -0.5 74.5c4.66699 26.667 13.167 51.5 25.5 74.5s28 43 47 60
s40.833 30.333 65.5 40s51.667 14.5 81 14.5c22 0 43 -3.5 63 -10.5s37 -17.5 51 -31.5l44 262h66l-99 -596h-66zM359 191.001c6 36 -0.164062 65.501 -18.4971 88.501s-46.5 34.5 -84.5 34.5c-17.333 0 -34 -3.5 -50 -10.5s-30.167 -16.333 -42.5 -28
s-22.833 -25.167 -31.5 -40.5s-14.334 -31.333 -17.001 -48c-3.33301 -18 -3.33301 -34.833 0 -50.5s9.33301 -29.5 18 -41.5s20 -21.5 34 -28.5s30 -10.5 48 -10.5c19.333 0 37.166 3.5 53.499 10.5s30.666 16.667 42.999 29s22.5 26.666 30.5 42.999
s13.667 33.833 17 52.5z" />
    <glyph glyph-name="e" unicode="e" horiz-adv-x="405" 
d="M111 165c-2.66699 -34.667 5.83203 -61.832 25.499 -81.499s46.5 -29.5 80.5 -29.5c46.667 0 90.334 27.333 131.001 82l52 -31c-28.667 -40 -59.334 -68.833 -92.001 -86.5s-68 -26.5 -106 -26.5c-29.333 0 -54.5 5.16699 -75.5 15.5s-38.167 24.333 -51.5 42
s-22.333 38 -27 61s-5 47.5 -1 73.5c4 25.333 12.333 49.5 25 72.5s28.667 43.167 48 60.5s41.333 31.166 66 41.499s51.334 15.5 80.001 15.5c29.333 0 54.5 -5.33301 75.5 -16s37.667 -25.167 50 -43.5s20.5 -40.333 24.5 -66s3.66699 -53.5 -1 -83.5h-304z
M354.999 226.002c-3.33301 24.667 -13.667 45.167 -31 61.5s-40 24.5 -68 24.5c-27.333 0 -53.333 -8.16699 -78 -24.5s-42.667 -36.833 -54 -61.5h231z" />
    <glyph glyph-name="f" unicode="f" horiz-adv-x="189" 
d="M161 303l-49.998 -302.999h-67l50 303h-39l11 62h39l16 97c2 12 5.16699 26.667 9.5 44s11.5 32.666 21.5 45.999c12 16.667 27.167 29 45.5 37s36.5 12 54.5 12c6 0 12.667 -0.5 20 -1.5s15.666 -3.5 24.999 -7.5l-26 -56c-8 2 -17 3 -27 3c-12 0 -21.5 -2.5 -28.5 -7.5
s-12.333 -11.333 -16 -19s-6.33398 -16.167 -8.00098 -25.5s-3.16699 -18.333 -4.5 -27l-15 -95h88l-11 -62h-88z" />
    <glyph glyph-name="g" unicode="g" horiz-adv-x="429" 
d="M398 39c-4.66699 -26 -11.002 -53.666 -19.002 -82.999s-23.333 -56.333 -46 -81c-22 -24 -47.5 -41.833 -76.5 -53.5s-58.5 -17.5 -88.5 -17.5c-24 0 -46.5 3.5 -67.5 10.5s-38.833 17.667 -53.5 32s-25.667 32.5 -33 54.5s-9.66602 48 -6.99902 78h66
c-3.33301 -38 4.83398 -66.5 24.501 -85.5s45.5 -28.5 77.5 -28.5c27.333 0 50.166 4.66699 68.499 14s33.333 21.666 45 36.999s20.667 33 27 53s11.5 41 15.5 63c-39.333 -28.667 -82.666 -43 -129.999 -43c-28 0 -52.5 5.33301 -73.5 16s-38.167 24.834 -51.5 42.501
s-22.5 38 -27.5 61s-5.5 47.167 -1.5 72.5c4 26 12.667 50.667 26 74s30 43.666 50 60.999s42.5 31 67.5 41s51.5 15 79.5 15c45.333 0 82.333 -14.333 111 -43l6 36h66zM358.998 187.001c6 36 -0.498047 65.502 -19.498 88.502s-47.5 34.5 -85.5 34.5
c-17.333 0 -33.833 -3.5 -49.5 -10.5s-29.834 -16.333 -42.501 -28s-23.167 -25.167 -31.5 -40.5s-13.833 -31.333 -16.5 -48c-3.33301 -18 -3.33301 -35 0 -51s9.33301 -30 18 -42s20 -21.5 34 -28.5s30 -10.5 48 -10.5c19.333 0 37.166 3.5 53.499 10.5
s30.833 16.667 43.5 29s23 26.666 31 42.999s13.667 34.166 17 53.499z" />
    <glyph glyph-name="h" unicode="h" horiz-adv-x="375" 
d="M338 0h-67.0029l36 218c2.66699 14.667 4.33398 28 5.00098 40s-1 22 -5 30s-10.667 14.167 -20 18.5s-22.333 6.5 -39 6.5c-18.667 0 -34.667 -3.66699 -48 -11s-24.5 -17 -33.5 -29s-16.167 -26 -21.5 -42s-9.33301 -32.667 -12 -50l-30 -181h-66l99 597h66l-43 -257
c15.333 11.333 31.333 20 48 26s34.667 9 54 9c26.667 0 48.334 -3.83301 65.001 -11.5s29.334 -18.5 38.001 -32.5s13.5 -30.667 14.5 -50s-0.5 -40.333 -4.5 -63z" />
    <glyph glyph-name="i" unicode="i" horiz-adv-x="150" 
d="M204 490c-2 -13.333 -8.33203 -24.5 -18.999 -33.5s-22.667 -13.5 -36 -13.5s-23.833 4.5 -31.5 13.5s-10.5 20.167 -8.5 33.5c2.66699 12.667 9.16699 23.667 19.5 33s22.166 14 35.499 14s24 -4.66699 32 -14s10.667 -20.333 8 -33zM41.001 0l61 365h68l-61 -365h-68z
" />
    <glyph glyph-name="j" unicode="j" horiz-adv-x="150" 
d="M204 490c-2 -13.333 -8.33203 -24.5 -18.999 -33.5s-22.667 -13.5 -36 -13.5s-23.833 4.5 -31.5 13.5s-10.5 20.167 -8.5 33.5c2.66699 12.667 9.16699 23.667 19.5 33s22.166 14 35.499 14s24 -4.66699 32 -14s10.667 -20.333 8 -33zM5.00098 -214l97 579h68l-97 -579
h-68z" />
    <glyph glyph-name="k" unicode="k" horiz-adv-x="345" 
d="M269 0l-133 162l-4 -3l-26 -159h-67l99 597h67l-57 -345l133 114h90l-183 -159l172 -207h-91z" />
    <glyph glyph-name="l" unicode="l" horiz-adv-x="150" 
d="M41 0l100 598h68l-100 -598h-68z" />
    <glyph glyph-name="m" unicode="m" horiz-adv-x="556" 
d="M517 0l-67.998 -0.00195312l37 224c2 14 3.33301 26.5 4 37.5s-0.5 20.167 -3.5 27.5s-8.16699 13 -15.5 17s-17.666 6 -30.999 6c-29.333 0 -51.333 -10.667 -66 -32s-24.667 -47.333 -30 -78l-33 -202h-66l35 215c2.66699 14.667 4.16699 27.834 4.5 39.501
s-1.16699 21.834 -4.5 30.501s-8.83301 15.334 -16.5 20.001s-18.167 7 -31.5 7c-12.667 0 -24.334 -3.83301 -35.001 -11.5s-20 -17.334 -28 -29.001s-14.667 -24.667 -20 -39s-9 -27.833 -11 -40.5l-32 -192h-67l61 365h67l-7 -34c14 15.333 28.667 26.333 44 33
s30.666 10 45.999 10c42 0 71.333 -16 88 -48c17.333 17.333 35.333 29.666 54 36.999s38 11 58 11c27.333 0 48.666 -4.33301 63.999 -13s26.5 -20.167 33.5 -34.5s10.5 -30.666 10.5 -48.999s-1.66699 -37.5 -5 -57.5z" />
    <glyph glyph-name="n" unicode="n" horiz-adv-x="372" 
d="M266 0l36.001 216c5.33301 34 5 58.167 -1 72.5s-24.333 21.5 -55 21.5c-15.333 0 -29.333 -4.16699 -42 -12.5s-23.667 -19 -33 -32s-17.166 -27 -23.499 -42s-10.5 -29.5 -12.5 -43.5l-30 -180h-66l61 365h66l-7 -37c15.333 14 31.666 25 48.999 33
s34.666 12 51.999 12c26.667 0 48 -3.83301 64 -11.5s28 -18.334 36 -32.001s12.5 -30.167 13.5 -49.5s-0.5 -40.666 -4.5 -63.999l-36 -216h-67z" />
    <glyph glyph-name="o" unicode="o" horiz-adv-x="423" 
d="M436 185c-4.66699 -27.333 -14.001 -52.668 -28.001 -76.001s-31.167 -43.666 -51.5 -60.999s-43.166 -30.833 -68.499 -40.5s-52 -14.5 -80 -14.5c-26.667 0 -50.834 5 -72.501 15s-39.667 23.667 -54 41s-24.666 37.666 -30.999 60.999s-7.5 48 -3.5 74
c4.66699 26 14 50.667 28 74s31.167 43.833 51.5 61.5s43 31.5 68 41.5s50.833 15 77.5 15c28 0 53.167 -4.83301 75.5 -14.5s40.833 -23.167 55.5 -40.5s25 -37.666 31 -60.999s6.66699 -48.333 2 -75zM369.999 183.998c3.33301 18.667 3.00098 35.835 -0.999023 51.502
s-11 29.167 -21 40.5s-22.5 20.166 -37.5 26.499s-31.833 9.5 -50.5 9.5c-17.333 0 -34 -3.33301 -50 -10s-30.667 -15.834 -44 -27.501s-24.5 -25.334 -33.5 -41.001s-14.833 -32.167 -17.5 -49.5s-2.16699 -33.666 1.5 -48.999s10.167 -28.833 19.5 -40.5
s20.833 -21 34.5 -28s29.167 -10.5 46.5 -10.5c18.667 0 36.5 3.33301 53.5 10s32.333 15.667 46 27s25.167 24.833 34.5 40.5s15.666 32.5 18.999 50.5z" />
    <glyph glyph-name="p" unicode="p" horiz-adv-x="422" 
d="M436 180c-4.66699 -26.667 -13.168 -51.5 -25.501 -74.5s-27.833 -43 -46.5 -60s-40.167 -30.333 -64.5 -40s-50.833 -14.5 -79.5 -14.5c-20.667 0 -40.167 3.33301 -58.5 10s-35.166 17.667 -50.499 33l-41 -249h-67l97 580h67l-6 -34
c20 15.333 40.333 26.166 61 32.499s41 9.5 61 9.5c28.667 0 53.5 -5.16699 74.5 -15.5s38 -24.166 51 -41.499s21.833 -37.833 26.5 -61.5s5 -48.5 1 -74.5zM366.999 179c2.66699 18 2.66699 35 0 51s-8 30 -16 42s-18.5 21.667 -31.5 29s-28.167 11 -45.5 11
c-38 0 -69 -13.167 -93 -39.5s-39.667 -58.5 -47 -96.5c-6 -36 -0.166992 -65.333 17.5 -88s44.5 -34 80.5 -34c16.667 0 32.5 3.33301 47.5 10s28.5 15.667 40.5 27s22.167 24.5 30.5 39.5s13.833 31.167 16.5 48.5z" />
    <glyph glyph-name="q" unicode="q" horiz-adv-x="422" 
d="M280 -214l41 246.997c-20 -15.333 -40.333 -26.166 -61 -32.499s-41 -9.5 -61 -9.5c-28.667 0 -53.667 4.83301 -75 14.5s-38.5 23 -51.5 40s-21.833 36.833 -26.5 59.5s-5 47.334 -1 74.001c4.66699 26 13.334 50.833 26.001 74.5s28.5 44.334 47.5 62.001
s40.833 31.667 65.5 42s51.334 15.5 80.001 15.5c19.333 0 38.166 -3.16699 56.499 -9.5s35.166 -16.833 50.499 -31.5l6 33h67l-97 -579h-67zM347 178.997c2.66699 18 2.66699 35.001 0 51.001s-8 30 -16 42s-18.5 21.667 -31.5 29s-28.5 11 -46.5 11
s-34.833 -3.5 -50.5 -10.5s-29.667 -16.667 -42 -29s-22.5 -26.833 -30.5 -43.5s-13.667 -34.334 -17 -53.001c-6 -36 0 -65.333 18 -88s45 -34 81 -34c16.667 0 32.5 3.33301 47.5 10s28.5 15.667 40.5 27s22.167 24.5 30.5 39.5s13.833 31.167 16.5 48.5z" />
    <glyph glyph-name="r" unicode="r" horiz-adv-x="232" 
d="M251 295c-8 4.66699 -13.834 7.33496 -17.501 8.00195s-6.16699 1 -7.5 1c-15.333 0 -28.166 -4 -38.499 -12s-19.166 -18.333 -26.499 -31s-13 -26.334 -17 -41.001s-7 -28.334 -9 -41.001l-30 -180h-67l62 366h67l-6 -34c8.66699 10 20.334 19.333 35.001 28
s28.667 13 42 13c7.33301 0 15.166 -0.666992 23.499 -2s20.166 -5 35.499 -11z" />
    <glyph glyph-name="s" unicode="s" horiz-adv-x="285" 
d="M288 112c-3.33301 -18 -9.50391 -34.5 -18.5039 -49.5s-20 -27.667 -33 -38s-27.667 -18.5 -44 -24.5s-33.166 -9 -50.499 -9c-32 0 -58.667 9.66699 -80 29s-34 48 -38 86l65 23c4 -28 11.333 -47.5 22 -58.5s24.667 -16.5 42 -16.5c16 0 30.667 5.66699 44 17
s21.333 25.333 24 42c2.66699 14.667 -0.166016 25.334 -8.49902 32.001s-20.5 13 -36.5 19c-12.667 4.66699 -25.167 10 -37.5 16s-23 13.167 -32 21.5s-15.833 18.166 -20.5 29.499s-5.66699 25 -3 41c2.66699 15.333 8 29.333 16 42s17.667 23.5 29 32.5
s24 15.833 38 20.5s28.333 7 43 7c19.333 0 37.833 -5.5 55.5 -16.5s31.5 -30.5 41.5 -58.5l-63 -32c-7.33301 18 -14.666 29.833 -21.999 35.5s-15 8.5 -23 8.5c-10.667 0 -20.667 -3.66699 -30 -11s-14.666 -15.666 -15.999 -24.999c-1.33301 -8 0.5 -15 5.5 -21
s11.5 -11 19.5 -15s16.333 -7.5 25 -10.5s16 -5.83301 22 -8.5c24 -10.667 41.833 -23.834 53.5 -39.501s15.167 -38.5 10.5 -68.5z" />
    <glyph glyph-name="t" unicode="t" horiz-adv-x="215" 
d="M185 302l-50 -302h-67l50 302h-54l11 63h54l22 132h67l-22 -132h76l-11 -63h-76z" />
    <glyph glyph-name="u" unicode="u" horiz-adv-x="372" 
d="M357 149c-4 -23.333 -9.8291 -44.666 -17.4961 -63.999s-18.334 -36 -32.001 -50s-30.5 -24.833 -50.5 -32.5s-44.333 -11.5 -73 -11.5c-28 0 -50.833 3.83301 -68.5 11.5s-31 18.5 -40 32.5s-14.333 30.667 -16 50s-0.5 40.666 3.5 63.999l37 216h66l-37 -216
c-2.66699 -16 -3.83398 -30 -3.50098 -42s2.83301 -22 7.5 -30s12 -13.833 22 -17.5s23.333 -5.5 40 -5.5c33.333 0 56.166 7.66699 68.499 23s21.166 39.333 26.499 72l37 216h67z" />
    <glyph glyph-name="v" unicode="v" horiz-adv-x="365" 
d="M204 0h-41l-101 365h71l70 -250l150 250h72z" />
    <glyph glyph-name="w" unicode="w" horiz-adv-x="598" 
d="M442 0h-41l-62 242l-137 -242h-42l-98 365h72l66 -249l143 249h38l61 -249l147 249h69z" />
    <glyph glyph-name="x" unicode="x" horiz-adv-x="380" 
d="M299 0l-87 142l-133 -142h-81l181 193l-109 172h81l79 -123l117 123h84l-165 -172l116 -193h-83z" />
    <glyph glyph-name="y" unicode="y" horiz-adv-x="411" 
d="M126 -214h-71l121 205l-114 374h72l91 -294l175 294h71z" />
    <glyph glyph-name="z" unicode="z" horiz-adv-x="374" 
d="M29 0l9 55l264 248h-210l11 62h306l-9 -52l-266 -251h221l-10 -62h-316z" />
    <glyph glyph-name="braceleft" unicode="{" horiz-adv-x="206" 
d="M179 -119c-27.333 1.33301 -49 4.83398 -65 10.501s-28 14 -36 25s-12.333 24.333 -13 40s1 34.167 5 55.5l18 113c3.33301 15.333 1.83301 28.5 -4.5 39.5s-17.166 23.167 -32.499 36.5l8 46c20 13.333 34.5 25 43.5 35s14.833 22.667 17.5 38l19 113
c3.33301 21.333 8.16602 40 14.499 56s15.333 29.5 27 40.5s26.5 19.333 44.5 25s40.667 9.16699 68 10.5l-11 -65c-25.333 -0.666992 -43 -3.33398 -53 -8.00098s-16.667 -15.334 -20 -32.001l-20 -121c-5.33301 -31.333 -13 -55.5 -23 -72.5s-22.667 -31.5 -38 -43.5
c10.667 -12 18 -26.833 22 -44.5s3.66699 -42.5 -1 -74.5l-20 -119c-3.33301 -17.333 -0.5 -28.166 8.5 -32.499s26.167 -6.5 51.5 -6.5z" />
    <glyph glyph-name="bar" unicode="|" horiz-adv-x="209" 
d="M69 -7l99 591h67l-99 -591h-67z" />
    <glyph glyph-name="braceright" unicode="}" horiz-adv-x="206" 
d="M221 201c-19.333 -13.333 -33.6689 -25.502 -43.002 -36.502s-15.666 -24.167 -18.999 -39.5l-18 -113c-4 -21.333 -9.16699 -39.833 -15.5 -55.5s-15.166 -29 -26.499 -40s-26 -19.333 -44 -25s-40.333 -9.16699 -67 -10.5l10 64c24 0 41.333 2.33301 52 7
s17.334 15.667 20.001 33l20 119c5.33301 32 13.166 56.833 23.499 74.5s23.166 32.5 38.499 44.5c-11.333 12 -19.166 26.5 -23.499 43.5s-3.83301 41.167 1.5 72.5l20 121c3.33301 16.667 0.5 27.334 -8.5 32.001s-26.167 7.33398 -51.5 8.00098l11 65
c26.667 -1.33301 48 -4.83301 64 -10.5s27.833 -14 35.5 -25s12 -24.5 13 -40.5s-0.166992 -34.667 -3.5 -56l-19 -113c-2.66699 -15.333 -1 -28 5 -38s17 -21.667 33 -35z" />
    <glyph glyph-name="asciitilde" unicode="~" horiz-adv-x="431" 
d="M450 222c-22 -28 -44 -51.5029 -66 -70.5029s-46.333 -28.5 -73 -28.5c-13.333 0 -25.666 2.83301 -36.999 8.5s-22.5 11.834 -33.5 18.501s-22 12.834 -33 18.501s-22.833 8.5 -35.5 8.5c-10 0 -20 -4 -30 -12s-23.667 -22.667 -41 -44l-57 31
c23.333 26 45.833 48.167 67.5 66.5s45.834 27.5 72.501 27.5c13.333 0 26.833 -2.83301 40.5 -8.5s26.667 -11.667 39 -18l34 -18c10.333 -5.66699 19.166 -8.5 26.499 -8.5c9.33301 0 19.166 4.33301 29.499 13s23.5 25.334 39.5 50.001z" />
    <glyph glyph-name="uni00A0" unicode="&#xa0;" horiz-adv-x="250" 
 />
    <glyph glyph-name="cent" unicode="&#xa2;" horiz-adv-x="455" 
d="M393 146c-17.333 -13.333 -35 -24.333 -53 -33s-35.667 -14.334 -53 -17.001l-9 -51h-60l9 53c-18.667 4 -35.167 11.167 -49.5 21.5s-26 23 -35 38s-15.167 31.833 -18.5 50.5s-3.33301 38.667 0 60c3.33301 20.667 9.83301 40.5 19.5 59.5s21.5 35.833 35.5 50.5
s30 27.167 48 37.5s37 17.5 57 21.5l8 53h60l-8 -50c16 -2.66699 31.833 -8 47.5 -16s30.167 -18.667 43.5 -32l-46 -53c-11.333 11.333 -21 19.833 -29 25.5s-16.667 9.83398 -26 12.501l-37 -219c9.33301 2.66699 19.333 7 30 13s23.667 15 39 27zM273 373
c-22 -7.33301 -41 -20.833 -57 -40.5s-26 -41.167 -30 -64.5s-1.16699 -44.833 8.5 -64.5s24.167 -33.5 43.5 -41.5z" />
    <glyph glyph-name="sterling" unicode="&#xa3;" horiz-adv-x="402" 
d="M369 338c3.33301 20.667 3.50098 38.8311 0.500977 54.498s-8.33301 29 -16 40s-17.167 19.333 -28.5 25s-24 8.5 -38 8.5c-28 0 -52 -10 -72 -30s-32.667 -46 -38 -78l-12 -73h100l-11 -65h-101l-26 -156l246 1l-11 -66h-346l11 65h32l26 156h-32l11 65h32l12 73
c4 24 11.667 46.833 23 68.5s25.333 40.5 42 56.5s35.667 28.833 57 38.5s44.333 14.5 69 14.5c24 0 45.667 -4.83301 65 -14.5s35.166 -23.167 47.499 -40.5s21 -38.166 26 -62.499s5.16699 -51.166 0.5 -80.499h-69z" />
    <glyph glyph-name="yen" unicode="&#xa5;" horiz-adv-x="424" 
d="M379 348h69.999l-11 -63h-106l-32 -41h130l-10 -63h-142l-30 -181h-71l30 181h-140l10 63h128l-10 20c-3.33301 6.66699 -5.66602 13.667 -6.99902 21h-104l11 63h68l-74 180h79l93 -230l172 230h79z" />
    <glyph glyph-name="copyright" unicode="&#xa9;" horiz-adv-x="560" 
d="M427 140c-19.333 -14 -39.332 -24.999 -59.999 -32.999s-41 -12 -61 -12c-23.333 0 -44 4.33301 -62 13s-32.833 20.667 -44.5 36s-19.834 33 -24.501 53s-5 41.667 -1 65c4 22.667 11.833 44.167 23.5 64.5s25.834 38 42.501 53s35.5 26.833 56.5 35.5
s43.167 13 66.5 13c40.667 0 75.667 -14.667 105 -44l-45 -46c-13.333 13.333 -25.333 22.166 -36 26.499s-22 6.5 -34 6.5c-14.667 0 -28.667 -2.83301 -42 -8.5s-25.333 -13.5 -36 -23.5s-19.834 -21.667 -27.501 -35s-12.834 -27.333 -15.501 -42s-2.5 -28.667 0.5 -42
s8.33301 -25 16 -35s17.167 -18 28.5 -24s24 -9 38 -9c11.333 0 23.333 2.33301 36 7s28.334 13.667 47.001 27zM599.001 265.001c-6.66699 -38 -20.002 -73.833 -40.002 -107.5s-44.5 -63 -73.5 -88s-61.167 -44.667 -96.5 -59s-72 -21.5 -110 -21.5
s-72.5 7.16699 -103.5 21.5s-57 34 -78 59s-36 54.333 -45 88s-10.167 69.5 -3.5 107.5c6 38 19 73.5 39 106.5s44.667 62 74 87s62 44.667 98 59s73 21.5 111 21.5s72.333 -7.16699 103 -21.5s56.334 -34 77.001 -59s35.334 -54 44.001 -87s10 -68.5 4 -106.5z
M541.999 265.001c4.66699 30 3.49902 58.167 -3.50098 84.5s-18.5 49.333 -34.5 69s-36.333 35.167 -61 46.5s-52 17 -82 17s-59.333 -5.66699 -88 -17s-54.5 -26.833 -77.5 -46.5s-42.5 -42.667 -58.5 -69s-26.333 -54.5 -31 -84.5
c-5.33301 -30.667 -4.5 -59.334 2.5 -86.001s18.667 -49.834 35 -69.501s36.833 -35.167 61.5 -46.5s52.334 -17 83.001 -17c30 0 59.167 5.66699 87.5 17s54 26.833 77 46.5s42.333 42.834 58 69.501s26.167 55.334 31.5 86.001z" />
    <glyph glyph-name="guillemotleft" unicode="&#xab;" horiz-adv-x="311" 
d="M253 224l66 -100l-49 -42l-95 142l143 142l35 -42zM146 82l-96 142l144 142l37 -42l-101 -100l67 -100z" />
    <glyph glyph-name="registered" unicode="&#xae;" horiz-adv-x="571" 
d="M613 265c-6.66699 -38.667 -20.3311 -75.1689 -40.998 -109.502s-45.834 -64.166 -75.501 -89.499s-62.834 -45.5 -99.501 -60.5s-74.667 -22.5 -114 -22.5s-75 7.33301 -107 22s-58.833 34.834 -80.5 60.501s-37.167 55.5 -46.5 89.5s-10.666 70.667 -3.99902 110
c6.66699 38.667 20.334 75 41.001 109s46 63.667 76 89s63.5 45.333 100.5 60s75.167 22 114.5 22c38.667 0 74 -7.33301 106 -22s58.667 -34.667 80 -60s36.666 -55 45.999 -89s10.666 -70.333 3.99902 -109zM556.003 262.998c4.66699 31.333 3.33301 60.668 -4 88.001
s-19.5 51.166 -36.5 71.499s-38.167 36.333 -63.5 48s-53.666 17.5 -84.999 17.5c-32 0 -62.667 -5.83301 -92 -17.5s-56 -27.5 -80 -47.5s-44.167 -43.667 -60.5 -71s-27.166 -56.333 -32.499 -87c-5.33301 -31.333 -4.33301 -60.666 3 -87.999s19.5 -51.166 36.5 -71.499
s38.333 -36.333 64 -48s54.5 -17.5 86.5 -17.5c31.333 0 61.666 5.83301 90.999 17.5s55.833 27.667 79.5 48s43.667 44.166 60 71.499s27.166 56.666 32.499 87.999zM379.002 105l-59.999 131.001h-51l-22 -131h-58l52 312h141c42 0 70.833 -7.83301 86.5 -23.5
s20.834 -37.834 15.501 -66.501c-4.66699 -28.667 -16.334 -50 -35.001 -64s-40.334 -22.667 -65.001 -26l66 -132h-70zM427.003 328.001c1.33301 8 0.332031 14.166 -3.00098 18.499s-8.16602 7.5 -14.499 9.5s-13.5 3.16699 -21.5 3.5s-16 0.5 -24 0.5h-76l-12 -68h47h15
h26c8.66699 0 17.667 1 27 3c10.667 2.66699 19 6.33398 25 11.001s9.66699 12 11 22z" />
    <glyph glyph-name="guillemotright" unicode="&#xbb;" horiz-adv-x="311" 
d="M193 82l-37 42l100 100l-66 100l51 42l95 -142zM69 82l-36 42l100 100l-66 100l50 42l95 -142z" />
    <glyph glyph-name="onequarter" unicode="&#xbc;" horiz-adv-x="542" 
d="M481 -1h-52l9 50h-143l4 24l205 237h29l-35 -211h34l-8 -50h-34zM65 0l461 527h62l-460 -527h-63zM173 478h-52l9 50h103l-51 -305h-51zM383 99h63l15 92z" />
    <glyph glyph-name="onehalf" unicode="&#xbd;" horiz-adv-x="542" 
d="M506 213c2 13.333 -0.833008 24.335 -8.5 33.002s-18.167 13 -31.5 13s-25.5 -4.83301 -36.5 -14.5s-18.5 -26.167 -22.5 -49.5h-52c4 20 10 37.167 18 51.5s17.333 26.166 28 35.499s22.334 16.166 35.001 20.499s25.334 6.5 38.001 6.5
c28 0 50.167 -9.16699 66.5 -27.5s22.166 -41.5 17.499 -69.5c-3.33301 -21.333 -12.5 -40 -27.5 -56s-30.167 -31.333 -45.5 -46l-66 -61h111l-8 -49h-188l6 40l64.5 58.5l62.5 58.5c8 8 16.167 17 24.5 27s13.166 19.667 14.499 29zM46 0.00195312l461 528h61l-460 -528
h-62zM174 479.002h-51l8 49h102l-51 -305h-51z" />
    <glyph glyph-name="threequarters" unicode="&#xbe;" horiz-adv-x="542" 
d="M85 0l461 528h61l-459 -528h-63zM482 0h-52l8 50h-143l4 24l207 238l28 -1l-36 -212h34l-8 -49h-34zM167 221c-24.667 0 -44.834 8.16895 -60.501 24.502s-20.834 42.5 -15.501 78.5h50c-1.33301 -20.667 1.33398 -35 8.00098 -43s15.667 -12 27 -12
c12.667 0 24.167 4.66699 34.5 14s16.5 20.333 18.5 33c2 12 -1 21.833 -9 29.5s-23.333 11.834 -46 12.501l8 48c22 1.33301 38 5.66602 48 12.999s15.667 16.666 17 27.999c2 10.667 -0.166992 19.5 -6.5 26.5s-14.833 10.5 -25.5 10.5c-10 0 -18.667 -3.5 -26 -10.5
s-13.666 -20.833 -18.999 -41.5h-52c17.333 67.333 53 101 107 101c24.667 0 44.167 -8.33301 58.5 -25s19.5 -37.334 15.5 -62.001c-4 -24 -16.667 -44.667 -38 -62c18 -17.333 25 -39.666 21 -66.999c-2 -13.333 -6.5 -25.833 -13.5 -37.5s-15.667 -21.834 -26 -30.501
s-22 -15.5 -35 -20.5s-26.5 -7.5 -40.5 -7.5zM383 99.002h63l16 93z" />
    <glyph glyph-name="multiply" unicode="&#xd7;" horiz-adv-x="380" 
d="M317 20l-103 124l-145 -124l-38 46l144 124l-103 124l54 46l103 -124l145 124l38 -46l-145 -124l104 -124z" />
    <glyph glyph-name="divide" unicode="&#xf7;" horiz-adv-x="380" 
d="M290 306c-2.66699 -13.333 -9.50098 -24.833 -20.501 -34.5s-23.167 -14.5 -36.5 -14.5s-24.166 4.83301 -32.499 14.5s-11.166 21.167 -8.49902 34.5c2 13.333 8.66699 24.833 20 34.5s23.666 14.5 36.999 14.5s24 -4.83301 32 -14.5s11 -21.167 9 -34.5zM43.999 158
l11 64h344l-11 -64h-344zM250.999 74c-2.66699 -13.333 -9.50098 -24.833 -20.501 -34.5s-23.167 -14.5 -36.5 -14.5s-24.166 4.83301 -32.499 14.5s-11.166 21.167 -8.49902 34.5c2 13.333 8.66699 24.833 20 34.5s23.666 14.5 36.999 14.5s24 -4.83301 32 -14.5
s11 -21.167 9 -34.5z" />
    <glyph glyph-name="kokaithai" unicode="&#xe01;" horiz-adv-x="460" 
d="M420 0l-66.999 0.000976562l43 259c6.66699 40 -1.5 72.167 -24.5 96.5s-55.5 36.5 -97.5 36.5c-22 0 -44 -5.33301 -66 -16s-41 -24 -57 -40l24 -33l-50 -303h-67l47 281l-38 50c28 38 61.167 68.333 99.5 91s77.833 34 118.5 34c30.667 0 58.167 -4.83301 82.5 -14.5
s44.333 -23.334 60 -41.001s26.667 -38.5 33 -62.5s7.16602 -50.333 2.49902 -79z" />
    <glyph glyph-name="khokhaithai" unicode="&#xe02;" horiz-adv-x="400" 
d="M383 139c-3.33301 -20 -10.4971 -39.001 -21.4971 -57.001s-24.333 -33.5 -40 -46.5s-33.334 -23.333 -53.001 -31s-39.834 -11.5 -60.501 -11.5c-21.333 0 -40.5 3.83301 -57.5 11.5s-31.167 18 -42.5 31s-19.333 28.5 -24 46.5s-5.33398 37 -2.00098 57
c3.33301 20.667 8.66602 37.834 15.999 51.501s16.166 25.5 26.499 35.5s22.333 19 36 27l44.5 26c11.333 6.66699 20.833 13.834 28.5 21.501s12.5 18.167 14.5 31.5c3.33301 17.333 -0.5 32 -11.5 44s-25.167 18 -42.5 18c-12.667 0 -25 -4 -37 -12
s-24.667 -21.667 -38 -41l-49 36c19.333 28 40.5 48.333 63.5 61s46.833 19 71.5 19c18 0 34.333 -3.33301 49 -10s26.834 -15.667 36.501 -27s16.5 -24.666 20.5 -39.999s4.66699 -31.333 2 -48c-3.33301 -20 -8.66602 -36.333 -15.999 -49s-16.333 -23.5 -27 -32.5
s-22.667 -17 -36 -24s-27.333 -14.833 -42 -23.5c-12.667 -8 -22.5 -16.833 -29.5 -26.5s-11.833 -22.167 -14.5 -37.5c-4 -22.667 1 -41.834 15 -57.501s32.667 -23.5 56 -23.5c12 0 23.333 2.16699 34 6.5s20.5 10.166 29.5 17.499s16.5 15.833 22.5 25.5
s10 20.167 12 31.5l52 311h66z" />
    <glyph glyph-name="khokhuatthai" unicode="&#xe03;" horiz-adv-x="395" 
d="M378 140c-3.33301 -20 -10.498 -39.002 -21.498 -57.002s-24.333 -33.667 -40 -47s-33.334 -23.833 -53.001 -31.5s-39.834 -11.5 -60.501 -11.5c-21.333 0 -40.5 3.83301 -57.5 11.5s-31.167 18.167 -42.5 31.5s-19.333 28.833 -24 46.5
s-5.33398 36.834 -2.00098 57.501c4 22.667 10.667 41.5 20 56.5s19.833 27.667 31.5 38s23.834 18.833 36.501 25.5s24.5 13.5 35.5 20.5s20.5 14.667 28.5 23s13 19.166 15 32.499c2.66699 18.667 -1.66602 33.667 -12.999 45l-65 -48l-83 79l47 45l47 -45l60 44
c28 -11.333 48.167 -27.333 60.5 -48s16.166 -45 11.499 -73c-4 -21.333 -10.5 -38.5 -19.5 -51.5s-19.167 -24 -30.5 -33s-23.333 -16.5 -36 -22.5s-24.5 -12.667 -35.5 -20s-20.5 -16.166 -28.5 -26.499s-13.333 -24.166 -16 -41.499c-4 -22.667 1 -42 15 -58
s32.667 -24 56 -24s44.5 7.83301 63.5 23.5s30.5 35.167 34.5 58.5l52 310h66z" />
    <glyph glyph-name="khokhwaithai" unicode="&#xe04;" horiz-adv-x="450" 
d="M410 0h-66.999l46 276c2.66699 16 2 30.833 -2 44.5s-10.5 25.667 -19.5 36s-20.167 18.5 -33.5 24.5s-28 9 -44 9c-16.667 0 -32.667 -3 -48 -9s-29.166 -14.167 -41.499 -24.5s-22.666 -22.333 -30.999 -36s-13.833 -28.5 -16.5 -44.5l-3 -17h118l-11 -64h-118
l-32 -195h-67l46 276c4 24.667 12.667 47.834 26 69.501s29.666 40.667 48.999 57s41.166 29.166 65.499 38.499s49.166 14 74.499 14s48.5 -4.66699 69.5 -14s38.5 -22.166 52.5 -38.499s24 -35.333 30 -57s7 -44.834 3 -69.501z" />
    <glyph glyph-name="khokhonthai" unicode="&#xe05;" horiz-adv-x="472" 
d="M432 0h-67l48 287c3.33301 19.333 2.16602 37.333 -3.50098 54s-14.834 30.667 -27.501 42l-95 -74l-68 74c-17.333 -11.333 -31.666 -25.5 -42.999 -42.5s-18.666 -35.167 -21.999 -54.5l-4 -26h128l-11 -65h-128l-32 -195h-67l48 287c6 38 22.167 72.333 48.5 103
s60.5 55 102.5 73l63 -66l85 66c36 -18 62 -42.333 78 -73s21 -65 15 -103z" />
    <glyph glyph-name="khorakhangthai" unicode="&#xe06;" horiz-adv-x="454" 
d="M441 170c-4 -24.667 -12.668 -47.833 -26.001 -69.5s-29.833 -40.5 -49.5 -56.5s-41.5 -28.667 -65.5 -38s-48.667 -14 -74 -14c-23.333 0 -43.5 4.66699 -60.5 14s-33.167 22 -48.5 38l-8 -45h-67l31 185c4.66699 30 13.834 53.5 27.501 70.5s28 31 43 42l40.5 29
c12 8.33301 19 18.833 21 31.5c1.33301 8 -0.333984 16 -5.00098 24l-53 -41l-75 74l46 45l42 -38l50 37c23.333 -10 40.5 -23.833 51.5 -41.5s13.833 -37.5 8.5 -59.5c-4.66699 -22.667 -13.334 -40.167 -26.001 -52.5s-26 -23.5 -40 -33.5s-27.167 -21 -39.5 -33
s-20.166 -28.333 -23.499 -49l-2 -15c-2.66699 -16 -2.16699 -31 1.5 -45s9.83398 -26.333 18.501 -37s19.667 -19.167 33 -25.5s28.333 -9.5 45 -9.5s32.667 3 48 9s29.333 14.167 42 24.5s23.167 22.333 31.5 36s13.833 28.5 16.5 44.5l47 279h66z" />
    <glyph glyph-name="ngonguthai" unicode="&#xe07;" horiz-adv-x="372" 
d="M347 92c-2 -13.333 -6.66699 -26 -14 -38s-16.333 -22.5 -27 -31.5s-22.5 -16 -35.5 -21s-26.167 -7.5 -39.5 -7.5c-20 0 -37 5.33301 -51 16s-23.667 24.667 -29 42l-83 273l66 24l82 -272c3.33301 -11.333 12.333 -17 27 -17c9.33301 0 17.5 3 24.5 9
s11.167 13.333 12.5 22l49 294h-62l11 65h129z" />
    <glyph glyph-name="chochanthai" unicode="&#xe08;" horiz-adv-x="411" 
d="M418 281c-4 -21.333 -11.002 -41 -21.002 -59l-120 -222h-70l-53 285h70l35 -189l77 147c6.66699 12 11.667 24.667 15 38c2.66699 14.667 2.16699 28.667 -1.5 42s-10 25 -19 35s-19.833 17.833 -32.5 23.5s-26.667 8.5 -42 8.5c-28 0 -54.167 -9.16699 -78.5 -27.5
s-41.5 -44.5 -51.5 -78.5h-67c6.66699 26 16.834 49.5 30.501 70.5s29.834 39 48.501 54s39 26.5 61 34.5s44.667 12 68 12c24.667 0 47.167 -4.5 67.5 -13.5s37.333 -21.333 51 -37s23.5 -34.167 29.5 -55.5s7 -44 3 -68z" />
    <glyph glyph-name="chochingthai" unicode="&#xe09;" horiz-adv-x="429" 
d="M388 0l-66 0.00195312l6 40c-35.333 -31.333 -74 -47 -116 -47c-24 0 -45.833 4.33301 -65.5 13s-36.167 20.5 -49.5 35.5s-22.833 32.833 -28.5 53.5s-6.5 42.667 -2.5 66l8 45h-32l11 65h99l-19 -110c-4 -30 2.5 -54.833 19.5 -74.5s40.5 -29.5 70.5 -29.5
c15.333 0 30 2.83301 44 8.5s26.667 13.5 38 23.5s20.833 21.5 28.5 34.5s12.834 27.167 15.501 42.5l20 116c2.66699 14.667 2.16699 28.667 -1.5 42s-10 25 -19 35s-19.833 17.833 -32.5 23.5s-26.667 8.5 -42 8.5c-24 0 -47.333 -6.83301 -70 -20.5
s-40.667 -33.834 -54 -60.501h-69c10.667 24 23.5 45 38.5 63s31.333 33.167 49 45.5s36.5 21.666 56.5 27.999s40 9.5 60 9.5c24.667 0 47.167 -4.5 67.5 -13.5s37.166 -21.5 50.499 -37.5s23 -34.5 29 -55.5s7 -43.5 3 -67.5z" />
    <glyph glyph-name="chochangthai" unicode="&#xe0a;" horiz-adv-x="403" 
d="M392 354c6.66699 -7.33301 11.6719 -17.834 15.0049 -31.501s3.66602 -28.167 0.999023 -43.5l-22 -139c-3.33301 -20 -10.5 -39 -21.5 -57s-24.5 -33.667 -40.5 -47s-33.833 -23.833 -53.5 -31.5s-39.834 -11.5 -60.501 -11.5c-21.333 0 -40.5 3.83301 -57.5 11.5
s-31.167 18.167 -42.5 31.5s-19.333 29 -24 47s-5.33398 37 -2.00098 57c3.33301 20.667 8.66602 37.834 15.999 51.501s16.166 25.5 26.499 35.5s22.333 19 36 27l44.5 26c12 6.66699 21.667 13.834 29 21.501s12 18.167 14 31.5c3.33301 17.333 -0.166992 32 -10.5 44
s-24.5 18 -42.5 18c-12.667 0 -25.167 -4 -37.5 -12s-25.166 -21.667 -38.499 -41l-49 37c39.333 53.333 84.333 80 135 80c30 0 54.667 -8.83301 74 -26.5s30.666 -39.834 33.999 -66.501l138 126l43 -42zM315.005 332.999
c-3.33301 -21.333 -9.33398 -38.499 -18.001 -51.499s-18.667 -24 -30 -33s-23.333 -16.833 -36 -23.5s-24.5 -13.667 -35.5 -21s-20.667 -15.833 -29 -25.5s-13.833 -22.5 -16.5 -38.5c-2 -11.333 -1.66699 -22 1 -32s7.33398 -18.833 14.001 -26.5s14.667 -13.667 24 -18
s20 -6.5 32 -6.5c11.333 0 22.5 2.16699 33.5 6.5s21 10.333 30 18s16.5 16.5 22.5 26.5s10 20.667 12 32l23 139c2 12 1.16699 23.667 -2.5 35s-11.5 23 -23.5 35v-8c0 -2.66699 -0.333008 -5.33398 -1 -8.00098z" />
    <glyph glyph-name="sosothai" unicode="&#xe0b;" horiz-adv-x="393" 
d="M382 355c6.66699 -7.33301 11.6699 -17.833 15.0029 -31.5s3.66602 -28.167 0.999023 -43.5l-22 -140c-3.33301 -20 -10.5 -39 -21.5 -57s-24.5 -33.667 -40.5 -47s-33.833 -23.833 -53.5 -31.5s-39.834 -11.5 -60.501 -11.5c-21.333 0 -40.5 3.83301 -57.5 11.5
s-31.167 18.167 -42.5 31.5s-19.333 29 -24 47s-5.33398 37 -2.00098 57c3.33301 20.667 8.66602 37.834 15.999 51.501s16.333 25.667 27 36s22.834 19.666 36.501 27.999l44.5 27.5c11.333 7.33301 20.833 15 28.5 23s12.5 18.667 14.5 32c2.66699 18 -1.33301 33 -12 45
l-68 -51l-83 81l47 45l48 -45l61 46c22 -9.33301 39.333 -22 52 -38s19.667 -34 21 -54l136 125l43 -41zM140.003 140c-2 -11.333 -1.66797 -22.001 0.999023 -32.001s7.33398 -18.833 14.001 -26.5s14.667 -13.667 24 -18s20 -6.5 32 -6.5c11.333 0 22.5 2.16699 33.5 6.5
s21 10.333 30 18s16.5 16.5 22.5 26.5s10 20.667 12 32l23 139c2 11.333 1.16699 22.666 -2.5 33.999s-11.167 23 -22.5 35c0 -2 -0.166992 -3.83301 -0.5 -5.5s-0.5 -3.16699 -0.5 -4.5c-3.33301 -21.333 -9.33301 -38.666 -18 -51.999s-18.667 -24.666 -30 -33.999
s-23.5 -17.5 -36.5 -24.5s-25 -14.333 -36 -22s-20.667 -16.5 -29 -26.5s-13.833 -23 -16.5 -39z" />
    <glyph glyph-name="chochoethai" unicode="&#xe0c;" horiz-adv-x="746" 
d="M731 157c-4.66699 -26.667 -13.001 -50.1689 -25.001 -70.502s-26.667 -37.5 -44 -51.5s-36.666 -24.5 -57.999 -31.5s-43.333 -10.5 -66 -10.5c-20.667 0 -39.834 5.33301 -57.501 16s-32.5 23.667 -44.5 39l-8 -48h-69c3.33301 22.667 6.66602 44 9.99902 64l10 58
l8 46c2.66699 15.333 5 29.333 7 42l5 32c1.33301 8.66699 2.33301 14.334 3 17.001c6.66699 40 -1.66602 72.167 -24.999 96.5s-56.666 36.5 -99.999 36.5c-22.667 0 -45.167 -5.33301 -67.5 -16s-41.833 -24 -58.5 -40l25 -33l-41 -238h67l-10 -65h-134l47 281l-39 50
c28 38 61.5 68.5 100.5 91.5s79.5 34.5 121.5 34.5c31.333 0 59.333 -5 84 -15s45 -23.667 61 -41s27.333 -38.166 34 -62.499s7.66699 -50.833 3 -79.5l-6 -33c-2 -10.667 -3.66699 -21.667 -5 -33c-3.33301 -20 -2.66602 -38.333 2.00098 -55s11.667 -31 21 -43
s20 -21.333 32 -28s23.667 -10 35 -10c28 0 52.667 8.16699 74 24.5s34.666 41.5 39.999 75.5l49 294h68z" />
    <glyph glyph-name="yoyingthai" unicode="&#xe0d;" horiz-adv-x="740" 
d="M701 6c-4 -23.333 -12.334 -45.1699 -25.001 -65.5029s-28.167 -38.166 -46.5 -53.499s-38.833 -27.5 -61.5 -36.5s-46.334 -13.5 -71.001 -13.5c-69.333 0 -117.333 34 -144 102l63 35c18.667 -48 49.334 -72 92.001 -72c14.667 0 29 2.66699 43 8
s26.667 12.833 38 22.5s20.833 20.834 28.5 33.501s12.834 26 15.501 40l4 25c-33.333 -25.333 -69.666 -38 -108.999 -38c-24 0 -45.667 4.33301 -65 13s-35.5 20.5 -48.5 35.5s-22.167 32.5 -27.5 52.5s-6 41.333 -2 64l17 102c6.66699 40 -1.5 72 -24.5 96
s-56.5 36 -100.5 36c-22.667 0 -45.167 -5.33301 -67.5 -16s-41.833 -24 -58.5 -40l25 -32l-40 -239h66l-10 -65h-134l47 281l-39 50c28 38 61.5 68.5 100.5 91.5s79.5 34.5 121.5 34.5c32 0 60.333 -5 85 -15s45 -23.667 61 -41s27.167 -38.166 33.5 -62.499
s7.16602 -50.833 2.49902 -79.5l-17 -102c-4.66699 -28 1 -51.5 17 -70.5s39 -28.5 69 -28.5s56 9.16699 78 27.5s35.667 42.5 41 72.5l49 292h68l-48 -288z" />
    <glyph glyph-name="dochadathai" unicode="&#xe0e;" horiz-adv-x="469" 
d="M293 -170c-20 17.333 -40 30.001 -60 38.001s-41.333 12 -64 12c-22 0 -44.167 -4 -66.5 -12s-46.833 -20.667 -73.5 -38l-32 49c34 22.667 65.5 39.167 94.5 49.5s58.5 15.5 88.5 15.5c44.667 0 84.334 -10.333 119.001 -31l56 47l50 299c6.66699 40 -1.5 72 -24.5 96
s-55.5 36 -97.5 36c-22 0 -44 -5.16699 -66 -15.5s-41.333 -23.833 -58 -40.5l25 -32l-50 -303h-110l10 65h43l36 215l-37 51c28 38 60.833 68.333 98.5 91s77.5 34 119.5 34c30.667 0 58 -4.83301 82 -14.5s43.833 -23.334 59.5 -41.001s26.667 -38.5 33 -62.5
s7.16602 -50.333 2.49902 -79l-54 -325z" />
    <glyph glyph-name="topatakthai" unicode="&#xe0f;" horiz-adv-x="469" 
d="M283 -172l-67.999 70.999l-91 -71l-103 112l51 43l67 -71l89 70l67 -70l59 46l51 301c6.66699 40 -1.5 72 -24.5 96s-55.5 36 -97.5 36c-22 0 -44 -5.16699 -66 -15.5s-41.333 -23.833 -58 -40.5l25 -32l-50 -303h-110l10 65h43l36 215l-37 51
c28 38 60.833 68.333 98.5 91s77.5 34 119.5 34c30.667 0 58.167 -5 82.5 -15s44.333 -23.667 60 -41s26.667 -38.166 33 -62.499s7.16602 -50.833 2.49902 -79.5l-54 -322z" />
    <glyph glyph-name="thothanthai" unicode="&#xe10;" horiz-adv-x="411" 
d="M398 387c9.33301 -15.333 15.833 -32 19.5 -50s3.83398 -36.667 0.500977 -56c-4 -22.667 -11.333 -42.667 -22 -60l-119 -221h-70l-53 285h70l34 -190l79 147c3.33301 7.33301 6.16602 14.333 8.49902 21s4.16602 12.667 5.49902 18
c2.66699 14.667 2.16699 28.667 -1.5 42s-9.83398 25 -18.501 35s-19.334 17.833 -32.001 23.5s-27 8.5 -43 8.5c-28 0 -54 -9.16699 -78 -27.5s-41 -44.5 -51 -78.5h-67c6.66699 26 16.834 49.5 30.501 70.5s29.834 39 48.501 54s38.834 26.5 60.501 34.5
s44.167 12 67.5 12c32.667 0 61.667 -8 87 -24l64 61l44 -44zM281 -181l-62 70l-87 -70l-97 111l45 40l66 -73l87 70l62 -68l14 11l10 59h62l-13 -81z" />
    <glyph glyph-name="thonangmonthothai" unicode="&#xe11;" horiz-adv-x="459" 
d="M418 0l-65.999 0.000976562l57 328c4 23.333 0 41 -12 53l-289 -381h-60l31 178c4.66699 26 12.667 47.667 24 65s23.166 32.333 35.499 45l33.5 34.5c10 10.333 16 21.833 18 34.5c2 8.66699 1 16.667 -3 24l-51 -41l-73 74l47 45l39 -38l48 37
c47.333 -20 67 -52.667 59 -98c-3.33301 -19.333 -10.333 -35.833 -21 -49.5s-22.167 -27 -34.5 -40s-23.833 -26.333 -34.5 -40s-17.667 -29.834 -21 -48.501l-9 -47l243 319c38 -4 65 -18.167 81 -42.5s21 -53.5 15 -87.5z" />
    <glyph glyph-name="thophuthaothai" unicode="&#xe12;" horiz-adv-x="761" 
d="M746 157c-4.66699 -26.667 -13.0098 -50.1719 -25.0098 -70.5049s-26.667 -37.333 -44 -51s-36.666 -24 -57.999 -31s-43.333 -10.5 -66 -10.5c-20 0 -39 5.33301 -57 16s-33 24 -45 40l-8 -50h-69c10.667 68 19.334 121.5 26.001 160.5l15 88.5l5 28.5
c1.33301 7.66699 2.33301 13.167 3 16.5c3.33301 19.333 1.83301 36.5 -4.5 51.5s-16.166 27.167 -29.499 36.5l-89 -63l-68 65c-23.333 -13.333 -44.666 -33.166 -63.999 -59.499s-32.666 -61.5 -39.999 -105.5c-4 -23.333 -4.83301 -44.666 -2.5 -63.999
s7.33301 -36.166 15 -50.499s17.834 -25.5 30.501 -33.5s27.334 -12 44.001 -12c8.66699 0 16.834 1.83301 24.501 5.5s18.5 10.834 32.5 21.501l40 -46c-20 -15.333 -38.667 -26.833 -56 -34.5s-34.666 -11.5 -51.999 -11.5c-29.333 0 -54.333 6 -75 18
s-37 28.167 -49 48.5s-19.667 44.166 -23 71.499s-2.33301 56.333 3 87c11.333 64.667 34.5 116.834 69.5 156.501s76.5 67.834 124.5 84.501l60 -56l78 55c36 -14 63.167 -34.667 81.5 -62s24.5 -61 18.5 -101c-2 -10 -4 -21 -6 -33
c-1.33301 -10 -3.16602 -21.667 -5.49902 -35s-4.5 -26.666 -6.5 -39.999c-3.33301 -18.667 -2.66602 -36 2.00098 -52s11.667 -29.833 21 -41.5s20 -20.834 32 -27.501s23.667 -10 35 -10c28 0 52.667 8.16699 74 24.5s34.666 41.5 39.999 75.5l49 294h68z" />
    <glyph glyph-name="nonenthai" unicode="&#xe13;" horiz-adv-x="741" 
d="M632 0l7.00293 42c-36.667 -32.667 -76.334 -49 -119.001 -49c-22.667 0 -43.334 3.5 -62.001 10.5s-34.167 17.5 -46.5 31.5s-20.833 31.167 -25.5 51.5s-4.66699 43.833 0 70.5l17 102c6.66699 40 -1.83301 72 -25.5 96s-57.167 36 -100.5 36
c-22.667 0 -45.167 -5.16699 -67.5 -15.5s-41.833 -23.5 -58.5 -39.5l25 -33l-40 -238h66l-10 -65h-134l46 280l-38 51c28 38 61.5 68.333 100.5 91s79.5 34 121.5 34c31.333 0 59.333 -4.83301 84 -14.5s45 -23.334 61 -41.001s27.333 -38.5 34 -62.5
s7.66699 -50.333 3 -79l-16 -102c-5.33301 -34 -0.5 -59.167 14.5 -75.5s35.833 -24.5 62.5 -24.5c12.667 0 26.167 3.16699 40.5 9.5s27.666 15 39.999 26s23 23.833 32 38.5s14.833 30.334 17.5 47.001l46 272h68l-75 -450h-68z" />
    <glyph glyph-name="dodekthai" unicode="&#xe14;" horiz-adv-x="472" 
d="M364 0l47.0049 281.002c4 24 0.666992 44.667 -10 62s-25.334 30.166 -44.001 38.499s-40 11.833 -64 10.5s-47.167 -8.5 -69.5 -21.5s-42.333 -32.333 -60 -58s-29.834 -58.167 -36.501 -97.5c-6.66699 -44.667 -2.16699 -81.667 13.5 -111s40.834 -44 75.501 -44
c8.66699 0 16.834 1.83301 24.501 5.5s18.167 10.834 31.5 21.501l40 -46c-20 -15.333 -38.5 -26.833 -55.5 -34.5s-34.167 -11.5 -51.5 -11.5c-29.333 0 -54.5 5.66699 -75.5 17s-37.5 27 -49.5 47s-19.833 43.333 -23.5 70s-2.83398 55.334 2.49902 86.001
c7.33301 42 20 78.333 38 109s38.833 55.667 62.5 75s49.167 33.666 76.5 42.999s54.666 14 81.999 14c24 0 46.667 -4 68 -12s39.666 -19.333 54.999 -34s26.666 -32.834 33.999 -54.501s8.66602 -45.834 3.99902 -72.501l-47 -283h-68z" />
    <glyph glyph-name="totaothai" unicode="&#xe15;" horiz-adv-x="475" 
d="M368 0l48.001 292.001c3.33301 19.333 2 36.666 -4 51.999s-15.667 27.666 -29 36.999l-87 -63l-68 64c-22.667 -13.333 -43.334 -33.666 -62.001 -60.999s-31.667 -62 -39 -104c-4 -22.667 -5 -43.5 -3 -62.5s6.83301 -35.5 14.5 -49.5s17.667 -25 30 -33
s27.166 -12 44.499 -12c7.33301 0 15 1.83301 23 5.5s18.333 11.167 31 22.5l41 -46c-19.333 -15.333 -37.5 -26.833 -54.5 -34.5s-34.167 -11.5 -51.5 -11.5c-29.333 0 -54.166 5.66699 -74.499 17s-36.333 27 -48 47s-19.167 43.333 -22.5 70s-2.33301 55.667 3 87
c10.667 64.667 33.167 117 67.5 157s75.5 68 123.5 84l59 -56l77 56c34.667 -14 61 -34.833 79 -62.5s23.667 -61.5 17 -101.5l-49 -294h-66z" />
    <glyph glyph-name="thothungthai" unicode="&#xe16;" horiz-adv-x="460" 
d="M420 0l-66.999 0.000976562l43 259c6.66699 40 -1.5 72.167 -24.5 96.5s-55.5 36.5 -97.5 36.5c-22 0 -44 -5.33301 -66 -16s-41.333 -24 -58 -40l24 -33l-40 -239l66 1l-10 -65h-132l47 281l-38 50c30 38 63.333 68.333 100 91s76 34 118 34
c30.667 0 58.167 -4.83301 82.5 -14.5s44.333 -23.334 60 -41.001s26.667 -38.5 33 -62.5s7.16602 -50.333 2.49902 -79z" />
    <glyph glyph-name="thothahanthai" unicode="&#xe17;" horiz-adv-x="450" 
d="M410 0l-66.9941 0.000976562l49 294c5.33301 32 -1.16699 56.5 -19.5 73.5s-40.833 25.5 -67.5 25.5c-16 0 -32.5 -3.5 -49.5 -10.5s-32.833 -16.5 -47.5 -28.5s-27.334 -26 -38.001 -42s-17.334 -33 -20.001 -51l-43 -261h-67l75 450h67l-10 -58
c22 20.667 45.833 36.834 71.5 48.501s50.167 17.5 73.5 17.5c21.333 0 41.666 -3.5 60.999 -10.5s35.666 -17.333 48.999 -31s23.166 -30.834 29.499 -51.501s7.16602 -44.334 2.49902 -71.001z" />
    <glyph glyph-name="thothongthai" unicode="&#xe18;" horiz-adv-x="426" 
d="M382 312c-3.33301 16 -9.16602 29.3311 -17.499 39.998s-18 19.167 -29 25.5s-22.833 10.833 -35.5 13.5s-25.334 4 -38.001 4c-15.333 0 -29.5 -1.83301 -42.5 -5.5s-24.5 -8 -34.5 -13s-18 -10.167 -24 -15.5s-9.33301 -10 -10 -14
c-3.33301 -12.667 9 -23.334 37 -32.001c14.667 -4 29.167 -7 43.5 -9s25.833 -3.66699 34.5 -5c18.667 -3.33301 37.834 -8 57.501 -14s37 -14.5 52 -25.5s26.333 -25.333 34 -43s9.16699 -39.5 4.5 -65.5c-4 -24.667 -12.5 -46.834 -25.5 -66.501
s-28.667 -36.334 -47 -50.001s-39 -24.167 -62 -31.5s-46.5 -11 -70.5 -11s-46 3.66699 -66 11s-37 17.833 -51 31.5s-24 30.334 -30 50.001s-7 41.834 -3 66.501l15 89h66l-15 -89c-4.66699 -28.667 2 -51.5 20 -68.5s43 -25.5 75 -25.5c32.667 0 60.834 8.5 84.501 25.5
s37.834 39.833 42.501 68.5c3.33301 20 -0.166992 35.5 -10.5 46.5s-23.5 19.5 -39.5 25.5s-33.333 10.333 -52 13s-35 5.33398 -49 8.00098c-12 2.66699 -25.167 6.16699 -39.5 10.5s-27.5 10.333 -39.5 18s-21.333 17.167 -28 28.5s-8.66699 25 -6 41
c3.33301 18.667 11.666 35.334 24.999 50.001s29.333 26.834 48 36.501s38.5 17 59.5 22s41.167 7.5 60.5 7.5s38.166 -2.16699 56.499 -6.5s35.166 -11.333 50.499 -21s28.5 -22.5 39.5 -38.5s19.167 -36 24.5 -60z" />
    <glyph glyph-name="nonuthai" unicode="&#xe19;" horiz-adv-x="450" 
d="M343 0l9.00293 57.001c-22.667 -20 -46.834 -35.667 -72.501 -47s-50.167 -17 -73.5 -17c-21.333 0 -41.5 3.5 -60.5 10.5s-35.167 17.333 -48.5 31s-23 30.667 -29 51s-6.66699 44.166 -2 71.499l49 293h67l-49 -293c-5.33301 -32.667 0.666992 -57.5 18 -74.5
s40 -25.5 68 -25.5c16.667 0 33.5 3.33301 50.5 10s32.667 16 47 28s26.666 26 36.999 42s17.166 33.333 20.499 52l44 261h67l-75 -450h-67z" />
    <glyph glyph-name="bobaimaithai" unicode="&#xe1a;" horiz-adv-x="450" 
d="M439 174c-4 -25.333 -12.834 -48.833 -26.501 -70.5s-30.334 -40.667 -50.001 -57s-41.5 -29.166 -65.5 -38.499s-48.667 -14 -74 -14c-26 0 -49.333 4.66699 -70 14s-37.834 22.166 -51.501 38.499s-23.5 35.333 -29.5 57s-7 45.167 -3 70.5l46 276h67l-46 -276
c-2.66699 -16 -2.16699 -30.833 1.5 -44.5s9.83398 -25.834 18.501 -36.501s19.667 -19 33 -25s28.333 -9 45 -9c16 0 31.667 3 47 9s29.333 14.333 42 25s23.334 22.834 32.001 36.501s14.334 28.5 17.001 44.5l46 276h67z" />
    <glyph glyph-name="poplathai" unicode="&#xe1b;" horiz-adv-x="450" 
d="M439 175c-4 -25.333 -12.667 -48.833 -26 -70.5s-29.833 -40.667 -49.5 -57s-41.5 -29.166 -65.5 -38.499s-48.667 -14 -74 -14s-48.5 4.66699 -69.5 14s-38.5 22.166 -52.5 38.499s-24 35.333 -30 57s-7 45.167 -3 70.5l46 275h67l-46 -275
c-2.66699 -16 -2.16699 -30.833 1.5 -44.5s10 -25.834 19 -36.501s20.167 -19 33.5 -25s28.333 -9 45 -9c16 0 31.667 3 47 9s29.166 14.333 41.499 25s22.833 22.834 31.5 36.501s14.334 28.5 17.001 44.5l76 457h67z" />
    <glyph glyph-name="phophungthai" unicode="&#xe1c;" horiz-adv-x="508" 
d="M487 115c-2.66699 -16.667 -8.5 -32.167 -17.5 -46.5s-20 -26.833 -33 -37.5s-27.667 -19.167 -44 -25.5s-32.833 -9.5 -49.5 -9.5c-36 0 -64 12.667 -84 38c-13.333 -12 -28.333 -21.333 -45 -28s-33.667 -10 -51 -10s-32.833 3.16699 -46.5 9.5
s-25.334 14.833 -35.001 25.5s-16.5 23.167 -20.5 37.5s-4.66699 29.833 -2 46.5l27 161c4 24.667 12.833 47.834 26.5 69.501s30.834 40.667 51.501 57s44.334 29.166 71.001 38.499s55 14 85 14l-11 -65c-21.333 0 -41 -3 -59 -9s-33.667 -14.167 -47 -24.5
s-24.333 -22.333 -33 -36s-14.334 -28.5 -17.001 -44.5l-27 -161c-2.66699 -15.333 0.666016 -28.333 9.99902 -39s22 -16 38 -16c15.333 0 29.5 5.33301 42.5 16s20.833 23.667 23.5 39l30 178h66l-30 -178c-2.66699 -15.333 0.833008 -28.333 10.5 -39
s22.167 -16 37.5 -16c16 0 30.333 5.33301 43 16s20.334 23.667 23.001 39l56 335h67z" />
    <glyph glyph-name="fofathai" unicode="&#xe1d;" horiz-adv-x="508" 
d="M487 115c-2.66699 -16.667 -8.5 -32.167 -17.5 -46.5s-20 -26.833 -33 -37.5s-27.667 -19.167 -44 -25.5s-32.833 -9.5 -49.5 -9.5c-36 0 -64 12.667 -84 38c-13.333 -12 -28.333 -21.333 -45 -28s-33.667 -10 -51 -10s-32.833 3.16699 -46.5 9.5
s-25.334 14.833 -35.001 25.5s-16.5 23.167 -20.5 37.5s-4.66699 29.833 -2 46.5l27 161c4 24.667 12.833 48 26.5 70s30.834 41 51.501 57s44.334 28.667 71.001 38s55 14 85 14l-11 -65c-21.333 0 -41 -3 -59 -9s-33.667 -14.167 -47 -24.5s-24.333 -22.333 -33 -36
s-14.334 -28.5 -17.001 -44.5l-27 -161c-2.66699 -15.333 0.666016 -28.333 9.99902 -39s22 -16 38 -16c15.333 0 29.5 5.33301 42.5 16s20.833 23.667 23.5 39l30 178h66l-30 -178c-2.66699 -15.333 0.833008 -28.333 10.5 -39s22.167 -16 37.5 -16
c16 0 30.333 5.33301 43 16s20.334 23.667 23.001 39l86 517h67z" />
    <glyph glyph-name="phophanthai" unicode="&#xe1e;" horiz-adv-x="526" 
d="M506 120c-3.33301 -17.333 -9.49805 -33.5 -18.498 -48.5s-20.167 -28.167 -33.5 -39.5s-28.333 -20.333 -45 -27s-34 -10 -52 -10c-19.333 0 -36.5 3.66699 -51.5 11s-27.167 17.333 -36.5 30c-14 -12.667 -29.667 -22.667 -47 -30s-35.666 -11 -54.999 -11
c-17.333 0 -33.333 3.33301 -48 10s-26.834 15.667 -36.501 27s-16.667 24.5 -21 39.5s-4.83301 31.167 -1.5 48.5l55 330h66l-55 -330c-3.33301 -16.667 0.166992 -30.834 10.5 -42.501s24.166 -17.5 41.499 -17.5s32.833 5.83301 46.5 17.5s22.167 25.834 25.5 42.501
l55 330h66l-55 -330c-3.33301 -16.667 0.166992 -30.834 10.5 -42.501s24.166 -17.5 41.499 -17.5s32.833 5.83301 46.5 17.5s22.167 25.834 25.5 42.501l55 330h66z" />
    <glyph glyph-name="fofanthai" unicode="&#xe1f;" horiz-adv-x="527" 
d="M507 120c-3.33301 -17.333 -9.66895 -33.5 -19.002 -48.5s-20.666 -28.167 -33.999 -39.5s-28.333 -20.333 -45 -27s-34 -10 -52 -10c-18.667 0 -35.667 3.66699 -51 11s-27.666 17.333 -36.999 30c-14 -12.667 -29.667 -22.667 -47 -30s-35.666 -11 -54.999 -11
c-17.333 0 -33.333 3.33301 -48 10s-26.834 15.667 -36.501 27s-16.667 24.5 -21 39.5s-4.83301 31.167 -1.5 48.5l55 330h67l-55 -330c-3.33301 -16.667 0 -30.834 10 -42.501s23.667 -17.5 41 -17.5s32.833 5.83301 46.5 17.5s22.167 25.834 25.5 42.501l55 330h67
l-55 -330c-3.33301 -16.667 0 -30.834 10 -42.501s23.667 -17.5 41 -17.5s32.833 5.83301 46.5 17.5s22.167 25.834 25.5 42.501l85 512h67z" />
    <glyph glyph-name="phosamphaothai" unicode="&#xe20;" horiz-adv-x="469" 
d="M362 0l43.001 259.001c6.66699 40 -1.5 72.167 -24.5 96.5s-55.5 36.5 -97.5 36.5c-22 0 -44 -5.33301 -66 -16s-41.333 -24 -58 -40l25 -33l-50 -303h-110l10 65h43l37 216l-38 50c28 38 60.833 68.333 98.5 91s77.5 34 119.5 34c30.667 0 58.167 -4.83301 82.5 -14.5
s44.333 -23.334 60 -41.001s26.667 -38.5 33 -62.5s7.16602 -50.333 2.49902 -79l-43 -259h-67z" />
    <glyph glyph-name="momathai" unicode="&#xe21;" horiz-adv-x="450" 
d="M436 157c-4.66699 -27.333 -13.501 -51.166 -26.501 -71.499s-28.5 -37.333 -46.5 -51s-37.833 -24 -59.5 -31s-43.167 -10.5 -64.5 -10.5c-23.333 0 -45.833 5.66699 -67.5 17s-40.167 27 -55.5 47l-9 -57h-67l75 450h67l-44 -261c-3.33301 -18 -2.33301 -35 3 -51
s13.333 -30 24 -42s23.334 -21.5 38.001 -28.5s30 -10.5 46 -10.5c13.333 0 26.666 2.16699 39.999 6.5s25.5 10.666 36.5 18.999s20.333 18.833 28 31.5s12.834 27 15.501 43l49 293h67z" />
    <glyph glyph-name="yoyakthai" unicode="&#xe22;" horiz-adv-x="445" 
d="M434 175c-4 -25.333 -12.8379 -48.8301 -26.5049 -70.4971s-30.334 -40.834 -50.001 -57.501s-41.667 -29.667 -66 -39s-49.5 -14 -75.5 -14c-25.333 0 -48 4.33301 -68 13s-37 20.667 -51 36s-24.333 33.833 -31 55.5s-9 45.167 -7 70.5l78 67
c-14.667 16 -26.667 31.667 -36 47s-12 35.666 -8 60.999c2.66699 15.333 8.16699 29.833 16.5 43.5s18.5 25.5 30.5 35.5s25.5 18 40.5 24s30.5 9 46.5 9c15.333 0 29.833 -3.33301 43.5 -10s27.834 -18 42.501 -34l-55 -46c-9.33301 10 -17.166 16.667 -23.499 20
s-12.833 5 -19.5 5c-13.333 0 -25.5 -4.5 -36.5 -13.5s-17.5 -20.167 -19.5 -33.5c-1.33301 -6.66699 -0.833008 -13 1.5 -19s5.5 -11.667 9.5 -17l61 -73l-105 -90c2 -25.333 12.333 -46.166 31 -62.499s42 -24.5 70 -24.5c16.667 0 32.834 3.16699 48.501 9.5
s29.834 14.666 42.501 24.999s23.334 22.666 32.001 36.999s14.334 29.5 17.001 45.5l46 275h67z" />
    <glyph glyph-name="roruathai" unicode="&#xe23;" horiz-adv-x="408" 
d="M365 311c-5.33301 32 -17.167 54.167 -35.5 66.5s-40.833 18.5 -67.5 18.5c-28 0 -51.667 -5.83301 -71 -17.5s-30.666 -27.167 -33.999 -46.5c-2 -12 3.16699 -20.667 15.5 -26s28.333 -10 48 -14l63.5 -13c22.667 -4.66699 43.334 -11.667 62.001 -21
s33.334 -22.5 44.001 -39.5s13.667 -39.5 9 -67.5c-4 -26 -12.667 -48.833 -26 -68.5s-29.333 -36.167 -48 -49.5s-39 -23.5 -61 -30.5s-43.333 -10.5 -64 -10.5c-20 0 -39.5 3.16699 -58.5 9.5s-35.5 16 -49.5 29s-24.833 29.667 -32.5 50s-10.5 44.166 -8.5 71.499l68 22
c-2 -21.333 -1 -39.5 3 -54.5s10.167 -27.167 18.5 -36.5s18.5 -16 30.5 -20s25 -6 39 -6c29.333 0 55.666 8.16699 78.999 24.5s37.666 39.5 42.999 69.5c3.33301 18.667 -1.33398 32.5 -14.001 41.5s-29.334 16.167 -50.001 21.5c-16 4 -35 7.83301 -57 11.5
s-42.5 9.33398 -61.5 17.001s-34.5 18.334 -46.5 32.001s-16 32.167 -12 55.5c3.33301 21.333 11 40.166 23 56.499s26.5 30 43.5 41s35.333 19.167 55 24.5s39.167 8 58.5 8c18 0 35.833 -2.16699 53.5 -6.5s33.834 -11.5 48.501 -21.5s27 -23 37 -39
s16.667 -35.667 20 -59z" />
    <glyph glyph-name="ruthai" unicode="&#xe24;" horiz-adv-x="460" 
d="M391 -171l-66.999 0.000976562l72 430c6.66699 40 -1.5 72 -24.5 96s-55.5 36 -97.5 36c-22 0 -44 -5.33301 -66 -16s-41.333 -24 -58 -40l24 -33l-40 -237h66l-10 -65h-132l46 280l-37 51c28 38 60.833 68.333 98.5 91s77.5 34 119.5 34
c30.667 0 58.167 -4.83301 82.5 -14.5s44.333 -23.334 60 -41.001s26.667 -38.5 33 -62.5s7.16602 -50.333 2.49902 -79z" />
    <glyph glyph-name="lolingthai" unicode="&#xe25;" horiz-adv-x="441" 
d="M335 0l20.002 124.003c2.66699 17.333 1.83398 32.5 -2.49902 45.5s-11.166 24 -20.499 33s-20.833 15.667 -34.5 20s-28.167 6.5 -43.5 6.5c-14.667 0 -29.334 -2.16699 -44.001 -6.5s-28.167 -11 -40.5 -20s-22.833 -20 -31.5 -33s-14.334 -28.167 -17.001 -45.5
c-2.66699 -16 -1.16699 -31.333 4.5 -46s16.5 -29.334 32.5 -44.001l-54 -47c-21.333 19.333 -36 40.666 -44 63.999s-10 47.666 -6 72.999c4.66699 26.667 14 50.5 28 71.5s30.667 38.833 50 53.5s40.5 26 63.5 34s46.167 12 69.5 12c20.667 0 40.667 -3.16699 60 -9.5
s36.666 -16.166 51.999 -29.499l6 31c2.66699 16.667 1.66699 31.5 -3 44.5s-12 23.833 -22 32.5s-21.833 15.167 -35.5 19.5s-28.167 6.5 -43.5 6.5c-28 0 -54.5 -7.66699 -79.5 -23s-43.167 -41 -54.5 -77h-67c7.33301 28.667 18.666 53.5 33.999 74.5
s32.666 38.167 51.999 51.5s39.833 23.166 61.5 29.499s43.167 9.5 64.5 9.5c22 0 43.5 -3.5 64.5 -10.5s39.333 -17.5 55 -31.5s27.334 -31.5 35.001 -52.5s9.16699 -45.5 4.5 -73.5l-48 -287h-66z" />
    <glyph glyph-name="luthai" unicode="&#xe26;" horiz-adv-x="469" 
d="M333 -171l72.001 430c6.66699 40 -1.5 72 -24.5 96s-55.5 36 -97.5 36c-22 0 -44 -5.16699 -66 -15.5s-41.333 -23.5 -58 -39.5l25 -33l-50 -303h-110l10 65h43l36 215l-37 51c28 38 60.833 68.333 98.5 91s77.5 34 119.5 34c30.667 0 58.167 -5 82.5 -15
s44.333 -23.667 60 -41s26.667 -38 33 -62s7.16602 -50.333 2.49902 -79l-72 -430h-67z" />
    <glyph glyph-name="wowaenthai" unicode="&#xe27;" horiz-adv-x="414" 
d="M411 225c-6 -34.667 -16.999 -66.166 -32.999 -94.499s-35 -52.666 -57 -72.999s-46.167 -36.333 -72.5 -48s-52.666 -17.5 -78.999 -17.5s-52.166 6.33301 -77.499 19s-47.666 32.334 -66.999 59.001l50 46c21.333 -29.333 46.166 -47.333 74.499 -54
s55.666 -4.33398 81.999 6.99902s49.833 30.666 70.5 57.999s34.334 60 41.001 98c6.66699 38.667 4.16699 71.5 -7.5 98.5s-28.834 46 -51.501 57s-49.334 13.167 -80.001 6.5s-61.667 -24.334 -93 -53.001l-34 46c42.667 40 85.834 64.167 129.501 72.5
s82.167 4.33301 115.5 -12s58.666 -43.333 75.999 -81s21.666 -82.5 12.999 -134.5z" />
    <glyph glyph-name="sosalathai" unicode="&#xe28;" horiz-adv-x="450" 
d="M436 389c9.33301 -15.333 15.832 -32.334 19.499 -51.001s3.83398 -38.667 0.500977 -60l-46 -278h-67l46 278c2.66699 16 2.16699 30.833 -1.5 44.5s-10 25.667 -19 36s-20.167 18.5 -33.5 24.5s-28.333 9 -45 9c-16 0 -31.667 -3 -47 -9s-29.166 -14.167 -41.499 -24.5
s-22.833 -22.333 -31.5 -36s-14.334 -28.5 -17.001 -44.5l-3 -18h119l-11 -63h-119l-32 -197h-67l46 278c4 24.667 12.667 47.834 26 69.501s29.833 40.667 49.5 57s41.5 29.166 65.5 38.499s48.667 14 74 14c17.333 0 33.333 -2.16699 48 -6.5s28.667 -10.166 42 -17.499
l64 59l45 -43z" />
    <glyph glyph-name="sorusithai" unicode="&#xe29;" horiz-adv-x="451" 
d="M448 231l-9.00195 -57c-4 -25.333 -12.833 -48.833 -26.5 -70.5s-30.334 -40.667 -50.001 -57s-41.5 -29.166 -65.5 -38.499s-48.667 -14 -74 -14c-26 0 -49.333 4.66699 -70 14s-37.834 22.166 -51.501 38.499s-23.5 35.333 -29.5 57s-7 45.167 -3 70.5l46 276h67
l-46 -276c-2.66699 -16 -2.16699 -31 1.5 -45s9.83398 -26.167 18.501 -36.5s19.667 -18.5 33 -24.5s28.333 -9 45 -9c16 0 31.667 3 47 9s29.333 14.167 42 24.5s23.334 22.5 32.001 36.5s14.334 29 17.001 45l9 57h-56c-20 0 -35.5 6.66699 -46.5 20
s-14.833 29.333 -11.5 48l6 41h64l-6 -39c-1.33301 -4 0.333984 -6 5.00098 -6h56l26 155h67l-26 -155h42l-11 -64h-42z" />
    <glyph glyph-name="sosuathai" unicode="&#xe2a;" horiz-adv-x="441" 
d="M432 387c17.333 -27.333 23.001 -60.665 17.001 -99.998l-48 -287h-66l20 125c2.66699 17.333 1.83398 32.5 -2.49902 45.5s-11.166 23.833 -20.499 32.5s-20.833 15.167 -34.5 19.5s-28.167 6.5 -43.5 6.5c-14.667 0 -29.334 -2.16699 -44.001 -6.5
s-28.167 -11 -40.5 -20s-22.833 -20 -31.5 -33s-14.334 -27.833 -17.001 -44.5c-2.66699 -16 -1.16699 -31.333 4.5 -46s16.5 -29.334 32.5 -44.001l-54 -48c-21.333 19.333 -36 40.666 -44 63.999s-10 48 -6 74c4.66699 26 14 49.5 28 70.5s30.667 38.833 50 53.5
s40.5 26 63.5 34s46.167 12 69.5 12c20.667 0 40.667 -3 60 -9s37 -15.667 53 -29l5 30c2.66699 16.667 1.66699 31.5 -3 44.5s-12 23.833 -22 32.5s-21.833 15.334 -35.5 20.001s-28.167 7 -43.5 7c-28 0 -54.5 -7.83301 -79.5 -23.5s-43.167 -41.5 -54.5 -77.5h-67
c8 29.333 19.5 54.5 34.5 75.5s32.167 38.167 51.5 51.5s39.833 23.166 61.5 29.499s43.167 9.5 64.5 9.5c35.333 0 67.666 -8.33301 96.999 -25l66 61l44 -45z" />
    <glyph glyph-name="hohipthai" unicode="&#xe2b;" horiz-adv-x="461" 
d="M421 0h-66.999l37 224c3.33301 20 -1 37 -13 51s-28.667 21 -50 21c-17.333 0 -32 -4 -44 -12l-145 -92l-32 -192h-67l75 450h67l-30 -181l300 190l31 -49l-96 -61c25.333 -10.667 44.666 -27.167 57.999 -49.5s17.333 -48.5 12 -78.5z" />
    <glyph glyph-name="lochulathai" unicode="&#xe2c;" horiz-adv-x="527" 
d="M566 478c-2 -14.667 -5.66992 -27.6699 -11.0029 -39.0029s-13.333 -20.666 -24 -27.999c7.33301 -10.667 11.833 -22.167 13.5 -34.5s1.16699 -26.166 -1.5 -41.499l-36 -215c-3.33301 -17.333 -9.66602 -33.5 -18.999 -48.5s-20.666 -28.167 -33.999 -39.5
s-28.333 -20.166 -45 -26.499s-34 -9.5 -52 -9.5c-18.667 0 -35.5 3.66699 -50.5 11s-27.5 17.333 -37.5 30c-13.333 -12.667 -28.833 -22.667 -46.5 -30s-36.167 -11 -55.5 -11c-17.333 0 -33.166 3.16699 -47.499 9.5s-26.5 15.166 -36.5 26.499s-17.167 24.5 -21.5 39.5
s-4.83301 31.167 -1.5 48.5l55 330h67l-55 -330c-3.33301 -16 0 -29.833 10 -41.5s23.667 -17.5 41 -17.5s32.833 5.83301 46.5 17.5s22.167 25.834 25.5 42.501l33 198h67l-33 -199c-3.33301 -16.667 0 -30.667 10 -42s23.667 -17 41 -17s32.833 5.83301 46.5 17.5
s22.167 25.5 25.5 41.5l35 214c3.33301 20.667 1.33301 35.167 -6 43.5s-18 12.5 -32 12.5h-56l10 60h59c19.333 0 32 1.66699 38 5s10.333 11.333 13 24l4 19h65z" />
    <glyph glyph-name="oangthai" unicode="&#xe2d;" horiz-adv-x="500" 
d="M508 226c-5.33301 -31.333 -15.5 -61.167 -30.5 -89.5s-33.833 -53.166 -56.5 -74.499s-48.5 -38.333 -77.5 -51s-60.167 -19 -93.5 -19s-62.5 6.16699 -87.5 18.5s-45.5 29 -61.5 50s-27 45.833 -33 74.5s-6.33301 59 -1 91c0.666992 2 1.33398 4.5 2.00098 7.5
s1.66699 8.16699 3 15.5h223l-11 -64h-152c1.33301 -36.667 13.166 -67.334 35.499 -92.001s53.5 -37 93.5 -37c22 0 43 4.33301 63 13s38 20.667 54 36s29.5 33.333 40.5 54s18.5 43 22.5 67s4 46.5 0 67.5s-11.333 39.167 -22 54.5s-24.5 27.333 -41.5 36
s-36.833 13 -59.5 13c-32.667 0 -63.834 -9.33301 -93.501 -28s-54.5 -47 -74.5 -85l-58 26c28 48 62.333 85.167 103 111.5s85.334 39.5 134.001 39.5c34 0 63.5 -6.33301 88.5 -19s45 -29.834 60 -51.501s25.167 -46.667 30.5 -75s5.33301 -58.166 0 -89.499z" />
    <glyph glyph-name="honokhukthai" unicode="&#xe2e;" horiz-adv-x="500" 
d="M479 388c14.667 -21.333 24.5 -45.835 29.5 -73.502s4.83301 -57.5 -0.5 -89.5c-5.33301 -31.333 -15.5 -61.166 -30.5 -89.499s-33.833 -53.166 -56.5 -74.499s-48.5 -38.333 -77.5 -51s-60.167 -19 -93.5 -19s-62.5 6.16699 -87.5 18.5s-45.5 29 -61.5 50
s-27 45.833 -33 74.5s-6.33301 59 -1 91c0.666992 2.66699 1.33398 5.5 2.00098 8.5s1.66699 8.16699 3 15.5h223l-11 -65h-152c1.33301 -36.667 13.166 -67.167 35.499 -91.5s53.5 -36.5 93.5 -36.5c22 0 43 4.33301 63 13s38 20.5 54 35.5s29.5 33 40.5 54
s18.5 43.5 22.5 67.5s4 46.5 0 67.5s-11.333 39 -22 54s-24.5 26.833 -41.5 35.5s-36.833 13 -59.5 13c-32.667 0 -63.834 -9.5 -93.501 -28.5s-54.5 -46.833 -74.5 -83.5l-58 25c28 48 62.333 85.333 103 112s85.334 40 134.001 40c41.333 0 76.333 -9.66699 105 -29l73 69
l45 -44z" />
    <glyph glyph-name="paiyannoithai" unicode="&#xe2f;" horiz-adv-x="410" 
d="M303 0l49.998 302.001c-15.333 -10.667 -32 -18.834 -50 -24.501s-36.667 -8.5 -56 -8.5c-23.333 0 -44.5 4.33301 -63.5 13s-34.667 21 -47 37s-21.166 35 -26.499 57s-5.66602 46.667 -0.999023 74h66c-6 -36.667 -0.833008 -65.334 15.5 -86.001s38.5 -31 66.5 -31
s53.667 10.333 77 31s38 49.334 44 86.001h67l-75 -450h-67z" />
    <glyph glyph-name="saraathai" unicode="&#xe30;" horiz-adv-x="214" 
d="M150 287c-20 0 -35.832 7.16895 -47.499 21.502s-15.834 31.166 -12.501 50.499l6 36h63l-6 -36c-0.666992 -2.66699 -0.166992 -4.83398 1.5 -6.50098s3.16699 -2.5 4.5 -2.5h82l-10 -62zM109.001 43.002c-20 0 -35.832 7.16895 -47.499 21.502
s-15.834 31.166 -12.501 50.499l6 36h63l-6 -36c-0.666992 -2.66699 -0.166992 -4.83398 1.5 -6.50098s3.16699 -2.5 4.5 -2.5h82l-10 -63h-81z" />
    <glyph glyph-name="maihanakatthai" unicode="&#xe31;" 
d="M-135 519c-19.333 0 -34.832 7.16797 -46.499 21.501s-15.834 31.166 -12.501 50.499l7 41h63l-7 -41c0 -5.33301 2.33301 -8 7 -8h221l-10 -63z" />
    <glyph glyph-name="saraaathai" unicode="&#xe32;" horiz-adv-x="340" 
d="M300 0l-66.0029 -0.00195312l47 285c6 34.667 2 61.334 -12 80.001s-38 28 -72 28c-17.333 0 -33 -2.66699 -47 -8s-29.667 -15.666 -47 -30.999l-39 46c24.667 20 48.334 34.333 71.001 43s47.334 13 74.001 13c28.667 0 52.834 -4.33301 72.501 -13s35 -20.5 46 -35.5
s18.167 -32.333 21.5 -52s3.33301 -40.5 0 -62.5z" />
    <glyph glyph-name="saraamthai" unicode="&#xe33;" horiz-adv-x="340" 
d="M94 575c-4 -19.333 -13.832 -36.002 -29.499 -50.002s-33.834 -21 -54.501 -21c-19.333 0 -34.833 7 -46.5 21s-15.834 30.667 -12.501 50c1.33301 10 4.5 19.333 9.5 28s11.333 16.334 19 23.001s16.167 11.834 25.5 15.501s19 5.5 29 5.5c20 0 35.833 -7 47.5 -21
s15.834 -31 12.501 -51zM300.001 -0.00195312l-67.001 -0.00195312l47 285c6 34.667 2 61.334 -12 80.001s-38 28 -72 28c-16.667 0 -32 -2.66699 -46 -8s-29.667 -15.666 -47 -30.999l-39 46c24 20 47.5 34.333 70.5 43s47.833 13 74.5 13
c28.667 0 52.834 -4.33301 72.501 -13s35 -20.5 46 -35.5s18.167 -32.333 21.5 -52s3.33301 -40.5 0 -62.5zM45 574.996c1.33301 6.66699 0.166016 12.167 -3.50098 16.5s-8.83398 6.5 -15.501 6.5s-12.667 -2.16699 -18 -6.5s-8.33301 -9.83301 -9 -16.5
c-1.33301 -6.66699 -0.166016 -12.334 3.50098 -17.001s8.83398 -7 15.501 -7s12.5 2.33301 17.5 7s8.16699 10.334 9.5 17.001z" />
    <glyph glyph-name="saraithai" unicode="&#xe34;" 
d="M-319 520l11 63h365l-10 -63h-366z" />
    <glyph glyph-name="saraiithai" unicode="&#xe35;" 
d="M-319 520l11 63h303l9 60h63l-20 -123h-366z" />
    <glyph glyph-name="sarauethai" unicode="&#xe36;" 
d="M63 582c-3.33301 -17.333 -12 -31.999 -26 -43.999s-29 -18 -45 -18h-311l11 63h249c3.33301 17.333 11.833 31.666 25.5 42.999s28.5 17 44.5 17c17.333 0 31 -5.83301 41 -17.5s13.667 -26.167 11 -43.5zM22 581.001c0.666992 5.33301 -0.833008 10.166 -4.5 14.499
s-8.16699 6.5 -13.5 6.5s-10.333 -2.16699 -15 -6.5s-7.33398 -9.16602 -8.00098 -14.499c-1.33301 -5.33301 -0.166016 -10.166 3.50098 -14.499s8.16699 -6.5 13.5 -6.5s10.333 2.16699 15 6.5s7.66699 9.16602 9 14.499z" />
    <glyph glyph-name="saraueethai" unicode="&#xe37;" 
d="M-319 520l11 63h198l10 60h62l-10 -60h43l9 60h63l-20 -123h-366z" />
    <glyph glyph-name="sarauthai" unicode="&#xe38;" 
d="M-134 -188l13 80h-40l11 64h68c10 0 17.667 -3.5 23 -10.5s7.33301 -15.167 6 -24.5l-18 -109h-63z" />
    <glyph glyph-name="sarauuthai" unicode="&#xe39;" 
d="M-59 -114c-2 -12 -6.16895 -23.3311 -12.502 -33.998s-14 -19.834 -23 -27.501s-19 -13.834 -30 -18.501s-22.5 -7 -34.5 -7c-24 0 -43.167 8.5 -57.5 25.5s-19.5 37.5 -15.5 61.5l1 6h-40l11 64h103l-12 -70c-1.33301 -6.66699 -0.166016 -12.334 3.50098 -17.001
s8.83398 -7 15.501 -7c7.33301 0 13.5 2.33301 18.5 7s8.16699 10.334 9.5 17.001l12 70h63z" />
    <glyph glyph-name="phinthuthai" unicode="&#xe3a;" 
d="M-42 -81c-2 -12 -8 -22.333 -18 -31s-21 -13 -33 -13s-21.667 4.33301 -29 13s-10 19 -8 31s8 22.333 18 31s21 13 33 13s21.667 -4.33301 29 -13s10 -19 8 -31z" />
    <glyph glyph-name="PUCR2005" unicode="&#xe3e;" 
 />
    <glyph glyph-name="bahtthai" unicode="&#xe3f;" horiz-adv-x="390" 
d="M397 155c-4 -24 -11.6699 -45.335 -23.0029 -64.002s-25.166 -34.667 -41.499 -48s-35 -23.666 -56 -30.999s-42.833 -11.333 -65.5 -12l-14 -81h-60l14 81h-113l88 528h113l13 76h60l-13 -78c38 -5.33301 64.5 -21.166 79.5 -47.499s19.167 -58.5 12.5 -96.5
c-3.33301 -20 -9.16602 -37.833 -17.499 -53.5s-21.166 -30.167 -38.499 -43.5c24.667 -12.667 42.5 -30 53.5 -52s13.833 -48 8.5 -78zM329.997 385.998c7.33301 40 -6.66504 65.6689 -41.998 77.002l-26 -157c19.333 5.33301 34.666 15.166 45.999 29.499
s18.666 31.166 21.999 50.499zM228.999 468h-52l-28 -166h52zM334.999 154c2.66699 16 2.33203 29.332 -1.00098 39.999s-9 19.334 -17 26.001s-17.667 11.5 -29 14.5s-23.666 5.16699 -36.999 6.5l-31 -182c28 2 52.833 10.833 74.5 26.5s35.167 38.5 40.5 68.5z
M190.997 241.999h-52l-31 -183h52z" />
    <glyph glyph-name="saraethai" unicode="&#xe40;" horiz-adv-x="177" 
d="M55 0l75 450h67l-75 -450h-67z" />
    <glyph glyph-name="saraaethai" unicode="&#xe41;" horiz-adv-x="324" 
d="M202 0l75 450h67l-75 -450h-67zM55 0l75 450h67l-75 -450h-67z" />
    <glyph glyph-name="saraothai" unicode="&#xe42;" horiz-adv-x="184" 
d="M162 587c-3.33301 0 -6.66504 -0.498047 -9.99805 -1.49805s-5.66602 -3.16699 -6.99902 -6.5c0 -4 3 -8 9 -12c17.333 -11.333 30.833 -23.833 40.5 -37.5s12.167 -32.834 7.5 -57.501l-78 -472h-67l79 473c1.33301 11.333 -1.5 20.333 -8.5 27s-14.167 12.667 -21.5 18
c-8.66699 6 -16 14.167 -22 24.5s-7.66699 23.166 -5 38.499c2.66699 14.667 7.66699 26.5 15 35.5s15.666 16 24.999 21s19.166 8.33301 29.499 10s20.166 2.5 29.499 2.5h131l-10 -63h-137z" />
    <glyph glyph-name="saraaimaimuanthai" unicode="&#xe43;" horiz-adv-x="184" 
d="M281 542c-2.66699 -16 -8.33496 -31.001 -17.002 -45.001s-18.667 -26 -30 -36l-38 -32l-71 -429h-67l76 456c4 4 10.333 9.33301 19 16s17.167 13.834 25.5 21.501s16 15.667 23 24s11.167 16.5 12.5 24.5c2 12.667 -0.666992 23.667 -8 33s-17.666 14 -30.999 14
s-25.5 -5.33301 -36.5 -16s-18.5 -27.334 -22.5 -50.001h-67c7.33301 40.667 23.833 72.834 49.5 96.501s54.5 35.5 86.5 35.5c16 0 30.5 -3 43.5 -9s23.833 -14 32.5 -24s14.834 -21.833 18.501 -35.5s4.16699 -28.5 1.5 -44.5z" />
    <glyph glyph-name="saraaimaimalaithai" unicode="&#xe44;" horiz-adv-x="184" 
d="M300 581c-2.66699 -15.333 -8.83301 -28.165 -18.5 -38.498s-19.834 -18.5 -30.501 -24.5c-9.33301 -5.33301 -18.666 -11.333 -27.999 -18s-14.666 -15.667 -15.999 -27l-79 -473h-67l78 472c4.66699 25.333 14 44.666 28 57.999s31.333 25.666 52 36.999
c8.66699 4 13 8 13 12c1.33301 3.33301 0.333008 5.5 -3 6.5s-6.66602 1.5 -9.99902 1.5h-138l10 63h131c9.33301 0 19.166 -0.833008 29.499 -2.5s19.5 -5 27.5 -10s14.167 -12 18.5 -21s5.16602 -20.833 2.49902 -35.5z" />
    <glyph glyph-name="lakkhangyaothai" unicode="&#xe45;" horiz-adv-x="345" 
d="M271 -171l-66.0029 -0.00195312l76 456c6 34.667 2 61.334 -12 80.001s-38 28 -72 28c-17.333 0 -33 -2.66699 -47 -8s-29.667 -15.666 -47 -30.999l-39 46c24.667 20 48.334 34.333 71.001 43s47.334 13 74.001 13c28.667 0 52.834 -4.33301 72.501 -13
s35 -20.5 46 -35.5s18.167 -32.333 21.5 -52s3.33301 -40.5 0 -62.5z" />
    <glyph glyph-name="maiyamokthai" unicode="&#xe46;" horiz-adv-x="473" 
d="M320 -171l75.001 449.002c3.33301 20.667 1.66602 39.667 -5.00098 57s-17.334 31.666 -32.001 42.999l-81 -69l-57 69c-18.667 -11.333 -34.334 -25.833 -47.001 -43.5s-20.667 -36.834 -24 -57.501c-3.33301 -16.667 -2.66602 -32.667 2.00098 -48
s14.334 -32 29.001 -50l-53 -46c-38 46 -52.667 94 -44 144c6.66699 40 24.5 76 53.5 108s65.5 55.667 109.5 71l46 -56l67 56c38.667 -15.333 67 -38.833 85 -70.5s23.667 -67.5 17 -107.5l-75 -449h-66z" />
    <glyph glyph-name="maitaikhuthai" unicode="&#xe47;" 
d="M-179 652c-10.667 0 -19.499 -3.83301 -26.499 -11.5s-11.5 -16.834 -13.5 -27.501c-1.33301 -10 0.166992 -18.833 4.5 -26.5s11.5 -11.5 21.5 -11.5c9.33301 0 17.666 3.5 24.999 10.5s12.666 19.167 15.999 36.5h59c-3.33301 -17.333 -2.16602 -29.5 3.50098 -36.5
s12.834 -10.5 21.501 -10.5c9.33301 0 17.666 3.5 24.999 10.5s12.666 19.167 15.999 36.5h60c-6 -34 -19.5 -60.333 -40.5 -79s-44.167 -28 -69.5 -28c-12.667 0 -24 2.33301 -34 7s-18.333 10.667 -25 18c-9.33301 -7.33301 -19.666 -13.333 -30.999 -18s-23 -7 -35 -7
c-28 0 -49 9.16699 -63 27.5s-18.667 41.833 -14 70.5c5.33301 28.667 18 52.334 38 71.001s44 28 72 28h248l-10 -60h-248z" />
    <glyph glyph-name="maiekthai" unicode="&#xe48;" 
d="M11 678l21 123h62l-21 -123h-62z" />
    <glyph glyph-name="maithothai" unicode="&#xe49;" 
d="M-109 677l14.4971 17.5l19.5 23c6.66699 7.66699 12.334 14.5 17.001 20.5s7 9.66699 7 11c2 12 -1.66699 18 -11 18c-6 0 -11 -2 -15 -6l-33 40c16.667 14 35.334 21 56.001 21c21.333 0 37.833 -6.83301 49.5 -20.5s15.834 -30.5 12.501 -50.5
c-0.666992 -6 -2.66699 -10.667 -6 -14c1.33301 0 3 0.166992 5 0.5s3.66699 0.5 5 0.5h5h106l-10 -61h-222z" />
    <glyph glyph-name="maitrithai" unicode="&#xe4a;" 
d="M-15 678l34.001 49.9971c1.33301 1.33301 2.16602 2.83301 2.49902 4.5s0.833008 2.83398 1.5 3.50098c0.666992 3.33301 -0.166016 6.5 -2.49902 9.5s-5.16602 4.5 -8.49902 4.5c-2.66699 0 -6 -1.16699 -10 -3.5s-7 -8.83301 -9 -19.5h-52
c1.33301 9.33301 1 15.5 -1 18.5s-5.33301 4.5 -10 4.5c-4 0 -7.33301 -1.66699 -10 -5s-4.66699 -6.66602 -6 -9.99902v-9c0 -4.66699 4.66699 -9.66699 14 -15l-46 -39c-11.333 11.333 -18.833 22 -22.5 32s-4.83398 20.333 -3.50098 31
c3.33301 19.333 13.166 36 29.499 50s34.166 21 53.499 21c7.33301 0 14.833 -1.5 22.5 -4.5s13.167 -6.83301 16.5 -11.5c4.66699 4.66699 10.834 8.5 18.501 11.5s15.5 4.5 23.5 4.5c19.333 0 34.833 -6.66699 46.5 -20s16.167 -29.666 13.5 -48.999h66l-10 -59h-151z" />
    <glyph glyph-name="maichattawathai" unicode="&#xe4b;" 
d="M80 722l-7 -44h-63l7 43h-41l9 54h41l8 44h63l-8 -43h42l-9 -54h-42z" />
    <glyph glyph-name="thanthakhatthai" unicode="&#xe4c;" 
d="M32 701c-1.33301 0 -3.33105 -0.833984 -5.99805 -2.50098s-4.33398 -4.16699 -5.00098 -7.5c-0.666992 -2 -0.333984 -4.5 0.999023 -7.5s5.33301 -7.5 12 -13.5l-48 -41c-11.333 12.667 -18.5 23.834 -21.5 33.501s-3.83301 19.167 -2.5 28.5
c4 19.333 13.5 35.833 28.5 49.5s32.167 20.5 51.5 20.5h70l-10 -60h-70z" />
    <glyph glyph-name="nikhahitthai" unicode="&#xe4d;" 
d="M94 575c-4 -19.333 -13.832 -36.002 -29.499 -50.002s-33.834 -21 -54.501 -21c-19.333 0 -34.833 7 -46.5 21s-15.834 30.667 -12.501 50c1.33301 10 4.5 19.333 9.5 28s11.333 16.334 19 23.001s16.167 11.834 25.5 15.501s19 5.5 29 5.5c20 0 35.833 -7 47.5 -21
s15.834 -31 12.501 -51zM45.001 574.998c1.33301 6.66699 0.166016 12.167 -3.50098 16.5s-8.83398 6.5 -15.501 6.5s-12.667 -2.16699 -18 -6.5s-8.33301 -9.83301 -9 -16.5c-1.33301 -6.66699 -0.166016 -12.334 3.50098 -17.001s8.83398 -7 15.501 -7
s12.5 2.33301 17.5 7s8.16699 10.334 9.5 17.001z" />
    <glyph glyph-name="yamakkanthai" unicode="&#xe4e;" 
d="M52 680c-10 10.667 -18.668 15.998 -26.001 15.998c-9.33301 0 -17.833 -3.16699 -25.5 -9.5s-12.167 -14.166 -13.5 -23.499s1.16699 -17.166 7.5 -23.499s16.833 -9.5 31.5 -9.5l-8 -47c-14.667 0 -26.167 -3.16699 -34.5 -9.5s-13.166 -14.166 -14.499 -23.499
s1 -17.166 7 -23.499s16.333 -9.5 31 -9.5l-7 -47c-28 0 -49.167 7.83301 -63.5 23.5s-19.5 34.5 -15.5 56.5c1.33301 11.333 5 21.666 11 30.999s13.333 17.666 22 24.999c-13.333 14.667 -18.333 33.667 -15 57c4 22 15.167 40.833 33.5 56.5s38.833 23.5 61.5 23.5
c21.333 0 41 -10 59 -30z" />
    <glyph glyph-name="fongmanthai" unicode="&#xe4f;" horiz-adv-x="530" 
d="M520 212c-5.33301 -30 -15.999 -58.333 -31.999 -85s-35.667 -50 -59 -70s-49.333 -35.833 -78 -47.5s-58 -17.5 -88 -17.5s-57.333 5.83301 -82 17.5s-45.334 27.5 -62.001 47.5s-28.667 43.333 -36 70s-8.33301 55 -3 85c4.66699 30 15.167 58.333 31.5 85
s36.166 50 59.499 70s49.333 35.833 78 47.5s58 17.5 88 17.5c30.667 0 58.334 -5.83301 83.001 -17.5s45.167 -27.5 61.5 -47.5s28 -43.333 35 -70s8.16699 -55 3.5 -85zM418.001 212c-2.66699 -16 -8.33301 -31.167 -17 -45.5s-19.334 -26.833 -32.001 -37.5
s-26.667 -19.167 -42 -25.5s-31 -9.5 -47 -9.5s-30.667 3.16699 -44 9.5s-24.5 14.833 -33.5 25.5s-15.333 23.167 -19 37.5s-4.16699 29.5 -1.5 45.5s8.33398 31.167 17.001 45.5s19.167 26.833 31.5 37.5s26.333 19.167 42 25.5s31.5 9.5 47.5 9.5
s30.667 -3.16699 44 -9.5s24.5 -14.833 33.5 -25.5s15.333 -23.167 19 -37.5s4.16699 -29.5 1.5 -45.5zM363.002 212c3.33301 17.333 -0.166992 32.166 -10.5 44.499s-24.166 18.5 -41.499 18.5s-33.166 -6.16699 -47.499 -18.5s-23.166 -27.166 -26.499 -44.499
s0.166992 -32.166 10.5 -44.499s24.166 -18.5 41.499 -18.5s33.166 6.16699 47.499 18.5s23.166 27.166 26.499 44.499zM463.002 211c4 22.667 3.33301 43.8359 -2 63.5029s-14.166 37 -26.499 52s-27.666 26.833 -45.999 35.5s-38.833 13 -61.5 13
s-44.5 -4.33301 -65.5 -13s-40 -20.334 -57 -35.001s-31.5 -31.834 -43.5 -51.501s-20 -40.834 -24 -63.501s-3.33301 -43.834 2 -63.501s14.166 -36.834 26.499 -51.501s27.666 -26.334 45.999 -35.001s38.833 -13 61.5 -13s44.5 4.33301 65.5 13s40 20.334 57 35.001
s31.333 31.834 43 51.501s19.5 40.834 23.5 63.501z" />
    <glyph glyph-name="zerothai" unicode="&#xe50;" horiz-adv-x="442" 
d="M454 188c-4.66699 -27.333 -14.334 -53 -29.001 -77s-32.5 -44.833 -53.5 -62.5s-44.5 -31.667 -70.5 -42s-53 -15.5 -81 -15.5s-53.333 5.16699 -76 15.5s-41.667 24.333 -57 42s-26.166 38.5 -32.499 62.5s-7.16602 49.667 -2.49902 77s14.334 53 29.001 77
s32.5 44.833 53.5 62.5s44.5 31.667 70.5 42s53 15.5 81 15.5s53.333 -5.16699 76 -15.5s41.667 -24.333 57 -42s26.166 -38.5 32.499 -62.5s7.16602 -49.667 2.49902 -77zM387 188c2.66699 18 1.83594 35 -2.49707 51s-11.5 30 -21.5 42s-22.5 21.5 -37.5 28.5
s-31.833 10.5 -50.5 10.5c-18 0 -35.833 -3.5 -53.5 -10.5s-33.667 -16.5 -48 -28.5s-26.333 -26 -36 -42s-15.834 -33 -18.501 -51c-3.33301 -18 -2.83301 -35 1.5 -51s11.666 -30 21.999 -42s23.166 -21.5 38.499 -28.5s32 -10.5 50 -10.5c18.667 0 36.667 3.5 54 10.5
s33 16.5 47 28.5s25.833 26 35.5 42s16.167 33 19.5 51z" />
    <glyph glyph-name="onethai" unicode="&#xe51;" horiz-adv-x="442" 
d="M449 188c-4.66699 -27.333 -14.3311 -52.999 -28.998 -76.999s-32.5 -44.833 -53.5 -62.5s-44.5 -31.667 -70.5 -42s-53 -15.5 -81 -15.5c-54.667 0 -102.667 23.667 -144 71l55 46c15.333 -18.667 31.166 -32 47.499 -40s33.833 -12 52.5 -12s36.667 3.5 54 10.5
s33 16.5 47 28.5s25.833 26 35.5 42s16.167 33 19.5 51c2.66699 18 1.83398 35 -2.49902 51s-11.5 30 -21.5 42s-22.5 21.5 -37.5 28.5s-31.833 10.5 -50.5 10.5c-28 0 -53.833 -7 -77.5 -21s-42.167 -31 -55.5 -51c-6 -9.33301 -8 -16.166 -6 -20.499s5.66699 -6.5 11 -6.5
h66l-10 -65h-68c-20 0 -35.167 4.16699 -45.5 12.5s-16.833 18.833 -19.5 31.5s-2.16699 26.167 1.5 40.5s9.5 27.166 17.5 38.499c10 15.333 22.167 29.5 36.5 42.5s30 24.167 47 33.5s35.167 16.666 54.5 21.999s39 8 59 8c28 0 53.333 -5.16699 76 -15.5
s41.667 -24.333 57 -42s26.166 -38.5 32.499 -62.5s7.16602 -49.667 2.49902 -77z" />
    <glyph glyph-name="twothai" unicode="&#xe52;" horiz-adv-x="510" 
d="M508 207c-5.33301 -32.667 -15.5059 -61.9971 -30.5059 -87.9971s-33.5 -48.167 -55.5 -66.5s-47.167 -32.5 -75.5 -42.5s-58.5 -15 -90.5 -15c-33.333 0 -62.5 5.33301 -87.5 16s-45.333 25.5 -61 44.5s-26.5 41.333 -32.5 67s-6.33301 53.167 -1 82.5l43 259h67
l-43 -259c-3.33301 -20.667 -3.16602 -39.834 0.500977 -57.501s10.834 -33 21.501 -46s24.667 -23.167 42 -30.5s38 -11 62 -11c46 0 84.667 13 116 39s50.666 62 57.999 108c1.33301 7.33301 2.83301 17.5 4.5 30.5s2.33398 25.667 2.00098 38
s-2.66602 23.166 -6.99902 32.499s-11.833 14 -22.5 14c-9.33301 0 -17.666 -3 -24.999 -9s-11.666 -13.667 -12.999 -23c0 -1.33301 -0.666992 -5.16602 -2 -11.499s-2.66602 -14.5 -3.99902 -24.5h-66c1.33301 10 2.66602 18.167 3.99902 24.5s2 10.166 2 11.499
c1.33301 9.33301 -0.833984 17 -6.50098 23s-14.167 9 -25.5 9s-20.833 -3.66699 -28.5 -11s-12.5 -16.666 -14.5 -27.999c-1.33301 -6 -0.166016 -12.333 3.50098 -19s13.5 -14.667 29.5 -24l-59 -49c-19.333 15.333 -31.5 30.666 -36.5 45.999s-6.5 30.666 -4.5 45.999
c2 12.667 6.33301 25.334 13 38.001s15.167 24 25.5 34s22.5 18 36.5 24s29.333 9 46 9c13.333 0 25.833 -2.5 37.5 -7.5s21.167 -11.5 28.5 -19.5c10.667 8 22.334 14.5 35.001 19.5s25.667 7.5 39 7.5c24.667 0 42.834 -6.5 54.501 -19.5s19.5 -28.833 23.5 -47.5
s5.16699 -38.334 3.5 -59.001s-3.83398 -39 -6.50098 -55z" />
    <glyph glyph-name="threethai" unicode="&#xe53;" horiz-adv-x="509" 
d="M518 195c-7.33301 -46 -26.8359 -87.5039 -58.5029 -124.504s-74.5 -65.167 -128.5 -84.5l-21 58c42 14.667 74.833 35 98.5 61s38.167 56 43.5 90c4 24.667 1.83301 47.334 -6.5 68.001s-21.5 37 -39.5 49l-110 -94l-82 98c-26.667 -14 -48 -33 -64 -57
s-26.333 -49 -31 -75c-2.66699 -17.333 -2.83398 -33.666 -0.500977 -48.999s7.16602 -28.833 14.499 -40.5s16.833 -21.167 28.5 -28.5s25.5 -11.333 41.5 -12c2.66699 0 6.66699 1 12 3s14.333 6.66699 27 14l17 -60c-15.333 -7.33301 -28.166 -12.5 -38.499 -15.5
s-19.5 -4.5 -27.5 -4.5c-28 0.666992 -51.667 6.83398 -71 18.501s-34.666 26.667 -45.999 45s-18.833 38.833 -22.5 61.5s-3.5 45.667 0.5 69c3.33301 20.667 9.5 41.334 18.5 62.001s21.333 40.167 37 58.5s34.334 34.833 56.001 49.5s46.834 26.667 75.501 36l70 -83
l96 81c42 -17.333 72.833 -43 92.5 -77s25.834 -73 18.501 -117z" />
    <glyph glyph-name="fourthai" unicode="&#xe54;" horiz-adv-x="460" 
d="M490 346c-6.66699 -7.33301 -14.666 -13.3359 -23.999 -18.0029s-19.666 -7 -30.999 -7h-157c-18 0 -35.833 -3.5 -53.5 -10.5s-33.667 -16.5 -48 -28.5s-26.5 -26 -36.5 -42s-16.333 -33 -19 -51c-3.33301 -18 -2.66602 -35 2.00098 -51s12.167 -29.833 22.5 -41.5
s23.166 -21 38.499 -28s32 -10.5 50 -10.5c27.333 0 54 7 80 21l-46 54c-6.66699 8 -12.334 16.167 -17.001 24.5s-7.16699 16.833 -7.5 25.5s1.66699 17.334 6 26.001s11.833 17.334 22.5 26.001l36 31l40 -46l-36 -29l138 -161l-55 -46l-40 47
c-20 -12 -41.333 -21.333 -64 -28s-45.334 -10 -68.001 -10c-28 0 -53.333 5.16699 -76 15.5s-41.5 24.333 -56.5 42s-25.833 38.334 -32.5 62.001s-7.66699 49.167 -3 76.5s14.334 53 29.001 77s32.5 44.833 53.5 62.5s44.5 31.667 70.5 42s53 15.5 81 15.5h154
c1.33301 0 2.66602 0.666992 3.99902 2l69 74l49 -37z" />
    <glyph glyph-name="fivethai" unicode="&#xe55;" horiz-adv-x="460" 
d="M491 347c-7.33301 -7.33301 -15.501 -13.1699 -24.501 -17.5029s-19.167 -6.5 -30.5 -6.5h-158c-18.667 0 -36.834 -3.5 -54.501 -10.5s-33.5 -16.5 -47.5 -28.5s-25.833 -26 -35.5 -42s-16.167 -33 -19.5 -51s-2.66602 -35 2.00098 -51s12.167 -30 22.5 -42
s23.166 -21.5 38.499 -28.5s32 -10.5 50 -10.5c13.333 0 26.833 1.83301 40.5 5.5s26.834 8.83398 39.501 15.501l-46 54c-6.66699 8 -12.334 16.167 -17.001 24.5s-7.16699 16.833 -7.5 25.5s1.66699 17.334 6 26.001s11.833 17.334 22.5 26.001l36 31l40 -46l-35 -29
l137 -162l-55 -46l-40 49c-41.333 -26 -85.333 -39 -132 -39c-28 0 -53.333 5.16699 -76 15.5s-41.667 24.333 -57 42s-26.166 38.5 -32.499 62.5s-7.16602 49.667 -2.49902 77c4 22.667 11.333 44.167 22 64.5s24 38.833 40 55.5s34 31 54 43s41.333 21 64 27
c-0.666992 6 -0.666992 12.333 0 19c2 12 6.16699 22.833 12.5 32.5s14 18.167 23 25.5s19 13 30 17s22.167 6 33.5 6c22 0 40.167 -7.5 54.5 -22.5s19.5 -34.5 15.5 -58.5c0 -4 -1 -8 -3 -12h41c1.33301 0 3.33301 0.666992 6 2l68 74l49 -37zM352.999 399.996
c1.33301 9.33301 -0.499023 17.166 -5.49902 23.499s-12.167 9.5 -21.5 9.5s-18 -3.16699 -26 -9.5s-12.667 -14.166 -14 -23.499s0.833984 -17 6.50098 -23s13.167 -9 22.5 -9s17.666 3 24.999 9s11.666 13.667 12.999 23z" />
    <glyph glyph-name="sixthai" unicode="&#xe56;" horiz-adv-x="435" 
d="M445 193c-4.66699 -27.333 -14.1689 -52.9951 -28.502 -76.9951s-32.166 -45 -53.499 -63s-45.166 -32.333 -71.499 -43s-53.5 -16 -81.5 -16c-36 0 -66 8 -90 24s-42.667 35.333 -56 58c-9.33301 16.667 -13.333 31.834 -12 45.501s6 26.5 14 38.5s18.333 23.333 31 34
l39 33l40 -46c-4 -3.33301 -9.83301 -7.33301 -17.5 -12s-14.667 -9.83398 -21 -15.501s-11.333 -11.834 -15 -18.501s-3.5 -13.334 0.5 -20.001c8 -16 21 -29.167 39 -39.5s38 -15.5 60 -15.5c18.667 0 36.667 3.5 54 10.5s33 16.5 47 28.5s26 26.167 36 42.5
s16.667 33.5 20 51.5c4 25.333 1 48.666 -9 69.999s-24.667 37.666 -44 48.999l-101 -87l-133 159l54 46l95 -113l81 70c22.667 -6.66699 42.5 -16.334 59.5 -29.001s30.833 -27.5 41.5 -44.5s18 -35.833 22 -56.5s4 -42 0 -64z" />
    <glyph glyph-name="seventhai" unicode="&#xe57;" horiz-adv-x="515" 
d="M518 197c-7.33301 -46 -26.8359 -87.502 -58.5029 -124.502s-74.5 -65.167 -128.5 -84.5l-21 58c42 14.667 74.833 35 98.5 61s38.167 56 43.5 90c4 23.333 2.16699 45.5 -5.5 66.5s-21.167 38.167 -40.5 51.5l-110 -95l-81 98c-28 -13.333 -49.833 -32 -65.5 -56
s-25.5 -49 -29.5 -75c-3.33301 -17.333 -3.83301 -33.666 -1.5 -48.999s7 -28.833 14 -40.5s16.5 -21.167 28.5 -28.5s26 -11.333 42 -12c2 0 5.83301 1 11.5 3s15.167 6.66699 28.5 14l17 -61c-16 -7.33301 -29.167 -12.5 -39.5 -15.5s-19.833 -4.16699 -28.5 -3.5
c-28 0.666992 -51.667 6.83398 -71 18.501s-34.666 26.5 -45.999 44.5s-18.666 38.333 -21.999 61s-3 45.667 1 69c3.33301 20.667 9.5 41.334 18.5 62.001s21.333 40.167 37 58.5s34.334 35 56.001 50s46.834 27.167 75.501 36.5l70 -84l96 82
c15.333 -6.66699 29.166 -13.834 41.499 -21.501s21.5 -18.167 27.5 -31.5l21 125h66z" />
    <glyph glyph-name="eightthai" unicode="&#xe58;" horiz-adv-x="518" 
d="M530 347c-7.33301 -7.33301 -15.8291 -13.3311 -25.4961 -17.998s-20.167 -7 -31.5 -7h-189c-19.333 0 -38.166 -3.5 -56.499 -10.5s-35 -16.833 -50 -29.5s-27.5 -27.334 -37.5 -44.001s-16.667 -34.667 -20 -54c-4 -26 -1.16699 -49.667 8.5 -71s24.167 -38 43.5 -50
l114 96l85 -100c19.333 3.33301 36.166 12.166 50.499 26.499s23.166 30.833 26.499 49.5c3.33301 21.333 -2.16699 39.666 -16.5 54.999s-37.5 23 -69.5 23l11 65c24.667 0 46.667 -3.66699 66 -11s35 -17.5 47 -30.5s20.5 -28.167 25.5 -45.5s5.83301 -36 2.5 -56
c-3.33301 -19.333 -10.333 -37.666 -21 -54.999s-23.834 -32.5 -39.501 -45.5s-33.5 -23.167 -53.5 -30.5s-41 -11 -63 -11l-66 77l-98 -82c-44 15.333 -76.833 40.333 -98.5 75s-28.834 75 -21.501 121c4.66699 28 14.5 54.333 29.5 79s33.5 46.167 55.5 64.5
s46.5 32.833 73.5 43.5s54.833 16 83.5 16h187c1.33301 0 2.66602 1 3.99902 3l69 74l49 -37z" />
    <glyph glyph-name="ninethai" unicode="&#xe59;" horiz-adv-x="526" 
d="M611 430l-25.0049 -32.5c-9.33301 -12.333 -19.333 -24 -30 -35s-21.667 -20.5 -33 -28.5s-23 -12.333 -35 -13c-13.333 -0.666992 -23.666 -0.666992 -30.999 0s-14.166 0.333984 -20.499 -0.999023s-13 -4.33301 -20 -9s-16.5 -13 -28.5 -25l127 -265l-60 -33l-153 320
c-6 9.33301 -17 14 -33 14c-15.333 0 -31 -3.5 -47 -10.5s-30.667 -16.5 -44 -28.5s-25 -26 -35 -42s-16.667 -33 -20 -51s-2.83301 -35 1.5 -51s11.666 -30 21.999 -42s23.166 -21.333 38.499 -28s32 -10 50 -10c9.33301 0 19.333 1 30 3s24.667 6.66699 42 14l21 -58
c-23.333 -9.33301 -42.833 -15.833 -58.5 -19.5s-30.834 -5.5 -45.501 -5.5c-28 0 -53.333 5.16699 -76 15.5s-41.667 24.333 -57 42s-26.166 38.5 -32.499 62.5s-7.16602 49.667 -2.49902 77c4.66699 26.667 14.167 52 28.5 76s31.833 45 52.5 63
s43.334 32.167 68.001 42.5s49.667 15.5 75 15.5c18 0 34.5 -3.83301 49.5 -11.5s26.167 -19.167 33.5 -34.5c12.667 11.333 23.834 20 33.501 26s19 10.167 28 12.5s18.833 3.66602 29.5 3.99902s23.334 0.5 38.001 0.5c4.66699 0 9.83398 2.33301 15.501 7
s11.667 10.667 18 18s12.833 15.5 19.5 24.5l19 26.5z" />
    <glyph glyph-name="angkhankhuthai" unicode="&#xe5a;" horiz-adv-x="557" 
d="M303 0l49.998 302.001c-15.333 -10.667 -32 -18.834 -50 -24.501s-36.667 -8.5 -56 -8.5c-23.333 0 -44.5 4.33301 -63.5 13s-34.667 21 -47 37s-21.166 35 -26.499 57s-5.66602 46.667 -0.999023 74h66c-6 -36.667 -0.833008 -65.334 15.5 -86.001s38.5 -31 66.5 -31
s53.667 10.333 77 31s38 49.334 44 86.001h67l-75 -450h-67zM591.998 450.001l-75 -450h-67l75 450h67z" />
    <glyph glyph-name="khomutthai" unicode="&#xe5b;" horiz-adv-x="1006" 
d="M805 199l-32 -41.9961l-24 -30.5c-7.33301 -9.66699 -12.333 -15.5 -15 -17.5c-1.33301 4.66699 -4.33301 13 -9 25l-15 38c-5.33301 13.333 -10.5 25.666 -15.5 36.999s-8.83301 19 -11.5 23c-2.66699 -5.33301 -8.5 -14.333 -17.5 -27l-30.5 -41.5l-35 -44.5l-30 -36
c-2 7.33301 -5.66699 18.166 -11 32.499s-11.166 29 -17.499 44l-18.5 42c-6 13 -10.667 22.167 -14 27.5c-7.33301 -24 -19 -47.5 -35 -70.5s-34.833 -43.333 -56.5 -61s-45.667 -31.834 -72 -42.501s-53.5 -16 -81.5 -16c-68.667 0 -118.167 17.333 -148.5 52
s-40.833 81 -31.5 139c4.66699 28.667 13.5 54 26.5 76s28.167 40.5 45.5 55.5s36 26.167 56 33.5s39.667 11 59 11c18 0 34.833 -2.83301 50.5 -8.5s28.5 -14.5 38.5 -26.5s16.333 -26.833 19 -44.5s0.333984 -38.5 -6.99902 -62.5l-59 -5
c9.33301 28 7.83301 49.333 -4.5 64s-28.833 22 -49.5 22c-10.667 0 -21.834 -2.33301 -33.501 -7s-22.667 -11.667 -33 -21s-19.5 -21.166 -27.5 -35.499s-13.667 -31.5 -17 -51.5c-4 -23.333 -3.5 -43.333 1.5 -60s13.333 -30.167 25 -40.5s26 -18 43 -23
s35.5 -7.5 55.5 -7.5c26.667 0 52.5 7.33301 77.5 22s46.5 33 64.5 55s31 46.167 39 72.5s8.66699 51.166 2 74.499l49 30c6.66699 -7.33301 14.5 -18.166 23.5 -32.499l27 -45c9 -15.667 17.167 -30.834 24.5 -45.501s12.666 -26 15.999 -34
c2 2.66699 5.83301 8.5 11.5 17.5l18.5 29.5l18.5 30.5c5.66699 9.66699 9.5 16.5 11.5 20.5l47 25c2 -2.66699 5.66699 -8.83398 11 -18.501l17 -31l16.5 -31.5c5 -10 8.16699 -16.667 9.5 -20c0.666992 0.666992 2.5 3.33398 5.5 8.00098l9.5 15l6 10
c2 3.33301 4.33301 6.66602 7 9.99902h213l-10 -62h-183z" />
    <glyph glyph-name="ZWSP" unicode="&#x200b;" 
 />
    <glyph glyph-name="endash" unicode="&#x2013;" horiz-adv-x="380" 
d="M39 145l10 60h350l-10 -60h-350z" />
    <glyph glyph-name="emdash" unicode="&#x2014;" horiz-adv-x="760" 
d="M39 145l10 60h730l-10 -60h-730z" />
    <glyph glyph-name="quoteleft" unicode="&#x2018;" horiz-adv-x="188" 
d="M236 568c-14.667 -8.66699 -27.001 -17.1689 -37.001 -25.502s-20 -19.166 -30 -32.499c16.667 -1.33301 28.667 -6.16602 36 -14.499s10 -18.166 8 -29.499c-2 -12 -8.16699 -22.667 -18.5 -32s-22.166 -14 -35.499 -14c-18 0 -30.333 6.33301 -37 19s-8.66699 26 -6 40
c3.33301 17.333 13 36.166 29 56.499s40 39.833 72 58.5z" />
    <glyph glyph-name="quoteright" unicode="&#x2019;" horiz-adv-x="188" 
d="M227 532c-3.33301 -17.333 -13.165 -36.165 -29.498 -56.498s-40.5 -39.833 -72.5 -58.5l-19 26c14 8 26 16.333 36 25s20.333 19.667 31 33c-16.667 1.33301 -28.834 6.16602 -36.501 14.499s-10.5 18.166 -8.5 29.499c2 12 8.16699 22.667 18.5 32s22.166 14 35.499 14
c18 0 30.5 -6.33301 37.5 -19s9.5 -26 7.5 -40z" />
    <glyph glyph-name="quotedblleft" unicode="&#x201c;" horiz-adv-x="308" 
d="M371 568c-14.667 -8.66699 -27.001 -17.1689 -37.001 -25.502s-20 -19.166 -30 -32.499c16.667 -1.33301 28.667 -6.16602 36 -14.499s10 -18.166 8 -29.499c-2 -12 -8.16699 -22.667 -18.5 -32s-22.166 -14 -35.499 -14c-18 0 -30.333 6.33301 -37 19s-8.66699 26 -6 40
c3.33301 17.333 13 36.166 29 56.499s40 39.833 72 58.5zM235.999 567.998c-14.667 -8.66699 -27.001 -17.1689 -37.001 -25.502s-20 -19.166 -30 -32.499c16.667 -1.33301 28.667 -6.16602 36 -14.499s10 -18.166 8 -29.499c-2 -12 -8.16699 -22.667 -18.5 -32
s-22.166 -14 -35.499 -14c-18 0 -30.333 6.33301 -37 19s-8.66699 26 -6 40c3.33301 17.333 13 36.166 29 56.499s40 39.833 72 58.5z" />
    <glyph glyph-name="quotedblright" unicode="&#x201d;" horiz-adv-x="315" 
d="M360 532c-3.33301 -17.333 -13.167 -36.165 -29.5 -56.498s-40.5 -39.833 -72.5 -58.5l-18 26c13.333 8 25 16.333 35 25s20.667 19.667 32 33c-17.333 1.33301 -29.666 6.16602 -36.999 14.499s-10 18.166 -8 29.499c2 12 8.16699 22.667 18.5 32s22.166 14 35.499 14
c18 0 30.333 -6.33301 37 -19s9 -26 7 -40zM224.999 532.001c-3.33301 -17.333 -13.167 -36.165 -29.5 -56.498s-40.5 -39.833 -72.5 -58.5l-18 26c13.333 8 25 16.333 35 25s20.667 19.667 32 33c-17.333 1.33301 -29.666 6.16602 -36.999 14.499s-10 18.166 -8 29.499
c2 12 8.16699 22.667 18.5 32s22.166 14 35.499 14c18 0 30.333 -6.33301 37 -19s9 -26 7 -40z" />
    <glyph glyph-name="bullet" unicode="&#x2022;" horiz-adv-x="381" 
d="M401 200c-4 -24.667 -12.5 -47.834 -25.5 -69.501s-29 -40.5 -48 -56.5s-40 -28.667 -63 -38s-46.833 -14 -71.5 -14s-47 4.66699 -67 14s-36.667 22 -50 38s-22.833 34.833 -28.5 56.5s-6.5 44.834 -2.5 69.501s12.5 47.834 25.5 69.501s29 40.5 48 56.5
s40 28.667 63 38s46.833 14 71.5 14s47 -4.66699 67 -14s36.667 -22 50 -38s22.833 -34.833 28.5 -56.5s6.5 -44.834 2.5 -69.501z" />
    <glyph glyph-name="Euro" unicode="&#x20ac;" horiz-adv-x="556" 
d="M524 51c-34 -22 -64.834 -37.166 -92.501 -45.499s-56.834 -12.5 -87.501 -12.5c-28.667 0 -55.5 4.33301 -80.5 13s-47.5 21 -67.5 37s-36.667 34.833 -50 56.5s-22.666 45.5 -27.999 71.5h-69l11 63h54c0 9.33301 1 19 3 29c0.666992 4 1.16699 8 1.5 12
s1.16602 7.66699 2.49902 11h-53l11 63h66c14 26.667 31.333 51.5 52 74.5s43.834 42.667 69.501 59s52.834 29.166 81.501 38.499s58 14 88 14c28 0 55.167 -4.16699 81.5 -12.5s52.166 -23.833 77.499 -46.5l-46 -55c-23.333 20 -45.333 32.833 -66 38.5
s-40.667 8.5 -60 8.5s-38.666 -3 -57.999 -9s-37.833 -14.167 -55.5 -24.5s-34 -22.833 -49 -37.5s-27.833 -30.667 -38.5 -48h182l-11 -63h-201c-1.33301 -4 -2.33301 -8.16699 -3 -12.5s-1.66699 -8.83301 -3 -13.5c-0.666992 -4.66699 -1.16699 -9 -1.5 -13
s-0.5 -8.33301 -0.5 -13h201l-11 -63h-179c11.333 -32 31.333 -58.667 60 -80s61.667 -32 99 -32c19.333 0 40.333 3 63 9s49 19 79 39z" />
    <glyph glyph-name="trademark" unicode="&#x2122;" horiz-adv-x="574" 
d="M548 214l-5 213l-119 -212h-20l-48 213l-78 -214h-41l115 314h24l51 -230l130 230h23l9 -314h-41zM227 488l-45 -269h-41l45 269h-72l7 41h185l-7 -41h-72z" />
    <glyph glyph-name="uni25CC" unicode="&#x25cc;" horiz-adv-x="670" 
d="M288 179l-50 -15l25 47c6.66699 -12 15 -22.667 25 -32zM381 413l30 45l15 -44c-3.33301 0.666992 -6.83301 1 -10.5 1h-10.5c-4 0 -8 -0.166992 -12 -0.5s-8 -0.833008 -12 -1.5zM381 156l-26.998 -42l-14 42c3.33301 -0.666992 6.83301 -1.16699 10.5 -1.5
s7.16699 -0.5 10.5 -0.5s6.66602 0.166992 9.99902 0.5s6.66602 0.833008 9.99902 1.5zM516.002 307l37.999 -22l-45 -19c1.33301 3.33301 2.33301 6.5 3 9.5s1.33398 6.16699 2.00098 9.5s1.16699 7 1.5 11s0.5 7.66699 0.5 11zM252.001 264l-41.001 23l48 22
c-3.33301 -8 -5.33301 -16 -6 -24c-0.666992 -3.33301 -1.16699 -6.83301 -1.5 -10.5s-0.166016 -7.16699 0.500977 -10.5zM291 363l-5.00098 46l42 -16c-13.333 -7.33301 -25.666 -17.333 -36.999 -30zM473.999 205l5 -41l-39 13c12.667 8 24 17.333 34 28zM474.999 393
l52 16.001l-25 -47c-6.66699 11.333 -15.667 21.666 -27 30.999z" />
    <glyph glyph-name="thothannobasethai" unicode="&#xf700;" horiz-adv-x="411" 
d="M398 387c9.33301 -15.333 15.833 -32 19.5 -50s3.83398 -36.667 0.500977 -56c-4 -22.667 -11.333 -42.667 -22 -60l-119 -221h-70l-53 285h70l34 -190l79 147c3.33301 7.33301 6.16602 14.333 8.49902 21s4.16602 12.667 5.49902 18
c2.66699 14.667 2.16699 28.667 -1.5 42s-9.83398 25 -18.501 35s-19.334 17.833 -32.001 23.5s-27 8.5 -43 8.5c-28 0 -54 -9.16699 -78 -27.5s-41 -44.5 -51 -78.5h-67c6.66699 26 16.834 49.5 30.501 70.5s29.834 39 48.501 54s38.834 26.5 60.501 34.5
s44.167 12 67.5 12c32.667 0 61.667 -8 87 -24l64 61l44 -44z" />
    <glyph glyph-name="saraileftthai" unicode="&#xf701;" 
d="M-346 520l11 63h290l-10 -63h-291z" />
    <glyph glyph-name="saraiileftthai" unicode="&#xf702;" 
d="M-346 520l11 63h226l10 60h64l-20 -123h-291z" />
    <glyph glyph-name="saraueleftthai" unicode="&#xf703;" 
d="M-37 582c-3.33301 -17.333 -12.001 -31.999 -26.001 -43.999s-29.333 -18 -46 -18h-237l11 63h175c3.33301 17.333 11.833 31.666 25.5 42.999s28.834 17 45.501 17c17.333 0 31 -5.83301 41 -17.5s13.667 -26.167 11 -43.5zM-78.001 581.001
c0.666992 5.33301 -0.833984 10.166 -4.50098 14.499s-8.16699 6.5 -13.5 6.5s-10.5 -2.16699 -15.5 -6.5s-7.83301 -9.16602 -8.5 -14.499c-1.33301 -5.33301 -0.166016 -10.166 3.50098 -14.499s8.16699 -6.5 13.5 -6.5s10.5 2.16699 15.5 6.5s8.16699 9.16602 9.5 14.499
z" />
    <glyph glyph-name="saraueeleftthai" unicode="&#xf704;" 
d="M-346 520l11 63h123l10 60h62l-10 -60h43l10 60h62l-20 -123h-291z" />
    <glyph glyph-name="maieklowleftthai" unicode="&#xf705;" 
d="M-168 519l26 151h65l-25 -150z" />
    <glyph glyph-name="maitholowleftthai" unicode="&#xf706;" 
d="M-262 519l15.999 17.998l20 22c6.66699 7.33301 12.334 13.833 17.001 19.5s7 9.5 7 11.5c2 11.333 -2.66699 17 -14 17c-4.66699 0 -9 -2 -13 -6l-34 41c9.33301 8 19 13.667 29 17s19.667 5 29 5c22 0 38.667 -6.66699 50 -20s15.333 -30 12 -50
c-0.666992 -3.33301 -1.66699 -6.16602 -3 -8.49902s-2.33301 -4.16602 -3 -5.49902h15h106l-10 -60z" />
    <glyph glyph-name="maitrilowleftthai" unicode="&#xf707;" 
d="M-182 519l27.0029 35.498c9.33301 12.333 14.666 22.833 15.999 31.5c1.33301 6.66699 -0.166992 11.834 -4.5 15.501s-9.16602 5.5 -14.499 5.5c-4 0 -9.5 -2 -16.5 -6s-11.5 -13 -13.5 -27h-46c2 14 0.666992 23 -4 27s-9.66699 6 -15 6c-12 0 -19.667 -7 -23 -21
c-0.666992 -2.66699 -0.666992 -6.5 0 -11.5s5.66699 -11.167 15 -18.5l-46 -39c-10.667 7.33301 -19.334 17 -26.001 29s-9 24.667 -7 38c2 10.667 5.83301 20.834 11.5 30.501s12.834 18 21.501 25s18.167 12.667 28.5 17s21.166 6.5 32.499 6.5
c9.33301 0 18.166 -1.33301 26.499 -4s14.833 -7.66699 19.5 -15c8.66699 7.33301 17.334 12.333 26.001 15s17.667 4 27 4c21.333 0 38.666 -7 51.999 -21s18.666 -32 15.999 -54c0 -1.33301 -0.5 -3.33301 -1.5 -6s-1.83301 -4.66699 -2.5 -6h53l-9 -56z" />
    <glyph glyph-name="maichattawalowleftthai" unicode="&#xf708;" 
d="M-112 575l-10 -56h-63l10 55h-55l9 59h55l10 56h63l-9 -55h55l-10 -59h-55z" />
    <glyph glyph-name="thanthakhatlowleftthai" unicode="&#xf709;" 
d="M-129 574c-1.33301 0 -3.33105 -0.665039 -5.99805 -1.99805s-4.33398 -3.66602 -5.00098 -6.99902c-0.666992 -2.66699 0 -4.83398 2 -6.50098s6 -6.16699 12 -13.5l-49 -42c-10.667 12 -17.834 22.667 -21.501 32s-4.5 19.666 -2.5 30.999
c3.33301 21.333 12.333 38.166 27 50.499s32.667 18.5 54 18.5h86l-10 -61h-87z" />
    <glyph glyph-name="maieklowrightthai" unicode="&#xf70a;" 
d="M-18 519l25 151h65l-25 -150z" />
    <glyph glyph-name="maitholowrightthai" unicode="&#xf70b;" 
d="M-141 519c4 4.66699 9.5 10.668 16.5 18.001s13.667 14.666 20 21.999l17 19.5c5 5.66699 7.5 9.5 7.5 11.5c1.33301 5.33301 0.5 9.5 -2.5 12.5s-7.16699 4.5 -12.5 4.5c-4.66699 0 -9 -2 -13 -6l-34 41c9.33301 8 19 13.667 29 17s19.667 5 29 5
c22 0 38.667 -6.66699 50 -20s15.333 -30 12 -50c-0.666992 -6 -2.66699 -10.667 -6 -14h15h110l-10 -60z" />
    <glyph glyph-name="maitrilowrightthai" unicode="&#xf70c;" 
d="M-81 519l26.5 36.4971c9.66699 13.667 15.167 23.834 16.5 30.501s-0.166992 11.834 -4.5 15.501s-9.16602 5.5 -14.499 5.5c-4 0 -9.5 -2 -16.5 -6s-11.5 -13 -13.5 -27h-46c2 14 0.666992 23 -4 27s-9.66699 6 -15 6c-12 0 -19.667 -7 -23 -21
c-0.666992 -2.66699 -0.666992 -6.5 0 -11.5s5.66699 -11.167 15 -18.5l-46 -39c-10.667 7.33301 -19.334 17 -26.001 29s-9 24.667 -7 38c2 10.667 5.83301 20.834 11.5 30.501s12.834 18 21.501 25s18.167 12.667 28.5 17s21.166 6.5 32.499 6.5
c9.33301 0 18.166 -1.33301 26.499 -4s14.833 -7.66699 19.5 -15c8.66699 7.33301 17.334 12.333 26.001 15s17.667 4 27 4c21.333 0 38.5 -7 51.5 -21s18.167 -32 15.5 -54c0 -1.33301 -0.5 -3.33301 -1.5 -6s-1.83301 -4.66699 -2.5 -6l79 1l-9 -57z" />
    <glyph glyph-name="maichattawalowrightthai" unicode="&#xf70d;" 
d="M56 575l-10 -56h-62l10 55h-55l9 59h54l10 56h63l-9 -55h55l-10 -59h-55z" />
    <glyph glyph-name="thanthakhatlowrightthai" unicode="&#xf70e;" 
d="M-11 574c-1.33301 0 -3.33105 -0.666016 -5.99805 -1.99902s-4.33398 -3.66602 -5.00098 -6.99902c-0.666992 -2.66699 0 -4.83398 2 -6.50098s5.66699 -6.16699 11 -13.5l-49 -42c-10.667 12 -17.834 22.667 -21.501 32s-4.5 19.666 -2.5 30.999c4 22 13.333 39 28 51
s32.667 18 54 18h84l-10 -61h-85z" />
    <glyph glyph-name="yoyingnobasethai" unicode="&#xf70f;" horiz-adv-x="745" 
d="M731 157c-4 -22.667 -12.1738 -44 -24.5068 -64s-27.666 -37.333 -45.999 -52s-38.666 -26.334 -60.999 -35.001s-45.5 -13 -69.5 -13c-23.333 0 -44.833 4.33301 -64.5 13s-36.167 20.334 -49.5 35.001s-22.833 32 -28.5 52s-6.5 41.333 -2.5 64l17 102
c6.66699 40 -1.66602 72 -24.999 96s-56.666 36 -99.999 36c-22.667 0 -45.167 -5.16699 -67.5 -15.5s-41.833 -23.5 -58.5 -39.5l24 -33l-40 -239h67l-10 -64h-134l47 281l-39 50c28 38 61.5 68.333 100.5 91s79.5 34 121.5 34c31.333 0 59.333 -4.83301 84 -14.5
s45 -23.334 61 -41.001s27.167 -38.5 33.5 -62.5s7.16602 -50.333 2.49902 -79l-17 -102c-2 -13.333 -1.33301 -26 2 -38s9 -22.5 17 -31.5s17.833 -16.167 29.5 -21.5s25.167 -8 40.5 -8c14.667 0 28.834 2.33301 42.501 7s25.834 11.334 36.501 20.001
s19.834 19.167 27.501 31.5s12.834 25.833 15.501 40.5l49 294l68 -1z" />
    <glyph glyph-name="maihanakatleftthai" unicode="&#xf710;" 
d="M-130 519c-19.333 0 -34.832 7.16797 -46.499 21.501s-15.834 31.166 -12.501 50.499l7 41h63l-7 -41c0 -5.33301 2.33301 -8 7 -8h236l-10 -63z" />
    <glyph glyph-name="nikhahitleftthai" unicode="&#xf711;" 
d="M-58 575c-4 -19.333 -13.832 -36.002 -29.499 -50.002s-33.834 -21 -54.501 -21c-19.333 0 -35 7 -47 21s-16.333 30.667 -13 50c1.33301 10 4.66602 19.333 9.99902 28s11.833 16.334 19.5 23.001s16.167 11.834 25.5 15.501s19 5.5 29 5.5c20 0 35.833 -7 47.5 -21
s15.834 -31 12.501 -51zM-105.999 574.998c1.33301 6.66699 -0.000976562 12.167 -4.00098 16.5s-9.33301 6.5 -16 6.5s-12.5 -2.16699 -17.5 -6.5s-8.16699 -9.83301 -9.5 -16.5s-0.166016 -12.334 3.50098 -17.001s8.83398 -7 15.501 -7s12.667 2.33301 18 7
s8.66602 10.334 9.99902 17.001z" />
    <glyph glyph-name="maitaikhuleftthai" unicode="&#xf712;" 
d="M-225 644c-9.33301 0 -16.835 -4.00195 -22.502 -12.002s-9.16699 -15.667 -10.5 -23s-0.333008 -14.666 3 -21.999s10 -11 20 -11c7.33301 0 14 3 20 9s10 15.333 12 28h58c-2 -13.333 -1.5 -22.833 1.5 -28.5s8.16699 -8.5 15.5 -8.5c16 0 26 12.333 30 37h58
c-5.33301 -30 -17.166 -53.167 -35.499 -69.5s-38.833 -24.5 -61.5 -24.5c-20.667 0 -37 7 -49 21c-7.33301 -7.33301 -16 -12.666 -26 -15.999s-20 -5 -30 -5c-25.333 0 -44.666 8.5 -57.999 25.5s-18 38.167 -14 63.5c5.33301 28.667 17.333 51.5 36 68.5s41 25.5 67 25.5
h204l-10 -58h-208z" />
    <glyph glyph-name="maiekupperleftthai" unicode="&#xf713;" 
d="M-89 683l20 123h61l-19 -123h-62z" />
    <glyph glyph-name="maithoupperleftthai" unicode="&#xf714;" 
d="M-148 683l14.499 17l19.5 22.5c6.66699 7.66699 12.334 14.5 17.001 20.5s7 9.66699 7 11c2 12 -1.66699 18 -11 18c-7.33301 0 -12.333 -2 -15 -6l-34 40c17.333 14.667 36.333 22 57 22c21.333 0 38 -7 50 -21s16.333 -31 13 -51c-1.33301 -6 -3.33301 -10.333 -6 -13
h15l105 1l-10 -61h-222z" />
    <glyph glyph-name="maitriupperleftthai" unicode="&#xf715;" 
d="M-77 682l35.0039 51.0029c1.33301 1.33301 2.16602 2.66602 2.49902 3.99902s0.833008 2.66602 1.5 3.99902c0.666992 3.33301 -0.166016 6.5 -2.49902 9.5s-5.16602 4.5 -8.49902 4.5s-7.16602 -1.33301 -11.499 -4s-7.16602 -9.33398 -8.49902 -20.001h-52
c1.33301 9.33301 1 15.666 -1 18.999s-5.33301 5 -10 5c-4 0 -7.5 -1.66699 -10.5 -5s-4.83301 -6.66602 -5.5 -9.99902v-9.5c0 -5 4.66699 -10.167 14 -15.5l-46 -39c-11.333 11.333 -18.833 22 -22.5 32s-4.83398 20.667 -3.50098 32c3.33301 19.333 13.166 36 29.499 50
s34.166 21 53.499 21c7.33301 0 14.666 -1.5 21.999 -4.5s12.666 -7.16699 15.999 -12.5c5.33301 4.66699 12 8.66699 20 12s16 5 24 5c19.333 0 34.666 -6.83301 45.999 -20.5s15.666 -30.167 12.999 -49.5h66l-10 -58z" />
    <glyph glyph-name="maichattawaupperleftthai" unicode="&#xf716;" 
d="M-22 722l-7 -44h-63l7 43h-42l9 54h42l8 44h62l-7 -43h41l-9 -54h-41z" />
    <glyph glyph-name="thanthakhatupperleftthai" unicode="&#xf717;" 
d="M-49 701c-1.33301 0 -3.33008 -0.833984 -5.99707 -2.50098s-4.33398 -4.16699 -5.00098 -7.5c-0.666992 -2 -0.333984 -4.5 0.999023 -7.5s5.33301 -7.5 12 -13.5l-49 -41c-11.333 12.667 -18.5 23.834 -21.5 33.501s-3.83301 19.167 -2.5 28.5
c4 19.333 13.667 35.833 29 49.5s32.666 20.5 51.999 20.5h69l-10 -60h-69z" />
    <glyph glyph-name="saraulowthai" unicode="&#xf718;" 
d="M-160 -343l13 80h-40l11 63h68c10 0 17.833 -3.33301 23.5 -10s7.5 -15 5.5 -25l-18 -108h-63z" />
    <glyph glyph-name="sarauulowthai" unicode="&#xf719;" 
d="M-85 -269c-2 -12 -6.16602 -23.3311 -12.499 -33.998s-14 -19.834 -23 -27.501s-19 -13.834 -30 -18.501s-22.5 -7 -34.5 -7c-24 0 -43.167 8.5 -57.5 25.5s-19.5 37.167 -15.5 60.5l1 7h-40l11 63h103l-12 -69c-1.33301 -6.66699 -0.333008 -12.334 3 -17.001
s8.66602 -7 15.999 -7s13.5 2.33301 18.5 7s8.16699 10.334 9.5 17.001l12 69h63l-12 -70v1z" />
    <glyph glyph-name="phinthulowthai" unicode="&#xf71a;" 
d="M-68 -238c-2.66699 -12.667 -9.00098 -23.167 -19.001 -31.5s-21 -12.5 -33 -12.5s-21.667 4.16699 -29 12.5s-9.66602 18.5 -6.99902 30.5c2 12.667 8 23.167 18 31.5s21 12.5 33 12.5s21.667 -4.16699 29 -12.5s10 -18.833 8 -31.5v1z" />
    <glyph glyph-name="lochula.short" unicode="&#xf71d;" horiz-adv-x="527" 
d="M566 478c-2 -14.667 -5.66992 -27.6699 -11.0029 -39.0029s-13.333 -20.666 -24 -27.999c7.33301 -10.667 11.833 -22.167 13.5 -34.5s1.16699 -26.166 -1.5 -41.499l-36 -215c-3.33301 -17.333 -9.66602 -33.5 -18.999 -48.5s-20.666 -28.167 -33.999 -39.5
s-28.333 -20.166 -45 -26.499s-34 -9.5 -52 -9.5c-18.667 0 -35.5 3.66699 -50.5 11s-27.5 17.333 -37.5 30c-13.333 -12.667 -28.833 -22.667 -46.5 -30s-36.167 -11 -55.5 -11c-17.333 0 -33.166 3.16699 -47.499 9.5s-26.5 15.166 -36.5 26.499s-17.167 24.5 -21.5 39.5
s-4.83301 31.167 -1.5 48.5l55 330h67l-55 -330c-3.33301 -16 0 -29.833 10 -41.5s23.667 -17.5 41 -17.5s32.833 5.83301 46.5 17.5s22.167 25.834 25.5 42.501l33 198h67l-33 -199c-3.33301 -16.667 0 -30.667 10 -42s23.667 -17 41 -17s32.833 5.83301 46.5 17.5
s22.167 25.5 25.5 41.5l35 214c3.33301 20.667 1.33301 35.167 -6 43.5s-18 12.5 -32 12.5h-56l10 60h59c19.333 0 32 1.66699 38 5s10.333 11.333 13 24l4 19h65z" />
    <glyph glyph-name="rulakkhangyao" unicode="&#xf881;" horiz-adv-x="649" 
d="M588 -170h-65.999l76 453c5.33301 34.667 1.16602 61.667 -12.501 81s-37.5 29 -71.5 29c-24.667 0 -46.667 -5.66699 -66 -17c20 -32.667 26.333 -71.667 19 -117l-72 -430h-66l71 430c6.66699 40 -1.5 72 -24.5 96s-55.5 36 -97.5 36c-22 0 -44 -5.33301 -66 -16
s-41.333 -24 -58 -40l24 -33l-39 -238h65l-11 -65h-132l47 281l-37 51c28 38 61.167 68.333 99.5 91s77.833 34 118.5 34c48 0 87.667 -11.667 119 -35c33.333 23.333 72.666 35 117.999 35c28.667 0 52.834 -4.5 72.501 -13.5s35 -21 46 -36s18.167 -32.333 21.5 -52
s3 -40.5 -1 -62.5z" />
    <glyph glyph-name="lulakkhangyao" unicode="&#xf882;" horiz-adv-x="649" 
d="M588 -170h-65.999l76 453c5.33301 34.667 1.16602 61.667 -12.501 81s-37.5 29 -71.5 29c-24.667 0 -46.667 -5.66699 -66 -17c20 -32.667 26.333 -71.667 19 -117l-72 -430h-67l72 430c6.66699 40 -1.5 72 -24.5 96s-55.5 36 -97.5 36c-22 0 -44 -5.16699 -66 -15.5
s-41 -23.5 -57 -39.5l24 -33l-51 -304h-110l11 65h43l36 216l-37 51c28 38 61.167 68.333 99.5 91s77.833 34 118.5 34c48 0 87.667 -11.667 119 -35c33.333 23.333 72.666 35 117.999 35c28.667 0 52.834 -4.5 72.501 -13.5s35 -21 46 -36s18.167 -32.333 21.5 -52
s3 -40.5 -1 -62.5z" />
    <glyph glyph-name=".null" 
 />
    <glyph glyph-name="nonmarkingreturn" horiz-adv-x="283" 
 />
    <glyph glyph-name="yamakkanleftthai" 
d="M-37 680c-10 10.667 -18.666 15.998 -25.999 15.998c-9.33301 0 -18 -3.16699 -26 -9.5s-12.667 -14.166 -14 -23.499s1.16699 -17.166 7.5 -23.499s17.166 -9.5 32.499 -9.5l-8 -47c-15.333 0 -27.166 -3.16699 -35.499 -9.5s-13.166 -14.166 -14.499 -23.499
s1 -17.166 7 -23.499s16.667 -9.5 32 -9.5l-8 -47c-28 0 -49.167 7.83301 -63.5 23.5s-19.5 34.5 -15.5 56.5c1.33301 11.333 5 21.666 11 30.999s13.333 17.666 22 24.999c-13.333 14.667 -18.333 33.667 -15 57c4 22 15.167 40.833 33.5 56.5s39.166 23.5 62.499 23.5
c21.333 0 40.666 -10 57.999 -30z" />
    <glyph glyph-name="saraamleft" horiz-adv-x="340" 
d="M300 0l-67.001 -0.00195312l47 285c6 34.667 2 61.334 -12 80.001s-38 28 -72 28c-16.667 0 -32 -2.66699 -46 -8s-29.667 -15.666 -47 -30.999l-39 46c24 20 47.5 34.333 70.5 43s47.833 13 74.5 13c28.667 0 52.834 -4.33301 72.501 -13s35 -20.5 46 -35.5
s18.167 -32.333 21.5 -52s3.33301 -40.5 0 -62.5zM-58.001 574.998c-4 -19.333 -13.832 -36.002 -29.499 -50.002s-33.834 -21 -54.501 -21c-19.333 0 -35 7 -47 21s-16.333 30.667 -13 50c1.33301 10 4.66602 19.333 9.99902 28s11.833 16.334 19.5 23.001
s16.167 11.834 25.5 15.501s19 5.5 29 5.5c20 0 35.833 -7 47.5 -21s15.834 -31 12.501 -51zM-106 574.996c1.33301 6.66699 -0.000976562 12.167 -4.00098 16.5s-9.33301 6.5 -16 6.5s-12.5 -2.16699 -17.5 -6.5s-8.16699 -9.83301 -9.5 -16.5
s-0.166016 -12.334 3.50098 -17.001s8.83398 -7 15.501 -7s12.667 2.33301 18 7s8.66602 10.334 9.99902 17.001z" />
    <glyph glyph-name="uni0E33.alt1" horiz-adv-x="340" 
d="M300 0l-67.001 -0.00195312l47 285c6 34.667 2 61.334 -12 80.001s-38 28 -72 28c-16.667 0 -32 -2.66699 -46 -8s-29.667 -15.666 -47 -30.999l-39 46c24 20 47.5 34.333 70.5 43s47.833 13 74.5 13c28.667 0 52.834 -4.33301 72.501 -13s35 -20.5 46 -35.5
s18.167 -32.333 21.5 -52s3.33301 -40.5 0 -62.5zM-58.001 574.998c-4 -19.333 -13.832 -36.002 -29.499 -50.002s-33.834 -21 -54.501 -21c-19.333 0 -35 7 -47 21s-16.333 30.667 -13 50c1.33301 10 4.66602 19.333 9.99902 28s11.833 16.334 19.5 23.001
s16.167 11.834 25.5 15.501s19 5.5 29 5.5c20 0 35.833 -7 47.5 -21s15.834 -31 12.501 -51zM-106 574.996c1.33301 6.66699 -0.000976562 12.167 -4.00098 16.5s-9.33301 6.5 -16 6.5s-12.5 -2.16699 -17.5 -6.5s-8.16699 -9.83301 -9.5 -16.5
s-0.166016 -12.334 3.50098 -17.001s8.83398 -7 15.501 -7s12.667 2.33301 18 7s8.66602 10.334 9.99902 17.001z" />
    <glyph glyph-name="sarainarrowthai" 
d="M-296 520l10 63h343l-10 -63h-343z" />
    <glyph glyph-name="saraiinarrowthai" 
d="M-296 520l10 63h281l9 60h63l-20 -123h-343z" />
    <glyph glyph-name="sarauenarrowthai" 
d="M63 582c-3.33301 -17.333 -11.832 -31.999 -25.499 -43.999s-28.5 -18 -44.5 -18h-289l10 63h227c3.33301 17.333 11.833 31.666 25.5 42.999s28.5 17 44.5 17c17.333 0 31.166 -5.83301 41.499 -17.5s13.833 -26.167 10.5 -43.5zM22.001 581.001
c1.33301 5.33301 -0.00292969 10.166 -4.00293 14.499s-8.66699 6.5 -14 6.5s-10.166 -2.16699 -14.499 -6.5s-7.16602 -9.16602 -8.49902 -14.499s-0.166016 -10.166 3.50098 -14.499s8.16699 -6.5 13.5 -6.5s10.333 2.16699 15 6.5s7.66699 9.16602 9 14.499z" />
    <glyph glyph-name="saraueenarrowthai" 
d="M-296 520l10 63h176l10 60h62l-10 -60h43l9 60h63l-20 -123h-343z" />
    <glyph glyph-name="sarauchochanthai" 
d="M-224 -188l13 80h-40l11 64h68c10 0 17.667 -3.5 23 -10.5s7.33301 -15.167 6 -24.5l-18 -109h-63z" />
    <glyph glyph-name="sarauuchochanthai" 
d="M-99 -114c-2 -12 -6.16895 -23.3311 -12.502 -33.998s-14 -19.834 -23 -27.501s-19 -13.834 -30 -18.501s-22.5 -7 -34.5 -7c-24 0 -43.167 8.5 -57.5 25.5s-19.5 37.5 -15.5 61.5l1 6h-40l11 64h103l-12 -70c-1.33301 -6.66699 -0.166016 -12.334 3.50098 -17.001
s8.83398 -7 15.501 -7c7.33301 0 13.5 2.33301 18.5 7s8.16699 10.334 9.5 17.001l12 70h63z" />
    </font>
</defs>
</svg>
