<svg xmlns="http://www.w3.org/2000/svg">
<defs>
<font id="DBAdmanX-BoldItalic" horiz-adv-x="0" >
  <font-face 
    font-family="DB Adman X"
    font-weight="700"
    font-style="italic"
    font-stretch="normal"
    units-per-em="1000"
    panose-1="2 0 5 6 9 0 0 2 0 4"
    ascent="800"
    descent="-200"
    x-height="366"
    cap-height="528"
    bbox="-394 -384.002 1012 867"
    underline-thickness="20"
    underline-position="-113"
    unicode-range="U+0020-U+F882"
  />
<missing-glyph horiz-adv-x="414" 
d="M421 400v-14h6c4.66699 0 7 3 7 9c0 0.666992 -0.5 1.66699 -1.5 3s-2.83301 2 -5.5 2h-6zM424 385h-3v-14h-5v34h11c8 0 12 -3.33301 12 -10c0 -4.66699 -1 -7.5 -3 -8.5s-4.33301 -1.5 -7 -1.5l10 -14h-5zM427 366c8.66699 0 14.5 2.33301 17.5 7s4.5 9 4.5 13
c0 16 -7.33301 24 -22 24c-15.333 0 -23 -8 -23 -24c0 -5.33301 1.83301 -10 5.5 -14s9.5 -6 17.5 -6zM427 413c8.66699 0 15 -2.66699 19 -8s6 -11.666 6 -18.999c0 -5.33301 -2 -10.5 -6 -15.5s-10.333 -7.5 -19 -7.5c-8 0 -14.333 2.5 -19 7.5s-7 10.167 -7 15.5
c0 7.33301 2.33301 13.666 7 18.999s11 8 19 8zM200 316c10.667 -0.666992 23.1689 -1.99805 37.502 -3.99805s28.666 -4.33301 42.999 -7s27.5 -5.83398 39.5 -9.50098s21 -7.83398 27 -12.501c-13.333 26.667 -34 47.167 -62 61.5s-56.667 21.5 -86 21.5
c-22.667 0 -44.334 -4.33301 -65.001 -13s-37.667 -22 -51 -40c12 1.33301 24 2.33301 36 3s24 1 36 1h22.5c7.66699 0 15.167 -0.333008 22.5 -1zM374.002 395.002l-0.000976562 -142c-32 10 -68.5 18.5 -109.5 25.5s-84.5 10.5 -130.5 10.5c-32 0 -63.333 -2 -94 -6
c4 14.667 10.333 28.834 19 42.501s19.667 25.667 33 36s28.833 18.5 46.5 24.5s37.167 9 58.5 9c20.667 0 39.334 -2.33301 56.001 -7s31.167 -10.334 43.5 -17.001s22.833 -14 31.5 -22s15 -15 19 -21c0 -0.666992 0 1.5 0 6.5s-0.166992 11.167 -0.5 18.5
s-0.5 15 -0.5 23v19h28zM152.001 127.002c0 5.33301 -1.83301 9.33301 -5.5 12s-7.5 4 -11.5 4c-4.66699 0 -8.66699 -1.33301 -12 -4s-5 -6.66699 -5 -12s1.66699 -9.16602 5 -11.499s7.33301 -3.5 12 -3.5c4 0 7.83301 1.16699 11.5 3.5s5.5 6.16602 5.5 11.499z

<glyph glyph-name="plusminus" unicode="&#x2b;&#x2d;" horiz-adv-x="395" 
d="M277 240l-24 -140h-79l24 140h-140l13 79h140l23 140h79l-23 -140h140l-13 -79h-140zM390 79l-13 -79h-359l13 79h359z" />
    <glyph glyph-name="ellipsis" unicode="&#x2e;&#x2e;&#x2e;" horiz-adv-x="507" 
d="M486 45c-2.66699 -16.667 -10.667 -30.667 -24 -42s-28.333 -17 -45 -17s-29.667 5.66699 -39 17s-12.666 25 -9.99902 41c2.66699 16.667 10.667 30.667 24 42s28.333 17 45 17s29.667 -5.66699 39 -17s12.666 -25 9.99902 -41zM320 45
c-2.66699 -16.667 -10.668 -30.667 -24.001 -42s-28.333 -17 -45 -17s-29.667 5.66699 -39 17s-12.666 25 -9.99902 41c2.66699 16.667 10.667 30.667 24 42s28.333 17 45 17s29.5 -5.66699 38.5 -17s12.167 -25 9.5 -41h1zM153.999 45
c-2.66699 -16.667 -10.668 -30.667 -24.001 -42s-28.333 -17 -45 -17s-29.667 5.66699 -39 17s-12.666 25 -9.99902 41c2.66699 16.667 10.667 30.667 24 42s28.333 17 45 17s29.5 -5.66699 38.5 -17s12.167 -25 9.5 -41h1z" />
    <glyph glyph-name="lessequal" unicode="&#x3c;&#x3d;" horiz-adv-x="400" 
d="M75 309l12 70l382 176l-15 -91l-256 -120l215 -128l-16 -91zM389 76l-15 -91l-322 184l16 98z" />
    <glyph glyph-name="greaterequal" unicode="&#x3e;&#x3d;" horiz-adv-x="400" 
d="M44 125l16 91l257 128l-216 120l15 91l324 -176l-12 -70zM421 267l-16 -98l-384 -184l15 91z" />
    <glyph glyph-name="fongmanfunnuthai" unicode="&#xe4f;&#x22;" horiz-adv-x="562" 
d="M387 509l16 154h72l-34 -154h-54zM288 509l16 154h72l-36 -154h-52zM563 237c-5.33301 -33.333 -16.8359 -64.833 -34.5029 -94.5s-39.5 -55.5 -65.5 -77.5s-55 -39.5 -87 -52.5s-64.667 -19.5 -98 -19.5s-63.666 6.5 -90.999 19.5s-50.166 30.5 -68.499 52.5
s-31.5 47.833 -39.5 77.5s-9.33301 61.167 -4 94.5c6 33.333 18 64.833 36 94.5s39.833 55.5 65.5 77.5s54.334 39.5 86.001 52.5s64.167 19.5 97.5 19.5s63.833 -6.5 91.5 -19.5s50.667 -30.5 69 -52.5s31.5 -47.833 39.5 -77.5s9 -61.167 3 -94.5zM441.997 237
c-2.66699 -17.333 -8.5 -33.333 -17.5 -48s-20 -27.667 -33 -39s-27.5 -20.166 -43.5 -26.499s-32.333 -9.5 -49 -9.5c-17.333 0 -32.833 3.16699 -46.5 9.5s-25.167 15.166 -34.5 26.499s-16 24.333 -20 39s-4.66699 30.667 -2 48c2.66699 16.667 8.5 32.5 17.5 47.5
s20 28.167 33 39.5s27.5 20.166 43.5 26.499s32.667 9.5 50 9.5c16.667 0 32 -3.16699 46 -9.5s25.5 -15.166 34.5 -26.499s15.5 -24.5 19.5 -39.5s4.66699 -30.833 2 -47.5zM493.997 233c4 24.667 3.16309 47.833 -2.50391 69.5s-15 40.667 -28 57s-29.333 29.333 -49 39
s-41.5 14.5 -65.5 14.5s-47.5 -4.66699 -70.5 -14s-43.833 -22 -62.5 -38s-34.5 -34.667 -47.5 -56s-21.5 -44 -25.5 -68s-3.16699 -46.667 2.5 -68s15.334 -40 29.001 -56s30.334 -28.667 50.001 -38s41.5 -14 65.5 -14s47.333 4.66699 70 14s43.334 22 62.001 38
s34.334 34.667 47.001 56s21 44 25 68v-4zM375.993 236.999c2.66699 15.333 -0.668945 28.666 -10.002 39.999s-21.666 17 -36.999 17s-29.666 -5.66699 -42.999 -17s-21.333 -24.666 -24 -39.999s0.833008 -28.666 10.5 -39.999s22.167 -17 37.5 -17s29.5 5.66699 42.5 17
s20.833 24.666 23.5 39.999z" />
    <glyph glyph-name="dochadaphinthuthai" unicode="&#xe0e;&#xe3a;" horiz-adv-x="493" 
d="M304 -186c-23.333 19.333 -44.5 32.668 -63.5 40.001s-38.167 11 -57.5 11s-39.833 -3.66699 -61.5 -11s-48.167 -21 -79.5 -41l-41 70c39.333 24.667 74.333 42 105 52s61 15 91 15c42 0 80 -8.33301 114 -25l39 32l51 300c5.33301 32 -1.66699 58.167 -21 78.5
s-48 30.5 -86 30.5c-16.667 0 -33.667 -3.5 -51 -10.5s-33 -16.167 -47 -27.5l20 -25l-50 -303h-139l15 91h42l30 180l-40 51c32 42 68.167 74.833 108.5 98.5s82.5 35.5 126.5 35.5c32 0 60.667 -5 86 -15s46.5 -23.667 63.5 -41s29 -38.333 36 -63
s8.16699 -51.334 3.5 -80.001l-56 -333zM422 -251.998c-2.66699 -16 -10.501 -29.666 -23.501 -40.999s-27.167 -17 -42.5 -17c-16 0 -28.833 5.66699 -38.5 17s-13.167 24.666 -10.5 39.999c3.33301 16 11.5 29.667 24.5 41s27.167 17 42.5 17
c16 0 28.833 -5.66699 38.5 -17s12.834 -25 9.50098 -41v1z" />
    <glyph glyph-name="topatakphintuthai" unicode="&#xe0f;&#xe3a;" horiz-adv-x="493" 
d="M293 -189l-66.002 70.002l-90 -70l-112 117l65 62l68 -68l87 67l63 -67l43 31l51 304c4.66699 32 -2.66602 58 -21.999 78s-48 30 -86 30c-16.667 0 -33.667 -3.33301 -51 -10s-33 -15.667 -47 -27l20 -25l-50 -303h-139l15 91h42l30 180l-40 51
c32 42 68.167 74.833 108.5 98.5s82.5 35.5 126.5 35.5c32.667 0 61.667 -5 87 -15s46.333 -23.833 63 -41.5s28.334 -38.834 35.001 -63.501s7.66699 -51.334 3 -80.001l-55 -330zM421.998 -251.998c-2.66699 -16 -10.501 -29.666 -23.501 -40.999s-27.167 -17 -42.5 -17
c-16 0 -28.833 5.66699 -38.5 17s-13.167 24.666 -10.5 39.999c3.33301 16 11.5 29.667 24.5 41s27.167 17 42.5 17c16 0 28.833 -5.66699 38.5 -17s12.834 -25 9.50098 -41v1z" />
    <glyph glyph-name="dochadasarauthai" unicode="&#xe0e;&#xe38;" horiz-adv-x="493" 
d="M305 -184c-24 19.333 -45.502 32.668 -64.502 40.001s-38.167 11 -57.5 11s-39.666 -3.66699 -60.999 -11s-47.666 -21 -78.999 -41l-42 71c40 24 75.333 41.167 106 51.5s61 15.5 91 15.5c41.333 0 79 -8.33301 113 -25l40 32l50 297
c5.33301 32 -1.66699 58.167 -21 78.5s-48 30.5 -86 30.5c-16.667 0 -33.667 -3.5 -51 -10.5s-33 -16.167 -47 -27.5l20 -25l-50 -303h-139l15 91h42l30 180l-40 51c32 42 68.167 74.833 108.5 98.5s82.5 35.5 126.5 35.5c32 0 60.667 -5 86 -15s46.5 -23.667 63.5 -41
s29 -38.333 36 -63s8.16699 -51.334 3.5 -80.001l-56 -331zM300.998 -370.998l14 80h-41l15 91h83c13.333 0 24 -4.83301 32 -14.5s11 -21.167 9 -34.5l-21 -122h-91z" />
    <glyph glyph-name="topataksarauthai" unicode="&#xe0f;&#xe38;" horiz-adv-x="493" 
d="M293 -189l-66.002 70.002l-90 -70l-112 117l65 62l68 -68l87 67l63 -67l43 31l51 304c4.66699 32 -2.66602 58 -21.999 78s-48 30 -86 30c-16.667 0 -33.667 -3.33301 -51 -10s-33 -15.667 -47 -27l20 -25l-50 -303h-139l15 91h42l30 180l-40 51
c32 42 68.167 74.833 108.5 98.5s82.5 35.5 126.5 35.5c32.667 0 61.667 -5 87 -15s46.333 -23.833 63 -41.5s28.334 -38.834 35.001 -63.501s7.66699 -51.334 3 -80.001l-55 -330zM300.998 -370.998l14 80h-40l15 91h82c13.333 0 24 -4.83301 32 -14.5s11 -21.167 9 -34.5
l-21 -122h-91z" />
    <glyph glyph-name="dochadasarauuthai" unicode="&#xe0e;&#xe39;" horiz-adv-x="493" 
d="M305 -184c-24 19.333 -45.502 32.668 -64.502 40.001s-38.167 11 -57.5 11s-39.666 -3.66699 -60.999 -11s-47.666 -21 -78.999 -41l-42 71c40 24 75.333 41.167 106 51.5s61 15.5 91 15.5c41.333 0 79 -8.33301 113 -25l40 32l50 297
c5.33301 32 -1.66699 58.167 -21 78.5s-48 30.5 -86 30.5c-16.667 0 -33.667 -3.5 -51 -10.5s-33 -16.167 -47 -27.5l20 -25l-50 -303h-139l15 91h42l30 180l-40 51c32 42 68.167 74.833 108.5 98.5s82.5 35.5 126.5 35.5c32 0 60.667 -5 86 -15s46.5 -23.667 63.5 -41
s29 -38.333 36 -63s8.16699 -51.334 3.5 -80.001l-56 -331zM406.998 -282.998c-2 -14 -6.83203 -27.167 -14.499 -39.5s-17 -23 -28 -32s-23.167 -16.167 -36.5 -21.5s-27 -8 -41 -8c-13.333 0 -26 2.16699 -38 6.5s-22.5 10.5 -31.5 18.5s-15.667 17.833 -20 29.5
s-5.16602 24.5 -2.49902 38.5h-41l15 91h130l-14 -81c-0.666992 -4.66699 0.166016 -8.66699 2.49902 -12s6.16602 -5 11.499 -5c11.333 0 17.333 5.33301 18 16l14 82h90l-14 -84v1z" />
    <glyph glyph-name="topataksarauuthai" unicode="&#xe0f;&#xe39;" horiz-adv-x="493" 
d="M293 -189l-66.002 70.002l-90 -70l-112 117l65 62l68 -68l87 67l63 -67l43 31l51 304c4.66699 32 -2.66602 58 -21.999 78s-48 30 -86 30c-16.667 0 -33.667 -3.33301 -51 -10s-33 -15.667 -47 -27l20 -25l-50 -303h-139l15 91h42l30 180l-40 51
c32 42 68.167 74.833 108.5 98.5s82.5 35.5 126.5 35.5c32.667 0 61.667 -5 87 -15s46.333 -23.833 63 -41.5s28.334 -38.834 35.001 -63.501s7.66699 -51.334 3 -80.001l-55 -330zM406.998 -282.998c-2 -14 -6.83203 -27.167 -14.499 -39.5s-17 -23 -28 -32
s-23.167 -16.167 -36.5 -21.5s-27 -8 -41 -8c-13.333 0 -26 2.16699 -38 6.5s-22.5 10.5 -31.5 18.5s-15.667 17.833 -20 29.5s-5.16602 24.5 -2.49902 38.5h-41l15 91h130l-14 -81c-0.666992 -4.66699 0.166016 -8.66699 2.49902 -12s6.16602 -5 11.499 -5
c11.333 0 17.333 5.33301 18 16l14 82h90l-14 -84v1z" />
    <glyph glyph-name=".notdef" horiz-adv-x="414" 
d="M421 400v-14h6c4.66699 0 7 3 7 9c0 0.666992 -0.5 1.66699 -1.5 3s-2.83301 2 -5.5 2h-6zM424 385h-3v-14h-5v34h11c8 0 12 -3.33301 12 -10c0 -4.66699 -1 -7.5 -3 -8.5s-4.33301 -1.5 -7 -1.5l10 -14h-5zM427 366c8.66699 0 14.5 2.33301 17.5 7s4.5 9 4.5 13
c0 16 -7.33301 24 -22 24c-15.333 0 -23 -8 -23 -24c0 -5.33301 1.83301 -10 5.5 -14s9.5 -6 17.5 -6zM427 413c8.66699 0 15 -2.66699 19 -8s6 -11.666 6 -18.999c0 -5.33301 -2 -10.5 -6 -15.5s-10.333 -7.5 -19 -7.5c-8 0 -14.333 2.5 -19 7.5s-7 10.167 -7 15.5
c0 7.33301 2.33301 13.666 7 18.999s11 8 19 8zM200 316c10.667 -0.666992 23.1689 -1.99805 37.502 -3.99805s28.666 -4.33301 42.999 -7s27.5 -5.83398 39.5 -9.50098s21 -7.83398 27 -12.501c-13.333 26.667 -34 47.167 -62 61.5s-56.667 21.5 -86 21.5
c-22.667 0 -44.334 -4.33301 -65.001 -13s-37.667 -22 -51 -40c12 1.33301 24 2.33301 36 3s24 1 36 1h22.5c7.66699 0 15.167 -0.333008 22.5 -1zM374.002 395.002l-0.000976562 -142c-32 10 -68.5 18.5 -109.5 25.5s-84.5 10.5 -130.5 10.5c-32 0 -63.333 -2 -94 -6
c4 14.667 10.333 28.834 19 42.501s19.667 25.667 33 36s28.833 18.5 46.5 24.5s37.167 9 58.5 9c20.667 0 39.334 -2.33301 56.001 -7s31.167 -10.334 43.5 -17.001s22.833 -14 31.5 -22s15 -15 19 -21c0 -0.666992 0 1.5 0 6.5s-0.166992 11.167 -0.5 18.5
s-0.5 15 -0.5 23v19h28zM152.001 127.002c0 5.33301 -1.83301 9.33301 -5.5 12s-7.5 4 -11.5 4c-4.66699 0 -8.66699 -1.33301 -12 -4s-5 -6.66699 -5 -12s1.66699 -9.16602 5 -11.499s7.33301 -3.5 12 -3.5c4 0 7.83301 1.16699 11.5 3.5s5.5 6.16602 5.5 11.499z
M31.001 139.002c0 15.333 3 29.001 9 41.001s14 22 24 30s21.333 14 34 18s25.667 6 39 6s26.166 -1.83301 38.499 -5.5s23.333 -9.16699 33 -16.5s17.334 -16.666 23.001 -27.999s8.5 -25 8.5 -41v-116h106v202h28v-228h-189v26h29v119c0 20 -7.33301 35 -22 45
s-32.667 15 -54 15c-20 0 -38 -5.5 -54 -16.5s-24 -26.5 -24 -46.5v-107l58 58c-3.33301 1.33301 -7.66602 4.66602 -12.999 9.99902s-8 13 -8 23c0 12 3.66699 21.5 11 28.5s17 10.5 29 10.5c11.333 0 20.5 -3.83301 27.5 -11.5s10.5 -16.834 10.5 -27.501
c0 -9.33301 -1.83301 -16.5 -5.5 -21.5s-6.83398 -8.83301 -9.50098 -11.5l-17 -16.5l-33 -31.5l-22.5 -21l-24.5 -24h-32v138z" />
    <glyph glyph-name="space" unicode=" " horiz-adv-x="250" 
 />
    <glyph glyph-name="exclam" unicode="!" horiz-adv-x="215" 
d="M211 310l-42 -175h-80l17 175l37 218h105zM178 50c-3.33301 -17.333 -12 -31.666 -26 -42.999s-29.667 -17 -47 -17s-31.333 5.66699 -42 17s-14.334 25.666 -11.001 42.999s12 31.833 26 43.5s29.667 17.5 47 17.5s31.333 -5.83301 42 -17.5
s14.334 -26.167 11.001 -43.5z" />
    <glyph glyph-name="quotedbl" unicode="&#x22;" horiz-adv-x="241" 
d="M268 342h-68l24 195h85zM153 342h-65l23 195h84z" />
    <glyph glyph-name="numbersign" unicode="#" horiz-adv-x="449" 
d="M392 291l-21 -65h72l-13 -82h-85l-48 -144h-81l47 144h-55l-45 -144h-83l45 144h-74l13 82h86l20 65h-76l14 82h87l42 134h85l-43 -134h56l42 134h84l-42 -134h66l-14 -82h-79zM253 291l-21 -65h57l19 65h-55z" />
    <glyph glyph-name="dollar" unicode="$" horiz-adv-x="428" 
d="M443 158c-3.33301 -20 -10.5029 -38.666 -21.5029 -55.999s-24.667 -33 -41 -47s-34.666 -26 -54.999 -36s-41.5 -17.333 -63.5 -22l-14 -81h-72l13 76c-79.333 6 -131.666 54.667 -156.999 146l97 39c9.33301 -32 20.166 -55.167 32.499 -69.5s26.5 -23.5 42.5 -27.5
l27 164l-41 20c-14 6.66699 -27 14.667 -39 24c-14.667 11.333 -26 24.833 -34 40.5s-10 35.167 -6 58.5c6.66699 39.333 25.5 72.166 56.5 98.499s68.5 42.833 112.5 49.5l12 73h72l-12 -75c24.667 -5.33301 47 -16 67 -32s37.667 -38 53 -66l-89 -56
c-9.33301 15.333 -17.666 27.5 -24.999 36.5s-14.666 16.167 -21.999 21.5l-21 -126l46 -22l22 -11c22.667 -14 39.5 -30.5 50.5 -49.5s14.167 -42.5 9.5 -70.5zM264.997 445.001c-12.667 -4 -23.667 -10.499 -33 -19.499s-15.333 -21.167 -18 -36.5
c-2 -11.333 1 -20.333 9 -27s16.333 -12.334 25 -17.001zM339.997 158.002c1.33301 12.667 -2.99902 23.332 -12.999 31.999s-19.667 15.667 -29 21l-21 -124c16 6.66699 29.667 15.834 41 27.501s18.666 26.167 21.999 43.5z" />
    <glyph glyph-name="percent" unicode="%" horiz-adv-x="567" 
d="M327 411c-2.66699 -16.667 -8.33203 -32.167 -16.999 -46.5s-19.5 -26.666 -32.5 -36.999s-27.333 -18.5 -43 -24.5s-31.834 -9 -48.501 -9c-17.333 0 -32.833 3 -46.5 9s-25.334 14.167 -35.001 24.5s-16.5 22.666 -20.5 36.999s-4.66699 29.833 -2 46.5
s8.33398 32.334 17.001 47.001s19.5 27.334 32.5 38.001s27.5 19 43.5 25s32.667 9 50 9c16.667 0 32 -3 46 -9s25.5 -14.333 34.5 -25s15.5 -23.334 19.5 -38.001s4.66699 -30.334 2 -47.001zM157.002 -25l-65 43l400 532l73 -36zM570.002 116
c-2.66699 -17.333 -8.50098 -33 -17.501 -47s-20 -26.333 -33 -37s-27.5 -18.834 -43.5 -24.501s-32.333 -8.5 -49 -8.5s-31.834 2.83301 -45.501 8.5s-25.167 13.834 -34.5 24.501s-16.166 23 -20.499 37s-5.16602 29.667 -2.49902 47s8.5 33.166 17.5 47.499
s20 26.833 33 37.5s27.5 18.834 43.5 24.501s32.333 8.5 49 8.5s32 -2.83301 46 -8.5s25.667 -13.834 35 -24.501s16 -23.167 20 -37.5s4.66699 -30.166 2 -47.499zM248.001 411c2 11.333 -0.667969 21 -8.00098 29s-16.666 12 -27.999 12c-12 0 -22.833 -4 -32.5 -12
s-15.5 -17.667 -17.5 -29c-1.33301 -11.333 1.5 -20.833 8.5 -28.5s16.5 -11.5 28.5 -11.5c11.333 0 22 4 32 12s15.667 17.333 17 28zM491 116c2 11.333 -0.666992 21.166 -8 29.499s-17 12.5 -29 12.5s-22.833 -4.16699 -32.5 -12.5s-15.5 -18.166 -17.5 -29.499
s0.5 -20.833 7.5 -28.5s16.5 -11.5 28.5 -11.5s23 3.83301 33 11.5s16 17.167 18 28.5z" />
    <glyph glyph-name="ampersand" unicode="&#x26;" horiz-adv-x="554" 
d="M446 0l-52.998 72.001c-28 -20.667 -57 -39.5 -87 -56.5s-61 -26.833 -93 -29.5c-22 -2 -42.333 0.333008 -61 7s-34.5 16.5 -47.5 29.5s-22.833 28.5 -29.5 46.5s-9.33398 37.667 -8.00098 59s6.66602 41.166 15.999 59.499s21 35.333 35 51s29.333 30 46 43l49 36.5
c-9.33301 12.667 -17 26.5 -23 41.5s-8.33301 31.833 -7 50.5c1.33301 16.667 6 32.667 14 48s18.167 29 30.5 41s26.333 21.833 42 29.5s32.167 12.167 49.5 13.5c18 1.33301 34.167 -0.666992 48.5 -6s26.333 -13 36 -23s17 -21.833 22 -35.5s6.83301 -28.5 5.5 -44.5
c-2.66699 -30 -12.5 -55.167 -29.5 -75.5s-36.167 -38.5 -57.5 -54.5l70 -95l63 60l67 -55l-77 -75l98 -138h-119zM337.002 425.001c0.666992 9.33301 -1.83398 16.499 -7.50098 21.499s-12.167 7.16699 -19.5 6.5c-6 -0.666992 -12.667 -4.66699 -20 -12
s-11.333 -16.333 -12 -27c-1.33301 -7.33301 0.333984 -14.833 5.00098 -22.5l12 -19.5c8.66699 6.66699 17.5 14.334 26.5 23.001s14.167 18.667 15.5 30zM264.001 247c-9.33301 -6 -19.499 -12.9971 -30.499 -20.9971s-21.5 -16.5 -31.5 -25.5s-18.5 -18.833 -25.5 -29.5
s-10.833 -21.334 -11.5 -32.001c-2 -20 2.5 -35.833 13.5 -47.5s24.833 -16.834 41.5 -15.501c17.333 1.33301 36.166 8.16602 56.499 20.499s41.5 27.5 63.5 45.5z" />
    <glyph glyph-name="quotesingle" unicode="'" horiz-adv-x="161" 
d="M169 342h-65l23 195h85z" />
    <glyph glyph-name="parenleft" unicode="(" horiz-adv-x="237" 
d="M312 538c-90 -106 -143.667 -210.667 -161 -314c-4.66699 -28.667 -7.16699 -55 -7.5 -79s1.5 -48.167 5.5 -72.5s10 -50.333 18 -78s18.333 -59.5 31 -95.5l-93 -3c-25.333 54 -42.166 108.833 -50.499 164.5s-7.83301 110.5 1.5 164.5
c9.33301 54.667 27.166 108 53.499 160s60.5 104.333 102.5 157z" />
    <glyph glyph-name="parenright" unicode=")" horiz-adv-x="237" 
d="M259 225c-9.33301 -54 -27.1699 -108.833 -53.5029 -164.5s-61.5 -110.5 -105.5 -164.5l-91 3c24.667 36 45.667 67.833 63 95.5s32 53.667 44 78s21.833 48.5 29.5 72.5s13.834 50.333 18.501 79c16.667 102 -1.66602 206.667 -54.999 314l99 4
c24 -52.667 40.833 -105 50.5 -157s9.83398 -105.333 0.500977 -160z" />
    <glyph glyph-name="asterisk" unicode="*" horiz-adv-x="352" 
d="M303 378l43 -76l-74 -51l-40 74l-9 -9l-58 -65l-58 51l69 76l-85 27l40 79l81 -30l13 94h84l-18 -94l91 30l14 -79z" />
    <glyph glyph-name="plus" unicode="+" horiz-adv-x="395" 
d="M262 155l-23 -140h-79l23 140h-140l14 79h140l23 140h79l-23 -140h140l-14 -79h-140z" />
    <glyph glyph-name="comma" unicode="," horiz-adv-x="170" 
d="M151 32c-3.33301 -19.333 -14.167 -40 -32.5 -62s-45.5 -43.667 -81.5 -65l-32 40c16 9.33301 28.667 17.5 38 24.5s18 15.167 26 24.5c-28 7.33301 -40 24.333 -36 51c2.66699 14.667 10.167 27.667 22.5 39s26.833 17 43.5 17c10.667 0 19.667 -2.16699 27 -6.5
s13 -9.83301 17 -16.5s6.66699 -14 8 -22s1.33301 -16 0 -24z" />
    <glyph glyph-name="hyphen" unicode="-" horiz-adv-x="287" 
d="M51 155l14 80h235l-14 -80h-235z" />
    <glyph glyph-name="period" unicode="." horiz-adv-x="170" 
d="M152 51c-2.66699 -16.667 -10.667 -30.667 -24 -42s-28.333 -17 -45 -17s-29.667 5.66699 -39 17s-12.666 25 -9.99902 41c2.66699 16.667 10.667 30.667 24 42s28.333 17 45 17s29.667 -5.66699 39 -17s12.666 -25 9.99902 -41z" />
    <glyph glyph-name="slash" unicode="/" horiz-adv-x="474" 
d="M125 0h-100l426 594h97z" />
    <glyph glyph-name="zero" unicode="0" horiz-adv-x="430" 
d="M453 267c-5.33301 -32.667 -14.665 -65.334 -27.998 -98.001s-30.333 -62.167 -51 -88.5s-44.667 -47.666 -72 -63.999s-57.333 -24.5 -90 -24.5c-33.333 0 -60.833 8.16699 -82.5 24.5s-38.334 37.666 -50.001 63.999s-18.667 55.833 -21 88.5
s-0.833008 65.334 4.5 98.001s14.666 65 27.999 97s30.166 60.833 50.499 86.5s44.166 46.334 71.499 62.001s57.333 23.5 90 23.5s59.834 -7.83301 81.501 -23.5s38.5 -36.334 50.5 -62.001s19.333 -54.5 22 -86.5s1.33398 -64.333 -3.99902 -97zM353.001 267
c4 24.667 5.16797 47.834 3.50098 69.501s-5.66699 40.167 -12 55.5s-14.5 27.5 -24.5 36.5s-21 13.5 -33 13.5s-24.5 -4.5 -37.5 -13.5s-25.333 -21.167 -37 -36.5s-22 -33.833 -31 -55.5s-15.5 -44.834 -19.5 -69.501c-4.66699 -28 -6.16699 -53.167 -4.5 -75.5
s5.66699 -41.5 12 -57.5s14.666 -28.167 24.999 -36.5s21.5 -12.5 33.5 -12.5s24.5 4.16699 37.5 12.5s25.167 20.5 36.5 36.5s21.5 35.167 30.5 57.5s15.833 47.5 20.5 75.5z" />
    <glyph glyph-name="one" unicode="1" horiz-adv-x="430" 
d="M178 -1l73 435h-93l16 94h192l-89 -529h-99z" />
    <glyph glyph-name="two" unicode="2" horiz-adv-x="430" 
d="M456 366c-3.33301 -18.667 -9.66699 -36.668 -19 -54.001s-20.166 -33.5 -32.499 -48.5s-25.5 -29 -39.5 -42s-27 -24.5 -39 -34.5l-112 -95h194l-15 -92h-353l11 69l207 176c12 10 23.5 20.333 34.5 31s21 21.334 30 32.001s16.5 21 22.5 31s10 19.667 12 29
c3.33301 21.333 -1.33398 39.166 -14.001 53.499s-30 21.5 -52 21.5c-21.333 0 -41 -8.16699 -59 -24.5s-30.667 -44.833 -38 -85.5h-100c6.66699 34.667 17.334 64.834 32.001 90.501s31.667 46.667 51 63s40.166 28.5 62.499 36.5s44.5 12 66.5 12
c24.667 0 47 -4.33301 67 -13s36.833 -20.5 50.5 -35.5s23.5 -32.833 29.5 -53.5s7 -43 3 -67z" />
    <glyph glyph-name="three" unicode="3" horiz-adv-x="430" 
d="M412 162c-4 -23.333 -11.6641 -45.3281 -22.9971 -65.9951s-25.833 -38.667 -43.5 -54s-38 -27.5 -61 -36.5s-47.833 -13.5 -74.5 -13.5c-22 0 -42.5 3.83301 -61.5 11.5s-35 19.167 -48 34.5s-22.333 34.666 -28 57.999s-6.16699 51 -1.5 83h97
c-4.66699 -34.667 -1.5 -59 9.5 -73s26.833 -21 47.5 -21c21.333 0 40.166 7.16699 56.499 21.5s26.166 32.166 29.499 53.499c3.33301 17.333 -0.833984 32.333 -12.501 45s-34.5 20.667 -68.5 24l15 88c32.667 3.33301 56 11.166 70 23.499s22.667 26.833 26 43.5
c3.33301 18 0 32.167 -10 42.5s-23.667 15.5 -41 15.5c-16 0 -31 -6 -45 -18s-23.667 -35.667 -29 -71h-99c10 61.333 32.5 107.166 67.5 137.499s75.833 45.5 122.5 45.5c22 0 42 -3.83301 60 -11.5s33.167 -18.167 45.5 -31.5s21.166 -29.333 26.499 -48
s6 -39.334 2 -62.001c-6.66699 -42 -28 -77.667 -64 -107c15.333 -15.333 25.833 -32.833 31.5 -52.5s6.83398 -40.167 3.50098 -61.5z" />
    <glyph glyph-name="four" unicode="4" horiz-adv-x="430" 
d="M366 87l-14 -87h-100l14 87h-239l12 73l323 368h78l-58 -346h58l-16 -95h-58zM307 334l-134 -152h109z" />
    <glyph glyph-name="five" unicode="5" horiz-adv-x="430" 
d="M439 189c-4.66699 -28.667 -14.498 -55.001 -29.498 -79.001s-33.333 -44.833 -55 -62.5s-45.834 -31.334 -72.501 -41.001s-54 -14.5 -82 -14.5c-34.667 0 -66.667 9.5 -96 28.5s-53.666 51.5 -72.999 97.5l96 38c13.333 -28 27.833 -46.833 43.5 -56.5
s31.167 -14.5 46.5 -14.5c30 0 56.667 9.5 80 28.5s37.666 44.5 42.999 76.5c4 27.333 -2.33301 50.333 -19 69s-39.334 28 -68.001 28c-16 0 -35.333 -3.16699 -58 -9.5s-52 -18.166 -88 -35.499l48 286h296l-16 -93h-196l-10 -60c18.667 3.33301 33.667 5 45 5
c28 0 53.167 -5 75.5 -15s41 -23.667 56 -41s25.5 -37.666 31.5 -60.999s6.66699 -48 2 -74z" />
    <glyph glyph-name="six" unicode="6" horiz-adv-x="430" 
d="M439 188c-4 -26 -13.001 -50.832 -27.001 -74.499s-31.167 -44.5 -51.5 -62.5s-43.166 -32.333 -68.499 -43s-51.333 -16 -78 -16s-50.834 5.16699 -72.501 15.5s-39.667 24.333 -54 42s-24.5 38.334 -30.5 62.001s-6.66699 49.167 -2 76.5
c4 23.333 10.833 44.666 20.5 63.999s22.167 38 37.5 56l186 221h119l-123 -145c24.667 -2 46.834 -8.66699 66.501 -20s36 -25.833 49 -43.5s22 -37.834 27 -60.501s5.5 -46.667 1.5 -72zM339.999 188.001c2.66699 14.667 2.33301 28.167 -1 40.5s-8.5 23 -15.5 32
s-15.667 16.167 -26 21.5s-21.5 8 -33.5 8s-24 -2.5 -36 -7.5s-23 -12 -33 -21s-18.5 -19.833 -25.5 -32.5s-11.833 -26.334 -14.5 -41.001c-2.66699 -15.333 -2.5 -29.166 0.5 -41.499s8 -23 15 -32s15.667 -16 26 -21s21.5 -7.5 33.5 -7.5s24 2.66699 36 8
s23 12.5 33 21.5s18.667 19.667 26 32s12.333 25.833 15 40.5z" />
    <glyph glyph-name="seven" unicode="7" horiz-adv-x="430" 
d="M145 0h-112l322 434h-251l16 94h370l-14 -80z" />
    <glyph glyph-name="eight" unicode="8" horiz-adv-x="430" 
d="M413 153c-4 -23.333 -12.3359 -44.8311 -25.0029 -64.498s-28.167 -36.667 -46.5 -51s-38.666 -25.5 -60.999 -33.5s-44.833 -12 -67.5 -12c-23.333 0 -44.666 4 -63.999 12s-35.833 19.167 -49.5 33.5s-23.5 31.333 -29.5 51s-7 41.167 -3 64.5
c8 50.667 33 91.667 75 123c-23.333 30 -32 64.333 -26 103c4 22 11.667 42.667 23 62s25.333 36 42 50s35.5 25 56.5 33s43.167 12 66.5 12c22.667 0 43.334 -4 62.001 -12s34.167 -19 46.5 -33s21 -30.667 26 -50s5.5 -40 1.5 -62
c-3.33301 -18.667 -10 -36.834 -20 -54.501s-23.333 -33.834 -40 -48.501c30 -31.333 41 -72.333 33 -123zM340.997 380.002c3.33301 17.333 -0.5 31.998 -11.5 43.998s-24.833 18 -41.5 18c-17.333 0 -33 -6 -47 -18s-22.667 -26.667 -26 -44
s0.333984 -31.666 11.001 -42.999s24.667 -17 42 -17s33.166 5.83301 47.499 17.5s22.833 25.834 25.5 42.501zM314.997 156c3.33301 19.333 -1.33301 35.665 -14 48.998s-29 20 -49 20c-10 0 -19.833 -1.83301 -29.5 -5.5s-18.334 -8.66699 -26.001 -15
s-14.167 -13.666 -19.5 -21.999s-8.66602 -17.166 -9.99902 -26.499c-3.33301 -19.333 1.16699 -36 13.5 -50s28.5 -21 48.5 -21s38.333 7 55 21s27 30.667 31 50z" />
    <glyph glyph-name="nine" unicode="9" horiz-adv-x="430" 
d="M462 337c-4 -23.333 -11.167 -44.501 -21.5 -63.501s-22.833 -36.833 -37.5 -53.5l-183 -220h-118l123 145c-25.333 1.33301 -47.833 7.5 -67.5 18.5s-36.167 25.333 -49.5 43s-22.666 38 -27.999 61s-6 47.167 -2 72.5c4.66699 27.333 14.167 52.833 28.5 76.5
s31.666 44.334 51.999 62.001s43.166 31.5 68.499 41.5s51 15 77 15c26.667 0 50.834 -5.16699 72.501 -15.5s39.667 -24.333 54 -42s24.333 -38.5 30 -62.5s6.16699 -50 1.5 -78zM362 339.999c2.66699 14.667 2.49805 28 -0.501953 40s-8 22.5 -15 31.5s-15.5 16 -25.5 21
s-21 7.5 -33 7.5c-25.333 0 -48.666 -9.33301 -69.999 -28s-34.666 -42.667 -39.999 -72c-4 -30 1.5 -54.333 16.5 -73s34.833 -28 59.5 -28c11.333 0 23 2.5 35 7.5s23 12 33 21s18.667 19.667 26 32s12 25.833 14 40.5z" />
    <glyph glyph-name="colon" unicode=":" horiz-adv-x="170" 
d="M194 304c-2.66699 -16.667 -10.6699 -30.667 -24.0029 -42s-28 -17 -44 -17c-16.667 0 -29.667 5.66699 -39 17s-12.666 25 -9.99902 41c3.33301 16.667 11.5 30.667 24.5 42s27.5 17 43.5 17c16.667 0 29.834 -5.66699 39.501 -17s12.834 -25 9.50098 -41zM151.997 52
c-2.66699 -16.667 -10.6699 -30.667 -24.0029 -42s-28 -17 -44 -17c-16.667 0 -29.667 5.66699 -39 17s-12.666 25 -9.99902 41c3.33301 16.667 11.5 30.667 24.5 42s27.5 17 43.5 17c16.667 0 29.834 -5.66699 39.501 -17s12.834 -25.333 9.50098 -42v1z" />
    <glyph glyph-name="semicolon" unicode=";" horiz-adv-x="170" 
d="M193 303c-2.66699 -16.667 -10.6699 -30.667 -24.0029 -42s-28.333 -17 -45 -17c-16 0 -28.667 5.66699 -38 17s-12.666 25.333 -9.99902 42c3.33301 16.667 11.5 30.667 24.5 42s27.5 17 43.5 17c16.667 0 29.834 -5.66699 39.501 -17s12.834 -25.333 9.50098 -42z
M150.997 32c-3.33301 -19.333 -14.167 -40 -32.5 -62s-45.5 -43.667 -81.5 -65l-32 40c16 9.33301 28.667 17.5 38 24.5s18 15.167 26 24.5c-28 7.33301 -40 24.333 -36 51c2.66699 14.667 10.167 27.667 22.5 39s26.833 17 43.5 17c10.667 0 19.667 -2.16699 27 -6.5
s13 -9.83301 17 -16.5s6.66699 -14 8 -22s1.33301 -16 0 -24z" />
    <glyph glyph-name="less" unicode="&#x3c;" horiz-adv-x="400" 
d="M52 169l11 70l383 176l-15 -91l-256 -120l214 -128l-15 -91z" />
    <glyph glyph-name="equal" unicode="=" horiz-adv-x="398" 
d="M58 215l14 80h353l-14 -80h-353zM38 93l13 80h353l-13 -80h-353z" />
    <glyph glyph-name="greater" unicode="&#x3e;" horiz-adv-x="400" 
d="M21 -15l15 91l258 128l-216 120l15 91l323 -176l-11 -70z" />
    <glyph glyph-name="question" unicode="?" horiz-adv-x="360" 
d="M404 390c-5.33301 -28 -15.6689 -51.168 -31.002 -69.501s-31.333 -34.166 -48 -47.499l-19 -15c-6.66699 -5.33301 -13 -11 -19 -17s-11.333 -12.333 -16 -19s-7.66699 -13.334 -9 -20.001l-11 -69h-92l12 71c4 24.667 13 45.167 27 61.5s28.833 31.166 44.5 44.499
l43.5 38.5c13.333 12.333 21.333 26.5 24 42.5c2 13.333 -1 26.333 -9 39s-24 19 -48 19s-43.833 -8.66699 -59.5 -26s-23.167 -45 -22.5 -83h-93c-0.666992 30 4.16602 57.333 14.499 82s24.333 45.834 42 63.501s38 31.167 61 40.5s47.167 14 72.5 14
c24 0 45.333 -4 64 -12s33.834 -18.667 45.501 -32s19.834 -29.166 24.501 -47.499s5.33398 -37.833 2.00098 -58.5zM250.997 44.999c-3.33301 -17.333 -11.666 -31.833 -24.999 -43.5s-28.666 -17.5 -45.999 -17.5s-31 5.83301 -41 17.5s-13.333 26.167 -10 43.5
s11.666 31.833 24.999 43.5s28.666 17.5 45.999 17.5c16.667 0 30.167 -5.83301 40.5 -17.5s13.833 -26.167 10.5 -43.5z" />
    <glyph glyph-name="at" unicode="@" horiz-adv-x="576" 
d="M602 115c-19.333 -24 -40.5039 -44.833 -63.5039 -62.5s-47 -32 -72 -43s-50.667 -19.167 -77 -24.5s-51.833 -8 -76.5 -8c-42 0 -80.333 6.83301 -115 20.5s-63.667 33 -87 58s-39.833 55.333 -49.5 91s-10.5 75.5 -2.5 119.5c6.66699 38.667 20.5 74.834 41.5 108.501
s46.667 63 77 88s64 44.667 101 59s74.5 21.5 112.5 21.5c36 0 69 -5.83301 99 -17.5s55.167 -28 75.5 -49s34.833 -45.833 43.5 -74.5s10 -60.334 4 -95.001c-5.33301 -29.333 -15.666 -56.833 -30.999 -82.5s-33.5 -48.334 -54.5 -68.001s-43.333 -35.167 -67 -46.5
s-46.5 -17 -68.5 -17c-19.333 0 -32.833 3.83301 -40.5 11.5s-12.5 15.5 -14.5 23.5c-15.333 -7.33301 -29.833 -12.666 -43.5 -15.999s-26.834 -5 -39.501 -5c-18 0 -33.167 3 -45.5 9s-22.166 14.333 -29.499 25s-12.166 22.834 -14.499 36.501
s-2.16602 28.5 0.500977 44.5c4 22.667 12 46.167 24 70.5s27.333 46.5 46 66.5s40.334 36.5 65.001 49.5s51.667 19.5 81 19.5c26 0 48.333 -8.33301 67 -25l5 12h68c-15.333 19.333 -35.333 34.5 -60 45.5s-51 16.5 -79 16.5c-29.333 0 -58.333 -5.83301 -87 -17.5
s-54.667 -27.5 -78 -47.5s-43 -43 -59 -69s-26.333 -53.333 -31 -82c-6 -32.667 -5.16699 -62.5 2.5 -89.5s20.5 -50.167 38.5 -69.5s40.5 -34.333 67.5 -45s57.167 -16 90.5 -16c31.333 0 64.333 5.66699 99 17s64.667 29.666 90 54.999zM403.996 317
c1.33301 2 1.66895 5.5 1.00195 10.5s-2.5 9.83301 -5.5 14.5s-7.5 8.83398 -13.5 12.501s-13.667 5.5 -23 5.5c-13.333 0 -27 -4.16699 -41 -12.5s-27 -19 -39 -32s-22.333 -27.5 -31 -43.5s-14.334 -31.333 -17.001 -46c-2.66699 -15.333 -1.33398 -27.833 3.99902 -37.5
s18 -14.5 38 -14.5c8 0 16.167 1.83301 24.5 5.5s16.5 8.5 24.5 14.5s15.333 12.667 22 20s12 14.666 16 21.999zM504.999 383c-8 -14 -19.667 -36.167 -35 -66.5s-35.333 -74.166 -60 -131.499l-4.5 -16.5c-1.66699 -6.33301 1.16602 -9.5 8.49902 -9.5
c10.667 0 22.834 4.5 36.501 13.5s27 20.833 40 35.5s24.5 30.834 34.5 48.501s16.667 35.167 20 52.5c3.33301 19.333 3 37.666 -1 54.999s-10.667 32.666 -20 45.999c-4.66699 -2.66699 -11 -11.667 -19 -27z" />
    <glyph glyph-name="A" unicode="A" horiz-adv-x="503" 
d="M397 0l-36 143h-172l-82 -143h-107l310 528h62l130 -528h-105zM310 348l-68 -115h96z" />
    <glyph glyph-name="B" unicode="B" horiz-adv-x="404" 
d="M416 161c-4.66699 -28 -14.001 -52.167 -28.001 -72.5s-31 -37 -51 -50s-41.833 -22.667 -65.5 -29s-47.5 -9.5 -71.5 -9.5h-162l88 528h135c24.667 0 47.167 -3 67.5 -9s37.166 -15.167 50.499 -27.5s22.833 -28.333 28.5 -48s6.16699 -43.167 1.5 -70.5
c-3.33301 -16.667 -8.16602 -32 -14.499 -46s-15.166 -27 -26.499 -39c19.333 -14 33.333 -32 42 -54s10.667 -46.333 6 -73zM309.999 377c3.33301 22 -1.00098 37.167 -13.001 45.5s-33.333 12.5 -64 12.5h-24l-19 -117h24c28 0 49.833 3.5 65.5 10.5
s25.834 23.167 30.501 48.5zM315.998 160c4 26.667 -3 44.334 -21 53.001c-9.33301 5.33301 -21.333 8.66602 -36 9.99902s-30.667 2 -48 2h-37l-22 -133h44c36 0 64 5 84 15s32 27.667 36 53z" />
    <glyph glyph-name="C" unicode="C" horiz-adv-x="483" 
d="M480 59c-39.333 -26 -74.001 -43.667 -104.001 -53s-60.333 -14 -91 -14c-37.333 0 -71.5 7.16699 -102.5 21.5s-57.167 33.666 -78.5 57.999s-36.666 53 -45.999 86s-11 68.167 -5 105.5c6 38 19.167 73.5 39.5 106.5s45.333 61.833 75 86.5s62.5 44.167 98.5 58.5
s73 21.5 111 21.5c28 0 56 -4.66699 84 -14s57 -27.333 87 -54l-65 -77c-27.333 22.667 -50.666 36.834 -69.999 42.501s-37.333 8.5 -54 8.5c-24 0 -47.667 -4.83301 -71 -14.5s-44.5 -22.834 -63.5 -39.501s-35.167 -36 -48.5 -58s-22 -45.333 -26 -70
c-4 -22.667 -2.83301 -44.5 3.5 -65.5s16.333 -39.667 30 -56s30.5 -29.333 50.5 -39s42 -14.5 66 -14.5c8.66699 0 17.667 0.666992 27 2s19.5 3.83301 30.5 7.5s23.167 8.83398 36.5 15.501s28.666 15.667 45.999 27z" />
    <glyph glyph-name="D" unicode="D" horiz-adv-x="455" 
d="M490 263c-7.33301 -40.667 -21.167 -77.167 -41.5 -109.5s-45.166 -59.833 -74.499 -82.5s-62.5 -40.167 -99.5 -52.5s-75.833 -18.5 -116.5 -18.5h-120l88 528h120c41.333 0 78.666 -6 111.999 -18s60.833 -29.5 82.5 -52.5s37 -50.833 46 -83.5
s10.167 -69.667 3.5 -111zM389.999 263c8 52.667 -2.66797 94.333 -32.001 125s-72.333 46 -129 46h-20l-57 -341h20c28 0 54.333 4 79 12s46.5 19.333 65.5 34s34.833 32.5 47.5 53.5s21.334 44.5 26.001 70.5z" />
    <glyph glyph-name="E" unicode="E" horiz-adv-x="359" 
d="M38 0l88 528h298l-16 -94h-199l-17 -102h193l-16 -93h-193l-24 -146h199l-15 -93h-298z" />
    <glyph glyph-name="F" unicode="F" horiz-adv-x="315" 
d="M209 435l-17 -103h163l-16 -93h-163l-39 -239h-99l88 528h266l-16 -93h-167z" />
    <glyph glyph-name="G" unicode="G" horiz-adv-x="577" 
d="M610 264c-6 -37.333 -18.6689 -72.501 -38.002 -105.501s-43.166 -61.833 -71.499 -86.5s-60.5 -44.167 -96.5 -58.5s-73.333 -21.5 -112 -21.5c-39.333 0 -74.666 7.16699 -105.999 21.5s-57.666 33.833 -78.999 58.5s-36.5 53.5 -45.5 86.5s-10.5 68.167 -4.5 105.5
s19.167 72.5 39.5 105.5s45.166 61.833 74.499 86.5s62.333 44.167 99 58.5s74.334 21.5 113.001 21.5c48.667 0 92.167 -12 130.5 -36s70.5 -60.333 96.5 -109l-88 -59c-20 38.667 -42.833 66.334 -68.5 83.001s-54.5 25 -86.5 25c-25.333 0 -49.833 -4.66699 -73.5 -14
s-45.167 -22 -64.5 -38s-35.5 -34.667 -48.5 -56s-21.5 -44 -25.5 -68s-3 -46.667 3 -68s15.833 -40 29.5 -56s30.834 -28.667 51.501 -38s43.667 -14 69 -14c40.667 0 78.167 11.833 112.5 35.5s60.166 54.5 77.499 92.5h-203l16 96h305
c-2 -18.667 -3.33301 -30.667 -4 -36s-1.33398 -9.33301 -2.00098 -12z" />
    <glyph glyph-name="H" unicode="H" horiz-adv-x="496" 
d="M359 0l39 238h-221l-39 -238h-99l88 528h99l-33 -196h221l33 196h100l-88 -528h-100z" />
    <glyph glyph-name="I" unicode="I" horiz-adv-x="186" 
d="M43 0l88 528h100l-88 -528h-100z" />
    <glyph glyph-name="J" unicode="J" horiz-adv-x="186" 
d="M140 -21c-2.66699 -16 -8.49902 -31.333 -17.499 -46s-20 -27.334 -33 -38.001s-27.5 -19.167 -43.5 -25.5s-32.333 -9.5 -49 -9.5c-17.333 0 -33.333 3.5 -48 10.5s-28.667 18.833 -42 35.5l79 68c6.66699 -7.33301 11.667 -12.166 15 -14.499s7 -3.5 11 -3.5
c6.66699 0 12.667 2.16699 18 6.5s8.66602 9.83301 9.99902 16.5l92 549h100z" />
    <glyph glyph-name="K" unicode="K" horiz-adv-x="454" 
d="M329 0l-161 187l-31 -187h-99l88 528h99l-28 -169l205 169h139l-310 -255l237 -273h-139z" />
    <glyph glyph-name="L" unicode="L" horiz-adv-x="272" 
d="M38 0l88 528h99l-73 -436h122l-15 -92h-221z" />
    <glyph glyph-name="M" unicode="M" horiz-adv-x="639" 
d="M537 0l-10 264l1 48l-24 -47l-154 -265h-60l-67 269l-8 45l-15 -46l-100 -268h-100l200 528h62l86 -349l205 349h62l23 -528h-101z" />
    <glyph glyph-name="N" unicode="N" horiz-adv-x="576" 
d="M538 0h-65l-277 355l-59 -355h-99l88 528h65l277 -353l59 353h99z" />
    <glyph glyph-name="O" unicode="O" horiz-adv-x="577" 
d="M610 264c-6 -37.333 -19.168 -72.5 -39.501 -105.5s-45.166 -61.833 -74.499 -86.5s-62 -44.167 -98 -58.5s-72.667 -21.5 -110 -21.5c-38 0 -72.5 7.16699 -103.5 21.5s-57 33.833 -78 58.5s-36 53.5 -45 86.5s-10.5 68.167 -4.5 105.5c6 36.667 19 71.5 39 104.5
s44.667 62 74 87s62 44.667 98 59s73 21.5 111 21.5s72.5 -7.16699 103.5 -21.5s57 -33.833 78 -58.5s36 -53.5 45 -86.5s10.5 -68.167 4.5 -105.5zM511.999 264c4 24 2.99902 46.832 -3.00098 68.499s-15.833 40.5 -29.5 56.5s-30.5 28.833 -50.5 38.5s-42 14.5 -66 14.5
c-24.667 0 -48.5 -4.66699 -71.5 -14s-44 -22.166 -63 -38.499s-35 -35.333 -48 -57s-21.5 -44.5 -25.5 -68.5s-3.16699 -46.833 2.5 -68.5s15.334 -40.667 29.001 -57s30.5 -29.333 50.5 -39s42.333 -14.5 67 -14.5c24 0 47.5 4.83301 70.5 14.5s44 22.667 63 39
s35.167 35.333 48.5 57s22 44.5 26 68.5z" />
    <glyph glyph-name="P" unicode="P" horiz-adv-x="345" 
d="M399 373c-4.66699 -27.333 -13.498 -50.666 -26.498 -69.999s-28.833 -35.333 -47.5 -48s-39.5 -21.834 -62.5 -27.501s-46.5 -8.5 -70.5 -8.5h-19l-36 -219h-99l88 528h118c24.667 0 47.5 -3 68.5 -9s38.667 -15.167 53 -27.5s24.666 -28.333 30.999 -48
s7.16602 -43.167 2.49902 -70.5zM300.002 374c4 23.333 -0.999023 39.333 -14.999 48s-33.667 13 -59 13h-17l-20 -122h20c24.667 0 45.167 4.83301 61.5 14.5s26.166 25.167 29.499 46.5z" />
    <glyph glyph-name="Q" unicode="Q" horiz-adv-x="577" 
d="M464 -1l-23.001 37.002c-25.333 -14 -51.333 -24.833 -78 -32.5s-52.667 -11.5 -78 -11.5c-38 0 -72.5 7.16699 -103.5 21.5s-57 33.666 -78 57.999s-36 53 -45 86s-10.167 68.5 -3.5 106.5c6 37.333 19 72.5 39 105.5s44.667 61.833 74 86.5s62 44.167 98 58.5
s73 21.5 111 21.5c37.333 0 71.5 -7 102.5 -21s57 -33.333 78 -58s36.167 -53.334 45.5 -86.001s11 -67.667 5 -105c-11.333 -62 -39.666 -117.667 -84.999 -167l74 -100h-133zM508.999 260.002c4 24.667 3.16797 48.168 -2.49902 70.501s-15.167 41.666 -28.5 57.999
s-30 29.333 -50 39s-42.333 14.5 -67 14.5c-24 0 -47.667 -4.83301 -71 -14.5s-44.5 -22.5 -63.5 -38.5s-35 -34.833 -48 -56.5s-21.5 -44.5 -25.5 -68.5c-4 -24.667 -3.16699 -47.834 2.5 -69.501s15.334 -40.667 29.001 -57s30.5 -29.166 50.5 -38.499s42.667 -14 68 -14
s52.666 7.66699 81.999 23l-73 90l84 63l70 -89c11.333 14 20.666 28.167 27.999 42.5s12.333 29.5 15 45.5z" />
    <glyph glyph-name="R" unicode="R" horiz-adv-x="390" 
d="M275 0l-106.999 201.001l-33 -201h-97l88 528h116c26 0 50 -2.5 72 -7.5s40.5 -13.5 55.5 -25.5s25.667 -27.833 32 -47.5s7.16602 -44.5 2.49902 -74.5c-6.66699 -38.667 -22 -70.334 -46 -95.001s-53.333 -41.667 -88 -51l122 -227h-117zM306.001 374.001
c2 13.333 1.33301 24.001 -2 32.001s-8.5 14.167 -15.5 18.5s-15.5 7.16602 -25.5 8.49902s-20.333 2 -31 2h-24l-20 -123h28c20 0 39 4.33301 57 13s29 25 33 49z" />
    <glyph glyph-name="S" unicode="S" horiz-adv-x="380" 
d="M397 160c-4 -24.667 -12.8291 -47.1641 -26.4961 -67.4971s-30.167 -38 -49.5 -53s-40.666 -26.667 -63.999 -35s-46.333 -12.5 -69 -12.5c-81.333 0 -133 50.333 -155 151l94 40c9.33301 -38.667 20.5 -64.667 33.5 -78s28.167 -20 45.5 -20
c10.667 0 21.167 2.16699 31.5 6.5s19.666 10 27.999 17s15.5 15.167 21.5 24.5s10 19.333 12 30c1.33301 8 -0.166992 15.333 -4.5 22s-10 12.5 -17 17.5s-14.5 9.66699 -22.5 14s-14.667 8.16602 -20 11.499l-48 26c-16.667 8.66699 -31.334 18.667 -44.001 30
s-22.334 25 -29.001 41s-8 35.667 -4 59c3.33301 22 10.333 42.167 21 60.5s24 34.333 40 48s34.167 24.334 54.5 32.001s41.5 11.5 63.5 11.5c30 0 57 -8.33301 81 -25s44.333 -43.334 61 -80.001l-84 -60c-15.333 30 -28.5 49.333 -39.5 58s-23.167 13 -36.5 13
c-15.333 0 -29 -5.33301 -41 -16s-19.333 -24.334 -22 -41.001c-1.33301 -7.33301 0 -13.833 4 -19.5s9 -10.834 15 -15.501s12.5 -8.66699 19.5 -12l18.5 -9l82 -47c19.333 -14 33.666 -30.833 42.999 -50.5s11.666 -43.5 6.99902 -71.5z" />
    <glyph glyph-name="T" unicode="T" horiz-adv-x="349" 
d="M296 435l-72 -435h-99l72 435h-124l16 93h347l-16 -93h-124z" />
    <glyph glyph-name="U" unicode="U" horiz-adv-x="470" 
d="M466 206c-1.33301 -6 -2.50195 -12.002 -3.50195 -18.002s-2.16699 -11.667 -3.5 -17c-6 -27.333 -16 -52.166 -30 -74.499s-31 -41.166 -51 -56.499s-42.333 -27.166 -67 -35.499s-50.667 -12.5 -78 -12.5c-22 0 -43.167 3.16699 -63.5 9.5
s-38.166 15.666 -53.499 27.999s-27.666 27.333 -36.999 45s-14.333 37.5 -15 59.5c0 11.333 0.833008 23 2.5 35s3.5 24.333 5.5 37l54 322h100l-53 -313c-3.33301 -22.667 -5.5 -41.834 -6.5 -57.501s1.83301 -28.5 8.5 -38.5c7.33301 -10 18 -18.167 32 -24.5
s28 -9.5 42 -9.5c22 0 40 3.5 54 10.5s25.333 16.333 34 28s15.167 25.334 19.5 41.001s7.83301 32.5 10.5 50.5l53 313h100z" />
    <glyph glyph-name="V" unicode="V" horiz-adv-x="443" 
d="M252 0h-62l-101 528h104l53 -280l7 -57l26 56l148 281h104z" />
    <glyph glyph-name="W" unicode="W" horiz-adv-x="779" 
d="M602 0h-60l-94 356l-210 -356h-61l-88 528h103l47 -277l7 -67l35 64l169 280h59l74 -278l13 -65l28 63l139 280h104z" />
    <glyph glyph-name="X" unicode="X" horiz-adv-x="413" 
d="M301 0l-67 171l-122 -171h-113l194 268l-100 260h111l63 -159l114 159h112l-186 -259l105 -269h-111z" />
    <glyph glyph-name="Y" unicode="Y" horiz-adv-x="469" 
d="M321 221l-36 -221h-101l36 221l-131 307h113l87 -201l154 201h114z" />
    <glyph glyph-name="Z" unicode="Z" horiz-adv-x="420" 
d="M163 92h249l-15 -92h-378l12 72l308 363h-240l16 93h370l-12 -70z" />
    <glyph glyph-name="bracketleft" unicode="[" horiz-adv-x="220" 
d="M9 -118l114 682h168l-15 -90h-78l-84 -502h78l-15 -90h-168z" />
    <glyph glyph-name="backslash" unicode="\" horiz-adv-x="474" 
d="M349 0l-225 594h97l228 -594h-100z" />
    <glyph glyph-name="bracketright" unicode="]" horiz-adv-x="220" 
d="M9 -118l15 90h78l84 502h-78l15 90h168l-114 -682h-168z" />
    <glyph glyph-name="asciicircum" unicode="^" horiz-adv-x="426" 
d="M366 192l-82 242l-160 -242h-87l234 355h65l116 -355h-86z" />
    <glyph glyph-name="underscore" unicode="_" horiz-adv-x="399" 
d="M-15 -104l14 81h394l-14 -81h-394z" />
    <glyph glyph-name="grave" unicode="`" horiz-adv-x="217" 
d="M195 360l-96 143l99 31l70 -142z" />
    <glyph glyph-name="a" unicode="a" horiz-adv-x="446" 
d="M314 0l4.99805 29.998c-14 -9.33301 -30.5 -17.666 -49.5 -24.999s-37.5 -11 -55.5 -11c-31.333 0 -58.166 5.16699 -80.499 15.5s-40.5 24.166 -54.5 41.499s-23.5 37.5 -28.5 60.5s-5.5 47.5 -1.5 73.5c4.66699 26 13.5 50.333 26.5 73s29.333 42.334 49 59.001
s42.334 29.834 68.001 39.501s53.5 14.5 83.5 14.5c36.667 0 68 -11 94 -33l5 29h94l-61 -367h-94zM346.998 188.998c4.66699 28 -0.499023 51.3311 -15.499 69.998s-38.5 28 -70.5 28c-14 0 -27.667 -2.83301 -41 -8.5s-25.333 -13.167 -36 -22.5
s-19.667 -20.166 -27 -32.499s-12 -25.166 -14 -38.499c-4.66699 -30 0.666016 -55 15.999 -75s38.333 -30 69 -30c32 0 58.5 10.167 79.5 30.5s34.167 46.5 39.5 78.5z" />
    <glyph glyph-name="b" unicode="b" horiz-adv-x="448" 
d="M460 187c-4.66699 -28.667 -14.334 -54.832 -29.001 -78.499s-32.334 -44 -53.001 -61s-43.5 -30.167 -68.5 -39.5s-49.833 -14 -74.5 -14c-17.333 0 -34.166 3 -50.499 9s-31.833 15.667 -46.5 29l-5 -32h-95l99 596h95l-41 -247
c16.667 9.33301 33.834 16.166 51.501 20.499s35.167 6.5 52.5 6.5c30 0 56.333 -5 79 -15s41 -23.5 55 -40.5s23.667 -37 29 -60s6 -47.5 2 -73.5zM365 187.002c4 28 -1.33594 52 -16.0029 72s-37 30 -67 30c-34 0 -61.167 -9.5 -81.5 -28.5s-33.166 -43.833 -38.499 -74.5
c-5.33301 -30 -0.666016 -55 14.001 -75s38 -30 70 -30c30.667 0 56.834 10.167 78.501 30.5s35.167 45.5 40.5 75.5z" />
    <glyph glyph-name="c" unicode="c" horiz-adv-x="381" 
d="M376 42c-34 -19.333 -62.834 -32.332 -86.501 -38.999s-46.5 -10 -68.5 -10c-29.333 0 -55.666 5 -78.999 15s-42.666 23.5 -57.999 40.5s-26.166 37.167 -32.499 60.5s-7.16602 48.333 -2.49902 75s14.167 51.5 28.5 74.5s32 43 53 60s44.833 30.5 71.5 40.5
s54.667 15 84 15c22 0 43.333 -3.33301 64 -10s45 -19.667 73 -39l-54 -81c-24.667 18 -43.834 29.667 -57.501 35s-27.5 8 -41.5 8c-15.333 0 -30 -2.83301 -44 -8.5s-26.833 -13.167 -38.5 -22.5s-21.334 -20.166 -29.001 -32.499s-12.5 -25.5 -14.5 -39.5
s-1.33301 -27.333 2 -40s9 -23.834 17 -33.501s18.167 -17.334 30.5 -23.001s26.166 -8.5 41.499 -8.5c6.66699 0 13.667 0.5 21 1.5s15.333 3 24 6s18.5 7.33301 29.5 13s24.167 13.167 39.5 22.5z" />
    <glyph glyph-name="d" unicode="d" horiz-adv-x="448" 
d="M314 -1l6.00488 32.001c-16.667 -11.333 -33.834 -20.333 -51.501 -27s-35.834 -10 -54.501 -10c-30.667 0 -57.334 5.16699 -80.001 15.5s-41 24.166 -55 41.499s-23.5 37.666 -28.5 60.999s-5.16699 48 -0.5 74c4 26 12.5 50.5 25.5 73.5s29.333 43 49 60
s42.5 30.5 68.5 40.5s54 15 84 15c17.333 0 34.166 -2.66699 50.499 -8s31.166 -13.666 44.499 -24.999l42 254h95l-100 -597h-95zM348.005 190.001c5.33301 28 0.166016 51.499 -15.501 70.499s-39.5 28.5 -71.5 28.5c-14 0 -27.667 -2.83301 -41 -8.5
s-25.166 -13.167 -35.499 -22.5s-19.166 -20.166 -26.499 -32.499s-12 -25.5 -14 -39.5c-5.33301 -30 -0.333008 -55.167 15 -75.5s38.333 -30.5 69 -30.5c32 0 58.667 10.333 80 31s34.666 47 39.999 79z" />
    <glyph glyph-name="e" unicode="e" horiz-adv-x="420" 
d="M140 157c1.33301 -23.333 10.165 -42.335 26.498 -57.002s36.833 -22 61.5 -22c21.333 0 41.333 5.83301 60 17.5s34 26.5 46 44.5l65 -50c-30.667 -34.667 -61 -59.667 -91 -75s-62.333 -23 -97 -23c-30 0 -56.167 5.33301 -78.5 16s-40.333 24.834 -54 42.501
s-23 38 -28 61s-5.5 47.167 -1.5 72.5c4 24.667 12.5 48.5 25.5 71.5s29.5 43.333 49.5 61s42.833 31.667 68.5 42s53.167 15.5 82.5 15.5c30.667 0 56.834 -5.33301 78.501 -16s38.834 -25.667 51.501 -45s21 -42.166 25 -68.499s3.33301 -55.5 -2 -87.5h-288z
M333.999 237.998c-8.66699 32.667 -32.6689 49 -72.002 49c-19.333 0 -37.666 -4.5 -54.999 -13.5s-31.666 -20.833 -42.999 -35.5h170z" />
    <glyph glyph-name="f" unicode="f" horiz-adv-x="227" 
d="M289 511l-22.498 4.5c-5 1 -9.16699 1.5 -12.5 1.5c-12.667 0 -20.834 -3.5 -24.501 -10.5s-6.5 -15.167 -8.5 -24.5l-2 -12l-2 -12l-15 -92h84l-15 -86h-84l-46 -280h-95l46 280h-37l15 86h37l15 94c2 12 5.33301 26.667 10 44s12.667 32.666 24 45.999
c14 18 30.833 31.167 50.5 39.5s39.167 12.5 58.5 12.5c6.66699 0 14.667 -0.666992 24 -2s21.666 -5.66602 36.999 -12.999z" />
    <glyph glyph-name="g" unicode="g" horiz-adv-x="448" 
d="M414 25c-4 -23.333 -10.3311 -49.5 -18.998 -78.5s-24.667 -56.167 -48 -81.5c-23.333 -24 -49.666 -41.833 -78.999 -53.5s-60 -17.5 -92 -17.5c-24.667 0 -47.834 3.5 -69.501 10.5s-40.334 18.333 -56.001 34s-27.334 35.5 -35.001 59.5s-9.83398 53 -6.50098 87h94
c-3.33301 -38 3.16699 -65 19.5 -81s37.833 -24 64.5 -24c39.333 0 68.333 10.167 87 30.5s32.334 50.166 41.001 89.499c0 2.66699 0.166992 6.16699 0.5 10.5s0.833008 7.83301 1.5 10.5c-18 -11.333 -35.667 -19.333 -53 -24s-35 -7 -53 -7c-29.333 0 -55 5.33301 -77 16
s-40 24.834 -54 42.501s-23.667 38 -29 61s-6 46.833 -2 71.5c4 26 12.667 50.5 26 73.5s30.333 43 51 60s44 30.333 70 40s53.667 14.5 83 14.5c18 0 35 -2.83301 51 -8.5s29.667 -14.167 41 -25.5l5 31h95zM348.002 186c4.66699 28.667 -0.832031 52.3311 -16.499 70.998
s-39.5 28 -71.5 28c-14 0 -27.5 -2.83301 -40.5 -8.5s-24.833 -13.167 -35.5 -22.5s-19.5 -20.166 -26.5 -32.499s-11.5 -25.166 -13.5 -38.499c-5.33301 -30 -0.333008 -55.333 15 -76s38.333 -31 69 -31c32 0 58.667 10.333 80 31s34.666 47 39.999 79z" />
    <glyph glyph-name="h" unicode="h" horiz-adv-x="395" 
d="M358 0l-95.001 -0.00195312l36 216c4.66699 26.667 4.5 45.334 -0.5 56.001s-19.833 16 -44.5 16c-29.333 0 -50.5 -9.66699 -63.5 -29s-22.167 -45.333 -27.5 -78l-30 -181h-95l99 597h95l-41 -246c24.667 15.333 51.334 23 80.001 23
c29.333 0 52.833 -4.16699 70.5 -12.5s31 -19.666 40 -33.999s14.167 -31 15.5 -50s0.333008 -39.5 -3 -61.5z" />
    <glyph glyph-name="i" unicode="i" horiz-adv-x="181" 
d="M234 491c-3.33301 -16 -11.8311 -29.667 -25.498 -41s-28.834 -17 -45.501 -17c-17.333 0 -31 5.66699 -41 17s-13.333 25 -10 41c2.66699 16 10.667 29.667 24 41s28.666 17 45.999 17s31 -5.66699 41 -17s13.667 -25 11 -41zM43.002 0l61 367h95l-61 -367h-95z" />
    <glyph glyph-name="j" unicode="j" horiz-adv-x="182" 
d="M234 491c-3.33301 -16.667 -11.8311 -30.5 -25.498 -41.5s-28.834 -16.5 -45.501 -16.5c-17.333 0 -31 5.5 -41 16.5s-13.333 24.833 -10 41.5c2.66699 15.333 10.667 28.833 24 40.5s28.666 17.5 45.999 17.5s31 -5.83301 41 -17.5s13.667 -25.167 11 -40.5z
M7.00195 -214l97 580h95l-97 -580h-95z" />
    <glyph glyph-name="k" unicode="k" horiz-adv-x="382" 
d="M268 0l-113 135l-22 -135h-95l99 597h95l-53 -317l101 86h130l-187 -160l175 -206h-130z" />
    <glyph glyph-name="l" unicode="l" horiz-adv-x="182" 
d="M43 0l100 598h96l-100 -598h-96z" />
    <glyph glyph-name="m" unicode="m" horiz-adv-x="565" 
d="M527 0l-96.0039 0.00195312l36 221c4.66699 25.333 5.16699 42.666 1.5 51.999s-14.5 14 -32.5 14c-21.333 0 -37.666 -7.5 -48.999 -22.5s-19.333 -36.5 -24 -64.5l-33 -200h-95l35 213c4.66699 26.667 4.83398 45.667 0.500977 57s-15.5 17 -33.5 17
c-8 0 -16 -2.66699 -24 -8s-15.333 -12.333 -22 -21s-12.5 -18.834 -17.5 -30.501s-8.5 -23.834 -10.5 -36.501l-31 -191h-94l61 366h95l-5 -30c14.667 13.333 28.334 22.333 41.001 27s26 7 40 7s27.5 -2.83301 40.5 -8.5s24.5 -14.5 34.5 -26.5
c16 12.667 32.833 21.834 50.5 27.501s35.834 8.5 54.501 8.5c30 0 53.333 -4.5 70 -13.5s28.667 -20.833 36 -35.5s11 -31.167 11 -49.5s-1.33301 -36.833 -4 -55.5z" />
    <glyph glyph-name="n" unicode="n" horiz-adv-x="388" 
d="M256 0l35.001 214.001c5.33301 30 5 49.5 -1 58.5s-19.333 13.5 -40 13.5c-10.667 0 -20.834 -3.16699 -30.501 -9.5s-18.5 -14.5 -26.5 -24.5s-14.667 -21.333 -20 -34s-9 -25.334 -11 -38.001l-30 -180h-94l61 366h94l-5 -30c14 12 27.833 20.833 41.5 26.5
s26.5 8.5 38.5 8.5c28.667 0 51.667 -4 69 -12s30.333 -19 39 -33s13.5 -30.667 14.5 -50s-0.5 -40 -4.5 -62l-35 -214h-95z" />
    <glyph glyph-name="o" unicode="o" horiz-adv-x="442" 
d="M454 185c-4.66699 -27.333 -14.167 -52.666 -28.5 -75.999s-32.166 -43.666 -53.499 -60.999s-45.166 -30.833 -71.499 -40.5s-53.833 -14.5 -82.5 -14.5s-54.334 5 -77.001 15s-41.5 23.667 -56.5 41s-25.667 37.666 -32 60.999s-7.5 48 -3.5 74
c4.66699 26 14.167 50.667 28.5 74s32 43.666 53 60.999s44.5 31 70.5 41s53 15 81 15c28.667 0 54.667 -4.83301 78 -14.5s42.666 -23 57.999 -40s26.333 -37.167 33 -60.5s7.66699 -48.333 3 -75zM359 184c5.33301 30 -0.833008 54.665 -18.5 73.998s-42.5 29 -74.5 29
c-14.667 0 -28.667 -2.66699 -42 -8s-25.333 -12.666 -36 -21.999s-19.834 -20.333 -27.501 -33s-12.834 -26 -15.501 -40c-2 -14 -1.33301 -27.167 2 -39.5s8.83301 -23.333 16.5 -33s17.334 -17.167 29.001 -22.5s24.5 -8 38.5 -8c16 0 31.167 2.66699 45.5 8
s27.333 12.5 39 21.5s21.334 19.833 29.001 32.5s12.5 26.334 14.5 41.001z" />
    <glyph glyph-name="p" unicode="p" horiz-adv-x="439" 
d="M451 180c-4.66699 -26 -13.3359 -50.502 -26.0029 -73.502s-28.667 -43 -48 -60s-41.666 -30.5 -66.999 -40.5s-53 -15 -83 -15c-32 0 -62.667 8.66699 -92 26l-38 -231h-95l97 581h95l-5 -29c18.667 12.667 36.334 21.334 53.001 26.001s33.334 7.33398 50.001 8.00098
c24.667 0.666992 47.667 -3.5 69 -12.5s39.5 -22 54.5 -39s25.833 -37.5 32.5 -61.5s7.66699 -50.333 3 -79zM353.998 178.998c4.66699 30 -0.000976562 55.5 -14.001 76.5s-35 31.5 -63 31.5c-30 0 -55.5 -10.5 -76.5 -31.5s-34.167 -47.5 -39.5 -79.5
c-5.33301 -30 -0.5 -53.667 14.5 -71s37.5 -26 67.5 -26c28 0 52.333 9.66699 73 29s33.334 43 38.001 71z" />
    <glyph glyph-name="q" unicode="q" horiz-adv-x="440" 
d="M271 -214l38.998 234.999c-14.667 -8.66699 -31 -15.667 -49 -21s-35 -8 -51 -8c-29.333 0 -55.166 4.83301 -77.499 14.5s-40.5 23 -54.5 40s-23.5 37 -28.5 60s-5.16699 47.5 -0.5 73.5c4.66699 28.667 14.334 54.834 29.001 78.501s32.167 44 52.5 61
s42.5 30.167 66.5 39.5s48 14 72 14c17.333 0 34.5 -2.83301 51.5 -8.5s31.167 -14.5 42.5 -26.5l5 28h95l-97 -580h-95zM338.998 179.999c4.66699 30 -0.334961 55.5 -15.002 76.5s-36 31.5 -64 31.5c-29.333 0 -54.666 -10.5 -75.999 -31.5s-34.666 -47.5 -39.999 -79.5
c-4.66699 -28.667 0.5 -52 15.5 -70s37.5 -27 67.5 -27c27.333 0 51.5 9.66699 72.5 29s34.167 43 39.5 71z" />
    <glyph glyph-name="r" unicode="r" horiz-adv-x="255" 
d="M260 268c-6 5.33301 -11.998 8.50098 -17.998 9.50098s-9.66699 1.5 -11 1.5c-12.667 0 -23 -3.83301 -31 -11.5s-14.5 -17 -19.5 -28s-9 -22.833 -12 -35.5s-5.5 -24 -7.5 -34l-28 -170h-95l61 366h95l-5 -29c11.333 12 23.166 20.5 35.499 25.5s23.166 7.5 32.499 7.5
c14 0 26 -1.83301 36 -5.5s19.667 -7.83398 29 -12.501z" />
    <glyph glyph-name="s" unicode="s" horiz-adv-x="305" 
d="M309 119c-3.33301 -18.667 -9.82324 -35.835 -19.4902 -51.502s-21.667 -29.167 -36 -40.5s-30.333 -20.166 -48 -26.499s-35.834 -9.5 -54.501 -9.5c-32 0 -59.167 9.5 -81.5 28.5s-36.5 48.5 -42.5 88.5l91 32c3.33301 -24 9 -40.5 17 -49.5s18 -13.5 30 -13.5
s23 4.16699 33 12.5s16 18.5 18 30.5c1.33301 11.333 -1.83398 18.833 -9.50098 22.5s-17.834 7.5 -30.501 11.5c-11.333 4 -23.333 9.16699 -36 15.5s-24.334 14 -35.001 23s-18.834 19.667 -24.501 32s-7.16699 26.5 -4.5 42.5c2.66699 16.667 8.5 31.667 17.5 45
s19.833 24.5 32.5 33.5s26.667 16 42 21s30.666 7.5 45.999 7.5c20.667 0 39.667 -5 57 -15s32.666 -29 45.999 -57l-86 -44c-6.66699 16 -12.834 25.167 -18.501 27.5s-10.167 3.5 -13.5 3.5c-8 0 -14.333 -2.16699 -19 -6.5s-7.33398 -8.83301 -8.00098 -13.5
c-1.33301 -6 1.66699 -11.167 9 -15.5s16.5 -8.66602 27.5 -12.999l36.5 -15c13.333 -5.66699 25.166 -13 35.499 -22s18.5 -20.333 24.5 -34s7.33301 -30.5 4 -50.5z" />
    <glyph glyph-name="t" unicode="t" horiz-adv-x="249" 
d="M211 280l-46 -280h-96l46 280h-51l15 86h51l22 131h96l-22 -131h73l-15 -86h-73z" />
    <glyph glyph-name="u" unicode="u" horiz-adv-x="389" 
d="M376 151c-4 -22.667 -10.1641 -43.665 -18.4971 -62.998s-19.666 -36.166 -33.999 -50.499s-32.333 -25.5 -54 -33.5s-47.5 -12 -77.5 -12s-54.333 4 -73 12s-32.834 19.167 -42.501 33.5s-15.334 31.166 -17.001 50.499s-0.5 40.666 3.5 63.999l36 214h95l-36 -214
c-5.33301 -28.667 -5 -48 1 -58s22 -15 48 -15c13.333 0 24.166 1.16699 32.499 3.5s15.166 6.16602 20.499 11.499s9.5 12.833 12.5 22.5s5.83301 21.5 8.5 35.5l36 214h95z" />
    <glyph glyph-name="v" unicode="v" horiz-adv-x="400" 
d="M231 0h-60l-108 366h102l55 -184l7 -32l16 33l113 183h103z" />
    <glyph glyph-name="w" unicode="w" horiz-adv-x="622" 
d="M458 0h-60l-54 199l-117 -199h-60l-105 366h103l49 -177l8 -36l18 35l105 178h57l45 -173l7 -41l22 40l105 174h100z" />
    <glyph glyph-name="x" unicode="x" horiz-adv-x="424" 
d="M308 0l-78 121l-118 -121h-116l186 192l-116 174h117l69 -107l105 107h120l-175 -176l124 -190h-118z" />
    <glyph glyph-name="y" unicode="y" horiz-adv-x="443" 
d="M148 -214h-102l135 220l-118 360h103l83 -250l153 250h101z" />
    <glyph glyph-name="z" unicode="z" horiz-adv-x="384" 
d="M25 0l12 70l231 211h-184l15 85h324l-12 -68l-233 -213h195l-14 -85h-334z" />
    <glyph glyph-name="braceleft" unicode="{" horiz-adv-x="228" 
d="M197 -120c-30.667 2 -55.334 6.16699 -74.001 12.5s-32.667 15.333 -42 27s-14.666 25.834 -15.999 42.501s0 36 4 58l18 109c2 12 0.666992 22.333 -4 31s-15.334 20.334 -32.001 35.001l10 58l27 19c7.33301 5.33301 13 10.333 17 15s7 9.16699 9 13.5
s3.33301 9.5 4 15.5l19 111c4 22 9.5 41.5 16.5 58.5s17 31.333 30 43s29.833 20.667 50.5 27s46.667 10.166 78 11.499l-15 -89c-15.333 -0.666992 -27.333 -1.5 -36 -2.5s-15.167 -2.33301 -19.5 -4s-7.16602 -4 -8.49902 -7s-2.33301 -6.83301 -3 -11.5l-20 -119
c-4.66699 -28 -11.167 -50.5 -19.5 -67.5s-19.166 -31.5 -32.499 -43.5c9.33301 -12.667 15.333 -27.834 18 -45.501s1.66699 -40.5 -3 -68.5l-19 -114c-1.33301 -4.66699 -2 -8.66699 -2 -12s2 -6 6 -8s10.167 -3.33301 18.5 -4s20.166 -1 35.499 -1z" />
    <glyph glyph-name="bar" unicode="|" horiz-adv-x="218" 
d="M64 -7l100 596h87l-100 -596h-87z" />
    <glyph glyph-name="braceright" unicode="}" horiz-adv-x="228" 
d="M240 195c-21.333 -14.667 -35.834 -26.334 -43.501 -35.001s-12.5 -19 -14.5 -31l-18 -109c-4 -22 -9.33301 -41.333 -16 -58s-16.5 -30.834 -29.5 -42.501s-29.833 -20.667 -50.5 -27s-47 -10.5 -79 -12.5l14 90c15.333 0 27.333 0.333008 36 1s15 2 19 4
s6.83301 4.5 8.5 7.5s3.16699 7.16699 4.5 12.5l19 114c4.66699 28 11.334 50.833 20.001 68.5s19.667 32.834 33 45.501c-9.33301 12 -15.5 26.5 -18.5 43.5s-2.16699 39.5 2.5 67.5l20 119c0.666992 4.66699 0.833984 8.5 0.500977 11.5s-2.33301 5.33301 -6 7
s-9.66699 3 -18 4s-20.166 1.83301 -35.499 2.5l15 89c30.667 -1.33301 55.5 -5.16602 74.5 -11.499s33.167 -15.333 42.5 -27s14.666 -26 15.999 -43s0 -36.5 -4 -58.5l-19 -111c-1.33301 -11.333 0.166992 -21 4.5 -29s15.166 -19.333 32.499 -34z" />
    <glyph glyph-name="asciitilde" unicode="~" horiz-adv-x="458" 
d="M479 226c-22.667 -32 -46.667 -58.8379 -72 -80.5049s-53 -32.5 -83 -32.5c-14 0 -27 2.83301 -39 8.5s-23.5 11.834 -34.5 18.501s-21.667 12.834 -32 18.501s-21.5 8.5 -33.5 8.5c-3.33301 0 -6.83301 -0.666992 -10.5 -2s-8 -4.16602 -13 -8.49902
s-11 -10.333 -18 -18l-26.5 -30.5l-74 41c26.667 30.667 52.167 56.167 76.5 76.5s51.166 30.5 80.499 30.5c14 0 28 -2.83301 42 -8.5s27.167 -11.667 39.5 -18s23.5 -12.333 33.5 -18s18.333 -8.5 25 -8.5c2.66699 0 5.83398 0.666992 9.50098 2s8 4.33301 13 9
s11 11.334 18 20.001s15.5 20.334 25.5 35.001z" />
    <glyph glyph-name="uni00A0" unicode="&#xa0;" horiz-adv-x="250" 
 />
    <glyph glyph-name="cent" unicode="&#xa2;" horiz-adv-x="455" 
d="M424 140c-21.333 -17.333 -41.498 -30.502 -60.498 -39.502s-37.833 -15.833 -56.5 -20.5l-11 -67h-86l11 68c-40 12 -70 35.333 -90 70s-26 75 -18 121c4 22.667 11.167 44.167 21.5 64.5s23 38.833 38 55.5s32 30.834 51 42.501s39.167 20.167 60.5 25.5l10 59h86
l-9 -55c36 -7.33301 68 -25.333 96 -54l-62 -76c-10.667 10.667 -19.834 18.834 -27.501 24.501s-14.834 10.167 -21.501 13.5l-34 -201c7.33301 3.33301 16 8 26 14s22.667 15 38 27zM201.002 271.998c-3.33301 -20.667 -2.00195 -39.334 3.99805 -56.001
s16.667 -29.667 32 -39l32 188c-17.333 -9.33301 -32.166 -22.166 -44.499 -38.499s-20.166 -34.5 -23.499 -54.5z" />
    <glyph glyph-name="sterling" unicode="&#xa3;" horiz-adv-x="423" 
d="M358 319c3.33301 21.333 3.83105 39.667 1.49805 55s-6.66602 27.833 -12.999 37.5s-14.166 16.834 -23.499 21.501s-19.333 7 -30 7c-21.333 0 -40.5 -7.83301 -57.5 -23.5s-27.5 -36.834 -31.5 -63.501l-9 -54h98l-16 -92h-98l-19 -116h241l-16 -92h-371l16 92h31
l19 116h-31l16 92h31l9 54c4 24 11.833 47 23.5 69s26.5 41.5 44.5 58.5s38.5 30.5 61.5 40.5s47.833 15 74.5 15c26 0 49.333 -5 70 -15s37.667 -24.5 51 -43.5s22.5 -41.833 27.5 -68.5s5.16699 -56.667 0.5 -90h-100z" />
    <glyph glyph-name="yen" unicode="&#xa5;" horiz-adv-x="424" 
d="M464 375l-15 -90h-100l-28 -37h122l-15 -90h-139l-27 -159h-101l27 159h-137l15 90h120l-15 37h-99l15 90h46l-66 154h113l86 -202l155 202h113l-117 -154h47z" />
    <glyph glyph-name="copyright" unicode="&#xa9;" horiz-adv-x="560" 
d="M436 141c-21.333 -16 -42.833 -28.498 -64.5 -37.498s-43.5 -13.5 -65.5 -13.5c-24 0 -45.333 4.5 -64 13.5s-34.167 21.333 -46.5 37s-20.833 33.834 -25.5 54.501s-5 43 -1 67s12 46.333 24 67s26.667 38.667 44 54s36.833 27.5 58.5 36.5s44.5 13.5 68.5 13.5
c41.333 0 77.666 -15.667 108.999 -47l-47 -60c-15.333 17.333 -28.666 28.333 -39.999 33s-22.666 7 -33.999 7c-13.333 0 -26.333 -2.66699 -39 -8s-24.167 -12.833 -34.5 -22.5s-19.166 -20.834 -26.499 -33.501s-12.333 -26 -15 -40c-2 -14 -1.5 -27.333 1.5 -40
s8 -23.834 15 -33.501s15.833 -17.334 26.5 -23.001s22.667 -8.5 36 -8.5c11.333 0 25.166 3 41.499 9s34.166 17.667 53.499 35zM599 265.002c-6.66699 -38 -20.002 -73.833 -40.002 -107.5s-44.5 -63 -73.5 -88s-61.167 -44.667 -96.5 -59s-72 -21.5 -110 -21.5
s-72.5 7.16699 -103.5 21.5s-57 34 -78 59s-36 54.333 -45 88s-10.167 69.5 -3.5 107.5c6 38 19 73.5 39 106.5s44.667 62 74 87s62 44.667 98 59s73 21.5 111 21.5s72.333 -7.16699 103 -21.5s56.334 -34 77.001 -59s35.334 -54 44.001 -87s10 -68.5 4 -106.5z
M536.998 265.002c4.66699 29.333 3.66699 57 -3 83s-18 48.5 -34 67.5s-36 34 -60 45s-50.667 16.5 -80 16.5c-30 0 -59 -5.5 -87 -16.5s-53.167 -26.167 -75.5 -45.5s-41.166 -41.833 -56.499 -67.5s-25.333 -53.167 -30 -82.5c-5.33301 -30 -4.66602 -58 2.00098 -84
s18 -48.667 34 -68s36.167 -34.5 60.5 -45.5s51.5 -16.5 81.5 -16.5c29.333 0 57.833 5.5 85.5 16.5s52.667 26.167 75 45.5s41.166 42 56.499 68s25.666 54 30.999 84z" />
    <glyph glyph-name="guillemotleft" unicode="&#xab;" horiz-adv-x="346" 
d="M295 224l64 -97l-65 -53l-101 150l151 150l47 -53zM150 224l65 -97l-65 -53l-101 150l151 150l47 -53z" />
    <glyph glyph-name="registered" unicode="&#xae;" horiz-adv-x="620" 
d="M647 280c-6.66699 -40 -20.498 -77.5 -41.498 -112.5s-46.833 -65.5 -77.5 -91.5s-64.834 -46.667 -102.501 -62s-76.5 -23 -116.5 -23s-76.5 7.66699 -109.5 23s-60.5 36 -82.5 62s-37.833 56.5 -47.5 91.5s-11.167 72.5 -4.5 112.5s20.5 77.333 41.5 112s47 65 78 91
s65.5 46.5 103.5 61.5s77 22.5 117 22.5s76.333 -7.5 109 -22.5s60 -35.5 82 -61.5s37.667 -56.5 47 -91.5s10.666 -72.167 3.99902 -111.5zM583.002 270c5.33301 32.667 4.50195 63.1641 -2.49805 91.4971s-19 53 -36 74s-38.333 37.667 -64 50s-54.167 18.5 -85.5 18.5
c-32 0 -63 -5.83301 -93 -17.5s-57 -27.5 -81 -47.5s-44.167 -43.667 -60.5 -71s-27.166 -56.666 -32.499 -87.999c-5.33301 -32 -4.33301 -61.667 3 -89s19.666 -51.166 36.999 -71.499s39 -36.333 65 -48s55 -17.5 87 -17.5c31.333 0 61.666 5.83301 90.999 17.5
s55.833 27.334 79.5 47.001s43.667 42.5 60 68.5s27.166 53.667 32.499 83zM398.004 133.997l-54 118.001h-37l-20 -118h-63l49 293h133c38 0 64.667 -7.5 80 -22.5s20.333 -36.5 15 -64.5c-4 -24.667 -13.833 -43.834 -29.5 -57.501s-34.167 -23.167 -55.5 -28.5l60 -120
h-78zM439.004 336.998c2 12 -2 19.5 -12 22.5s-20.667 4.5 -32 4.5h-8h-62l-9 -55h51h23c8 0 15.667 0.666992 23 2c15.333 3.33301 24 12 26 26z" />
    <glyph glyph-name="guillemotright" unicode="&#xbb;" horiz-adv-x="346" 
d="M224 74l-47 53l96 97l-64 97l65 53l101 -150zM80 74l-47 53l96 97l-64 97l65 53l101 -150z" />
    <glyph glyph-name="onequarter" unicode="&#xbc;" horiz-adv-x="631" 
d="M103 0l459 527h80l-459 -527h-80zM179 463h-50l11 64h115l-49 -291h-65zM572 0h-62l8 48h-139l5 33l201 232h39l-34 -205h32l-10 -60h-32zM483 108h45l10 65z" />
    <glyph glyph-name="onehalf" unicode="&#xbd;" horiz-adv-x="631" 
d="M573 215c2 10 -0.166992 18.501 -6.5 25.501s-14.833 10.5 -25.5 10.5c-11.333 0 -21.666 -4.66699 -30.999 -14s-16 -25.333 -20 -48h-66c4 21.333 10.333 40 19 56s18.834 29.167 30.501 39.5s24.167 18 37.5 23s26.666 7.5 39.999 7.5c14 0 27 -2.66699 39 -8
s22 -12.5 30 -21.5s13.667 -19.667 17 -32s3.66602 -25.5 0.999023 -39.5c-3.33301 -22 -12 -40.667 -26 -56l-42 -45l-4 -5v1l-26.5 -22.5c-7 -5.66699 -15.5 -13.5 -25.5 -23.5h98l-10 -63h-198l8 49l64 58l61 57c7.33301 7.33301 14.833 15.666 22.5 24.999
s12.167 18 13.5 26zM75 0.000976562l459 527h80l-459 -527h-80zM179 463.001h-50l11 64h115l-49 -291h-65z" />
    <glyph glyph-name="threequarters" unicode="&#xbe;" horiz-adv-x="631" 
d="M179 218c-12.667 0 -24.498 1.99805 -35.498 5.99805s-20.5 10.167 -28.5 18.5s-13.667 19.333 -17 33s-3.33301 30.5 0 50.5h62c-3.33301 -17.333 -2 -30.166 4 -38.499s14.667 -12.5 26 -12.5s21 3.66699 29 11s13 16.333 15 27c2.66699 14 0.833984 24 -5.49902 30
s-17.833 9 -34.5 9l9 49c17.333 0 29.166 3.66699 35.499 11s10.5 16.666 12.5 27.999c3.33301 20 -5.33398 30 -26.001 30c-7.33301 0 -15.5 -3.66699 -24.5 -11s-14.5 -20.666 -16.5 -39.999h-61c6 36 18.833 63.333 38.5 82s44.5 28 74.5 28
c25.333 0 45.5 -8.66699 60.5 -26s20.5 -38.666 16.5 -63.999c-2 -11.333 -6 -22 -12 -32s-13.333 -19 -22 -27c15.333 -17.333 21 -39.333 17 -66c-4.66699 -28 -17.834 -51 -39.501 -69s-47.5 -27 -77.5 -27zM127.002 -0.00195312l459 527h80l-459 -527h-80z
M572.002 -0.00195312h-62l8 48h-139l5 33l201 232h39l-34 -205h32l-10 -60h-32zM483.002 107.998h45l10 65z" />
    <glyph glyph-name="multiply" unicode="&#xd7;" horiz-adv-x="388" 
d="M321 13l-104 124l-144 -124l-44 53l144 124l-103 124l62 53l103 -124l145 124l44 -53l-145 -124l104 -124z" />
    <glyph glyph-name="divide" unicode="&#xf7;" horiz-adv-x="393" 
d="M298 316c-2.66699 -15.333 -10 -28.166 -22 -38.499s-25.333 -15.5 -40 -15.5c-15.333 0 -27.333 5.16699 -36 15.5s-11.667 22.833 -9 37.5c2.66699 15.333 10 28.166 22 38.499s25.333 15.5 40 15.5c15.333 0 27.333 -5.16699 36 -15.5s11.667 -22.833 9 -37.5zM44 154
l14 81h356l-14 -81h-356zM258 74c-2.66699 -15.333 -10 -28.167 -22 -38.5s-25.333 -15.5 -40 -15.5c-15.333 0 -27.333 5.16699 -36 15.5s-11.667 22.833 -9 37.5c2.66699 15.333 10 28.166 22 38.499s25.333 15.5 40 15.5c15.333 0 27.333 -5.16699 36 -15.5
s11.667 -23.166 9 -38.499v1z" />
    <glyph glyph-name="kokaithai" unicode="&#xe01;" horiz-adv-x="486" 
d="M448 0l-97.001 0.00195312l43 257c4.66699 32 -2.5 58.333 -21.5 79s-47.5 31 -85.5 31c-35.333 0 -67.666 -12.667 -96.999 -38l19 -26l-50 -303h-97l45 272l-39 51c32 42 68 74.833 108 98.5s82 35.5 126 35.5c32 0 60.667 -5 86 -15s46.5 -23.833 63.5 -41.5
s29 -38.834 36 -63.501s8.16699 -51.334 3.5 -80.001z" />
    <glyph glyph-name="khokhaithai" unicode="&#xe02;" horiz-adv-x="420" 
d="M406 145c-3.33301 -21.333 -10.8379 -41.168 -22.5049 -59.501s-26.167 -34.333 -43.5 -48s-36.666 -24.5 -57.999 -32.5s-43 -12 -65 -12s-42.167 4 -60.5 12s-33.666 18.833 -45.999 32.5s-21.333 29.667 -27 48s-6.83398 38.166 -3.50098 59.499
c2.66699 18.667 7.5 34.834 14.5 48.501s16 25.834 27 36.501s23.667 20.5 38 29.5s30.166 18.167 47.499 27.5c10.667 6 18.334 11.5 23.001 16.5s7.66699 12.167 9 21.5c2 13.333 -0.5 24 -7.5 32s-17.167 12 -30.5 12c-8 0 -17.5 -3.16699 -28.5 -9.5
s-25.833 -21.166 -44.5 -44.499l-68 48c25.333 32.667 50.5 56.5 75.5 71.5s51.5 22.5 79.5 22.5c19.333 0 37 -3.16699 53 -9.5s29.333 -15.333 40 -27s18.334 -25.5 23.001 -41.5s5.33398 -33.333 2.00098 -52c-3.33301 -19.333 -8.66602 -35.5 -15.999 -48.5
s-16.166 -24.333 -26.499 -34s-22.333 -18.5 -36 -26.5l-44.5 -26c-11.333 -6.66699 -19.5 -13.334 -24.5 -20.001s-8.5 -15.667 -10.5 -27c-3.33301 -17.333 0.5 -32 11.5 -44s26.167 -18 45.5 -18s36.333 6 51 18s23.667 26.667 27 44l51 305h96z" />
    <glyph glyph-name="khokhuatthai" unicode="&#xe03;" horiz-adv-x="410" 
d="M396 145c-3.33301 -21.333 -10.8379 -41.1641 -22.5049 -59.4971s-26.167 -34.333 -43.5 -48s-36.666 -24.334 -57.999 -32.001s-43 -11.5 -65 -11.5s-42.167 3.83301 -60.5 11.5s-33.666 18.334 -45.999 32.001s-21.333 29.667 -27 48s-6.83398 38.166 -3.50098 59.499
c2.66699 17.333 7.33398 32.666 14.001 45.999s15.167 25.5 25.5 36.5s22.333 21 36 30s28.5 18.167 44.5 27.5c9.33301 5.33301 18.333 11.166 27 17.499s14 15.166 16 26.499c0.666992 5.33301 -0.666016 12.666 -3.99902 21.999l-61 -44l-97 88l68 65l46 -41l54 39
c34 -13.333 58.333 -31.166 73 -53.499s19.334 -47.833 14.001 -76.5c-3.33301 -19.333 -8.5 -35 -15.5 -47s-15.5 -22.333 -25.5 -31s-21.5 -16.667 -34.5 -24l-41.5 -24c-12 -7.33301 -21.667 -15.166 -29 -23.499s-12 -19.5 -14 -33.5
c-3.33301 -16.667 0.333984 -31.167 11.001 -43.5s25.667 -18.5 45 -18.5s36.333 6.16699 51 18.5s23.667 26.833 27 43.5l51 305h96z" />
    <glyph glyph-name="khokhwaithai" unicode="&#xe04;" horiz-adv-x="470" 
d="M432 0h-97.0029l45 272c2 12.667 1.5 24.667 -1.5 36s-8.33301 21.166 -16 29.499s-17.167 15 -28.5 20s-24 7.5 -38 7.5s-27.5 -2.5 -40.5 -7.5s-24.667 -11.667 -35 -20s-19.166 -18.166 -26.499 -29.499s-12 -23.333 -14 -36h100l-15 -89h-100l-30 -183h-97l45 272
c4 25.333 13.167 49.166 27.5 71.499s31.833 41.666 52.5 57.999s43.834 29.333 69.501 39s51.834 14.5 78.501 14.5s51.167 -4.83301 73.5 -14.5s41 -22.667 56 -39s25.833 -35.666 32.5 -57.999s8 -46.166 4 -71.499z" />
    <glyph glyph-name="khokhonthai" unicode="&#xe05;" horiz-adv-x="492" 
d="M454 0l-96.999 -0.00195312l47 284c4 28.667 -2.33301 52.334 -19 71.001l-92 -68l-68 68c-11.333 -9.33301 -20.833 -20.333 -28.5 -33s-12.5 -25.667 -14.5 -39l-2 -9h110l-15 -91h-110l-30 -183h-97l47 284c6.66699 38.667 24.5 73.667 53.5 105s67.5 57 115.5 77
l60 -59l79 58c42 -19.333 72.167 -44.666 90.5 -75.999s24.166 -66.333 17.499 -105z" />
    <glyph glyph-name="khorakhangthai" unicode="&#xe06;" horiz-adv-x="473" 
d="M461 161c-4 -26 -12.834 -49.498 -26.501 -70.498s-30 -38.833 -49 -53.5s-39.833 -25.834 -62.5 -33.501s-45 -11.5 -67 -11.5s-42.833 4.16699 -62.5 12.5s-36.167 22.166 -49.5 41.499l-7 -46h-96l31 186c4 23.333 11.333 42.833 22 58.5s22.334 29 35.001 40
s25 20.5 37 28.5s21 16 27 24c2 2.66699 3.83301 7 5.5 13s1.83398 10.667 0.500977 14l-44 -35l-79 71l60 60l37 -32l47 33c55.333 -23.333 79 -60 71 -110c-3.33301 -20 -11 -36.5 -23 -49.5s-24.833 -25 -38.5 -36s-26.5 -21.833 -38.5 -32.5
s-19.333 -23.334 -22 -38.001c-2.66699 -15.333 -1.83398 -29.666 2.49902 -42.999s11 -25.166 20 -35.499s19.833 -18.5 32.5 -24.5s26.667 -9 42 -9c23.333 0 44.5 6.66699 63.5 20s30.5 32.666 34.5 57.999l49 289h97z" />
    <glyph glyph-name="ngonguthai" unicode="&#xe07;" horiz-adv-x="397" 
d="M375 100c-2 -14.667 -7 -28.3311 -15 -40.998s-18 -23.834 -30 -33.501s-25.333 -17.334 -40 -23.001s-29.667 -8.5 -45 -8.5c-23.333 0 -43 5.83301 -59 17.5s-27 26.5 -33 44.5l-88 271l96 32l86 -266c1.33301 -5.33301 6 -8 14 -8c4.66699 0 8.66699 1.5 12 4.5
s5.33301 6.5 6 10.5l44 260h-61l15 90h157z" />
    <glyph glyph-name="chochanthai" unicode="&#xe08;" horiz-adv-x="436" 
d="M444 278c-4 -23.333 -11.3359 -43.665 -22.0029 -60.998l-121 -217h-90l-53 265h101l22 -116l55 98c5.33301 9.33301 9 19.666 11 30.999c2 12 1.5 23.167 -1.5 33.5s-8.16699 19.5 -15.5 27.5s-16.333 14.333 -27 19s-22.667 7 -36 7c-15.333 0 -29 -2.83301 -41 -8.5
s-22.667 -13.167 -32 -22.5s-17.166 -20 -23.499 -32s-11.5 -24 -15.5 -36h-97c8 30 19.5 56.833 34.5 80.5s32.5 43.5 52.5 59.5s41.667 28.333 65 37s47.333 13 72 13c26.667 0 50.834 -4.66699 72.501 -14s39.834 -22 54.501 -38s25.167 -34.833 31.5 -56.5
s7.5 -44.834 3.5 -69.501z" />
    <glyph glyph-name="chochingthai" unicode="&#xe09;" horiz-adv-x="449" 
d="M409 -1l-96.001 0.00585938l7 37c-18 -14.667 -37 -25.334 -57 -32.001s-39.667 -10 -59 -10c-20.667 0.666992 -40.334 5.16699 -59.001 13.5s-34.667 19.666 -48 33.999s-23.166 31.666 -29.499 51.999s-7.5 42.833 -3.5 67.5l4 22h-27l15 88h123l-19 -112
c-2.66699 -18 -0.5 -32.667 6.5 -44s16.833 -19.5 29.5 -24.5s26.667 -7 42 -6s30.333 5.16699 45 12.5s27.5 17.666 38.5 30.999s18.167 29.666 21.5 48.999l17 101c4 24 -1.66699 44.5 -17 61.5s-36.333 25.5 -63 25.5c-19.333 0 -38.5 -4.5 -57.5 -13.5
s-34.833 -25.167 -47.5 -48.5h-101c26.667 54 59.5 93 98.5 117s79.833 36 122.5 36c26 0 49.833 -4.66699 71.5 -14s39.834 -22 54.501 -38s25.167 -34.833 31.5 -56.5s7.5 -44.834 3.5 -69.501z" />
    <glyph glyph-name="chochangthai" unicode="&#xe0a;" horiz-adv-x="429" 
d="M420 347c11.333 -19.333 15.0029 -42.665 11.0029 -69.998l-23 -130c-3.33301 -21.333 -10.833 -41.333 -22.5 -60s-26 -34.834 -43 -48.501s-36 -24.5 -57 -32.5s-42.833 -12 -65.5 -12c-22 0 -42.167 4 -60.5 12s-33.666 18.833 -45.999 32.5
s-21.333 29.834 -27 48.501s-6.83398 38.667 -3.50098 60c3.33301 20.667 8.66602 38 15.999 52s16.5 26.167 27.5 36.5s23.667 19.666 38 27.999l47.5 26.5c10.667 6 18.334 11.5 23.001 16.5s7.66699 12.167 9 21.5c2.66699 13.333 0.5 23.833 -6.5 31.5
s-17.833 11.5 -32.5 11.5c-8 0 -17.333 -3.33301 -28 -10s-24.334 -22.334 -41.001 -47.001l-72 51c25.333 34 50.666 58.333 75.999 73s52 22 80 22c27.333 0 51.166 -6.83301 71.499 -20.5s34.5 -31.5 42.5 -53.5l121 107l58 -63zM222.003 199.001
c-11.333 -6.66699 -20.833 -13.6689 -28.5 -21.002s-12.5 -17.666 -14.5 -30.999c-3.33301 -17.333 0.666992 -32 12 -44s26.333 -18 45 -18s35.334 6 50.001 18s23.667 26.667 27 44l22 130c1.33301 8.66699 0.333008 16.667 -3 24
c-4.66699 -13.333 -10.5 -24.666 -17.5 -33.999s-15.167 -17.833 -24.5 -25.5s-19.833 -14.667 -31.5 -21s-23.834 -13.5 -36.501 -21.5z" />
    <glyph glyph-name="sosothai" unicode="&#xe0b;" horiz-adv-x="427" 
d="M418 347c11.333 -19.333 14.999 -42.667 10.999 -70l-23 -131c-3.33301 -21.333 -10.833 -41.166 -22.5 -59.499s-26.167 -34.333 -43.5 -48s-36.666 -24.5 -57.999 -32.5s-43 -12 -65 -12c-22.667 0 -43.167 4 -61.5 12s-33.666 18.833 -45.999 32.5
s-21.166 29.667 -26.499 48s-6.33301 38.166 -3 59.499c5.33301 33.333 16.166 59 32.499 77s33.666 32.5 51.999 43.5l50.5 29.5c15.333 8.66699 24.333 20.334 27 35.001c1.33301 9.33301 1 16.666 -1 21.999l-64 -46l-100 86l68 68l49 -40l56 41
c43.333 -18 71 -42.667 83 -74l118 107l59 -64zM219.999 200.999c-11.333 -7.33301 -20.999 -15.001 -28.999 -23.001s-13 -18.667 -15 -32c-3.33301 -16.667 0.666992 -31.167 12 -43.5s26.333 -18.5 45 -18.5c19.333 0 36.166 6.16699 50.499 18.5
s23.166 27.166 26.499 44.499l22 129c1.33301 8.66699 0.666016 16.667 -2.00098 24c-4.66699 -12.667 -10.667 -23.667 -18 -33s-15.666 -17.666 -24.999 -24.999s-19.666 -14.166 -30.999 -20.499z" />
    <glyph glyph-name="chochoethai" unicode="&#xe0c;" horiz-adv-x="766" 
d="M755 162c-4 -25.333 -12.3301 -48.3301 -24.9971 -68.9971s-27.834 -38.334 -45.501 -53.001s-37 -26 -58 -34s-41.833 -12 -62.5 -12c-18.667 0.666992 -36.834 4.66699 -54.501 12s-33.834 19 -48.501 35l-6 -41h-98l10 63l10 58
c2.66699 15.333 5.16699 30.666 7.5 45.999l6.5 41.5c2 12.333 3.83301 22.833 5.5 31.5s2.83398 14.334 3.50098 17.001c5.33301 32 -2 58.333 -22 79s-49.333 31 -88 31c-35.333 0 -69 -13 -101 -39l20 -24l-35 -214l65 1l-15 -91h-162l45 271l-42 51
c32.667 42 69.667 75 111 99s84.333 36 129 36c32.667 0 62 -5 88 -15s47.5 -23.833 64.5 -41.5s29.167 -38.834 36.5 -63.501s8.66602 -51.334 3.99902 -80.001l-5.5 -28.5c-1.66699 -8.33301 -3.16699 -17.5 -4.5 -27.5c-3.33301 -18.667 -3 -35.167 1 -49.5
s10.167 -26.5 18.5 -36.5s18.333 -17.5 30 -22.5s23.5 -7.5 35.5 -7.5c18.667 0 36 6.16699 52 18.5s26.333 31.833 31 58.5l48 288h99z" />
    <glyph glyph-name="yoyingthai" unicode="&#xe0d;" horiz-adv-x="762" 
d="M722 -1c-4 -24 -12.667 -46.498 -26 -67.498s-29.666 -39.333 -48.999 -55s-41.166 -28 -65.499 -37s-49.5 -13.5 -75.5 -13.5c-72.667 0 -125.667 37.667 -159 113l92 50c11.333 -28 23.5 -47.167 36.5 -57.5s28.167 -15.5 45.5 -15.5c24.667 0 47.167 7.66699 67.5 23
s32.5 35 36.5 59l4 21c-13.333 -9.33301 -27.833 -16 -43.5 -20s-31.167 -6 -46.5 -6c-25.333 0 -48.333 4.5 -69 13.5s-38 21.167 -52 36.5s-24 33.166 -30 53.499s-7 42.166 -3 65.499l16 96c5.33301 32 -1.83398 58 -21.501 78s-49.5 30 -89.5 30
c-17.333 0 -34.666 -3.33301 -51.999 -10s-33 -15.667 -47 -27l21 -24l-36 -214h65l-15 -91h-164l45 272l-40 51c32 42 68.667 74.833 110 98.5s84 35.5 128 35.5c32.667 0 62 -5 88 -15s47.667 -23.833 65 -41.5s29.666 -38.834 36.999 -63.501
s8.66602 -51.334 3.99902 -80.001l-16 -95c-3.33301 -21.333 1.66699 -39.666 15 -54.999s32.333 -23 57 -23s46 7.33301 64 22s29 33.334 33 56.001l48 289h98z" />
    <glyph glyph-name="dochadathai" unicode="&#xe0e;" horiz-adv-x="493" 
d="M304 -191c-24 19.333 -45.5 32.668 -64.5 40.001s-38.167 11 -57.5 11s-39.833 -3.66699 -61.5 -11s-48.167 -21 -79.5 -41l-41 70c39.333 24.667 74.333 42 105 52s61 15 91 15c42 0 80 -8.33301 114 -25l39 32l52 305c5.33301 32 -1.66699 58.167 -21 78.5
s-48 30.5 -86 30.5c-16.667 0 -33.667 -3.5 -51 -10.5s-33 -16.167 -47 -27.5l20 -25l-50 -303h-139l15 91h42l30 180l-40 51c32 42 68.167 74.833 108.5 98.5s82.5 35.5 126.5 35.5c32 0 60.667 -5 86 -15s46.5 -23.667 63.5 -41s29 -38.333 36 -63
s8.16699 -51.334 3.5 -80.001l-57 -338z" />
    <glyph glyph-name="topatakthai" unicode="&#xe0f;" horiz-adv-x="493" 
d="M292 -194l-66.002 70.002l-90 -70l-113 119l66 60l69 -68l86 67l64 -67l42 31l52 309c4.66699 32 -2.66602 58 -21.999 78s-48 30 -86 30c-16.667 0 -33.667 -3.33301 -51 -10s-33 -15.667 -47 -27l20 -25l-50 -303h-139l15 91h42l30 180l-40 51
c32 42 68.167 74.833 108.5 98.5s82.5 35.5 126.5 35.5c32.667 0 61.667 -5 87 -15s46.333 -23.833 63 -41.5s28.334 -38.834 35.001 -63.501s7.66699 -51.334 3 -80.001l-56 -335z" />
    <glyph glyph-name="thothanthai" unicode="&#xe10;" horiz-adv-x="436" 
d="M428 375c16.667 -28.667 21.9971 -61.333 15.9971 -98c-2.66699 -16 -5.66699 -29.5 -9 -40.5s-9.66602 -25.167 -18.999 -42.5s-23 -40.666 -41 -69.999l-75 -125h-90l-53 266h101l23 -117l55 98c5.33301 9.33301 9 19.666 11 30.999c2 12 1.33301 23.167 -2 33.5
s-8.66602 19.5 -15.999 27.5s-16.5 14.333 -27.5 19s-22.833 7 -35.5 7c-15.333 0 -29 -2.83301 -41 -8.5s-22.667 -13 -32 -22s-17.166 -19.5 -23.499 -31.5s-11.5 -24 -15.5 -36h-96c8 30 19.5 56.667 34.5 80s32.5 43 52.5 59s41.667 28.333 65 37s47.333 13 72 13
c30.667 0 57.667 -6.33301 81 -19l68 63l62 -63zM293.997 -194.999l-68 73.001l-93 -73l-117 121l67 56l69 -68l93 71l67 -68c0 2.66699 0.333008 7.5 1 14.5s1.66699 14.167 3 21.5l2 13.5c0.666992 4.33301 1.66699 9.16602 3 14.499h91l-16 -98z" />
    <glyph glyph-name="thonangmonthothai" unicode="&#xe11;" horiz-adv-x="488" 
d="M456 0l-96.998 0.000976562l56 321c2 8.66699 2 16 0 22l-276 -343h-83l32 182c4 23.333 10.667 44 20 62s19 34 29 48c11.333 16.667 21.666 31 30.999 43s13.333 22.333 12 31l-50 -41l-70 82l60 52l28 -32l49 33c56 -24 80 -59.667 72 -107
c-2.66699 -14.667 -8.33398 -28.334 -17.001 -41.001l-27 -38c-9.33301 -12.667 -18.333 -25.667 -27 -39s-14.334 -28 -17.001 -44l-1 -9l215 272c46.667 -4.66699 79.334 -19.667 98.001 -45s24.667 -56 18 -92z" />
    <glyph glyph-name="thophuthaothai" unicode="&#xe12;" horiz-adv-x="777" 
d="M765 161c-4 -26 -11.998 -49.1699 -23.998 -69.5029s-26.5 -37.666 -43.5 -51.999s-35.667 -25.333 -56 -33s-40.5 -11.5 -60.5 -11.5c-18.667 0 -37.667 3.66699 -57 11s-36.666 18.666 -51.999 33.999l-6 -40h-98c10.667 67.333 19.334 120.333 26.001 159l15 87
c1.33301 11.333 2.66602 20.5 3.99902 27.5l3 15.5c2 13.333 0.833008 25.833 -3.5 37.5s-10.5 21.167 -18.5 28.5l-85 -56l-67 57c-18 -11.333 -34.833 -28 -50.5 -50s-26.5 -51 -32.5 -87c-6.66699 -42 -2.83398 -75 11.499 -99s35.166 -36 62.499 -36
c4.66699 0 10.5 1.5 17.5 4.5s19.833 11.833 38.5 26.5l59 -64c-28 -20.667 -51.833 -35.5 -71.5 -44.5s-39.5 -13.5 -59.5 -13.5c-32 0 -59.167 6.16699 -81.5 18.5s-39.833 29 -52.5 50s-20.834 45 -24.501 72s-2.83398 55.5 2.49902 85.5
c10.667 62.667 34.5 114.334 71.5 155.001s83.5 69.667 139.5 87l55 -50l74 50c40.667 -15.333 71.5 -37 92.5 -65s27.833 -63 20.5 -105l-2 -12.5c-0.666992 -4.33301 -1.33398 -9.16602 -2.00098 -14.499l-4.5 -30l-5.5 -36c-3.33301 -18 -3.16602 -34.167 0.500977 -48.5
s9.83398 -26.333 18.501 -36s18.667 -17 30 -22s23 -7.5 35 -7.5c18 -0.666992 35.167 5.33301 51.5 18s26.5 32.334 30.5 59.001l49 289h99z" />
    <glyph glyph-name="nonenthai" unicode="&#xe13;" horiz-adv-x="761" 
d="M625 0l6 35.999c-20 -15.333 -40.167 -26.333 -60.5 -33s-40.166 -9.66699 -59.499 -9c-20 0.666992 -38.667 5.16699 -56 13.5s-32 19.666 -44 33.999s-20.5 31.666 -25.5 51.999s-5.5 42.833 -1.5 67.5l17 96c5.33301 32 -1.83398 58.167 -21.501 78.5
s-49.5 30.5 -89.5 30.5c-17.333 0 -34.666 -3.5 -51.999 -10.5s-33.333 -16.167 -48 -27.5l19 -24l-35 -214h66l-15 -90h-163l45 271l-41 51c32 42 68.667 74.833 110 98.5s84 35.5 128 35.5c32.667 0 62 -4.83301 88 -14.5s47.667 -23.334 65 -41.001
s29.666 -38.667 36.999 -63s8.66602 -51.166 3.99902 -80.499l-17 -96c-4 -26 -0.166992 -45.5 11.5 -58.5s26.834 -19.5 45.501 -19.5c12 0 24.333 2.33301 37 7s24.5 11.334 35.5 20.001s20.667 19.334 29 32.001s13.833 27.334 16.5 44.001l44 264h98l-75 -450h-98z" />
    <glyph glyph-name="dodekthai" unicode="&#xe14;" horiz-adv-x="494" 
d="M357 -1l46.999 277.998c3.33301 19.333 0.333008 36 -9 50s-22.166 24.333 -38.499 31s-34.833 9.33398 -55.5 8.00098s-40.667 -7.5 -60 -18.5s-36.5 -27.167 -51.5 -48.5s-25.167 -49 -30.5 -83c-3.33301 -20 -4 -38.167 -2 -54.5s6.5 -30.166 13.5 -41.499
s15.833 -20 26.5 -26s22.667 -9 36 -9c7.33301 0 14.666 1.5 21.999 4.5s17 9.83301 29 20.5l51 -63c-23.333 -20.667 -43.833 -34.5 -61.5 -41.5s-36.167 -10.5 -55.5 -10.5c-32 0 -59.167 5.83301 -81.5 17.5s-40 27.667 -53 48s-21.333 43.833 -25 70.5
s-2.83398 55 2.49902 85c6.66699 42 19.167 78 37.5 108s40 54.833 65 74.5s52 34.167 81 43.5s57.5 14 85.5 14c24.667 0 48.334 -4 71.001 -12s42.334 -19.5 59.001 -34.5s29 -33.5 37 -55.5s9.66699 -47 5 -75l-47 -280h-98z" />
    <glyph glyph-name="totaothai" unicode="&#xe15;" horiz-adv-x="497" 
d="M362 0l47.999 288.001c4 27.333 -2.66699 49 -20 65l-86 -57l-66 59c-17.333 -12 -33.666 -29.333 -48.999 -52s-25.666 -51 -30.999 -85c-7.33301 -40.667 -3.66602 -72.834 11.001 -96.501s35 -35.5 61 -35.5c7.33301 0 15.166 1.83301 23.499 5.5
s19.166 12.167 32.499 25.5l52 -64c-25.333 -22.667 -47.166 -37.834 -65.499 -45.501s-37.5 -11.5 -57.5 -11.5c-31.333 0 -58 6 -80 18s-39.167 28.167 -51.5 48.5s-20.333 43.833 -24 70.5s-2.83398 55 2.49902 85c10.667 62.667 34.167 114.334 70.5 155.001
s81.5 69.667 135.5 87l56 -49l71 49c40 -15.333 70.5 -37 91.5 -65s27.833 -63 20.5 -105l-48 -290h-97z" />
    <glyph glyph-name="thothungthai" unicode="&#xe16;" horiz-adv-x="486" 
d="M448 0l-97.0029 0.00195312l44 257c4.66699 32 -2.66602 58.333 -21.999 79s-48 31 -86 31c-16.667 0 -33.667 -3.5 -51 -10.5s-32.666 -16.167 -45.999 -27.5l19 -25l-35 -214h64l-15 -90h-161l45 272l-39 51c32.667 42 68.834 74.833 108.501 98.5
s81.5 35.5 125.5 35.5c32 0 60.667 -5 86 -15s46.5 -23.833 63.5 -41.5s29 -38.834 36 -63.501s8.16699 -51.334 3.5 -80.001z" />
    <glyph glyph-name="thothahanthai" unicode="&#xe17;" horiz-adv-x="470" 
d="M432 0l-97.0039 -0.000976562l48 289c4 25.333 -1.16699 44.833 -15.5 58.5s-33.166 20.5 -56.499 20.5c-14.667 0 -29.5 -3 -44.5 -9s-28.667 -14.167 -41 -24.5s-22.833 -22.166 -31.5 -35.499s-14 -27.333 -16 -42l-43 -257h-97l75 451h97l-7 -42
c40.667 32.667 82 49 124 49c22.667 0 44.334 -3.5 65.001 -10.5s38.334 -17.667 53.001 -32s25.334 -32 32.001 -53s7.66699 -45.5 3 -73.5z" />
    <glyph glyph-name="thothongthai" unicode="&#xe18;" horiz-adv-x="455" 
d="M383 298c-8.66699 26.667 -23.502 46.1611 -44.502 58.4941s-42.5 19.5 -64.5 21.5s-41.833 0 -59.5 -6s-27.167 -13.667 -28.5 -23c-1.33301 -6 2.5 -11.333 11.5 -16s19.333 -9 31 -13s23.167 -7.16699 34.5 -9.5s19 -3.83301 23 -4.5
c18.667 -4.66699 38.334 -10.334 59.001 -17.001s39 -15.667 55 -27s28.167 -25.666 36.5 -42.999s10.166 -38.666 5.49902 -63.999c-4 -25.333 -12.833 -48.166 -26.5 -68.499s-30.5 -37.5 -50.5 -51.5s-42 -24.667 -66 -32s-48.333 -11 -73 -11
c-25.333 0 -48.833 3.66699 -70.5 11s-40 18 -55 32s-26 31.167 -33 51.5s-8.5 43.166 -4.5 68.499l14 82h97c0 1.33301 -0.333008 0.333008 -1 -3c-1.33301 -4 -2.83301 -11.667 -4.5 -23s-4.5 -29.666 -8.5 -54.999c-3.33301 -22 1.83398 -39.667 15.501 -53
s35.5 -20 65.5 -20c28.667 0 52.5 6.66699 71.5 20s30.167 30.666 33.5 51.999c2 12 0.5 21.833 -4.5 29.5s-12.333 14.334 -22 20.001s-21.167 10.334 -34.5 14.001l-42 11.5c-19.333 4.66699 -39 9.83398 -59 15.501s-37.667 12.834 -53 21.501s-27.166 19.5 -35.499 32.5
s-10.833 29.167 -7.5 48.5c2.66699 16 10 30.667 22 44s27 24.833 45 34.5s38 17.334 60 23.001s44.667 8.5 68 8.5c20.667 0.666992 41 -1.33301 61 -6s38.5 -12.167 55.5 -22.5s32 -24 45 -41s22.833 -37.5 29.5 -61.5z" />
    <glyph glyph-name="nonuthai" unicode="&#xe19;" horiz-adv-x="470" 
d="M334 -1l9.00098 51.998c-19.333 -19.333 -40.5 -34 -63.5 -44s-45.167 -15 -66.5 -15c-22 0 -43 3.83301 -63 11.5s-37 18.834 -51 33.501s-24.333 32.5 -31 53.5s-8 44.5 -4 70.5l49 289h97l-49 -289c-4 -25.333 1.16699 -44.666 15.5 -57.999s33.166 -20 56.499 -20
c14 0 28.5 3.66699 43.5 11s29 16.833 42 28.5s24 24.667 33 39s14.833 28.833 17.5 43.5l41 245h97l-76 -451h-97z" />
    <glyph glyph-name="bobaimaithai" unicode="&#xe1a;" horiz-adv-x="470" 
d="M461 177c-4 -25.333 -13.165 -49.166 -27.498 -71.499s-31.833 -41.833 -52.5 -58.5s-43.834 -29.667 -69.501 -39s-51.834 -14 -78.501 -14c-27.333 0 -52 4.66699 -74 14s-40.5 22.333 -55.5 39s-25.833 36.167 -32.5 58.5s-8 46.166 -4 71.499l46 273h97l-46 -273
c-2 -12.667 -1.33301 -24.5 2 -35.5s8.83301 -20.667 16.5 -29s17.167 -15 28.5 -20s24 -7.5 38 -7.5s27.5 2.5 40.5 7.5s24.667 11.667 35 20s19 18 26 29s11.5 22.833 13.5 35.5l46 273h97z" />
    <glyph glyph-name="poplathai" unicode="&#xe1b;" horiz-adv-x="470" 
d="M461 177c-4 -25.333 -13.165 -49.166 -27.498 -71.499s-31.833 -41.833 -52.5 -58.5s-43.834 -29.667 -69.501 -39s-51.834 -14 -78.501 -14c-27.333 0 -52 4.66699 -74 14s-40.5 22.333 -55.5 39s-25.833 36.167 -32.5 58.5s-8 46.166 -4 71.499l46 273h97l-46 -273
c-2 -12.667 -1.33301 -24.5 2 -35.5s8.83301 -20.667 16.5 -29s17.167 -15 28.5 -20s24 -7.5 38 -7.5s27.5 2.5 40.5 7.5s24.667 11.667 35 20s19 18 26 29s11.5 22.833 13.5 35.5l79 474h97z" />
    <glyph glyph-name="phophungthai" unicode="&#xe1c;" horiz-adv-x="527" 
d="M509 123c-3.33301 -18 -9.82617 -34.666 -19.4932 -49.999s-21.667 -28.666 -36 -39.999s-30.333 -20.333 -48 -27s-35.834 -10 -54.501 -10c-34 0 -62 10 -84 30c-27.333 -20 -58.333 -30 -93 -30c-18.667 0 -35.834 3.33301 -51.501 10s-28.834 15.667 -39.501 27
s-18.334 24.666 -23.001 39.999s-5.33398 32 -2.00098 50l25 149c4 26 13.333 50 28 72s33.5 41.333 56.5 58s49.5 29.667 79.5 39s62.667 14 98 14l-15 -90c-46 0 -81.5 -9.33301 -106.5 -28s-39.5 -40.334 -43.5 -65.001l-25 -149c-1.33301 -10 1.16699 -18.667 7.5 -26
s15.166 -11 26.499 -11s21.5 3.66699 30.5 11s14.167 16 15.5 26l29 170h97l-29 -170c-1.33301 -10 1.16699 -18.667 7.5 -26s15.166 -11 26.499 -11s21.5 3.66699 30.5 11s14.167 16 15.5 26l55 327h97z" />
    <glyph glyph-name="fofathai" unicode="&#xe1d;" horiz-adv-x="527" 
d="M509 123c-3.33301 -18 -9.82617 -34.666 -19.4932 -49.999s-21.667 -28.666 -36 -39.999s-30.333 -20.333 -48 -27s-35.834 -10 -54.501 -10c-34 0 -62 10 -84 30c-27.333 -20 -58.333 -30 -93 -30c-18.667 0 -35.834 3.33301 -51.501 10s-28.834 15.667 -39.501 27
s-18.334 24.666 -23.001 39.999s-5.33398 32 -2.00098 50l25 149c4 26 13.333 50 28 72s33.5 41.333 56.5 58s49.5 29.667 79.5 39s62.667 14 98 14l-15 -90c-46 0 -81.5 -9.33301 -106.5 -28s-39.5 -40.334 -43.5 -65.001l-25 -149c-1.33301 -10 1.16699 -18.667 7.5 -26
s15.166 -11 26.499 -11s21.5 3.66699 30.5 11s14.167 16 15.5 26l29 170h97l-29 -170c-1.33301 -10 1.16699 -18.667 7.5 -26s15.166 -11 26.499 -11s21.5 3.66699 30.5 11s14.167 16 15.5 26l88 528h97z" />
    <glyph glyph-name="phophanthai" unicode="&#xe1e;" horiz-adv-x="545" 
d="M528 127c-3.33301 -18.667 -10.001 -36 -20.001 -52s-22.5 -30 -37.5 -42s-31.5 -21.333 -49.5 -28s-36.667 -10 -56 -10c-36 0 -65.333 11 -88 33c-29.333 -22 -62 -33 -98 -33c-19.333 0 -37.166 3.33301 -53.499 10s-30 16 -41 28s-18.833 26 -23.5 42
s-5.33398 33.333 -2.00098 52l54 323h97l-54 -323c-2 -11.333 0.5 -21 7.5 -29s17.167 -12 30.5 -12c12.667 0 23.834 4 33.501 12s15.5 17.667 17.5 29l54 323h97l-54 -323c-2 -11.333 0.5 -21 7.5 -29s17.167 -12 30.5 -12c12.667 0 24 4 34 12s16 17.667 18 29l54 323h96
z" />
    <glyph glyph-name="fofanthai" unicode="&#xe1f;" horiz-adv-x="545" 
d="M528 127c-3.33301 -18.667 -10.001 -36 -20.001 -52s-22.5 -30 -37.5 -42s-31.5 -21.333 -49.5 -28s-36.667 -10 -56 -10c-36 0 -65.333 11 -88 33c-29.333 -22 -62 -33 -98 -33c-19.333 0 -37.166 3.33301 -53.499 10s-30 16 -41 28s-18.833 26 -23.5 42
s-5.33398 33.333 -2.00098 52l54 323h97l-54 -323c-2 -11.333 0.5 -21 7.5 -29s17.167 -12 30.5 -12c12.667 0 23.834 4 33.501 12s15.5 17.667 17.5 29l54 323h97l-54 -323c-2 -11.333 0.5 -21 7.5 -29s17.167 -12 30.5 -12c12.667 0 24 4 34 12s16 17.667 18 29l87 524h96
z" />
    <glyph glyph-name="phosamphaothai" unicode="&#xe20;" horiz-adv-x="493" 
d="M359 0l42.998 257.002c4.66699 32 -2.66602 58.333 -21.999 79s-48 31 -86 31c-16.667 0 -33.5 -3.5 -50.5 -10.5s-32.5 -16.167 -46.5 -27.5l19 -25l-50 -304h-139l15 90h42l30 182l-39 51c32 42 68 74.833 108 98.5s82 35.5 126 35.5c32 0 60.833 -5 86.5 -15
s46.834 -23.833 63.501 -41.5s28.5 -38.834 35.5 -63.501s8.16699 -51.334 3.5 -80.001l-43 -257h-96z" />
    <glyph glyph-name="momathai" unicode="&#xe21;" horiz-adv-x="470" 
d="M458 161c-4 -26 -12.834 -49.498 -26.501 -70.498s-30 -38.833 -49 -53.5s-39.833 -25.834 -62.5 -33.501s-45 -11.5 -67 -11.5c-21.333 0 -41.666 5 -60.999 15s-35.666 24.667 -48.999 44l-9 -52h-97l76 451h97l-41 -245
c-2.66699 -14.667 -1.83398 -29.167 2.49902 -43.5s11 -27.333 20 -39s19.667 -21.167 32 -28.5s25.5 -11 39.5 -11c23.333 0 44.5 6.66699 63.5 20s30.5 32.666 34.5 57.999l49 289h97z" />
    <glyph glyph-name="yoyakthai" unicode="&#xe22;" horiz-adv-x="453" 
d="M443 179c-4 -26 -13.0029 -50.167 -27.0029 -72.5s-31 -41.833 -51 -58.5s-42.5 -29.834 -67.5 -39.501s-50.5 -14.5 -76.5 -14.5c-25.333 0 -48.166 4.5 -68.499 13.5s-37.666 21.5 -51.999 37.5s-25 35.333 -32 58s-9.5 47.667 -7.5 75l67 57
c-12.667 14.667 -22.667 29.334 -30 44.001s-9 33.667 -5 57c2.66699 16.667 8.5 32.334 17.5 47.001s20 27.334 33 38.001s27.5 19.167 43.5 25.5s32.333 9.5 49 9.5c17.333 0 33.5 -4 48.5 -12s32.167 -22.667 51.5 -44l-75 -64c-13.333 14 -22.5 22.333 -27.5 25
s-9.16699 4 -12.5 4c-9.33301 0 -17.333 -2.83301 -24 -8.5s-10.667 -12.5 -12 -20.5c-1.33301 -8.66699 1.33398 -16.334 8.00098 -23.001l66 -79l-104 -88c4 -18 13.333 -32.833 28 -44.5s32.667 -17.5 54 -17.5c14 0 27.333 2.5 40 7.5s24 11.833 34 20.5
s18.5 18.667 25.5 30s11.5 23.666 13.5 36.999l46 271h93z" />
    <glyph glyph-name="roruathai" unicode="&#xe23;" horiz-adv-x="429" 
d="M417 156c-4.66699 -27.333 -13.999 -51.1699 -27.999 -71.5029s-30.5 -37.166 -49.5 -50.499s-39.667 -23.5 -62 -30.5s-43.833 -10.5 -64.5 -10.5c-19.333 0 -38.5 3 -57.5 9s-35.833 15.5 -50.5 28.5s-26.334 29.667 -35.001 50s-12.334 44.833 -11.001 73.5l95 30
c-0.666992 -20 0.666016 -36.5 3.99902 -49.5s8.33301 -23.333 15 -31s14.5 -13 23.5 -16s19.167 -4.5 30.5 -4.5c24 0 45.167 6.66699 63.5 20s29.5 31 33.5 53c1.33301 10 -1.33398 18.5 -8.00098 25.5s-18.667 13.167 -36 18.5c-11.333 3.33301 -24.166 6.5 -38.499 9.5
s-28.666 6.5 -42.999 10.5s-28.166 8.66699 -41.499 14s-24.833 12 -34.5 20s-17 17.667 -22 29s-6.16699 25 -3.5 41c4 22.667 12.333 42.667 25 60s27.834 31.5 45.501 42.5s36.5 19.333 56.5 25s39.667 8.5 59 8.5c16.667 0 33.667 -2 51 -6s33.333 -10.833 48 -20.5
s27.667 -22.5 39 -38.5s19.666 -36 24.999 -60l-93 -32c-6.66699 26.667 -17 44.667 -31 54s-31.333 14 -52 14c-24 0 -42.833 -4.83301 -56.5 -14.5s-21.5 -20.167 -23.5 -31.5c-1.33301 -7.33301 1.83398 -12.166 9.50098 -14.499l27.5 -8.5
c20.667 -5.33301 43 -10.666 67 -15.999s46 -13 66 -23s35.667 -23.333 47 -40s14.666 -39 9.99902 -67z" />
    <glyph glyph-name="ruthai" unicode="&#xe24;" horiz-adv-x="486" 
d="M419 -171l-97.0029 0.00195312l73 428c4.66699 32 -2.66602 58.333 -21.999 79s-48 31 -86 31c-16.667 0 -33.667 -3.5 -51 -10.5s-32.666 -16.167 -45.999 -27.5l19 -25l-35 -214h64l-15 -90h-161l45 272l-39 51c32.667 42 68.834 74.833 108.501 98.5
s81.5 35.5 125.5 35.5c32 0 60.667 -5 86 -15s46.5 -23.833 63.5 -41.5s29 -38.834 36 -63.501s8.16699 -51.334 3.5 -80.001z" />
    <glyph glyph-name="lolingthai" unicode="&#xe25;" horiz-adv-x="448" 
d="M317 0l20.9971 125.998c4 26.667 -2.16699 47.167 -18.5 61.5s-37.833 21.5 -64.5 21.5c-24.667 0 -47.334 -7.16699 -68.001 -21.5s-33 -34.166 -37 -59.499c-2 -11.333 -0.5 -22.666 4.5 -33.999s16.167 -25.333 33.5 -42l-77 -65
c-23.333 22.667 -39.166 45.5 -47.499 68.5s-10.166 47.167 -5.49902 72.5c4 26 12.833 49.5 26.5 70.5s30.334 39 50.001 54s41.334 26.667 65.001 35s47.5 12.5 71.5 12.5c16.667 0 33.667 -2.5 51 -7.5s31 -11.833 41 -20.5l3 17
c4.66699 24.667 -1.66602 43.5 -18.999 56.5s-39.666 19.5 -66.999 19.5c-30 0 -53.833 -7 -71.5 -21s-30.834 -35 -39.501 -63h-92c8 32 19.833 59.167 35.5 81.5s33.5 40.333 53.5 54s41.167 23.5 63.5 29.5s44.166 9 65.499 9c22 0 43.667 -3.5 65 -10.5
s40 -17.5 56 -31.5s28 -31.833 36 -53.5s9.66699 -47.167 5 -76.5l-47 -283h-93z" />
    <glyph glyph-name="luthai" unicode="&#xe26;" horiz-adv-x="493" 
d="M330 -171l71.998 428.002c4.66699 32 -2.66602 58.333 -21.999 79s-48 31 -86 31c-16.667 0 -33.5 -3.5 -50.5 -10.5s-32.5 -16.167 -46.5 -27.5l19 -25l-50 -304h-139l15 90h42l30 182l-39 51c32 42 68 74.833 108 98.5s82 35.5 126 35.5c32 0 60.833 -5 86.5 -15
s46.834 -23.833 63.501 -41.5s28.5 -38.834 35.5 -63.501s8.16699 -51.334 3.5 -80.001l-72 -428h-96z" />
    <glyph glyph-name="wowaenthai" unicode="&#xe27;" horiz-adv-x="422" 
d="M430 225c-5.33301 -34 -15.8311 -65.1699 -31.498 -93.5029s-34.5 -52.666 -56.5 -72.999s-46.333 -36.333 -73 -48s-53.334 -17.5 -80.001 -17.5c-28.667 -0.666992 -56.667 5.5 -84 18.5s-52 34.5 -74 64.5l71 66c15.333 -20 31.833 -34.5 49.5 -43.5
s35.167 -13.5 52.5 -13.5c15.333 0 30.166 3.33301 44.499 10s27.333 16.167 39 28.5s21.667 27 30 44s14.5 36.167 18.5 57.5c6.66699 42.667 1.5 76.5 -15.5 101.5s-40.833 37.5 -71.5 37.5c-17.333 0 -36 -4.5 -56 -13.5s-40.667 -23.5 -62 -43.5l-49 66
c30.667 28.667 61.334 49.667 92.001 63s60 20 88 20c27.333 0.666992 52.666 -4.66602 75.999 -15.999s42.833 -27.166 58.5 -47.499s26.667 -44.833 33 -73.5s6.5 -60 0.5 -94z" />
    <glyph glyph-name="sosalathai" unicode="&#xe28;" horiz-adv-x="470" 
d="M455 384c21.333 -32.667 28.6641 -69.998 21.9971 -111.998l-45 -272h-97l45 272c2 12.667 1.5 24.667 -1.5 36s-8.33301 21.166 -16 29.499s-17.167 15 -28.5 20s-24 7.5 -38 7.5s-27.5 -2.5 -40.5 -7.5s-24.667 -11.667 -35 -20s-19.166 -18.166 -26.499 -29.499
s-12 -23.333 -14 -36h99l-15 -89h-99l-30 -183h-97l45 272c4 25.333 13.167 49.166 27.5 71.499s31.833 41.666 52.5 57.999s43.834 29.333 69.501 39s51.834 14.5 78.501 14.5c28.667 0 54 -5 76 -15l65 59l61 -62z" />
    <glyph glyph-name="sorusithai" unicode="&#xe29;" horiz-adv-x="480" 
d="M478 216l-4.99805 -24.999c-4.66699 -28 -14.334 -54 -29.001 -78s-32.5 -44.833 -53.5 -62.5s-44.667 -31.5 -71 -41.5s-53.5 -15 -81.5 -15s-53.333 5 -76 15s-41.667 23.833 -57 41.5s-26.333 38.5 -33 62.5s-7.66699 50 -3 78l44 259h97l-44 -260
c-5.33301 -30.667 0 -55.667 16 -75s40 -29 72 -29s59.167 10 81.5 30s35.833 45 40.5 75l5 25h-60c-23.333 0 -41.333 7.66699 -54 23s-17.334 33.666 -14.001 54.999l9 53h90l-7 -42h51l24 145h97l-24 -145h37l-15 -89h-37z" />
    <glyph glyph-name="sosuathai" unicode="&#xe2a;" horiz-adv-x="448" 
d="M445 375c14 -25.333 17.9971 -55.999 11.9971 -91.999l-47 -283h-93l21 126c4 26.667 -2.16699 47.167 -18.5 61.5s-37.833 21.5 -64.5 21.5c-24.667 0 -47.167 -7 -67.5 -21s-32.833 -33.667 -37.5 -59c-2 -11.333 -0.5 -22.666 4.5 -33.999s16.167 -25.333 33.5 -42
l-77 -66c-23.333 22.667 -39.166 45.5 -47.499 68.5s-10.166 47.5 -5.49902 73.5c4 26 12.833 49.5 26.5 70.5s30.334 39 50.001 54s41.334 26.5 65.001 34.5s47.5 12 71.5 12c16.667 0 33.834 -2.16699 51.501 -6.5s31.167 -11.5 40.5 -21.5
c0 1.33301 0.5 4.16602 1.5 8.49902s1.5 7.16602 1.5 8.49902c4 25.333 -2.33301 44.333 -19 57s-39 19 -67 19c-30 0 -53.833 -7 -71.5 -21s-30.834 -35 -39.501 -63h-92c8 32 19.833 59.167 35.5 81.5s33.5 40.333 53.5 54s41.167 23.5 63.5 29.5s44.166 9 65.499 9
c15.333 0 30.333 -1.5 45 -4.5s28.667 -8.16699 42 -15.5l70 64l61 -62z" />
    <glyph glyph-name="hohipthai" unicode="&#xe2b;" horiz-adv-x="464" 
d="M411 341c19.333 -12.667 33.833 -29.668 43.5 -51.001s12.167 -45 7.5 -71l-36 -219h-93l37 222c2 14 -1.33301 26.333 -10 37s-20.667 16 -36 16c-11.333 0 -26.166 -4.66699 -44.499 -14s-36.333 -19.666 -54 -30.999s-32.834 -21.833 -45.501 -31.5l-19 -14.5
l-30 -184h-93l75 450h93l-26 -157l268 169l44 -70z" />
    <glyph glyph-name="lochulathai" unicode="&#xe2c;" horiz-adv-x="545" 
d="M582 451c-4 -24 -14.668 -45.332 -32.001 -63.999c10.667 -19.333 14 -42.333 10 -69l-32 -191c-3.33301 -18.667 -10 -36 -20 -52s-22.5 -30 -37.5 -42s-31.5 -21.333 -49.5 -28s-36.667 -10 -56 -10c-36 0 -65.333 11 -88 33c-29.333 -22 -62 -33 -98 -33
c-19.333 0 -37.166 3.33301 -53.499 10s-30 16 -41 28s-18.833 26 -23.5 42s-5.33398 33.333 -2.00098 52l54 323h97l-54 -323c-2 -11.333 0.5 -21 7.5 -29s17.167 -12 30.5 -12c12.667 0 23.834 4 33.501 12s15.5 17.667 17.5 29l29 172h97l-29 -172
c-2 -11.333 0.5 -21 7.5 -29s17.167 -12 30.5 -12c12.667 0 24 4 34 12s16 17.667 18 29l32 192c2.66699 15.333 1.5 25.5 -3.5 30.5s-12.167 7.5 -21.5 7.5h-59l14 83h64c10.667 0 18 0.166992 22 0.5s6.66699 4.16602 8 11.499l6 36h95z" />
    <glyph glyph-name="oangthai" unicode="&#xe2d;" horiz-adv-x="502" 
d="M510 226c-5.33301 -31.333 -15.502 -60.999 -30.502 -88.999s-34 -52.833 -57 -74.5s-49.167 -38.834 -78.5 -51.501s-60.666 -19 -93.999 -19s-62.666 6.16699 -87.999 18.5s-46 29.166 -62 50.499s-27.167 46.166 -33.5 74.499s-6.83301 58.5 -1.5 90.5
c0.666992 2 1.33398 4.33301 2.00098 7s2.33398 9 5.00098 19h239l-15 -88h-135c5.33301 -24 17 -43.667 35 -59s41 -23 69 -23c18 0 35.5 3.66699 52.5 11s32.333 17.333 46 30s25.167 27.834 34.5 45.501s15.666 36.834 18.999 57.501
c7.33301 42.667 1.5 77.5 -17.5 104.5s-47.5 40.5 -85.5 40.5c-25.333 0 -50.5 -7.5 -75.5 -22.5s-47.833 -39.5 -68.5 -73.5l-82 35c30 48 65.667 85.167 107 111.5s86 39.5 134 39.5c34.667 0 64.5 -6.5 89.5 -19.5s45.167 -30.333 60.5 -52s25.666 -46.667 30.999 -75
s5.33301 -57.833 0 -88.5z" />
    <glyph glyph-name="honokhukthai" unicode="&#xe2e;" horiz-adv-x="502" 
d="M488 377c24.667 -42.667 31.999 -93 21.999 -151c-5.33301 -31.333 -15.5 -61 -30.5 -89s-34 -52.833 -57 -74.5s-49.167 -38.834 -78.5 -51.501s-60.666 -19 -93.999 -19s-62.666 6.16699 -87.999 18.5s-46 29.166 -62 50.499s-27.167 46.166 -33.5 74.499
s-6.83301 58.5 -1.5 90.5c0.666992 2 1.33398 4.33301 2.00098 7s2.33398 9 5.00098 19h239l-15 -88h-135c5.33301 -24 17 -43.667 35 -59s41 -23 69 -23c18 0 35.5 3.66699 52.5 11s32.333 17.333 46 30s25.167 27.834 34.5 45.501s15.666 36.834 18.999 57.501
c7.33301 42.667 1.33301 77.334 -18 104.001s-48 40 -86 40c-25.333 0 -50.333 -7.33301 -75 -22s-47.334 -39 -68.001 -73l-82 35c30.667 48.667 66.5 86 107.5 112s85.5 39 133.5 39c37.333 0 69.666 -7.66699 96.999 -23l73 67l62 -61z" />
    <glyph glyph-name="paiyannoithai" unicode="&#xe2f;" horiz-adv-x="426" 
d="M291 0l45.999 280c-25.333 -19.333 -54.666 -29 -87.999 -29c-25.333 0 -48.166 4.5 -68.499 13.5s-37.166 22.167 -50.499 39.5s-22.666 38.333 -27.999 63s-5.33301 52.667 0 84h96c-3.33301 -19.333 -3.83301 -35.833 -1.5 -49.5s6.66602 -25 12.999 -34
s14.166 -15.667 23.499 -20s19.666 -6.5 30.999 -6.5c22.667 0 43.667 8.66699 63 26s32.333 45.333 39 84h96l-75 -451h-96z" />
    <glyph glyph-name="saraathai" unicode="&#xe30;" horiz-adv-x="245" 
d="M160 268c-23.333 0 -41.832 8 -55.499 24s-18.834 35.333 -15.501 58l8 49h93l-7 -43h87l-15 -88h-95zM122.001 40c-23.333 0 -42 8 -56 24s-19 35.333 -15 58l8 48h93l-7 -42h87l-15 -88h-95z" />
    <glyph glyph-name="maihanakatthai" unicode="&#xe31;" 
d="M-150 510c-12 0 -22.666 2.33301 -31.999 7s-17.333 10.834 -24 18.501s-11.334 16.667 -14.001 27s-3 21.166 -1 32.499l9 56h84l-9 -56h236l-14 -85h-235z" />
    <glyph glyph-name="saraaathai" unicode="&#xe32;" horiz-adv-x="371" 
d="M333 0h-97.001l47 281c8.66699 58 -14.666 87 -69.999 87c-14 0 -28.167 -2.83301 -42.5 -8.5s-32.166 -17.5 -53.499 -35.5l-54 65c32.667 27.333 61.667 45.333 87 54s51.666 13 78.999 13c30.667 0 56.5 -4.5 77.5 -13.5s37.667 -21.333 50 -37s20.5 -33.667 24.5 -54
s4 -41.5 0 -63.5z" />
    <glyph glyph-name="saraamthai" unicode="&#xe33;" horiz-adv-x="371" 
d="M104 597c-4 -24.667 -16 -45.667 -36 -63s-42.333 -26 -67 -26c-24 0 -43.333 8.66699 -58 26s-20 38.333 -16 63c2 12 6.33301 23.5 13 34.5s14.667 20.5 24 28.5s19.666 14.333 30.999 19s23 7 35 7c24.667 0 44.334 -8.66699 59.001 -26s19.667 -38.333 15 -63zM333 0
h-97.001l47 281c8.66699 58 -14.666 87 -69.999 87c-14 0 -28.167 -2.83301 -42.5 -8.5s-32.166 -17.5 -53.499 -35.5l-54 65c32.667 27.333 61.667 45.333 87 54s51.666 13 78.999 13c30.667 0 56.5 -4.5 77.5 -13.5s37.667 -21.333 50 -37s20.5 -33.667 24.5 -54
s4 -41.5 0 -63.5zM40.999 596c1.33301 7.33301 0.000976562 13.666 -3.99902 18.999s-9.66699 8 -17 8s-14 -2.66699 -20 -8s-9.66699 -11.666 -11 -18.999s0.166992 -13.5 4.5 -18.5s10.166 -7.5 17.499 -7.5s13.833 2.5 19.5 7.5s9.16699 11.167 10.5 18.5z" />
    <glyph glyph-name="saraithai" unicode="&#xe34;" 
d="M-340 510l14 85h387l-14 -85h-387z" />
    <glyph glyph-name="saraiithai" unicode="&#xe35;" 
d="M-340 510l14 84h303l10 61h84l-24 -145h-387z" />
    <glyph glyph-name="sarauethai" unicode="&#xe36;" 
d="M66 583c-4 -20 -14 -37.166 -30 -51.499s-33.667 -21.5 -53 -21.5h-323l14 85h251c6 17.333 16.5 31.666 31.5 42.999s31.167 17 48.5 17c20 0 36 -7 48 -21s16.333 -31 13 -51zM17 582.001c1.33301 6.66699 0 12.334 -4 17.001s-9 7 -15 7
c-6.66699 0 -12.667 -2.33301 -18 -7s-8.66602 -10.334 -9.99902 -17.001s0 -12.334 4 -17.001s9.33301 -7 16 -7c6 0 11.667 2.33301 17 7s8.66602 10.334 9.99902 17.001z" />
    <glyph glyph-name="saraueethai" unicode="&#xe37;" 
d="M-340 510l14 84h187l10 61h80l-10 -61h40l10 61h80l-24 -145h-387z" />
    <glyph glyph-name="sarauthai" unicode="&#xe38;" 
d="M-165 -216l14 80h-40l15 92h82c13.333 0 24 -4.83301 32 -14.5s11 -21.167 9 -34.5l-21 -123h-91z" />
    <glyph glyph-name="sarauuthai" unicode="&#xe39;" 
d="M-59 -128c-2.66699 -15.333 -7.83301 -29.1689 -15.5 -41.502s-17 -22.833 -28 -31.5s-23.5 -15.5 -37.5 -20.5s-28.333 -7.5 -43 -7.5c-14 0 -27.5 1.83301 -40.5 5.5s-24.167 9.33398 -33.5 17.001s-16.333 17.334 -21 29.001s-5.66699 25.5 -3 41.5h-40l15 91h129
l-14 -85c-1.33301 -6 0 -10.667 4 -14s8.66699 -5 14 -5c12.667 0 20.667 6.33301 24 19l14 85h90l-14 -84v1z" />
    <glyph glyph-name="phinthuthai" unicode="&#xe3a;" 
d="M-41 -81c-2.66699 -16 -10.667 -29.667 -24 -41s-27.666 -17 -42.999 -17c-16 0 -28.667 5.66699 -38 17s-12.666 25 -9.99902 41s10.667 29.667 24 41s27.666 17 42.999 17c16 0 28.667 -5.66699 38 -17s12.666 -25 9.99902 -41z" />
    <glyph glyph-name="PUCR2005" unicode="&#xe3e;" 
 />
    <glyph glyph-name="bahtthai" unicode="&#xe3f;" horiz-adv-x="417" 
d="M423 159c-4 -25.333 -11.832 -47.5 -23.499 -66.5s-26 -35 -43 -48s-35.833 -23.167 -56.5 -30.5s-41.667 -12 -63 -14l-14 -81h-77l13 80h-123l89 529h123l13 77h77l-14 -81c34 -7.33301 59.667 -23 77 -47s22.333 -58 15 -102
c-4.66699 -34 -19.334 -63.333 -44.001 -88c20.667 -13.333 35.5 -31 44.5 -53s11.167 -47 6.5 -75zM333.001 379c2.66699 16 1.83301 28.333 -2.5 37s-11.5 15.334 -21.5 20.001l-19 -115c11.333 4.66699 20.5 11.167 27.5 19.5s12.167 21.166 15.5 38.499zM234 446h-39
l-22 -133h39zM339 158c4 24.667 -0.5 42 -13.5 52s-29.833 16.333 -50.5 19l-24 -144c23.333 3.33301 42.833 10.5 58.5 21.5s25.5 28.167 29.5 51.5zM198 230h-39l-25 -147h39z" />
    <glyph glyph-name="saraethai" unicode="&#xe40;" horiz-adv-x="203" 
d="M53 0l75 450h97l-75 -450h-97z" />
    <glyph glyph-name="saraaethai" unicode="&#xe41;" horiz-adv-x="376" 
d="M226 0l75 450h97l-75 -450h-97zM53 0l75 450h97l-75 -450h-97z" />
    <glyph glyph-name="saraothai" unicode="&#xe42;" horiz-adv-x="184" 
d="M170 561c15.333 -9.33301 28.1689 -21.3359 38.502 -36.0029s13.5 -33.667 9.5 -57l-78 -468h-98l78 469c1.33301 7.33301 -1.33398 13.5 -8.00098 18.5s-14 10.833 -22 17.5s-15 14.834 -21 24.501s-7.66699 23.167 -5 40.5s8.66699 31.333 18 42
s19.666 18.834 30.999 24.501s23 9.33398 35 11.001s22.333 2.5 31 2.5h139l-15 -89h-133z" />
    <glyph glyph-name="saraaimaimuanthai" unicode="&#xe43;" horiz-adv-x="184" 
d="M293 535c-4.66699 -25.333 -14.5049 -46.166 -29.5049 -62.499s-32.833 -32.833 -53.5 -49.5l-70 -423h-97l75 451l20 16.5c8.66699 7 17.334 14.5 26.001 22.5s16.5 16 23.5 24s11.167 15 12.5 21c3.33301 21.333 -6 32 -28 32
c-9.33301 0 -18.166 -4.16699 -26.499 -12.5s-14.166 -23.833 -17.499 -46.5h-94c4 24 10.833 45.167 20.5 63.5s21.334 33.833 35.001 46.5s28.834 22.167 45.501 28.5s33.667 9.5 51 9.5c18 0 34.333 -3.16699 49 -9.5s26.667 -15 36 -26s16 -23.833 20 -38.5
s4.66699 -30.334 2 -47.001z" />
    <glyph glyph-name="saraaimaimalaithai" unicode="&#xe44;" horiz-adv-x="184" 
d="M307 570c-2.66699 -14.667 -8.66699 -27 -18 -37s-19 -18.5 -29 -25.5l-27.5 -19.5c-8.33301 -6 -13.166 -12.333 -14.499 -19l-78 -469h-97l78 468c4 23.333 13.333 42.333 28 57s31 26.667 49 36h-133l15 89h139c8.66699 0 18.667 -1.16699 30 -3.5
s21.833 -6.5 31.5 -12.5s17.167 -14.167 22.5 -24.5s6.66602 -23.5 3.99902 -39.5z" />
    <glyph glyph-name="lakkhangyaothai" unicode="&#xe45;" horiz-adv-x="371" 
d="M304 -171h-97.001l76 452c8.66699 58 -14.666 87 -69.999 87c-14 0 -28.167 -2.83301 -42.5 -8.5s-32.166 -17.5 -53.499 -35.5l-54 65c32.667 27.333 61.667 45.333 87 54s51.666 13 78.999 13c30.667 0 56.5 -4.5 77.5 -13.5s37.667 -21.333 50 -37
s20.5 -33.667 24.5 -54s4 -41.5 0 -63.5z" />
    <glyph glyph-name="maiyamokthai" unicode="&#xe46;" horiz-adv-x="475" 
d="M312 -171l73.999 442.999c4.66699 28.667 -3.33301 53 -24 73l-80 -65l-58 65c-12.667 -9.33301 -23.167 -20.333 -31.5 -33s-13.833 -26.334 -16.5 -41.001c-2 -11.333 -1.33301 -22.833 2 -34.5s12 -26.167 26 -43.5l-79 -65c-21.333 25.333 -35.166 49.5 -41.499 72.5
s-7.5 46.5 -3.5 70.5c6.66699 40.667 25.5 77.334 56.5 110.001s72.5 57.667 124.5 75l43 -49l59 49c46 -17.333 79.167 -42.166 99.5 -74.499s26.833 -68.833 19.5 -109.5l-74 -443h-96z" />
    <glyph glyph-name="maitaikhuthai" unicode="&#xe47;" 
d="M-186 665c-8.66699 0 -15.8398 -4.66406 -21.5068 -13.9971s-9.16699 -19 -10.5 -29c-2 -10.667 -1.33301 -19.667 2 -27s8.33301 -11 15 -11c6 0 11.833 3.5 17.5 10.5s9.5 17.5 11.5 31.5h81c-4 -28.667 1.33301 -43 16 -43c6.66699 0 12.667 3.83301 18 11.5
s9 18.167 11 31.5h81c-3.33301 -22 -9.16602 -40.667 -17.499 -56s-18 -28 -29 -38s-23.167 -17.333 -36.5 -22s-26.666 -7 -39.999 -7c-23.333 0 -42.666 7.66699 -57.999 23c-11.333 -7.33301 -22.333 -13 -33 -17s-22 -6 -34 -6c-32 0 -56.5 10.833 -73.5 32.5
s-22.5 50.5 -16.5 86.5c2.66699 17.333 7.83398 33.666 15.501 48.999s17.334 28.666 29.001 39.999s24.834 20.166 39.501 26.499s30.334 9.5 47.001 9.5h259l-14 -82h-259z" />
    <glyph glyph-name="maiekthai" unicode="&#xe48;" 
d="M-5 703l24 146h85l-25 -146h-84z" />
    <glyph glyph-name="maithothai" unicode="&#xe49;" 
d="M-151 703l23.502 31.499c9 11.667 16.167 22.167 21.5 31.5c3.33301 4.66699 5.16602 10.334 5.49902 17.001s-3.16699 10 -10.5 10c-6.66699 0 -11.334 -2 -14.001 -6l-38 46c20.667 17.333 43 26 67 26c21.333 0 39 -6.83301 53 -20.5s19.333 -32.167 16 -55.5
c-0.666992 -2 -1.66699 -5.66699 -3 -11l9 1h150l-12 -70h-268z" />
    <glyph glyph-name="maitrithai" unicode="&#xe4a;" 
d="M-23 703c10 10.667 18.001 20.667 24.001 30c4 5.33301 7.66699 10.5 11 15.5s6 9.5 8 13.5c2.66699 4.66699 3.66699 10.167 3 16.5s-5 9.5 -13 9.5c-6.66699 0 -11.5 -2 -14.5 -6s-5.5 -11 -7.5 -21h-48c0.666992 5.33301 0.166992 11 -1.5 17s-5.16699 9 -10.5 9
c-12.667 0 -19.334 -5.33301 -20.001 -16c-1.33301 -5.33301 -0.333008 -10.333 3 -15s7 -8.66699 11 -12l2 -1l-54 -44c-29.333 18 -42 41.667 -38 71c4 24 15.667 43.667 35 59s40.666 23 63.999 23c17.333 0 32.333 -6.33301 45 -19c16.667 12.667 33.334 19 50.001 19
c21.333 0 39 -7.33301 53 -22s19.333 -34.667 16 -60l9 1l65 -1l-11 -67h-181z" />
    <glyph glyph-name="maichattawathai" unicode="&#xe4b;" 
d="M87 747l-8 -44h-85l6 43h-44l13 77h44l8 44h86l-8 -43h45l-12 -77h-45z" />
    <glyph glyph-name="thanthakhatthai" unicode="&#xe4c;" 
d="M20 728c-4.66699 0 -8.00098 -1.33301 -10.001 -4s-1.33301 -5.66699 2 -9l18 -19l-64 -56c-15.333 16 -25.333 31.167 -30 45.5s-6 28.833 -4 43.5c4.66699 24.667 15.834 44 33.501 58s38.5 21 62.5 21h98l-14 -80h-92z" />
    <glyph glyph-name="nikhahitthai" unicode="&#xe4d;" 
d="M104 597c-4 -24.667 -16 -45.667 -36 -63s-42.333 -26 -67 -26c-24 0 -43.333 8.66699 -58 26s-20 38.333 -16 63c2 12 6.33301 23.5 13 34.5s14.667 20.5 24 28.5s19.666 14.333 30.999 19s23 7 35 7c24.667 0 44.334 -8.66699 59.001 -26s19.667 -38.333 15 -63z
M41 596c1.33301 7.33301 0.000976562 13.666 -3.99902 18.999s-9.66699 8 -17 8s-14 -2.66699 -20 -8s-9.66699 -11.666 -11 -18.999s0.166992 -13.5 4.5 -18.5s10.166 -7.5 17.499 -7.5s13.833 2.5 19.5 7.5s9.16699 11.167 10.5 18.5z" />
    <glyph glyph-name="yamakkanthai" unicode="&#xe4e;" 
d="M48 668c-6.66699 7.33301 -11.665 12.0029 -14.998 14.0029s-6.66602 3 -9.99902 3c-7.33301 0 -13.5 -2.33301 -18.5 -7s-8.16699 -10.334 -9.5 -17.001c-1.33301 -6 0.5 -11.667 5.5 -17s15.833 -8 32.5 -8l-10 -59c-16 0 -27.333 -2.5 -34 -7.5
s-10.667 -10.833 -12 -17.5c-1.33301 -6 0.666992 -11.5 6 -16.5s16 -7.5 32 -7.5l-10 -60c-32 0 -55.5 8.16699 -70.5 24.5s-20.5 36.166 -16.5 59.499c1.33301 10.667 4.66602 20.5 9.99902 29.5s11.666 17.167 18.999 24.5c-10.667 14 -14.334 32.333 -11.001 55
c2 12 6 23 12 33s13.5 18.667 22.5 26s18.833 13.166 29.5 17.499s21.667 6.5 33 6.5c12 0 23 -2.5 33 -7.5s20.667 -14.167 32 -27.5z" />
    <glyph glyph-name="fongmanthai" unicode="&#xe4f;" horiz-adv-x="562" 
d="M563 237c-5.33301 -33.333 -16.8359 -64.833 -34.5029 -94.5s-39.5 -55.5 -65.5 -77.5s-55 -39.5 -87 -52.5s-64.667 -19.5 -98 -19.5s-63.666 6.5 -90.999 19.5s-50.166 30.5 -68.499 52.5s-31.5 47.833 -39.5 77.5s-9.33301 61.167 -4 94.5c6 33.333 18 64.833 36 94.5
s39.833 55.5 65.5 77.5s54.334 39.5 86.001 52.5s64.167 19.5 97.5 19.5s63.833 -6.5 91.5 -19.5s50.667 -30.5 69 -52.5s31.5 -47.833 39.5 -77.5s9 -61.167 3 -94.5zM441.997 237c-2.66699 -17.333 -8.5 -33.333 -17.5 -48s-20 -27.667 -33 -39
s-27.5 -20.166 -43.5 -26.499s-32.333 -9.5 -49 -9.5c-17.333 0 -32.833 3.16699 -46.5 9.5s-25.167 15.166 -34.5 26.499s-16 24.333 -20 39s-4.66699 30.667 -2 48c2.66699 16.667 8.5 32.5 17.5 47.5s20 28.167 33 39.5s27.5 20.166 43.5 26.499s32.667 9.5 50 9.5
c16.667 0 32 -3.16699 46 -9.5s25.5 -15.166 34.5 -26.499s15.5 -24.5 19.5 -39.5s4.66699 -30.833 2 -47.5zM493.997 233c4 24.667 3.16309 47.833 -2.50391 69.5s-15 40.667 -28 57s-29.333 29.333 -49 39s-41.5 14.5 -65.5 14.5s-47.5 -4.66699 -70.5 -14
s-43.833 -22 -62.5 -38s-34.5 -34.667 -47.5 -56s-21.5 -44 -25.5 -68s-3.16699 -46.667 2.5 -68s15.334 -40 29.001 -56s30.334 -28.667 50.001 -38s41.5 -14 65.5 -14s47.333 4.66699 70 14s43.334 22 62.001 38s34.334 34.667 47.001 56s21 44 25 68v-4zM375.993 236.999
c2.66699 15.333 -0.668945 28.666 -10.002 39.999s-21.666 17 -36.999 17s-29.666 -5.66699 -42.999 -17s-21.333 -24.666 -24 -39.999s0.833008 -28.666 10.5 -39.999s22.167 -17 37.5 -17s29.5 5.66699 42.5 17s20.833 24.666 23.5 39.999z" />
    <glyph glyph-name="zerothai" unicode="&#xe50;" horiz-adv-x="462" 
d="M480 202c-4.66699 -29.333 -14.834 -56.666 -30.501 -81.999s-34.834 -47.5 -57.501 -66.5s-48 -34 -76 -45s-56.667 -16.5 -86 -16.5s-56.166 5.5 -80.499 16.5s-44.666 26 -60.999 45s-28 41.167 -35 66.5s-8.16699 52.666 -3.5 81.999
c4.66699 28.667 14.834 55.834 30.501 81.501s34.834 48 57.501 67s48 34 76 45s56.667 16.5 86 16.5s56.166 -5.5 80.499 -16.5s44.666 -26 60.999 -45s28 -41.333 35 -67s8.16699 -52.834 3.5 -81.501zM392 202c2.66699 16.667 2 32.667 -2 48s-10.833 28.5 -20.5 39.5
s-21.667 19.833 -36 26.5s-30.166 10 -47.499 10s-34.333 -3.33301 -51 -10s-31.667 -15.5 -45 -26.5s-24.666 -24.167 -33.999 -39.5s-15.333 -31.333 -18 -48c-2.66699 -17.333 -1.83398 -33.5 2.49902 -48.5s11.333 -28 21 -39s21.667 -19.833 36 -26.5
s30.166 -10 47.499 -10s34.333 3.33301 51 10s31.667 15.5 45 26.5s24.5 24 33.5 39s14.833 31.167 17.5 48.5z" />
    <glyph glyph-name="onethai" unicode="&#xe51;" horiz-adv-x="462" 
d="M474 201c-4.66699 -29.333 -14.833 -56.666 -30.5 -81.999s-34.834 -47.5 -57.501 -66.5s-47.834 -34 -75.501 -45s-56.167 -16.5 -85.5 -16.5c-30 0 -57.833 6.16699 -83.5 18.5s-50.834 33.5 -75.501 63.5l72 61c18.667 -21.333 35.834 -36.166 51.501 -44.499
s32.167 -12.5 49.5 -12.5s34.166 3.16699 50.499 9.5s31.333 15.166 45 26.499s25.167 24.5 34.5 39.5s15.333 31.167 18 48.5c2.66699 16.667 2 32.667 -2 48s-10.833 28.666 -20.5 39.999s-21.667 20.333 -36 27s-30.166 10 -47.499 10
c-26.667 0 -51.334 -6.5 -74.001 -19.5s-40 -29.167 -52 -48.5c-6 -8.66699 -6.33301 -13 -1 -13h77l-14 -86h-80c-23.333 0 -40.666 5 -51.999 15s-18.5 22.167 -21.5 36.5s-2.33301 29.5 2 45.5s10.5 30 18.5 42c22.667 34 52.834 61.5 90.501 82.5
s77.834 31.5 120.501 31.5c30 0 57 -5.5 81 -16.5s44 -26 60 -45s27.5 -41.333 34.5 -67s8.16699 -53.167 3.5 -82.5z" />
    <glyph glyph-name="twothai" unicode="&#xe52;" horiz-adv-x="520" 
d="M533 221c-6 -34.667 -16.8379 -65.832 -32.5049 -93.499s-35.167 -51.334 -58.5 -71.001s-50 -34.834 -80 -45.501s-62 -16 -96 -16c-35.333 0 -66.166 5.83301 -92.499 17.5s-47.833 27.5 -64.5 47.5s-28.167 43.5 -34.5 70.5s-6.83301 56.167 -1.5 87.5l46 274h87
l-46 -273c-6.66699 -40 0 -73.167 20 -99.5s53.333 -39.5 100 -39.5c44 0 80.833 12.333 110.5 37s48.167 59.334 55.5 104.001c0.666992 6 2.16699 15 4.5 27s3.66602 24 3.99902 36s-0.666992 22.5 -3 31.5s-7.83301 13.5 -16.5 13.5
c-7.33301 0 -13.666 -2.33301 -18.999 -7s-8.66602 -10.334 -9.99902 -17.001c-0.666992 -1.33301 -1.5 -5.66602 -2.5 -12.999s-2.83301 -18.333 -5.5 -33h-83c2.66699 14.667 4.5 25.667 5.5 33s1.83301 11.666 2.5 12.999c1.33301 6 -0.166992 11.5 -4.5 16.5
s-11.166 7.5 -20.499 7.5c-8.66699 0 -16.167 -2.83301 -22.5 -8.5s-10.166 -13.167 -11.499 -22.5c-0.666992 -3.33301 0 -9.16602 2 -17.499s12 -18.833 30 -31.5l-67 -57c-23.333 18 -38.166 35.833 -44.499 53.5s-8.16602 35.167 -5.49902 52.5
c2.66699 14 7.66699 27.833 15 41.5s16.666 26 27.999 37s24.666 20 39.999 27s32 10.5 50 10.5c26 0 47.667 -8.33301 65 -25c22.667 16.667 48 25 76 25c26.667 0 46.334 -6.83301 59.001 -20.5s21 -30.5 25 -50.5s5 -41.167 3 -63.5s-4.33301 -41.833 -7 -58.5z" />
    <glyph glyph-name="threethai" unicode="&#xe53;" horiz-adv-x="529" 
d="M545 210c-8.66699 -50 -30.1689 -94.666 -64.502 -133.999s-81.833 -70 -142.5 -92l-28 77c46.667 16.667 81.834 37.667 105.501 63s38.167 54 43.5 86c3.33301 22 1.5 42.333 -5.5 61s-18.167 34 -33.5 46l-114 -97l-84 101c-23.333 -13.333 -42 -31 -56 -53
s-23 -45 -27 -69c-5.33301 -34 -1.33301 -62.833 12 -86.5s35 -35.5 65 -35.5c3.33301 0 7.66602 0.333008 12.999 1s13.333 4 24 10l22 -75c-17.333 -9.33301 -31.666 -15.166 -42.999 -17.499s-21.666 -3.16602 -30.999 -2.49902
c-30.667 0.666992 -56.334 7.16699 -77.001 19.5s-37 28.166 -49 47.499s-19.667 41.166 -23 65.499s-3 49.166 1 74.499c3.33301 22 9.83301 44 19.5 66s22.834 42.833 39.501 62.5s37 37.5 61 53.5s52 29 84 39l69 -82l95 80c48 -18.667 82.5 -46.5 103.5 -83.5
s27.833 -78.833 20.5 -125.5z" />
    <glyph glyph-name="fourthai" unicode="&#xe54;" horiz-adv-x="490" 
d="M513 356c-7.33301 -8 -16.667 -14.835 -28 -20.502s-23.666 -8.5 -36.999 -8.5h-159c-17.333 0 -34.333 -3.33301 -51 -10s-31.834 -15.5 -45.501 -26.5s-25.167 -24.167 -34.5 -39.5s-15.333 -31.333 -18 -48c-2.66699 -17.333 -1.83398 -33.5 2.49902 -48.5
s11.333 -28.167 21 -39.5s21.667 -20.333 36 -27s30.5 -10 48.5 -10c19.333 0 40.333 4.66699 63 14l-34 41c-7.33301 8 -13.5 16.5 -18.5 25.5s-7.66699 18.5 -8 28.5s2 20.333 7 31s13.5 21.334 25.5 32.001l45 39l52 -62l-34 -29l132 -158l-71 -60l-43 49
c-19.333 -11.333 -40.333 -20.333 -63 -27s-45.334 -10 -68.001 -10c-30 0 -57 5.5 -81 16.5s-44.167 26 -60.5 45s-28 41.333 -35 67s-8.16699 53.167 -3.5 82.5c4.66699 28.667 14.834 55.834 30.501 81.501s34.834 48 57.501 67s48 34 76 45s57 16.5 87 16.5h154l75 81
l64 -49z" />
    <glyph glyph-name="fivethai" unicode="&#xe55;" horiz-adv-x="490" 
d="M513 356c-7.33301 -8 -16.6631 -14.834 -27.9961 -20.501s-23.666 -8.5 -36.999 -8.5h-159c-17.333 0 -34.333 -3.33301 -51 -10s-31.834 -15.5 -45.501 -26.5s-25.167 -24.167 -34.5 -39.5s-15.333 -31.333 -18 -48c-2.66699 -17.333 -1.83398 -33.5 2.49902 -48.5
s11.333 -28.167 21 -39.5s21.667 -20.333 36 -27s30.5 -10 48.5 -10c19.333 0 40.333 4.66699 63 14l-34 41c-7.33301 8 -13.5 16.5 -18.5 25.5s-7.66699 18.5 -8 28.5s2 20.333 7 31s13.5 21.334 25.5 32.001l45 39l52 -62l-34 -29l132 -158l-71 -60l-43 49
c-19.333 -11.333 -40.333 -20.333 -63 -27s-45.334 -10 -68.001 -10c-30 0 -57 5.5 -81 16.5s-44.167 26 -60.5 45s-28 41.333 -35 67s-8.16699 53.167 -3.5 82.5c4 23.333 11.5 45.5 22.5 66.5s24.667 40.333 41 58s34.666 33 54.999 46s41.833 22.833 64.5 29.5
c0 6 0.333008 10 1 12c2 13.333 6.5 25.833 13.5 37.5s15.667 21.834 26 30.501s21.666 15.5 33.999 20.5s25.166 7.5 38.499 7.5c26.667 0 47.834 -9.33301 63.501 -28s21.167 -41.334 16.5 -68.001v-2h29l75 81l64 -49zM366.003 415.999
c1.33301 9.33301 -0.49707 17.166 -5.49707 23.499s-12.167 9.5 -21.5 9.5s-17.833 -3.16699 -25.5 -9.5s-12.167 -14.166 -13.5 -23.499s0.666992 -17.166 6 -23.499s12.666 -9.5 21.999 -9.5s17.666 3.16699 24.999 9.5s11.666 14.166 12.999 23.499z" />
    <glyph glyph-name="sixthai" unicode="&#xe56;" horiz-adv-x="455" 
d="M471 207c-4.66699 -29.333 -14.833 -56.8301 -30.5 -82.4971s-34.834 -48.167 -57.501 -67.5s-48 -34.666 -76 -45.999s-56.667 -17 -86 -17c-38 0 -70.333 8.5 -97 25.5s-46.667 37.833 -60 62.5c-11.333 19.333 -16.333 36.666 -15 51.999s6.83301 29.666 16.5 42.999
s22.167 26.166 37.5 38.499l47 39.5l50 -60c-3.33301 -3.33301 -8.83301 -7.66602 -16.5 -12.999s-15 -10.833 -22 -16.5s-12.667 -11.334 -17 -17.001s-5.16602 -10.834 -2.49902 -15.501c8 -15.333 20.333 -28 37 -38s35.667 -15 57 -15
c17.333 0 34.166 3.33301 50.499 10s31.333 15.834 45 27.501s25.167 25.167 34.5 40.5s15.333 31.666 18 48.999c4 22.667 1.83301 43.5 -6.5 62.5s-21.166 34.167 -38.499 45.5l-104 -89l-147 176l72 60l96 -115l79 68c24.667 -7.33301 46.5 -17.833 65.5 -31.5
s34.333 -29.5 46 -47.5s19.667 -38 24 -60s4.5 -45 0.5 -69z" />
    <glyph glyph-name="seventhai" unicode="&#xe57;" horiz-adv-x="535" 
d="M546 210c-8.66699 -50 -30.3359 -94.668 -65.0029 -134.001s-82.334 -70 -143.001 -92l-28 77c46.667 16.667 81.834 37.667 105.501 63s38.167 54 43.5 86c3.33301 21.333 1.5 41.333 -5.5 60s-18.167 34.334 -33.5 47.001l-114 -97l-84 101
c-23.333 -13.333 -42.166 -31 -56.499 -53s-23.5 -45 -27.5 -69c-5.33301 -34 -1.16602 -62.5 12.501 -85.5s35.5 -35.167 65.5 -36.5c3.33301 0 7.66602 0.5 12.999 1.5s13.333 4.5 24 10.5l22 -76c-17.333 -9.33301 -31.666 -15 -42.999 -17s-21.666 -3 -30.999 -3
c-30 0.666992 -55.5 7.16699 -76.5 19.5s-37.5 28.333 -49.5 48s-19.833 41.667 -23.5 66s-3.5 48.833 0.5 73.5c4 22 10.833 44 20.5 66s22.834 43 39.501 63s37 38 61 54s52 29 84 39l69 -83l95 81c14 -5.33301 26.167 -11.333 36.5 -18s20.166 -14.667 29.499 -24l19 113
h87z" />
    <glyph glyph-name="eightthai" unicode="&#xe58;" horiz-adv-x="538" 
d="M552 358c-7.33301 -8 -16.5049 -14.832 -27.5049 -20.499s-23.167 -8.5 -36.5 -8.5h-193c-18 0 -35.833 -3.33301 -53.5 -10s-33.667 -16 -48 -28s-26.333 -25.833 -36 -41.5s-15.834 -32.5 -18.501 -50.5c-4 -23.333 -2 -44.833 6 -64.5s20.667 -35.167 38 -46.5l118 99
l88 -105c16.667 4 30.834 12.167 42.501 24.5s18.834 26.5 21.501 42.5c3.33301 18 -1.5 34 -14.5 48s-37.5 21 -73.5 21l14 86c28.667 0 53.834 -4 75.501 -12s39.5 -19 53.5 -33s23.833 -30.333 29.5 -49s6.5 -39 2.5 -61c-3.33301 -22 -10.833 -42.333 -22.5 -61
s-26.167 -35 -43.5 -49s-37.166 -25 -59.499 -33s-45.833 -12 -70.5 -12l-63 74l-97 -81c-50 17.333 -86.5 44.833 -109.5 82.5s-30.5 80.834 -22.5 129.501c4.66699 30 15 58.167 31 84.5s35.667 49.166 59 68.499s49.333 34.666 78 45.999s58.334 17 89.001 17h180
c4.66699 0 7.33398 0.333008 8.00098 1l6 6l70 74l63 -48z" />
    <glyph glyph-name="ninethai" unicode="&#xe59;" horiz-adv-x="552" 
d="M644 451l-18 -22.9971c-4.66699 -6 -9.66699 -12 -15 -18c-6 -8 -13 -16.833 -21 -26.5s-16.667 -18.5 -26 -26.5s-19.333 -14.833 -30 -20.5s-21.334 -8.83398 -32.001 -9.50098c-11.333 -0.666992 -20.333 -0.666992 -27 0s-12.834 0.5 -18.501 -0.5
s-11.5 -3.33301 -17.5 -7s-14 -10.167 -24 -19.5l130 -272l-80 -44l-160 334c-2.66699 6.66699 -11.334 10 -26.001 10c-16 0 -31.5 -3 -46.5 -9s-28.833 -14.5 -41.5 -25.5s-23.334 -24.167 -32.001 -39.5s-14.667 -32.333 -18 -51c-2.66699 -17.333 -2 -33.5 2 -48.5
s10.833 -28 20.5 -39s21.667 -19.833 36 -26.5s30.5 -10 48.5 -10c8.66699 0 18.334 1.16699 29.001 3.5s27 8.16602 49 17.499l26 -77c-28.667 -11.333 -51.834 -19.166 -69.501 -23.499s-34.167 -6.5 -49.5 -6.5c-29.333 0 -56.166 5.5 -80.499 16.5
s-44.666 26 -60.999 45s-28 41.167 -35 66.5s-8.16699 52.666 -3.5 81.999c5.33301 30 15.333 57.833 30 83.5s32.834 48 54.501 67s45.834 33.833 72.501 44.5s54.667 16 84 16c36.667 0 65 -14 85 -42c12.667 10.667 24 18.667 34 24s19.833 9.16602 29.5 11.499
s19.834 3.5 30.501 3.5h36c4 0 9.5 3.83301 16.5 11.5s14.167 16.167 21.5 25.5s14.166 18.5 20.499 27.5s10.5 14.5 12.5 16.5z" />
    <glyph glyph-name="angkhankhuthai" unicode="&#xe5a;" horiz-adv-x="598" 
d="M291 0l45.999 280c-25.333 -19.333 -54.666 -29 -87.999 -29c-25.333 0 -48.166 4.5 -68.499 13.5s-37.166 22.167 -50.499 39.5s-22.666 38.333 -27.999 63s-5.33301 52.667 0 84h96c-3.33301 -19.333 -3.83301 -35.833 -1.5 -49.5s6.66602 -25 12.999 -34
s14.166 -15.667 23.499 -20s19.666 -6.5 30.999 -6.5c22.667 0 43.667 8.66699 63 26s32.333 45.333 39 84h96l-75 -451h-96zM633.999 451l-75 -451h-96l75 451h96z" />
    <glyph glyph-name="khomutthai" unicode="&#xe5b;" horiz-adv-x="1006" 
d="M810 187l-17.5029 -20.998l-16.5 -20l-28 -34c-9.33301 -11.333 -17 -19.666 -23 -24.999c-1.33301 8 -3.66602 17.5 -6.99902 28.5s-7.16602 22.167 -11.499 33.5l-13 33c-4.33301 10.667 -8.16602 19.667 -11.499 27c-7.33301 -9.33301 -16 -21 -26 -35
s-20.667 -28.167 -32 -42.5l-33 -40.5c-10.667 -12.667 -20 -22.334 -28 -29.001c-2.66699 8.66699 -6.16699 19.167 -10.5 31.5s-9 24.833 -14 37.5l-15 37c-5 12 -9.5 22.333 -13.5 31c-10 -22.667 -23.5 -44.334 -40.5 -65.001s-36.333 -39 -58 -55
s-45.334 -28.667 -71.001 -38s-51.834 -14 -78.501 -14c-34.667 0 -65 4.83301 -91 14.5s-47.333 23.5 -64 41.5s-28 39.5 -34 64.5s-6.33301 52.5 -1 82.5c5.33301 30.667 15 57.667 29 81s30.333 43 49 59s38.667 28 60 36s42.333 12 63 12
c19.333 0 37.5 -3.33301 54.5 -10s30.833 -16.667 41.5 -30s17.5 -30.333 20.5 -51s0.166992 -45.334 -8.5 -74.001l-85 -7c5.33301 15.333 7.83301 28.5 7.5 39.5s-2.5 20 -6.5 27s-9.5 12.167 -16.5 15.5s-14.833 5 -23.5 5s-18.167 -1.83301 -28.5 -5.5
s-20 -9.66699 -29 -18s-17.167 -19 -24.5 -32s-12.333 -28.833 -15 -47.5c-3.33301 -21.333 -2.66602 -39.5 2.00098 -54.5s12.167 -27.167 22.5 -36.5s23.333 -16.333 39 -21s32.834 -7 51.501 -7c24.667 0 48.5 6.83301 71.5 20.5s42.667 31 59 52s28 44.333 35 70
s7.16699 50.167 0.5 73.5l67 41c7.33301 -7.33301 15.333 -17 24 -29s17.167 -25 25.5 -39s16.166 -28 23.499 -42s13.333 -26.333 18 -37l13 20c4.66699 7.33301 9 14.666 13 21.999l11.5 20.5c3.66699 6.33301 6.5 11.5 8.5 15.5l62 35
c2.66699 -3.33301 6.33398 -8.66602 11.001 -15.999s9.5 -15.333 14.5 -24s9.83301 -17.5 14.5 -26.5s8.66699 -17.167 12 -24.5l20 30h233l-14 -86h-188z" />
    <glyph glyph-name="ZWSP" unicode="&#x200b;" 
 />
    <glyph glyph-name="endash" unicode="&#x2013;" horiz-adv-x="380" 
d="M22 131l15 88h378l-15 -88h-378z" />
    <glyph glyph-name="emdash" unicode="&#x2014;" horiz-adv-x="760" 
d="M22 131l15 88h758l-15 -88h-758z" />
    <glyph glyph-name="quoteleft" unicode="&#x2018;" horiz-adv-x="188" 
d="M251 566c-17.333 -9.33301 -30.498 -17.5 -39.498 -24.5s-17.167 -15.167 -24.5 -24.5c13.333 -3.33301 23.333 -9.5 30 -18.5s8.66699 -19.833 6 -32.5c-2 -14.667 -9.33301 -27.667 -22 -39s-27.334 -17 -44.001 -17c-11.333 0 -20.5 2.16699 -27.5 6.5
s-12.5 9.83301 -16.5 16.5s-6.5 14 -7.5 22s-0.833008 16 0.5 24c3.33301 20 14.166 41 32.499 63s45.5 43.667 81.5 65z" />
    <glyph glyph-name="quoteright" unicode="&#x2019;" horiz-adv-x="188" 
d="M237 532c-3.33301 -20 -14.502 -41 -33.502 -63s-46.5 -43.667 -82.5 -65l-30 41c15.333 9.33301 27.833 17.5 37.5 24.5s18.5 15.167 26.5 24.5c-28.667 6.66699 -41 23.667 -37 51c2.66699 14.667 10.334 27.667 23.001 39s27 17 43 17
c10.667 0 19.834 -2.16699 27.501 -6.5s13.5 -9.83301 17.5 -16.5s6.66699 -14 8 -22s1.33301 -16 0 -24z" />
    <glyph glyph-name="quotedblleft" unicode="&#x201c;" horiz-adv-x="308" 
d="M386 566c-17.333 -9.33301 -30.498 -17.5 -39.498 -24.5s-17.167 -15.167 -24.5 -24.5c13.333 -3.33301 23.333 -9.5 30 -18.5s8.66699 -19.833 6 -32.5c-2 -14.667 -9.33301 -27.667 -22 -39s-27.334 -17 -44.001 -17c-11.333 0 -20.5 2.16699 -27.5 6.5
s-12.5 9.83301 -16.5 16.5s-6.5 14 -7.5 22s-0.833008 16 0.5 24c3.33301 20 14.166 41 32.499 63s45.5 43.667 81.5 65zM251.002 566c-17.333 -9.33301 -30.498 -17.5 -39.498 -24.5s-17.167 -15.167 -24.5 -24.5c13.333 -3.33301 23.333 -9.5 30 -18.5
s8.66699 -19.833 6 -32.5c-2 -14.667 -9.33301 -27.667 -22 -39s-27.334 -17 -44.001 -17c-11.333 0 -20.5 2.16699 -27.5 6.5s-12.5 9.83301 -16.5 16.5s-6.5 14 -7.5 22s-0.833008 16 0.5 24c3.33301 20 14.166 41 32.499 63s45.5 43.667 81.5 65z" />
    <glyph glyph-name="quotedblright" unicode="&#x201d;" horiz-adv-x="315" 
d="M370 532c-3.33301 -20 -14.333 -41 -33 -63s-46 -43.667 -82 -65l-31 41c16 9.33301 28.667 17.5 38 24.5s18 15.167 26 24.5c-28 6.66699 -40 23.667 -36 51c2.66699 14.667 10.167 27.667 22.5 39s26.833 17 43.5 17c10.667 0 19.667 -2.16699 27 -6.5
s13 -9.83301 17 -16.5s6.66699 -14 8 -22s1.33301 -16 0 -24zM235 532c-3.33301 -20 -14.333 -41 -33 -63s-46 -43.667 -82 -65l-31 41c16 9.33301 28.667 17.5 38 24.5s18 15.167 26 24.5c-28 6.66699 -40 23.667 -36 51c2.66699 14.667 10.167 27.667 22.5 39
s26.833 17 43.5 17c10.667 0 19.667 -2.16699 27 -6.5s13 -9.83301 17 -16.5s6.66699 -14 8 -22s1.33301 -16 0 -24z" />
    <glyph glyph-name="bullet" unicode="&#x2022;" horiz-adv-x="360" 
d="M381 200c-4 -23.333 -12.168 -45.166 -24.501 -65.499s-27.333 -38.166 -45 -53.499s-37.5 -27.333 -59.5 -36s-44.333 -13 -67 -13c-23.333 0 -44.5 4.33301 -63.5 13s-34.833 20.667 -47.5 36s-21.667 33.166 -27 53.499s-6 42.166 -2 65.499
s12.167 45.166 24.5 65.499s27.333 38.166 45 53.499s37.334 27.333 59.001 36s44.167 13 67.5 13s44.5 -4.33301 63.5 -13s34.833 -20.667 47.5 -36s21.667 -33.166 27 -53.499s6 -42.166 2 -65.499z" />
    <glyph glyph-name="Euro" unicode="&#x20ac;" horiz-adv-x="556" 
d="M535 59c-39.333 -26 -74.002 -43.6699 -104.002 -53.0029s-60.333 -14 -91 -14c-27.333 0 -53.166 4 -77.499 12s-46.333 19 -66 33s-36.5 30.833 -50.5 50.5s-24.667 41.167 -32 64.5h-73l15 90h49c0.666992 3.33301 1 6.83301 1 10.5s0.666992 7.16699 2 10.5
c1.33301 8.66699 3.33301 17.334 6 26.001h-50l15 90h75c14.667 22.667 32.334 43.667 53.001 63s43 36 67 50s49.5 24.833 76.5 32.5s54.167 11.5 81.5 11.5c28 0 56 -4.66699 84 -14s57 -27.333 87 -54l-65 -77c-27.333 22.667 -50.666 36.834 -69.999 42.501
s-37.333 8.5 -54 8.5c-26.667 0 -52.5 -5.66699 -77.5 -17s-47.167 -26.666 -66.5 -45.999h135l-15 -90h-177c-2 -4.66699 -3.5 -9.33398 -4.5 -14.001s-2.16699 -9.66699 -3.5 -15c-0.666992 -3.33301 -1 -6.33301 -1 -9v-9h178l-15 -90h-138
c13.333 -20 31 -36.167 53 -48.5s46.333 -18.5 73 -18.5c8.66699 0 17.667 0.666992 27 2s19.5 3.83301 30.5 7.5s23.167 8.83398 36.5 15.501s28.666 15.667 45.999 27z" />
    <glyph glyph-name="trademark" unicode="&#x2122;" horiz-adv-x="596" 
d="M547 401l-108 -187h-30l-45 188l-70 -188h-56l119 314h34l50 -209l121 209h34l12 -314h-56zM189 218h-55l43 258h-72l9 53h199l-9 -53h-72z" />
    <glyph glyph-name="uni25CC" unicode="&#x25cc;" horiz-adv-x="670" 
d="M288 179l-50 -15l25 47c6.66699 -12 15 -22.667 25 -32zM381 413l30 45l15 -44c-3.33301 0.666992 -6.83301 1 -10.5 1h-10.5c-4 0 -8 -0.166992 -12 -0.5s-8 -0.833008 -12 -1.5zM381 156l-26.998 -42l-14 42c3.33301 -0.666992 6.83301 -1.16699 10.5 -1.5
s7.16699 -0.5 10.5 -0.5s6.66602 0.166992 9.99902 0.5s6.66602 0.833008 9.99902 1.5zM516.002 307l37.999 -22l-45 -19c1.33301 3.33301 2.33301 6.5 3 9.5s1.33398 6.16699 2.00098 9.5s1.16699 7 1.5 11s0.5 7.66699 0.5 11zM252.001 264l-41.001 23l48 22
c-3.33301 -8 -5.33301 -16 -6 -24c-0.666992 -3.33301 -1.16699 -6.83301 -1.5 -10.5s-0.166016 -7.16699 0.500977 -10.5zM291 363l-5.00098 46l42 -16c-13.333 -7.33301 -25.666 -17.333 -36.999 -30zM473.999 205l5 -41l-39 13c12.667 8 24 17.333 34 28zM474.999 393
l52 16.001l-25 -47c-6.66699 11.333 -15.667 21.666 -27 30.999z" />
    <glyph glyph-name="thothannobasethai" unicode="&#xf700;" horiz-adv-x="427" 
d="M428 375c16.667 -28.667 21.998 -61.332 15.998 -97.999c-2 -9.33301 -5.5 -20.5 -10.5 -33.5s-11 -27 -18 -42s-14.667 -30.333 -23 -46s-16.833 -30.834 -25.5 -45.501l-31.5 -54c-11 -18.667 -22.833 -37.667 -35.5 -57h-90l-53 266h102l22 -117l55 98
c6 10.667 10 21 12 31c2 12 1.33301 23.167 -2 33.5s-8.66602 19.5 -15.999 27.5s-16.5 14.333 -27.5 19s-22.833 7 -35.5 7c-15.333 0 -29 -2.83301 -41 -8.5s-22.667 -13 -32 -22s-17.166 -19.5 -23.499 -31.5s-11.5 -24 -15.5 -36h-97c8 30 19.667 56.667 35 80
s33 43 53 59s41.667 28.333 65 37s47.333 13 72 13c29.333 0 56.333 -6.33301 81 -19l67 61l62 -61z" />
    <glyph glyph-name="saraileftthai" unicode="&#xf701;" 
d="M-394 508l14 86h308l-14 -85z" />
    <glyph glyph-name="saraiileftthai" unicode="&#xf702;" 
d="M-394 508l14 85h222l9 58h86l-23 -142z" />
    <glyph glyph-name="saraueleftthai" unicode="&#xf703;" 
d="M-67 581c-3.33301 -20 -13.167 -37.166 -29.5 -51.499s-34.5 -21.5 -54.5 -21.5h-243l14 85h172c5.33301 17.333 15.666 31.666 30.999 42.999s32 17 50 17c20 0 35.833 -7 47.5 -21s15.834 -31 12.501 -51zM-116.001 580.001
c1.33301 6.66699 0.00195312 12.334 -3.99805 17.001s-9 7 -15 7c-6.66699 0 -12.834 -2.33301 -18.501 -7s-9.16699 -10.334 -10.5 -17.001s0.166992 -12.334 4.5 -17.001s9.5 -7 15.5 -7c6.66699 0 12.667 2.33301 18 7s8.66602 10.334 9.99902 17.001z" />
    <glyph glyph-name="saraueeleftthai" unicode="&#xf704;" 
d="M-394 508l14 85h106l9 58h81l-9 -58h40l9 58h81l-23 -142z" />
    <glyph glyph-name="maieklowleftthai" unicode="&#xf705;" 
d="M-199 509l29 178h93l-29 -178h-93z" />
    <glyph glyph-name="maitholowleftthai" unicode="&#xf706;" 
d="M-318 509l25.001 34.499c10 13.667 17.667 24.834 23 33.501c3.33301 4.66699 5.33301 10.5 6 17.5s-2.66602 10.5 -9.99902 10.5s-12 -2 -14 -6l-39 45c9.33301 8.66699 20.166 15.167 32.499 19.5s24.166 6.5 35.499 6.5c21.333 0 39 -6.83301 53 -20.5
s19 -32.167 15 -55.5c0 -4.66699 -1 -8 -3 -10h9h118l-12 -75h-239z" />
    <glyph glyph-name="maitrilowleftthai" unicode="&#xf707;" 
d="M-227 509l25.502 31.501c9.66699 12.333 17.167 23.166 22.5 32.499c3.33301 6 4 11.5 2 16.5s-5.66699 7.5 -11 7.5c-4 0 -8.16699 -1.83301 -12.5 -5.5s-7.16602 -10.167 -8.49902 -19.5h-53c2 17.333 -1.66699 26 -11 26c-10 0 -16 -5.33301 -18 -16
c-1.33301 -5.33301 -0.333008 -9.83301 3 -13.5l10 -10.5c1.33301 -1.33301 2.66602 -2.33301 3.99902 -3s2.66602 -1.66699 3.99902 -3l-59 -48c-15.333 9.33301 -27 20.333 -35 33s-10.333 27 -7 43c2 12.667 6.16699 24.334 12.5 35.001s14.333 19.667 24 27
s20.334 13.166 32.001 17.499s23.5 6.5 35.5 6.5c7.33301 0 15 -1.33301 23 -4s15 -7 21 -13c8 6 16.5 10.333 25.5 13s17.5 4 25.5 4c23.333 0 42.166 -7.5 56.499 -22.5s20.166 -34.5 17.499 -58.5h4h27l-12 -76h-148z" />
    <glyph glyph-name="maichattawalowleftthai" unicode="&#xf708;" 
d="M-130 566l-9 -57h-90l9 56h-59l14 83h59l9 57h90l-9 -56h60l-14 -83h-60z" />
    <glyph glyph-name="thanthakhatlowleftthai" unicode="&#xf709;" 
d="M-162 571c-4.66699 0 -7.83105 -1.16797 -9.49805 -3.50098s-0.833984 -5.16602 2.49902 -8.49902l17 -20l-61 -56c-15.333 16 -25.833 31.333 -31.5 46s-7.5 29 -5.5 43c4 24.667 14.667 44 32 58s38.666 21 63.999 21h98l-13 -80h-93z" />
    <glyph glyph-name="maieklowrightthai" unicode="&#xf70a;" 
d="M-45 509l30 179h92l-30 -178z" />
    <glyph glyph-name="maitholowrightthai" unicode="&#xf70b;" 
d="M-190 509l24.5029 34.499l23.5 33.5c3.33301 4.66699 5.16602 10.5 5.49902 17.5s-3.16699 10.5 -10.5 10.5c-6.66699 0 -11.334 -2 -14.001 -6l-39 45c10 8.66699 21.167 15.167 33.5 19.5s24.166 6.5 35.499 6.5c21.333 0 39 -6.83301 53 -20.5s19 -32.167 15 -55.5
c0 -3.33301 -1.33301 -6.66602 -4 -9.99902h9h117l-12 -75h-237z" />
    <glyph glyph-name="maitrilowrightthai" unicode="&#xf70c;" 
d="M-111 509c7.33301 8.66699 15.834 19.332 25.501 31.999s16.834 23.334 21.501 32.001c3.33301 6 4 11.5 2 16.5s-5.66699 7.5 -11 7.5c-4.66699 0 -9 -2 -13 -6s-6.66699 -10.333 -8 -19h-52c1.33301 9.33301 0.666016 16 -2.00098 20s-6 6 -10 6
c-9.33301 0 -15 -5.33301 -17 -16c-1.33301 -7.33301 0.5 -13.333 5.5 -18s9.5 -8.66699 13.5 -12l-57 -48c-15.333 9.33301 -27 20.333 -35 33s-10.333 27 -7 43c2 12.667 6.16699 24.334 12.5 35.001s14.333 19.667 24 27s20.167 13.166 31.5 17.499s23 6.5 35 6.5
c8 0 16 -1.33301 24 -4s15 -7 21 -13c7.33301 6 15.666 10.333 24.999 13s18 4 26 4c22.667 0 41.167 -7.5 55.5 -22.5s19.833 -34.5 16.5 -58.5h4h77l-12 -76h-196z" />
    <glyph glyph-name="maichattawalowrightthai" unicode="&#xf70d;" 
d="M56 566l-9 -57h-89l9 56h-59l14 83h59l9 57h89l-9 -56h60l-14 -83h-60z" />
    <glyph glyph-name="thanthakhatlowrightthai" unicode="&#xf70e;" 
d="M-10 578c-4.66699 0 -7.83105 -1.16797 -9.49805 -3.50098s-0.833984 -5.16602 2.49902 -8.49902l17 -20l-66 -56c-15.333 16 -25 31.167 -29 45.5s-5 28.833 -3 43.5c4.66699 24.667 15.667 44 33 58s38.666 21 63.999 21h97l-14 -80h-92z" />
    <glyph glyph-name="yoyingnobasethai" unicode="&#xf70f;" horiz-adv-x="749" 
d="M746 162c-4 -23.333 -12.501 -45.3311 -25.501 -65.998s-29 -38.667 -48 -54s-40.333 -27.333 -64 -36s-48.167 -13 -73.5 -13s-48.333 4.33301 -69 13s-38 20.667 -52 36s-24 33.333 -30 54s-7 42.667 -3 66l16 95c5.33301 32 -2 58.167 -22 78.5s-49.333 30.5 -88 30.5
c-17.333 0 -34.833 -3.5 -52.5 -10.5s-33.5 -16.167 -47.5 -27.5l20 -24l-35 -213h65l-15 -91h-163l45 271l-42 51c32.667 42 69.667 74.833 111 98.5s84.333 35.5 129 35.5c32.667 0 62 -5 88 -15s47.5 -23.833 64.5 -41.5s29 -38.834 36 -63.501
s8.16699 -51.334 3.5 -80.001l-15 -94c-4 -21.333 0.666992 -39.833 14 -55.5s32.333 -23.5 57 -23.5s46.334 7.5 65.001 22.5s30 33.833 34 56.5l48 289h98z" />
    <glyph glyph-name="maihanakatleftthai" unicode="&#xf710;" 
d="M-135 510c-12 0 -22.666 2.33301 -31.999 7s-17.333 10.834 -24 18.501s-11.334 16.667 -14.001 27s-3 21.166 -1 32.499l9 56h84l-9 -56h236l-14 -85h-235z" />
    <glyph glyph-name="nikhahitleftthai" unicode="&#xf711;" 
d="M-71 592c-4.66699 -24.667 -17 -45.667 -37 -63s-42.333 -26 -67 -26s-44.334 8.66699 -59.001 26s-19.667 38.333 -15 63c4 24.667 16 45.667 36 63s42.333 26 67 26s44.334 -8.66699 59.001 -26s20 -38.333 16 -63zM-135 591
c1.33301 7.33301 0.000976562 13.666 -3.99902 18.999s-9.66699 8 -17 8s-14 -2.66699 -20 -8s-9.66699 -11.666 -11 -18.999s0.166992 -13.5 4.5 -18.5s10.166 -7.5 17.499 -7.5s13.833 2.5 19.5 7.5s9.16699 11.167 10.5 18.5z" />
    <glyph glyph-name="maitaikhuleftthai" unicode="&#xf712;" 
d="M-277 661c-6 0 -11.667 -4.16504 -17 -12.498s-8.66602 -16.833 -9.99902 -25.5c-2 -12 -1.66699 -21.5 1 -28.5s7.33398 -10.5 14.001 -10.5c13.333 0 22.666 14 27.999 42h77c-4 -28.667 0.333008 -43 13 -43c8 0 14 3.5 18 10.5s7.33301 17.833 10 32.5h80
c-7.33301 -42.667 -22 -72.834 -44 -90.501s-47 -26.5 -75 -26.5c-22 0 -41 7 -57 21c-9.33301 -6.66699 -19.333 -11.834 -30 -15.501s-21.667 -5.5 -33 -5.5c-30 0 -52.333 11 -67 33s-19.334 49 -14.001 81c2.66699 16 7.5 30.833 14.5 44.5s15.833 25.667 26.5 36
s22.667 18.5 36 24.5s27.333 9 42 9h237l-13 -76h-237z" />
    <glyph glyph-name="maiekupperleftthai" unicode="&#xf713;" 
d="M-140 703l25 146h86l-25 -146h-86z" />
    <glyph glyph-name="maithoupperleftthai" unicode="&#xf714;" 
d="M-174 703l23.499 31.499c9 11.667 16.5 22.167 22.5 31.5c2.66699 4.66699 4.16699 10.334 4.5 17.001s-3.16699 10 -10.5 10c-5.33301 0 -10 -2 -14 -6l-37 46c9.33301 8.66699 20 15.167 32 19.5s23.667 6.5 35 6.5c21.333 0 39 -6.83301 53 -20.5
s19.333 -32.167 16 -55.5c-0.666992 -1.33301 -1.16699 -3 -1.5 -5s-1.16602 -4 -2.49902 -6l9 1l135 -1l-12 -69h-253z" />
    <glyph glyph-name="maitriupperleftthai" unicode="&#xf715;" 
d="M-65 703c5.33301 5.33301 10.001 10.5 14.001 15.5s7.66699 9.83301 11 14.5c4 5.33301 7.66699 10.5 11 15.5s6 9.5 8 13.5c2.66699 4.66699 3.66699 10.167 3 16.5s-5 9.5 -13 9.5c-7.33301 0 -12.5 -2 -15.5 -6s-5.5 -11 -7.5 -21h-48
c0.666992 5.33301 0.166992 11 -1.5 17s-5.16699 9 -10.5 9c-12.667 0 -19.334 -5.33301 -20.001 -16c-1.33301 -5.33301 -0.333008 -10.333 3 -15s7 -8.66699 11 -12l2 -1l-54 -44c-29.333 18 -42 41.667 -38 71c4 24 15.667 43.667 35 59s40.666 23 63.999 23
c17.333 0 32.333 -6.33301 45 -19c8.66699 6.66699 17.5 11.5 26.5 14.5s17.167 4.5 24.5 4.5c21.333 0 38.833 -7.33301 52.5 -22s18.834 -34.667 15.501 -60l9 1l65 -1l-11 -67h-181z" />
    <glyph glyph-name="maichattawaupperleftthai" unicode="&#xf716;" 
d="M-46 747l-8 -44h-86l7 43h-46l13 77h45l8 44h86l-8 -43h45l-12 -77h-44z" />
    <glyph glyph-name="thanthakhatupperleftthai" unicode="&#xf717;" 
d="M-103 728c-4.66699 0 -7.83398 -1.33398 -9.50098 -4.00098s-0.833984 -5.66699 2.49902 -9l18 -20l-65 -55c-15.333 16 -25.333 31.167 -30 45.5s-6 28.833 -4 43.5c4.66699 24.667 15.834 43.834 33.501 57.501s38.834 20.5 63.501 20.5h97l-13 -79h-93z" />
    <glyph glyph-name="saraulowthai" unicode="&#xf718;" 
d="M-191 -371l14 80h-41l15 91h83c13.333 0 24 -4.83301 32 -14.5s11 -21.167 9 -34.5l-21 -122h-91z" />
    <glyph glyph-name="sarauulowthai" unicode="&#xf719;" 
d="M-85 -283c-2.66699 -15.333 -7.83301 -29.1689 -15.5 -41.502s-17 -22.833 -28 -31.5s-23.5 -15.5 -37.5 -20.5s-28.333 -7.5 -43 -7.5c-14 0 -27.5 1.83301 -40.5 5.5s-24.167 9.33398 -33.5 17.001s-16.333 17.334 -21 29.001s-5.66699 25.5 -3 41.5h-40l15 91h129
l-14 -85c-1.33301 -6 0 -10.667 4 -14s8.66699 -5 14 -5c12.667 0 20.667 6.33301 24 19l14 85h90l-14 -84v1z" />
    <glyph glyph-name="phinthulowthai" unicode="&#xf71a;" 
d="M-70 -252c-2.66699 -16 -10.501 -29.666 -23.501 -40.999s-27.167 -17 -42.5 -17c-16 0 -28.833 5.66699 -38.5 17s-13.167 24.666 -10.5 39.999c3.33301 16 11.5 29.667 24.5 41s27.167 17 42.5 17c16 0 28.833 -5.66699 38.5 -17s12.834 -25 9.50098 -41v1z" />
    <glyph glyph-name="lochula.short" unicode="&#xf71d;" horiz-adv-x="545" 
d="M582 451c-4 -24 -14.668 -45.332 -32.001 -63.999c10.667 -19.333 14 -42.333 10 -69l-32 -191c-3.33301 -18.667 -10 -36 -20 -52s-22.5 -30 -37.5 -42s-31.5 -21.333 -49.5 -28s-36.667 -10 -56 -10c-36 0 -65.333 11 -88 33c-29.333 -22 -62 -33 -98 -33
c-19.333 0 -37.166 3.33301 -53.499 10s-30 16 -41 28s-18.833 26 -23.5 42s-5.33398 33.333 -2.00098 52l54 323h97l-54 -323c-2 -11.333 0.5 -21 7.5 -29s17.167 -12 30.5 -12c12.667 0 23.834 4 33.501 12s15.5 17.667 17.5 29l29 172h97l-29 -172
c-2 -11.333 0.5 -21 7.5 -29s17.167 -12 30.5 -12c12.667 0 24 4 34 12s16 17.667 18 29l32 192c2.66699 15.333 1.5 25.5 -3.5 30.5s-12.167 7.5 -21.5 7.5h-59l14 83h64c10.667 0 18 0.166992 22 0.5s6.66699 4.16602 8 11.499l6 36h95z" />
    <glyph glyph-name="rulakkhangyao" unicode="&#xf881;" horiz-adv-x="745" 
d="M678 -171h-97.002l76 452c8.66699 58 -14.666 87 -69.999 87c-14 0 -28.167 -2.83301 -42.5 -8.5s-32.166 -17.5 -53.499 -35.5v1c1.33301 -10.667 2.16602 -21.667 2.49902 -33s-0.5 -23 -2.5 -35l-72 -428h-97l73 428c4.66699 32 -2.66602 58.333 -21.999 79
s-48 31 -86 31c-16.667 0 -33.667 -3.5 -51 -10.5s-32.666 -16.167 -45.999 -27.5l19 -25l-35 -214h64l-15 -90h-161l45 272l-39 51c32.667 42 68.834 74.833 108.501 98.5s81.5 35.5 125.5 35.5c32 0 60.667 -5 86 -15s46.666 -23.667 63.999 -41
c28.667 22.667 54.667 37.5 78 44.5s47.666 10.5 72.999 10.5c30.667 0 56.5 -4.5 77.5 -13.5s37.667 -21.333 50 -37s20.5 -33.667 24.5 -54s4 -41.5 0 -63.5z" />
    <glyph glyph-name="lulakkhangyao" unicode="&#xf882;" horiz-adv-x="751" 
d="M684 -171h-97.002l76 452c8.66699 58 -14.666 87 -69.999 87c-15.333 0 -30.166 -2.83301 -44.499 -8.5s-31.166 -17.167 -50.499 -34.5c1.33301 -10.667 2.16602 -21.667 2.49902 -33s-0.5 -23 -2.5 -35l-72 -428h-96l72 428c4.66699 32 -2.66602 58.333 -21.999 79
s-48 31 -86 31c-16.667 0 -33.5 -3.5 -50.5 -10.5s-32.5 -16.167 -46.5 -27.5l19 -25l-50 -304h-139l15 90h42l30 182l-39 51c32 42 68 74.833 108 98.5s82 35.5 126 35.5c32 0 60.5 -5 85.5 -15s46.167 -23.667 63.5 -41c28.667 22.667 54.667 37.5 78 44.5
s47.666 10.5 72.999 10.5c30.667 0 56.5 -4.5 77.5 -13.5s37.667 -21.333 50 -37s20.5 -33.667 24.5 -54s4 -41.5 0 -63.5z" />
    <glyph glyph-name=".null" 
 />
    <glyph glyph-name="nonmarkingreturn" horiz-adv-x="283" 
 />
    <glyph glyph-name="yamakkanleftthai" 
d="M-61 668c-6.66699 7.33301 -11.666 12.002 -14.999 14.002s-6.66602 3 -9.99902 3c-7.33301 0 -13.666 -2.33301 -18.999 -7s-8.66602 -10.334 -9.99902 -17.001c-1.33301 -6 0.666992 -11.667 6 -17s16.333 -8 33 -8l-10 -59c-16.667 0 -28.334 -2.5 -35.001 -7.5
s-10.667 -10.833 -12 -17.5c-1.33301 -6 0.666992 -11.5 6 -16.5s16.333 -7.5 33 -7.5l-10 -60c-32 0 -55.667 8.16699 -71 24.5s-21 36.166 -17 59.499c1.33301 10.667 4.66602 20.5 9.99902 29.5s11.666 17.167 18.999 24.5c-10.667 14 -14.334 32.333 -11.001 55
c4 23.333 15.5 43 34.5 59s40.167 24 63.5 24c12 0 23 -2.5 33 -7.5s20.667 -14.167 32 -27.5z" />
    <glyph glyph-name="saraamleft" horiz-adv-x="371" 
d="M333 0h-97.001l47 281c8.66699 58 -14.666 87 -69.999 87c-14 0 -28.167 -2.83301 -42.5 -8.5s-32.166 -17.5 -53.499 -35.5l-54 65c32.667 27.333 61.667 45.333 87 54s51.666 13 78.999 13c30.667 0 56.5 -4.5 77.5 -13.5s37.667 -21.333 50 -37s20.5 -33.667 24.5 -54
s4 -41.5 0 -63.5zM-71.001 592c-4.66699 -24.667 -17 -45.667 -37 -63s-42.333 -26 -67 -26s-44.334 8.66699 -59.001 26s-19.667 38.333 -15 63c4 24.667 16 45.667 36 63s42.333 26 67 26s44.334 -8.66699 59.001 -26s20 -38.333 16 -63zM-135.001 591
c1.33301 7.33301 0.000976562 13.666 -3.99902 18.999s-9.66699 8 -17 8s-14 -2.66699 -20 -8s-9.66699 -11.666 -11 -18.999s0.166992 -13.5 4.5 -18.5s10.166 -7.5 17.499 -7.5s13.833 2.5 19.5 7.5s9.16699 11.167 10.5 18.5z" />
    <glyph glyph-name="uni0E33.alt1" horiz-adv-x="371" 
d="M333 0h-97.001l47 281c8.66699 58 -14.666 87 -69.999 87c-14 0 -28.167 -2.83301 -42.5 -8.5s-32.166 -17.5 -53.499 -35.5l-54 65c32.667 27.333 61.667 45.333 87 54s51.666 13 78.999 13c30.667 0 56.5 -4.5 77.5 -13.5s37.667 -21.333 50 -37s20.5 -33.667 24.5 -54
s4 -41.5 0 -63.5zM-71.001 592c-4.66699 -24.667 -17 -45.667 -37 -63s-42.333 -26 -67 -26s-44.334 8.66699 -59.001 26s-19.667 38.333 -15 63c4 24.667 16 45.667 36 63s42.333 26 67 26s44.334 -8.66699 59.001 -26s20 -38.333 16 -63zM-135.001 591
c1.33301 7.33301 0.000976562 13.666 -3.99902 18.999s-9.66699 8 -17 8s-14 -2.66699 -20 -8s-9.66699 -11.666 -11 -18.999s0.166992 -13.5 4.5 -18.5s10.166 -7.5 17.499 -7.5s13.833 2.5 19.5 7.5s9.16699 11.167 10.5 18.5z" />
    <glyph glyph-name="sarainarrowthai" 
d="M-320 510l14 85h367l-14 -85h-367z" />
    <glyph glyph-name="saraiinarrowthai" 
d="M-320 510l14 85h283l10 60h84l-24 -145h-367z" />
    <glyph glyph-name="sarauenarrowthai" 
d="M66 583c-4 -20 -14 -37.166 -30 -51.499s-33.667 -21.5 -53 -21.5h-303l14 85h231c6 17.333 16.5 31.666 31.5 42.999s31.167 17 48.5 17c20 0 36 -7 48 -21s16.333 -31 13 -51zM17 582.001c1.33301 6.66699 0 12.334 -4 17.001s-9 7 -15 7
c-6.66699 0 -12.667 -2.33301 -18 -7s-8.66602 -10.334 -9.99902 -17.001s0 -12.334 4 -17.001s9.33301 -7 16 -7c6 0 11.667 2.33301 17 7s8.66602 10.334 9.99902 17.001z" />
    <glyph glyph-name="saraueenarrowthai" 
d="M-320 510l14 85h167l10 60h80l-10 -60h40l10 60h80l-24 -145h-367z" />
    <glyph glyph-name="sarauchochanthai" 
d="M-255 -216l15 80h-40l16 92h82c13.333 0 24 -4.83301 32 -14.5s10.667 -21.167 8 -34.5l-22 -123h-91z" />
    <glyph glyph-name="sarauuchochanthai" 
d="M-89 -128c-2.66699 -15.333 -7.83301 -29.1689 -15.5 -41.502s-17 -22.833 -28 -31.5s-23.5 -15.5 -37.5 -20.5s-28.333 -7.5 -43 -7.5c-14 0 -27.5 1.83301 -40.5 5.5s-24.167 9.33398 -33.5 17.001s-16.333 17.334 -21 29.001s-5.66699 25.5 -3 41.5h-40l15 91h129
l-14 -85c-1.33301 -6 0 -10.667 4 -14s8.66699 -5 14 -5c12.667 0 20.667 6.33301 24 19l14 85h90l-14 -84v1z" />
    </font>
</defs>
</svg>
